G04 #@! TF.GenerationSoftware,KiCad,Pcbnew,(5.1.4-0-10_14)*
G04 #@! TF.CreationDate,2020-10-01T04:07:51-07:00*
G04 #@! TF.ProjectId,mpm62-kb-right,6d706d36-322d-46b6-922d-72696768742e,rev?*
G04 #@! TF.SameCoordinates,Original*
G04 #@! TF.FileFunction,Profile,NP*
%FSLAX46Y46*%
G04 Gerber Fmt 4.6, Leading zero omitted, Abs format (unit mm)*
G04 Created by KiCad (PCBNEW (5.1.4-0-10_14)) date 2020-10-01 04:07:51*
%MOMM*%
%LPD*%
G04 APERTURE LIST*
%ADD10C,0.050000*%
G04 APERTURE END LIST*
D10*
X58737500Y-123825000D02*
X60325000Y-123825000D01*
X58737500Y-142875000D02*
X63500000Y-142875000D01*
X57150000Y-125412500D02*
X57150000Y-141287500D01*
X61912500Y-106362500D02*
X61912500Y-122237500D01*
X61912500Y-122237500D02*
G75*
G02X60325000Y-123825000I-1587500J0D01*
G01*
X57150000Y-125412500D02*
G75*
G02X58737500Y-123825000I1587500J0D01*
G01*
X58737500Y-142875000D02*
G75*
G02X57150000Y-141287500I0J1587500D01*
G01*
X57150000Y-65087500D02*
X57150000Y-49212500D01*
X49212500Y-66675000D02*
X55562500Y-66675000D01*
X47625000Y-84137500D02*
X47625000Y-68262500D01*
X50800000Y-85725000D02*
X49212500Y-85725000D01*
X52387500Y-103187500D02*
X52387500Y-87312500D01*
X60325000Y-104775000D02*
X53975000Y-104775000D01*
X207962500Y-142875000D02*
X63500000Y-142875000D01*
X209550000Y-49212500D02*
X209550000Y-141287500D01*
X58737500Y-47625000D02*
X207962500Y-47625000D01*
X207962500Y-47625000D02*
G75*
G02X209550000Y-49212500I0J-1587500D01*
G01*
X209550000Y-141287500D02*
G75*
G02X207962500Y-142875000I-1587500J0D01*
G01*
X60325000Y-104775000D02*
G75*
G02X61912500Y-106362500I0J-1587500D01*
G01*
X53975000Y-104775000D02*
G75*
G02X52387500Y-103187500I0J1587500D01*
G01*
X50800000Y-85725000D02*
G75*
G02X52387500Y-87312500I0J-1587500D01*
G01*
X49212500Y-85725000D02*
G75*
G02X47625000Y-84137500I0J1587500D01*
G01*
X47625000Y-68262500D02*
G75*
G02X49212500Y-66675000I1587500J0D01*
G01*
X57150000Y-65087500D02*
G75*
G02X55562500Y-66675000I-1587500J0D01*
G01*
X57150000Y-49212500D02*
G75*
G02X58737500Y-47625000I1587500J0D01*
G01*
M02*
