M48
; DRILL file {KiCad (5.1.4-0-10_14)} date Thursday, October 01, 2020 at 04:08:04 AM
; FORMAT={-:-/ absolute / inch / decimal}
; #@! TF.CreationDate,2020-10-01T04:08:04-07:00
; #@! TF.GenerationSoftware,Kicad,Pcbnew,(5.1.4-0-10_14)
; #@! TF.FileFunction,Plated,1,2,PTH
FMAT,2
INCH
T1C0.0157
T2C0.0276
T3C0.0315
T4C0.0354
T5C0.0394
T6C0.0579
%
G90
G05
T1
X6.6181Y-4.115
X6.6213Y-4.9024
X6.6219Y-3.5569
X6.71Y-4.06
X6.83Y-4.02
X6.8693Y-4.961
X6.8732Y-4.7587
T2
X6.71Y-3.41
X6.71Y-3.61
X4.53Y-4.96
X4.53Y-5.16
T3
X4.26Y-3.64
X5.49Y-4.28
X5.49Y-4.58
X4.26Y-3.94
X4.07Y-2.89
X4.07Y-3.19
X3.89Y-4.39
X3.89Y-4.69
X5.31Y-5.1
X5.31Y-5.4
X2.765Y-3.64
X2.765Y-3.94
X2.95Y-2.14
X2.95Y-2.44
X4.45Y-2.14
X4.45Y-2.44
X5.39Y-4.39
X5.39Y-4.69
X2.57Y-2.89
X2.57Y-3.19
X6.7Y-2.14
X6.7Y-2.44
X4.83Y-2.89
X4.83Y-3.19
X5.57Y-5.1
X5.57Y-5.4
X7.54Y-4.41
X7.54Y-4.71
X4.64Y-4.39
X3.52Y-3.64
X5.02Y-3.64
X5.02Y-3.94
X4.64Y-4.69
X3.33Y-2.89
X3.33Y-3.19
X5.19Y-2.14
X5.19Y-2.44
X3.52Y-3.94
X7.725Y-3.64
X7.725Y-3.94
X5.76Y-3.94
X5.575Y-2.89
X5.575Y-3.19
X3.14Y-4.69
X8.02Y-2.89
X8.02Y-3.19
X5.76Y-3.64
X6.51Y-3.64
X6.51Y-3.94
X3.71Y-5.1
X3.71Y-5.4
X3.14Y-4.39
X3.7Y-2.14
X7.815Y-2.14
X7.18Y-5.4
X3.7Y-2.44
X7.815Y-2.44
X8.12Y-5.1
X8.12Y-5.4
X6.33Y-2.89
X6.33Y-3.19
X7.18Y-5.1
X5.95Y-2.14
X5.95Y-2.44
X7.08Y-2.89
X7.08Y-3.19
T4
X3.32Y-5.44
X3.42Y-5.44
T5
X6.23Y-4.16
X6.23Y-4.26
X6.23Y-4.36
X6.23Y-4.46
X6.23Y-4.56
X6.23Y-4.66
X6.23Y-4.76
X6.23Y-4.86
X6.23Y-4.96
X6.23Y-5.06
X6.23Y-5.16
X6.23Y-5.26
X6.23Y-5.36
X6.23Y-5.46
X6.53Y-4.16
X6.53Y-4.26
X6.53Y-4.36
X6.53Y-4.46
X6.53Y-4.56
X6.53Y-4.66
X6.53Y-4.76
X6.53Y-4.86
X6.53Y-4.96
X6.53Y-5.06
X6.53Y-5.16
X6.53Y-5.26
X6.53Y-5.36
X6.53Y-5.46
X2.878Y-5.0909
X2.878Y-5.1909
X2.878Y-5.2909
X2.878Y-5.3909
T6
X5.7562Y-5.15
X5.8078Y-5.0925
X6.0047Y-5.0728
X6.0062Y-5.05
X7.6312Y-5.15
X7.6828Y-5.0925
X7.8797Y-5.0728
X7.8812Y-5.05
X3.225Y-5.15
X3.2766Y-5.0925
X3.4734Y-5.0728
X3.475Y-5.05
X7.5375Y-2.9
X7.5891Y-2.8425
X7.7859Y-2.8228
X7.7875Y-2.8
X5.2875Y-3.65
X5.3391Y-3.5925
X5.5375Y-3.55
X4.35Y-2.9
X4.4016Y-2.8425
X4.5984Y-2.8228
X4.6Y-2.8
X2.85Y-2.9
X2.9016Y-2.8425
X3.0984Y-2.8228
X3.1Y-2.8
X3.4125Y-4.4
X3.4641Y-4.3425
X3.6609Y-4.3228
X3.6625Y-4.3
X6.0375Y-3.65
X6.0891Y-3.5925
X6.2859Y-3.5728
X6.2875Y-3.55
X5.5359Y-3.5728
X6.6937Y-5.15
X6.7453Y-5.0925
X6.9422Y-5.0728
X6.9437Y-5.05
X2.3391Y-3.5925
X2.2875Y-3.65
X2.5359Y-3.5728
X2.5375Y-3.55
X4.725Y-2.15
X4.7766Y-2.0925
X4.975Y-2.05
X6.225Y-2.15
X6.2766Y-2.0925
X6.4734Y-2.0728
X6.475Y-2.05
X4.9734Y-2.0728
X5.475Y-2.15
X5.5266Y-2.0925
X5.7234Y-2.0728
X5.725Y-2.05
X7.0687Y-4.4
X7.1203Y-4.3425
X7.3172Y-4.3228
X7.3187Y-4.3
X3.6Y-2.9
X3.6516Y-2.8425
X3.8484Y-2.8228
X3.85Y-2.8
X4.9125Y-4.4
X4.9641Y-4.3425
X5.1609Y-4.3228
X5.1625Y-4.3
X4.5375Y-3.65
X4.5891Y-3.5925
X4.7859Y-3.5728
X4.7875Y-3.55
X3.0375Y-3.65
X3.0891Y-3.5925
X3.2859Y-3.5728
X5.6625Y-4.4
X5.7141Y-4.3425
X5.9125Y-4.3
X3.2875Y-3.55
X7.2562Y-3.65
X7.5062Y-3.55
X5.9109Y-4.3228
X7.3078Y-3.5925
X7.5047Y-3.5728
X5.1Y-2.9
X5.1516Y-2.8425
X5.3484Y-2.8228
X5.35Y-2.8
X6.8484Y-2.8228
X5.9016Y-2.8425
X6.6Y-2.9
X6.6516Y-2.8425
X6.85Y-2.8
X7.5984Y-2.0728
X3.975Y-2.15
X4.0266Y-2.0925
X4.2234Y-2.0728
X4.225Y-2.05
X5.85Y-2.9
X7.35Y-2.15
X7.4016Y-2.0925
X6.0984Y-2.8228
X6.1Y-2.8
X7.6Y-2.05
X4.8187Y-5.15
X4.0359Y-3.5728
X3.7875Y-3.65
X3.8391Y-3.5925
X4.0375Y-3.55
X4.8703Y-5.0925
X4.1625Y-4.4
X4.2141Y-4.3425
X4.4109Y-4.3228
X4.4125Y-4.3
X5.0672Y-5.0728
X5.0687Y-5.05
X2.475Y-2.15
X2.5266Y-2.0925
X2.7234Y-2.0728
X2.725Y-2.05
X3.225Y-2.15
X3.2766Y-2.0925
X3.4734Y-2.0728
X3.475Y-2.05
X2.6625Y-4.4
X2.7141Y-4.3425
X2.9109Y-4.3228
X2.9125Y-4.3
X2.1Y-2.9
X2.1516Y-2.8425
X2.3484Y-2.8228
X2.35Y-2.8
T0
M30
