M48
; DRILL file {KiCad (5.1.4-0-10_14)} date Thursday, October 01, 2020 at 04:08:04 AM
; FORMAT={-:-/ absolute / inch / decimal}
; #@! TF.CreationDate,2020-10-01T04:08:04-07:00
; #@! TF.GenerationSoftware,Kicad,Pcbnew,(5.1.4-0-10_14)
; #@! TF.FileFunction,NonPlated,1,2,NPTH
FMAT,2
INCH
T1C0.0689
T2C0.1200
T3C0.1570
%
G90
G05
T1
X6.6437Y-5.25
X7.0438Y-5.25
X3.175Y-5.25
X3.575Y-5.25
X2.8Y-3.0
X7.4875Y-3.0
X7.8875Y-3.0
X3.2Y-3.0
X3.3625Y-4.5
X3.7625Y-4.5
X6.175Y-2.25
X6.575Y-2.25
X4.675Y-2.25
X5.075Y-2.25
X7.4188Y-4.5
X7.0187Y-4.5
X3.55Y-3.0
X5.425Y-2.25
X5.825Y-2.25
X4.8625Y-4.5
X5.2625Y-4.5
X4.8875Y-3.75
X2.6375Y-3.75
X4.4875Y-3.75
X2.9875Y-3.75
X3.3875Y-3.75
X7.2062Y-3.75
X7.6063Y-3.75
X5.6125Y-4.5
X6.0125Y-4.5
X3.95Y-3.0
X2.2375Y-3.75
X5.05Y-3.0
X5.45Y-3.0
X3.925Y-2.25
X4.325Y-2.25
X5.8Y-3.0
X6.2Y-3.0
X2.425Y-2.25
X2.825Y-2.25
X6.55Y-3.0
X6.95Y-3.0
X3.7375Y-3.75
X4.1375Y-3.75
X7.3Y-2.25
X7.7Y-2.25
X5.7062Y-5.25
X6.1063Y-5.25
X4.1125Y-4.5
X4.5125Y-4.5
X2.6125Y-4.5
X3.0125Y-4.5
X4.7687Y-5.25
X5.1688Y-5.25
X5.2375Y-3.75
X2.05Y-3.0
X2.45Y-3.0
X3.575Y-2.25
X5.9875Y-3.75
X6.3875Y-3.75
X7.5812Y-5.25
X3.175Y-2.25
X5.6375Y-3.75
X4.3Y-3.0
X4.7Y-3.0
X7.9813Y-5.25
T2
X6.7488Y-4.225
X7.6887Y-4.225
X6.9363Y-3.475
X7.8762Y-3.475
X7.03Y-1.975
X7.97Y-1.975
X2.625Y-4.975
X4.125Y-4.975
T3
X5.625Y-2.25
X2.4375Y-3.75
X5.8125Y-4.5
X6.7488Y-4.825
X7.2188Y-4.5
X7.6887Y-4.825
X3.75Y-3.0
X5.0625Y-4.5
X4.6875Y-3.75
X3.1875Y-3.75
X6.9363Y-4.075
X7.4062Y-3.75
X7.8762Y-4.075
X7.03Y-2.575
X7.5Y-2.25
X4.125Y-2.25
X2.625Y-2.25
X7.97Y-2.575
X5.25Y-3.0
X6.75Y-3.0
X6.0Y-3.0
X4.9688Y-5.25
X3.9375Y-3.75
X4.3125Y-4.5
X4.5Y-3.0
X3.375Y-2.25
X5.4375Y-3.75
X2.25Y-3.0
X5.9062Y-5.25
X3.5625Y-4.5
X6.1875Y-3.75
X7.7812Y-5.25
X2.8125Y-4.5
X3.0Y-3.0
X4.875Y-2.25
X6.8438Y-5.25
X2.625Y-5.575
X3.375Y-5.25
X4.125Y-5.575
X7.6875Y-3.0
X6.375Y-2.25
T0
M30
