G04 #@! TF.GenerationSoftware,KiCad,Pcbnew,(5.1.4-0-10_14)*
G04 #@! TF.CreationDate,2020-10-01T04:07:51-07:00*
G04 #@! TF.ProjectId,mpm62-kb-right,6d706d36-322d-46b6-922d-72696768742e,rev?*
G04 #@! TF.SameCoordinates,Original*
G04 #@! TF.FileFunction,Legend,Bot*
G04 #@! TF.FilePolarity,Positive*
%FSLAX46Y46*%
G04 Gerber Fmt 4.6, Leading zero omitted, Abs format (unit mm)*
G04 Created by KiCad (PCBNEW (5.1.4-0-10_14)) date 2020-10-01 04:07:51*
%MOMM*%
%LPD*%
G04 APERTURE LIST*
%ADD10C,0.120000*%
%ADD11C,0.100000*%
%ADD12C,0.150000*%
%ADD13C,4.089800*%
%ADD14C,3.150000*%
%ADD15C,1.852000*%
%ADD16C,2.352000*%
%ADD17C,2.352000*%
%ADD18O,1.502000X1.502000*%
%ADD19C,1.502000*%
%ADD20C,1.702000*%
%ADD21R,1.702000X1.702000*%
%ADD22R,1.902000X1.202000*%
%ADD23C,1.902000*%
%ADD24R,1.902000X1.902000*%
%ADD25O,1.802000X1.802000*%
%ADD26R,1.802000X1.802000*%
%ADD27O,1.702000X1.702000*%
G04 APERTURE END LIST*
D10*
X169514000Y-91074000D02*
X169514000Y-87234000D01*
X171354000Y-91074000D02*
X171354000Y-87234000D01*
X115982000Y-126604000D02*
X115982000Y-130444000D01*
X114142000Y-126604000D02*
X114142000Y-130444000D01*
D11*
X158582000Y-102764000D02*
X158982000Y-102764000D01*
X158582000Y-103164000D02*
X158582000Y-102764000D01*
X165662000Y-103764000D02*
X165662000Y-104564000D01*
X164662000Y-102764000D02*
X165662000Y-103764000D01*
X164162000Y-102764000D02*
X164662000Y-102764000D01*
X165662000Y-104564000D02*
X166462000Y-104564000D01*
X165562000Y-140254000D02*
X165162000Y-140254000D01*
X165562000Y-139854000D02*
X165562000Y-140254000D01*
X158562000Y-140254000D02*
X159062000Y-140254000D01*
X158562000Y-139854000D02*
X158562000Y-140254000D01*
D12*
X179257000Y-92904000D02*
X174057000Y-92904000D01*
X174057000Y-92904000D02*
X174057000Y-98104000D01*
X174057000Y-98104000D02*
X179257000Y-98104000D01*
X179257000Y-98104000D02*
X179257000Y-92904000D01*
X177657000Y-95504000D02*
G75*
G03X177657000Y-95504000I-1000000J0D01*
G01*
D10*
X74430000Y-127980000D02*
X73100000Y-127980000D01*
X74430000Y-129310000D02*
X74430000Y-127980000D01*
X74430000Y-130580000D02*
X71770000Y-130580000D01*
X71770000Y-130580000D02*
X71770000Y-138260000D01*
X74430000Y-130580000D02*
X74430000Y-138260000D01*
X74430000Y-138260000D02*
X71770000Y-138260000D01*
X207368000Y-134870000D02*
X205128000Y-134870000D01*
X207368000Y-134630000D02*
X205128000Y-134630000D01*
X207368000Y-134750000D02*
X205128000Y-134750000D01*
X206248000Y-130580000D02*
X206248000Y-131230000D01*
X206248000Y-136120000D02*
X206248000Y-135470000D01*
X207368000Y-131230000D02*
X207368000Y-135470000D01*
X205128000Y-131230000D02*
X207368000Y-131230000D01*
X205128000Y-135470000D02*
X205128000Y-131230000D01*
X207368000Y-135470000D02*
X205128000Y-135470000D01*
X192636000Y-117344000D02*
X190396000Y-117344000D01*
X192636000Y-117104000D02*
X190396000Y-117104000D01*
X192636000Y-117224000D02*
X190396000Y-117224000D01*
X191516000Y-113054000D02*
X191516000Y-113704000D01*
X191516000Y-118594000D02*
X191516000Y-117944000D01*
X192636000Y-113704000D02*
X192636000Y-117944000D01*
X190396000Y-113704000D02*
X192636000Y-113704000D01*
X190396000Y-117944000D02*
X190396000Y-113704000D01*
X192636000Y-117944000D02*
X190396000Y-117944000D01*
X197335000Y-97786000D02*
X195095000Y-97786000D01*
X197335000Y-97546000D02*
X195095000Y-97546000D01*
X197335000Y-97666000D02*
X195095000Y-97666000D01*
X196215000Y-93496000D02*
X196215000Y-94146000D01*
X196215000Y-99036000D02*
X196215000Y-98386000D01*
X197335000Y-94146000D02*
X197335000Y-98386000D01*
X195095000Y-94146000D02*
X197335000Y-94146000D01*
X195095000Y-98386000D02*
X195095000Y-94146000D01*
X197335000Y-98386000D02*
X195095000Y-98386000D01*
X204828000Y-78736000D02*
X202588000Y-78736000D01*
X204828000Y-78496000D02*
X202588000Y-78496000D01*
X204828000Y-78616000D02*
X202588000Y-78616000D01*
X203708000Y-74446000D02*
X203708000Y-75096000D01*
X203708000Y-79986000D02*
X203708000Y-79336000D01*
X204828000Y-75096000D02*
X204828000Y-79336000D01*
X202588000Y-75096000D02*
X204828000Y-75096000D01*
X202588000Y-79336000D02*
X202588000Y-75096000D01*
X204828000Y-79336000D02*
X202588000Y-79336000D01*
X199621000Y-59686000D02*
X197381000Y-59686000D01*
X199621000Y-59446000D02*
X197381000Y-59446000D01*
X199621000Y-59566000D02*
X197381000Y-59566000D01*
X198501000Y-55396000D02*
X198501000Y-56046000D01*
X198501000Y-60936000D02*
X198501000Y-60286000D01*
X199621000Y-56046000D02*
X199621000Y-60286000D01*
X197381000Y-56046000D02*
X199621000Y-56046000D01*
X197381000Y-60286000D02*
X197381000Y-56046000D01*
X199621000Y-60286000D02*
X197381000Y-60286000D01*
X183492000Y-134870000D02*
X181252000Y-134870000D01*
X183492000Y-134630000D02*
X181252000Y-134630000D01*
X183492000Y-134750000D02*
X181252000Y-134750000D01*
X182372000Y-130580000D02*
X182372000Y-131230000D01*
X182372000Y-136120000D02*
X182372000Y-135470000D01*
X183492000Y-131230000D02*
X183492000Y-135470000D01*
X181252000Y-131230000D02*
X183492000Y-131230000D01*
X181252000Y-135470000D02*
X181252000Y-131230000D01*
X183492000Y-135470000D02*
X181252000Y-135470000D01*
X180952000Y-78736000D02*
X178712000Y-78736000D01*
X180952000Y-78496000D02*
X178712000Y-78496000D01*
X180952000Y-78616000D02*
X178712000Y-78616000D01*
X179832000Y-74446000D02*
X179832000Y-75096000D01*
X179832000Y-79986000D02*
X179832000Y-79336000D01*
X180952000Y-75096000D02*
X180952000Y-79336000D01*
X178712000Y-75096000D02*
X180952000Y-75096000D01*
X178712000Y-79336000D02*
X178712000Y-75096000D01*
X180952000Y-79336000D02*
X178712000Y-79336000D01*
X171300000Y-59686000D02*
X169060000Y-59686000D01*
X171300000Y-59446000D02*
X169060000Y-59446000D01*
X171300000Y-59566000D02*
X169060000Y-59566000D01*
X170180000Y-55396000D02*
X170180000Y-56046000D01*
X170180000Y-60936000D02*
X170180000Y-60286000D01*
X171300000Y-56046000D02*
X171300000Y-60286000D01*
X169060000Y-56046000D02*
X171300000Y-56046000D01*
X169060000Y-60286000D02*
X169060000Y-56046000D01*
X171300000Y-60286000D02*
X169060000Y-60286000D01*
X142598000Y-134870000D02*
X140358000Y-134870000D01*
X142598000Y-134630000D02*
X140358000Y-134630000D01*
X142598000Y-134750000D02*
X140358000Y-134750000D01*
X141478000Y-130580000D02*
X141478000Y-131230000D01*
X141478000Y-136120000D02*
X141478000Y-135470000D01*
X142598000Y-131230000D02*
X142598000Y-135470000D01*
X140358000Y-131230000D02*
X142598000Y-131230000D01*
X140358000Y-135470000D02*
X140358000Y-131230000D01*
X142598000Y-135470000D02*
X140358000Y-135470000D01*
X140566000Y-114042000D02*
X138326000Y-114042000D01*
X140566000Y-113802000D02*
X138326000Y-113802000D01*
X140566000Y-113922000D02*
X138326000Y-113922000D01*
X139446000Y-109752000D02*
X139446000Y-110402000D01*
X139446000Y-115292000D02*
X139446000Y-114642000D01*
X140566000Y-110402000D02*
X140566000Y-114642000D01*
X138326000Y-110402000D02*
X140566000Y-110402000D01*
X138326000Y-114642000D02*
X138326000Y-110402000D01*
X140566000Y-114642000D02*
X138326000Y-114642000D01*
X166474000Y-97786000D02*
X164234000Y-97786000D01*
X166474000Y-97546000D02*
X164234000Y-97546000D01*
X166474000Y-97666000D02*
X164234000Y-97666000D01*
X165354000Y-93496000D02*
X165354000Y-94146000D01*
X165354000Y-99036000D02*
X165354000Y-98386000D01*
X166474000Y-94146000D02*
X166474000Y-98386000D01*
X164234000Y-94146000D02*
X166474000Y-94146000D01*
X164234000Y-98386000D02*
X164234000Y-94146000D01*
X166474000Y-98386000D02*
X164234000Y-98386000D01*
X161902000Y-78736000D02*
X159662000Y-78736000D01*
X161902000Y-78496000D02*
X159662000Y-78496000D01*
X161902000Y-78616000D02*
X159662000Y-78616000D01*
X160782000Y-74446000D02*
X160782000Y-75096000D01*
X160782000Y-79986000D02*
X160782000Y-79336000D01*
X161902000Y-75096000D02*
X161902000Y-79336000D01*
X159662000Y-75096000D02*
X161902000Y-75096000D01*
X159662000Y-79336000D02*
X159662000Y-75096000D01*
X161902000Y-79336000D02*
X159662000Y-79336000D01*
X152250000Y-59686000D02*
X150010000Y-59686000D01*
X152250000Y-59446000D02*
X150010000Y-59446000D01*
X152250000Y-59566000D02*
X150010000Y-59566000D01*
X151130000Y-55396000D02*
X151130000Y-56046000D01*
X151130000Y-60936000D02*
X151130000Y-60286000D01*
X152250000Y-56046000D02*
X152250000Y-60286000D01*
X150010000Y-56046000D02*
X152250000Y-56046000D01*
X150010000Y-60286000D02*
X150010000Y-56046000D01*
X152250000Y-60286000D02*
X150010000Y-60286000D01*
X135994000Y-134870000D02*
X133754000Y-134870000D01*
X135994000Y-134630000D02*
X133754000Y-134630000D01*
X135994000Y-134750000D02*
X133754000Y-134750000D01*
X134874000Y-130580000D02*
X134874000Y-131230000D01*
X134874000Y-136120000D02*
X134874000Y-135470000D01*
X135994000Y-131230000D02*
X135994000Y-135470000D01*
X133754000Y-131230000D02*
X135994000Y-131230000D01*
X133754000Y-135470000D02*
X133754000Y-131230000D01*
X135994000Y-135470000D02*
X133754000Y-135470000D01*
X138026000Y-116836000D02*
X135786000Y-116836000D01*
X138026000Y-116596000D02*
X135786000Y-116596000D01*
X138026000Y-116716000D02*
X135786000Y-116716000D01*
X136906000Y-112546000D02*
X136906000Y-113196000D01*
X136906000Y-118086000D02*
X136906000Y-117436000D01*
X138026000Y-113196000D02*
X138026000Y-117436000D01*
X135786000Y-113196000D02*
X138026000Y-113196000D01*
X135786000Y-117436000D02*
X135786000Y-113196000D01*
X138026000Y-117436000D02*
X135786000Y-117436000D01*
X147424000Y-97786000D02*
X145184000Y-97786000D01*
X147424000Y-97546000D02*
X145184000Y-97546000D01*
X147424000Y-97666000D02*
X145184000Y-97666000D01*
X146304000Y-93496000D02*
X146304000Y-94146000D01*
X146304000Y-99036000D02*
X146304000Y-98386000D01*
X147424000Y-94146000D02*
X147424000Y-98386000D01*
X145184000Y-94146000D02*
X147424000Y-94146000D01*
X145184000Y-98386000D02*
X145184000Y-94146000D01*
X147424000Y-98386000D02*
X145184000Y-98386000D01*
X142725000Y-78736000D02*
X140485000Y-78736000D01*
X142725000Y-78496000D02*
X140485000Y-78496000D01*
X142725000Y-78616000D02*
X140485000Y-78616000D01*
X141605000Y-74446000D02*
X141605000Y-75096000D01*
X141605000Y-79986000D02*
X141605000Y-79336000D01*
X142725000Y-75096000D02*
X142725000Y-79336000D01*
X140485000Y-75096000D02*
X142725000Y-75096000D01*
X140485000Y-79336000D02*
X140485000Y-75096000D01*
X142725000Y-79336000D02*
X140485000Y-79336000D01*
X132946000Y-59686000D02*
X130706000Y-59686000D01*
X132946000Y-59446000D02*
X130706000Y-59446000D01*
X132946000Y-59566000D02*
X130706000Y-59566000D01*
X131826000Y-55396000D02*
X131826000Y-56046000D01*
X131826000Y-60936000D02*
X131826000Y-60286000D01*
X132946000Y-56046000D02*
X132946000Y-60286000D01*
X130706000Y-56046000D02*
X132946000Y-56046000D01*
X130706000Y-60286000D02*
X130706000Y-56046000D01*
X132946000Y-60286000D02*
X130706000Y-60286000D01*
X118976000Y-116836000D02*
X116736000Y-116836000D01*
X118976000Y-116596000D02*
X116736000Y-116596000D01*
X118976000Y-116716000D02*
X116736000Y-116716000D01*
X117856000Y-112546000D02*
X117856000Y-113196000D01*
X117856000Y-118086000D02*
X117856000Y-117436000D01*
X118976000Y-113196000D02*
X118976000Y-117436000D01*
X116736000Y-113196000D02*
X118976000Y-113196000D01*
X116736000Y-117436000D02*
X116736000Y-113196000D01*
X118976000Y-117436000D02*
X116736000Y-117436000D01*
X128628000Y-97786000D02*
X126388000Y-97786000D01*
X128628000Y-97546000D02*
X126388000Y-97546000D01*
X128628000Y-97666000D02*
X126388000Y-97666000D01*
X127508000Y-93496000D02*
X127508000Y-94146000D01*
X127508000Y-99036000D02*
X127508000Y-98386000D01*
X128628000Y-94146000D02*
X128628000Y-98386000D01*
X126388000Y-94146000D02*
X128628000Y-94146000D01*
X126388000Y-98386000D02*
X126388000Y-94146000D01*
X128628000Y-98386000D02*
X126388000Y-98386000D01*
X123802000Y-78736000D02*
X121562000Y-78736000D01*
X123802000Y-78496000D02*
X121562000Y-78496000D01*
X123802000Y-78616000D02*
X121562000Y-78616000D01*
X122682000Y-74446000D02*
X122682000Y-75096000D01*
X122682000Y-79986000D02*
X122682000Y-79336000D01*
X123802000Y-75096000D02*
X123802000Y-79336000D01*
X121562000Y-75096000D02*
X123802000Y-75096000D01*
X121562000Y-79336000D02*
X121562000Y-75096000D01*
X123802000Y-79336000D02*
X121562000Y-79336000D01*
X114150000Y-59686000D02*
X111910000Y-59686000D01*
X114150000Y-59446000D02*
X111910000Y-59446000D01*
X114150000Y-59566000D02*
X111910000Y-59566000D01*
X113030000Y-55396000D02*
X113030000Y-56046000D01*
X113030000Y-60936000D02*
X113030000Y-60286000D01*
X114150000Y-56046000D02*
X114150000Y-60286000D01*
X111910000Y-56046000D02*
X114150000Y-56046000D01*
X111910000Y-60286000D02*
X111910000Y-56046000D01*
X114150000Y-60286000D02*
X111910000Y-60286000D01*
X99926000Y-116836000D02*
X97686000Y-116836000D01*
X99926000Y-116596000D02*
X97686000Y-116596000D01*
X99926000Y-116716000D02*
X97686000Y-116716000D01*
X98806000Y-112546000D02*
X98806000Y-113196000D01*
X98806000Y-118086000D02*
X98806000Y-117436000D01*
X99926000Y-113196000D02*
X99926000Y-117436000D01*
X97686000Y-113196000D02*
X99926000Y-113196000D01*
X97686000Y-117436000D02*
X97686000Y-113196000D01*
X99926000Y-117436000D02*
X97686000Y-117436000D01*
X109324000Y-97786000D02*
X107084000Y-97786000D01*
X109324000Y-97546000D02*
X107084000Y-97546000D01*
X109324000Y-97666000D02*
X107084000Y-97666000D01*
X108204000Y-93496000D02*
X108204000Y-94146000D01*
X108204000Y-99036000D02*
X108204000Y-98386000D01*
X109324000Y-94146000D02*
X109324000Y-98386000D01*
X107084000Y-94146000D02*
X109324000Y-94146000D01*
X107084000Y-98386000D02*
X107084000Y-94146000D01*
X109324000Y-98386000D02*
X107084000Y-98386000D01*
X104498000Y-78736000D02*
X102258000Y-78736000D01*
X104498000Y-78496000D02*
X102258000Y-78496000D01*
X104498000Y-78616000D02*
X102258000Y-78616000D01*
X103378000Y-74446000D02*
X103378000Y-75096000D01*
X103378000Y-79986000D02*
X103378000Y-79336000D01*
X104498000Y-75096000D02*
X104498000Y-79336000D01*
X102258000Y-75096000D02*
X104498000Y-75096000D01*
X102258000Y-79336000D02*
X102258000Y-75096000D01*
X104498000Y-79336000D02*
X102258000Y-79336000D01*
X95100000Y-59686000D02*
X92860000Y-59686000D01*
X95100000Y-59446000D02*
X92860000Y-59446000D01*
X95100000Y-59566000D02*
X92860000Y-59566000D01*
X93980000Y-55396000D02*
X93980000Y-56046000D01*
X93980000Y-60936000D02*
X93980000Y-60286000D01*
X95100000Y-56046000D02*
X95100000Y-60286000D01*
X92860000Y-56046000D02*
X95100000Y-56046000D01*
X92860000Y-60286000D02*
X92860000Y-56046000D01*
X95100000Y-60286000D02*
X92860000Y-60286000D01*
X95354000Y-134870000D02*
X93114000Y-134870000D01*
X95354000Y-134630000D02*
X93114000Y-134630000D01*
X95354000Y-134750000D02*
X93114000Y-134750000D01*
X94234000Y-130580000D02*
X94234000Y-131230000D01*
X94234000Y-136120000D02*
X94234000Y-135470000D01*
X95354000Y-131230000D02*
X95354000Y-135470000D01*
X93114000Y-131230000D02*
X95354000Y-131230000D01*
X93114000Y-135470000D02*
X93114000Y-131230000D01*
X95354000Y-135470000D02*
X93114000Y-135470000D01*
X80876000Y-116836000D02*
X78636000Y-116836000D01*
X80876000Y-116596000D02*
X78636000Y-116596000D01*
X80876000Y-116716000D02*
X78636000Y-116716000D01*
X79756000Y-112546000D02*
X79756000Y-113196000D01*
X79756000Y-118086000D02*
X79756000Y-117436000D01*
X80876000Y-113196000D02*
X80876000Y-117436000D01*
X78636000Y-113196000D02*
X80876000Y-113196000D01*
X78636000Y-117436000D02*
X78636000Y-113196000D01*
X80876000Y-117436000D02*
X78636000Y-117436000D01*
X90528000Y-97786000D02*
X88288000Y-97786000D01*
X90528000Y-97546000D02*
X88288000Y-97546000D01*
X90528000Y-97666000D02*
X88288000Y-97666000D01*
X89408000Y-93496000D02*
X89408000Y-94146000D01*
X89408000Y-99036000D02*
X89408000Y-98386000D01*
X90528000Y-94146000D02*
X90528000Y-98386000D01*
X88288000Y-94146000D02*
X90528000Y-94146000D01*
X88288000Y-98386000D02*
X88288000Y-94146000D01*
X90528000Y-98386000D02*
X88288000Y-98386000D01*
X85702000Y-78736000D02*
X83462000Y-78736000D01*
X85702000Y-78496000D02*
X83462000Y-78496000D01*
X85702000Y-78616000D02*
X83462000Y-78616000D01*
X84582000Y-74446000D02*
X84582000Y-75096000D01*
X84582000Y-79986000D02*
X84582000Y-79336000D01*
X85702000Y-75096000D02*
X85702000Y-79336000D01*
X83462000Y-75096000D02*
X85702000Y-75096000D01*
X83462000Y-79336000D02*
X83462000Y-75096000D01*
X85702000Y-79336000D02*
X83462000Y-79336000D01*
X76050000Y-59686000D02*
X73810000Y-59686000D01*
X76050000Y-59446000D02*
X73810000Y-59446000D01*
X76050000Y-59566000D02*
X73810000Y-59566000D01*
X74930000Y-55396000D02*
X74930000Y-56046000D01*
X74930000Y-60936000D02*
X74930000Y-60286000D01*
X76050000Y-56046000D02*
X76050000Y-60286000D01*
X73810000Y-56046000D02*
X76050000Y-56046000D01*
X73810000Y-60286000D02*
X73810000Y-56046000D01*
X76050000Y-60286000D02*
X73810000Y-60286000D01*
X71351000Y-97786000D02*
X69111000Y-97786000D01*
X71351000Y-97546000D02*
X69111000Y-97546000D01*
X71351000Y-97666000D02*
X69111000Y-97666000D01*
X70231000Y-93496000D02*
X70231000Y-94146000D01*
X70231000Y-99036000D02*
X70231000Y-98386000D01*
X71351000Y-94146000D02*
X71351000Y-98386000D01*
X69111000Y-94146000D02*
X71351000Y-94146000D01*
X69111000Y-98386000D02*
X69111000Y-94146000D01*
X71351000Y-98386000D02*
X69111000Y-98386000D01*
X66398000Y-78736000D02*
X64158000Y-78736000D01*
X66398000Y-78496000D02*
X64158000Y-78496000D01*
X66398000Y-78616000D02*
X64158000Y-78616000D01*
X65278000Y-74446000D02*
X65278000Y-75096000D01*
X65278000Y-79986000D02*
X65278000Y-79336000D01*
X66398000Y-75096000D02*
X66398000Y-79336000D01*
X64158000Y-75096000D02*
X66398000Y-75096000D01*
X64158000Y-79336000D02*
X64158000Y-75096000D01*
X66398000Y-79336000D02*
X64158000Y-79336000D01*
D12*
X172806380Y-88987333D02*
X172330190Y-88654000D01*
X172806380Y-88415904D02*
X171806380Y-88415904D01*
X171806380Y-88796857D01*
X171854000Y-88892095D01*
X171901619Y-88939714D01*
X171996857Y-88987333D01*
X172139714Y-88987333D01*
X172234952Y-88939714D01*
X172282571Y-88892095D01*
X172330190Y-88796857D01*
X172330190Y-88415904D01*
X171901619Y-89368285D02*
X171854000Y-89415904D01*
X171806380Y-89511142D01*
X171806380Y-89749238D01*
X171854000Y-89844476D01*
X171901619Y-89892095D01*
X171996857Y-89939714D01*
X172092095Y-89939714D01*
X172234952Y-89892095D01*
X172806380Y-89320666D01*
X172806380Y-89939714D01*
X113594380Y-128357333D02*
X113118190Y-128024000D01*
X113594380Y-127785904D02*
X112594380Y-127785904D01*
X112594380Y-128166857D01*
X112642000Y-128262095D01*
X112689619Y-128309714D01*
X112784857Y-128357333D01*
X112927714Y-128357333D01*
X113022952Y-128309714D01*
X113070571Y-128262095D01*
X113118190Y-128166857D01*
X113118190Y-127785904D01*
X113594380Y-129309714D02*
X113594380Y-128738285D01*
X113594380Y-129024000D02*
X112594380Y-129024000D01*
X112737238Y-128928761D01*
X112832476Y-128833523D01*
X112880095Y-128738285D01*
X162573904Y-100836380D02*
X162573904Y-101645904D01*
X162526285Y-101741142D01*
X162478666Y-101788761D01*
X162383428Y-101836380D01*
X162192952Y-101836380D01*
X162097714Y-101788761D01*
X162050095Y-101741142D01*
X162002476Y-101645904D01*
X162002476Y-100836380D01*
X161002476Y-101836380D02*
X161573904Y-101836380D01*
X161288190Y-101836380D02*
X161288190Y-100836380D01*
X161383428Y-100979238D01*
X161478666Y-101074476D01*
X161573904Y-101122095D01*
X177990333Y-99972761D02*
X177847476Y-100020380D01*
X177609380Y-100020380D01*
X177514142Y-99972761D01*
X177466523Y-99925142D01*
X177418904Y-99829904D01*
X177418904Y-99734666D01*
X177466523Y-99639428D01*
X177514142Y-99591809D01*
X177609380Y-99544190D01*
X177799857Y-99496571D01*
X177895095Y-99448952D01*
X177942714Y-99401333D01*
X177990333Y-99306095D01*
X177990333Y-99210857D01*
X177942714Y-99115619D01*
X177895095Y-99068000D01*
X177799857Y-99020380D01*
X177561761Y-99020380D01*
X177418904Y-99068000D01*
X177085571Y-99020380D02*
X176847476Y-100020380D01*
X176657000Y-99306095D01*
X176466523Y-100020380D01*
X176228428Y-99020380D01*
X175323666Y-100020380D02*
X175895095Y-100020380D01*
X175609380Y-100020380D02*
X175609380Y-99020380D01*
X175704619Y-99163238D01*
X175799857Y-99258476D01*
X175895095Y-99306095D01*
X73433333Y-126432380D02*
X73433333Y-127146666D01*
X73480952Y-127289523D01*
X73576190Y-127384761D01*
X73719047Y-127432380D01*
X73814285Y-127432380D01*
X72433333Y-127432380D02*
X73004761Y-127432380D01*
X72719047Y-127432380D02*
X72719047Y-126432380D01*
X72814285Y-126575238D01*
X72909523Y-126670476D01*
X73004761Y-126718095D01*
X208820380Y-132135714D02*
X207820380Y-132135714D01*
X207820380Y-132373809D01*
X207868000Y-132516666D01*
X207963238Y-132611904D01*
X208058476Y-132659523D01*
X208248952Y-132707142D01*
X208391809Y-132707142D01*
X208582285Y-132659523D01*
X208677523Y-132611904D01*
X208772761Y-132516666D01*
X208820380Y-132373809D01*
X208820380Y-132135714D01*
X207820380Y-133040476D02*
X207820380Y-133659523D01*
X208201333Y-133326190D01*
X208201333Y-133469047D01*
X208248952Y-133564285D01*
X208296571Y-133611904D01*
X208391809Y-133659523D01*
X208629904Y-133659523D01*
X208725142Y-133611904D01*
X208772761Y-133564285D01*
X208820380Y-133469047D01*
X208820380Y-133183333D01*
X208772761Y-133088095D01*
X208725142Y-133040476D01*
X207820380Y-133992857D02*
X207820380Y-134611904D01*
X208201333Y-134278571D01*
X208201333Y-134421428D01*
X208248952Y-134516666D01*
X208296571Y-134564285D01*
X208391809Y-134611904D01*
X208629904Y-134611904D01*
X208725142Y-134564285D01*
X208772761Y-134516666D01*
X208820380Y-134421428D01*
X208820380Y-134135714D01*
X208772761Y-134040476D01*
X208725142Y-133992857D01*
X208500380Y-136898095D02*
X207500380Y-136898095D01*
X208500380Y-137469523D02*
X207928952Y-137040952D01*
X207500380Y-137469523D02*
X208071809Y-136898095D01*
X194088380Y-114609714D02*
X193088380Y-114609714D01*
X193088380Y-114847809D01*
X193136000Y-114990666D01*
X193231238Y-115085904D01*
X193326476Y-115133523D01*
X193516952Y-115181142D01*
X193659809Y-115181142D01*
X193850285Y-115133523D01*
X193945523Y-115085904D01*
X194040761Y-114990666D01*
X194088380Y-114847809D01*
X194088380Y-114609714D01*
X193088380Y-115514476D02*
X193088380Y-116133523D01*
X193469333Y-115800190D01*
X193469333Y-115943047D01*
X193516952Y-116038285D01*
X193564571Y-116085904D01*
X193659809Y-116133523D01*
X193897904Y-116133523D01*
X193993142Y-116085904D01*
X194040761Y-116038285D01*
X194088380Y-115943047D01*
X194088380Y-115657333D01*
X194040761Y-115562095D01*
X193993142Y-115514476D01*
X193183619Y-116514476D02*
X193136000Y-116562095D01*
X193088380Y-116657333D01*
X193088380Y-116895428D01*
X193136000Y-116990666D01*
X193183619Y-117038285D01*
X193278857Y-117085904D01*
X193374095Y-117085904D01*
X193516952Y-117038285D01*
X194088380Y-116466857D01*
X194088380Y-117085904D01*
X193768380Y-119372095D02*
X192768380Y-119372095D01*
X193768380Y-119943523D02*
X193196952Y-119514952D01*
X192768380Y-119943523D02*
X193339809Y-119372095D01*
X198787380Y-95051714D02*
X197787380Y-95051714D01*
X197787380Y-95289809D01*
X197835000Y-95432666D01*
X197930238Y-95527904D01*
X198025476Y-95575523D01*
X198215952Y-95623142D01*
X198358809Y-95623142D01*
X198549285Y-95575523D01*
X198644523Y-95527904D01*
X198739761Y-95432666D01*
X198787380Y-95289809D01*
X198787380Y-95051714D01*
X197787380Y-95956476D02*
X197787380Y-96575523D01*
X198168333Y-96242190D01*
X198168333Y-96385047D01*
X198215952Y-96480285D01*
X198263571Y-96527904D01*
X198358809Y-96575523D01*
X198596904Y-96575523D01*
X198692142Y-96527904D01*
X198739761Y-96480285D01*
X198787380Y-96385047D01*
X198787380Y-96099333D01*
X198739761Y-96004095D01*
X198692142Y-95956476D01*
X198787380Y-97527904D02*
X198787380Y-96956476D01*
X198787380Y-97242190D02*
X197787380Y-97242190D01*
X197930238Y-97146952D01*
X198025476Y-97051714D01*
X198073095Y-96956476D01*
X198467380Y-99814095D02*
X197467380Y-99814095D01*
X198467380Y-100385523D02*
X197895952Y-99956952D01*
X197467380Y-100385523D02*
X198038809Y-99814095D01*
X206280380Y-76001714D02*
X205280380Y-76001714D01*
X205280380Y-76239809D01*
X205328000Y-76382666D01*
X205423238Y-76477904D01*
X205518476Y-76525523D01*
X205708952Y-76573142D01*
X205851809Y-76573142D01*
X206042285Y-76525523D01*
X206137523Y-76477904D01*
X206232761Y-76382666D01*
X206280380Y-76239809D01*
X206280380Y-76001714D01*
X205280380Y-76906476D02*
X205280380Y-77525523D01*
X205661333Y-77192190D01*
X205661333Y-77335047D01*
X205708952Y-77430285D01*
X205756571Y-77477904D01*
X205851809Y-77525523D01*
X206089904Y-77525523D01*
X206185142Y-77477904D01*
X206232761Y-77430285D01*
X206280380Y-77335047D01*
X206280380Y-77049333D01*
X206232761Y-76954095D01*
X206185142Y-76906476D01*
X205280380Y-78144571D02*
X205280380Y-78239809D01*
X205328000Y-78335047D01*
X205375619Y-78382666D01*
X205470857Y-78430285D01*
X205661333Y-78477904D01*
X205899428Y-78477904D01*
X206089904Y-78430285D01*
X206185142Y-78382666D01*
X206232761Y-78335047D01*
X206280380Y-78239809D01*
X206280380Y-78144571D01*
X206232761Y-78049333D01*
X206185142Y-78001714D01*
X206089904Y-77954095D01*
X205899428Y-77906476D01*
X205661333Y-77906476D01*
X205470857Y-77954095D01*
X205375619Y-78001714D01*
X205328000Y-78049333D01*
X205280380Y-78144571D01*
X205960380Y-80764095D02*
X204960380Y-80764095D01*
X205960380Y-81335523D02*
X205388952Y-80906952D01*
X204960380Y-81335523D02*
X205531809Y-80764095D01*
X201073380Y-56951714D02*
X200073380Y-56951714D01*
X200073380Y-57189809D01*
X200121000Y-57332666D01*
X200216238Y-57427904D01*
X200311476Y-57475523D01*
X200501952Y-57523142D01*
X200644809Y-57523142D01*
X200835285Y-57475523D01*
X200930523Y-57427904D01*
X201025761Y-57332666D01*
X201073380Y-57189809D01*
X201073380Y-56951714D01*
X200168619Y-57904095D02*
X200121000Y-57951714D01*
X200073380Y-58046952D01*
X200073380Y-58285047D01*
X200121000Y-58380285D01*
X200168619Y-58427904D01*
X200263857Y-58475523D01*
X200359095Y-58475523D01*
X200501952Y-58427904D01*
X201073380Y-57856476D01*
X201073380Y-58475523D01*
X201073380Y-58951714D02*
X201073380Y-59142190D01*
X201025761Y-59237428D01*
X200978142Y-59285047D01*
X200835285Y-59380285D01*
X200644809Y-59427904D01*
X200263857Y-59427904D01*
X200168619Y-59380285D01*
X200121000Y-59332666D01*
X200073380Y-59237428D01*
X200073380Y-59046952D01*
X200121000Y-58951714D01*
X200168619Y-58904095D01*
X200263857Y-58856476D01*
X200501952Y-58856476D01*
X200597190Y-58904095D01*
X200644809Y-58951714D01*
X200692428Y-59046952D01*
X200692428Y-59237428D01*
X200644809Y-59332666D01*
X200597190Y-59380285D01*
X200501952Y-59427904D01*
X200753380Y-61714095D02*
X199753380Y-61714095D01*
X200753380Y-62285523D02*
X200181952Y-61856952D01*
X199753380Y-62285523D02*
X200324809Y-61714095D01*
X184944380Y-132135714D02*
X183944380Y-132135714D01*
X183944380Y-132373809D01*
X183992000Y-132516666D01*
X184087238Y-132611904D01*
X184182476Y-132659523D01*
X184372952Y-132707142D01*
X184515809Y-132707142D01*
X184706285Y-132659523D01*
X184801523Y-132611904D01*
X184896761Y-132516666D01*
X184944380Y-132373809D01*
X184944380Y-132135714D01*
X184039619Y-133088095D02*
X183992000Y-133135714D01*
X183944380Y-133230952D01*
X183944380Y-133469047D01*
X183992000Y-133564285D01*
X184039619Y-133611904D01*
X184134857Y-133659523D01*
X184230095Y-133659523D01*
X184372952Y-133611904D01*
X184944380Y-133040476D01*
X184944380Y-133659523D01*
X184372952Y-134230952D02*
X184325333Y-134135714D01*
X184277714Y-134088095D01*
X184182476Y-134040476D01*
X184134857Y-134040476D01*
X184039619Y-134088095D01*
X183992000Y-134135714D01*
X183944380Y-134230952D01*
X183944380Y-134421428D01*
X183992000Y-134516666D01*
X184039619Y-134564285D01*
X184134857Y-134611904D01*
X184182476Y-134611904D01*
X184277714Y-134564285D01*
X184325333Y-134516666D01*
X184372952Y-134421428D01*
X184372952Y-134230952D01*
X184420571Y-134135714D01*
X184468190Y-134088095D01*
X184563428Y-134040476D01*
X184753904Y-134040476D01*
X184849142Y-134088095D01*
X184896761Y-134135714D01*
X184944380Y-134230952D01*
X184944380Y-134421428D01*
X184896761Y-134516666D01*
X184849142Y-134564285D01*
X184753904Y-134611904D01*
X184563428Y-134611904D01*
X184468190Y-134564285D01*
X184420571Y-134516666D01*
X184372952Y-134421428D01*
X184624380Y-136898095D02*
X183624380Y-136898095D01*
X184624380Y-137469523D02*
X184052952Y-137040952D01*
X183624380Y-137469523D02*
X184195809Y-136898095D01*
X182404380Y-76001714D02*
X181404380Y-76001714D01*
X181404380Y-76239809D01*
X181452000Y-76382666D01*
X181547238Y-76477904D01*
X181642476Y-76525523D01*
X181832952Y-76573142D01*
X181975809Y-76573142D01*
X182166285Y-76525523D01*
X182261523Y-76477904D01*
X182356761Y-76382666D01*
X182404380Y-76239809D01*
X182404380Y-76001714D01*
X181499619Y-76954095D02*
X181452000Y-77001714D01*
X181404380Y-77096952D01*
X181404380Y-77335047D01*
X181452000Y-77430285D01*
X181499619Y-77477904D01*
X181594857Y-77525523D01*
X181690095Y-77525523D01*
X181832952Y-77477904D01*
X182404380Y-76906476D01*
X182404380Y-77525523D01*
X181404380Y-77858857D02*
X181404380Y-78525523D01*
X182404380Y-78096952D01*
X182084380Y-80764095D02*
X181084380Y-80764095D01*
X182084380Y-81335523D02*
X181512952Y-80906952D01*
X181084380Y-81335523D02*
X181655809Y-80764095D01*
X172752380Y-56951714D02*
X171752380Y-56951714D01*
X171752380Y-57189809D01*
X171800000Y-57332666D01*
X171895238Y-57427904D01*
X171990476Y-57475523D01*
X172180952Y-57523142D01*
X172323809Y-57523142D01*
X172514285Y-57475523D01*
X172609523Y-57427904D01*
X172704761Y-57332666D01*
X172752380Y-57189809D01*
X172752380Y-56951714D01*
X171847619Y-57904095D02*
X171800000Y-57951714D01*
X171752380Y-58046952D01*
X171752380Y-58285047D01*
X171800000Y-58380285D01*
X171847619Y-58427904D01*
X171942857Y-58475523D01*
X172038095Y-58475523D01*
X172180952Y-58427904D01*
X172752380Y-57856476D01*
X172752380Y-58475523D01*
X171752380Y-59332666D02*
X171752380Y-59142190D01*
X171800000Y-59046952D01*
X171847619Y-58999333D01*
X171990476Y-58904095D01*
X172180952Y-58856476D01*
X172561904Y-58856476D01*
X172657142Y-58904095D01*
X172704761Y-58951714D01*
X172752380Y-59046952D01*
X172752380Y-59237428D01*
X172704761Y-59332666D01*
X172657142Y-59380285D01*
X172561904Y-59427904D01*
X172323809Y-59427904D01*
X172228571Y-59380285D01*
X172180952Y-59332666D01*
X172133333Y-59237428D01*
X172133333Y-59046952D01*
X172180952Y-58951714D01*
X172228571Y-58904095D01*
X172323809Y-58856476D01*
X172432380Y-61714095D02*
X171432380Y-61714095D01*
X172432380Y-62285523D02*
X171860952Y-61856952D01*
X171432380Y-62285523D02*
X172003809Y-61714095D01*
X144050380Y-132135714D02*
X143050380Y-132135714D01*
X143050380Y-132373809D01*
X143098000Y-132516666D01*
X143193238Y-132611904D01*
X143288476Y-132659523D01*
X143478952Y-132707142D01*
X143621809Y-132707142D01*
X143812285Y-132659523D01*
X143907523Y-132611904D01*
X144002761Y-132516666D01*
X144050380Y-132373809D01*
X144050380Y-132135714D01*
X143145619Y-133088095D02*
X143098000Y-133135714D01*
X143050380Y-133230952D01*
X143050380Y-133469047D01*
X143098000Y-133564285D01*
X143145619Y-133611904D01*
X143240857Y-133659523D01*
X143336095Y-133659523D01*
X143478952Y-133611904D01*
X144050380Y-133040476D01*
X144050380Y-133659523D01*
X143050380Y-134564285D02*
X143050380Y-134088095D01*
X143526571Y-134040476D01*
X143478952Y-134088095D01*
X143431333Y-134183333D01*
X143431333Y-134421428D01*
X143478952Y-134516666D01*
X143526571Y-134564285D01*
X143621809Y-134611904D01*
X143859904Y-134611904D01*
X143955142Y-134564285D01*
X144002761Y-134516666D01*
X144050380Y-134421428D01*
X144050380Y-134183333D01*
X144002761Y-134088095D01*
X143955142Y-134040476D01*
X143730380Y-136898095D02*
X142730380Y-136898095D01*
X143730380Y-137469523D02*
X143158952Y-137040952D01*
X142730380Y-137469523D02*
X143301809Y-136898095D01*
X142018380Y-111307714D02*
X141018380Y-111307714D01*
X141018380Y-111545809D01*
X141066000Y-111688666D01*
X141161238Y-111783904D01*
X141256476Y-111831523D01*
X141446952Y-111879142D01*
X141589809Y-111879142D01*
X141780285Y-111831523D01*
X141875523Y-111783904D01*
X141970761Y-111688666D01*
X142018380Y-111545809D01*
X142018380Y-111307714D01*
X141113619Y-112260095D02*
X141066000Y-112307714D01*
X141018380Y-112402952D01*
X141018380Y-112641047D01*
X141066000Y-112736285D01*
X141113619Y-112783904D01*
X141208857Y-112831523D01*
X141304095Y-112831523D01*
X141446952Y-112783904D01*
X142018380Y-112212476D01*
X142018380Y-112831523D01*
X141351714Y-113688666D02*
X142018380Y-113688666D01*
X140970761Y-113450571D02*
X141685047Y-113212476D01*
X141685047Y-113831523D01*
X141698380Y-116070095D02*
X140698380Y-116070095D01*
X141698380Y-116641523D02*
X141126952Y-116212952D01*
X140698380Y-116641523D02*
X141269809Y-116070095D01*
X167926380Y-95051714D02*
X166926380Y-95051714D01*
X166926380Y-95289809D01*
X166974000Y-95432666D01*
X167069238Y-95527904D01*
X167164476Y-95575523D01*
X167354952Y-95623142D01*
X167497809Y-95623142D01*
X167688285Y-95575523D01*
X167783523Y-95527904D01*
X167878761Y-95432666D01*
X167926380Y-95289809D01*
X167926380Y-95051714D01*
X167021619Y-96004095D02*
X166974000Y-96051714D01*
X166926380Y-96146952D01*
X166926380Y-96385047D01*
X166974000Y-96480285D01*
X167021619Y-96527904D01*
X167116857Y-96575523D01*
X167212095Y-96575523D01*
X167354952Y-96527904D01*
X167926380Y-95956476D01*
X167926380Y-96575523D01*
X166926380Y-96908857D02*
X166926380Y-97527904D01*
X167307333Y-97194571D01*
X167307333Y-97337428D01*
X167354952Y-97432666D01*
X167402571Y-97480285D01*
X167497809Y-97527904D01*
X167735904Y-97527904D01*
X167831142Y-97480285D01*
X167878761Y-97432666D01*
X167926380Y-97337428D01*
X167926380Y-97051714D01*
X167878761Y-96956476D01*
X167831142Y-96908857D01*
X167606380Y-99814095D02*
X166606380Y-99814095D01*
X167606380Y-100385523D02*
X167034952Y-99956952D01*
X166606380Y-100385523D02*
X167177809Y-99814095D01*
X163354380Y-76001714D02*
X162354380Y-76001714D01*
X162354380Y-76239809D01*
X162402000Y-76382666D01*
X162497238Y-76477904D01*
X162592476Y-76525523D01*
X162782952Y-76573142D01*
X162925809Y-76573142D01*
X163116285Y-76525523D01*
X163211523Y-76477904D01*
X163306761Y-76382666D01*
X163354380Y-76239809D01*
X163354380Y-76001714D01*
X162449619Y-76954095D02*
X162402000Y-77001714D01*
X162354380Y-77096952D01*
X162354380Y-77335047D01*
X162402000Y-77430285D01*
X162449619Y-77477904D01*
X162544857Y-77525523D01*
X162640095Y-77525523D01*
X162782952Y-77477904D01*
X163354380Y-76906476D01*
X163354380Y-77525523D01*
X162449619Y-77906476D02*
X162402000Y-77954095D01*
X162354380Y-78049333D01*
X162354380Y-78287428D01*
X162402000Y-78382666D01*
X162449619Y-78430285D01*
X162544857Y-78477904D01*
X162640095Y-78477904D01*
X162782952Y-78430285D01*
X163354380Y-77858857D01*
X163354380Y-78477904D01*
X163034380Y-80764095D02*
X162034380Y-80764095D01*
X163034380Y-81335523D02*
X162462952Y-80906952D01*
X162034380Y-81335523D02*
X162605809Y-80764095D01*
X153702380Y-56951714D02*
X152702380Y-56951714D01*
X152702380Y-57189809D01*
X152750000Y-57332666D01*
X152845238Y-57427904D01*
X152940476Y-57475523D01*
X153130952Y-57523142D01*
X153273809Y-57523142D01*
X153464285Y-57475523D01*
X153559523Y-57427904D01*
X153654761Y-57332666D01*
X153702380Y-57189809D01*
X153702380Y-56951714D01*
X152797619Y-57904095D02*
X152750000Y-57951714D01*
X152702380Y-58046952D01*
X152702380Y-58285047D01*
X152750000Y-58380285D01*
X152797619Y-58427904D01*
X152892857Y-58475523D01*
X152988095Y-58475523D01*
X153130952Y-58427904D01*
X153702380Y-57856476D01*
X153702380Y-58475523D01*
X153702380Y-59427904D02*
X153702380Y-58856476D01*
X153702380Y-59142190D02*
X152702380Y-59142190D01*
X152845238Y-59046952D01*
X152940476Y-58951714D01*
X152988095Y-58856476D01*
X153382380Y-61714095D02*
X152382380Y-61714095D01*
X153382380Y-62285523D02*
X152810952Y-61856952D01*
X152382380Y-62285523D02*
X152953809Y-61714095D01*
X137446380Y-132135714D02*
X136446380Y-132135714D01*
X136446380Y-132373809D01*
X136494000Y-132516666D01*
X136589238Y-132611904D01*
X136684476Y-132659523D01*
X136874952Y-132707142D01*
X137017809Y-132707142D01*
X137208285Y-132659523D01*
X137303523Y-132611904D01*
X137398761Y-132516666D01*
X137446380Y-132373809D01*
X137446380Y-132135714D01*
X136541619Y-133088095D02*
X136494000Y-133135714D01*
X136446380Y-133230952D01*
X136446380Y-133469047D01*
X136494000Y-133564285D01*
X136541619Y-133611904D01*
X136636857Y-133659523D01*
X136732095Y-133659523D01*
X136874952Y-133611904D01*
X137446380Y-133040476D01*
X137446380Y-133659523D01*
X136446380Y-134278571D02*
X136446380Y-134373809D01*
X136494000Y-134469047D01*
X136541619Y-134516666D01*
X136636857Y-134564285D01*
X136827333Y-134611904D01*
X137065428Y-134611904D01*
X137255904Y-134564285D01*
X137351142Y-134516666D01*
X137398761Y-134469047D01*
X137446380Y-134373809D01*
X137446380Y-134278571D01*
X137398761Y-134183333D01*
X137351142Y-134135714D01*
X137255904Y-134088095D01*
X137065428Y-134040476D01*
X136827333Y-134040476D01*
X136636857Y-134088095D01*
X136541619Y-134135714D01*
X136494000Y-134183333D01*
X136446380Y-134278571D01*
X137126380Y-136898095D02*
X136126380Y-136898095D01*
X137126380Y-137469523D02*
X136554952Y-137040952D01*
X136126380Y-137469523D02*
X136697809Y-136898095D01*
X139478380Y-114101714D02*
X138478380Y-114101714D01*
X138478380Y-114339809D01*
X138526000Y-114482666D01*
X138621238Y-114577904D01*
X138716476Y-114625523D01*
X138906952Y-114673142D01*
X139049809Y-114673142D01*
X139240285Y-114625523D01*
X139335523Y-114577904D01*
X139430761Y-114482666D01*
X139478380Y-114339809D01*
X139478380Y-114101714D01*
X139478380Y-115625523D02*
X139478380Y-115054095D01*
X139478380Y-115339809D02*
X138478380Y-115339809D01*
X138621238Y-115244571D01*
X138716476Y-115149333D01*
X138764095Y-115054095D01*
X139478380Y-116101714D02*
X139478380Y-116292190D01*
X139430761Y-116387428D01*
X139383142Y-116435047D01*
X139240285Y-116530285D01*
X139049809Y-116577904D01*
X138668857Y-116577904D01*
X138573619Y-116530285D01*
X138526000Y-116482666D01*
X138478380Y-116387428D01*
X138478380Y-116196952D01*
X138526000Y-116101714D01*
X138573619Y-116054095D01*
X138668857Y-116006476D01*
X138906952Y-116006476D01*
X139002190Y-116054095D01*
X139049809Y-116101714D01*
X139097428Y-116196952D01*
X139097428Y-116387428D01*
X139049809Y-116482666D01*
X139002190Y-116530285D01*
X138906952Y-116577904D01*
X139158380Y-118864095D02*
X138158380Y-118864095D01*
X139158380Y-119435523D02*
X138586952Y-119006952D01*
X138158380Y-119435523D02*
X138729809Y-118864095D01*
X148876380Y-95051714D02*
X147876380Y-95051714D01*
X147876380Y-95289809D01*
X147924000Y-95432666D01*
X148019238Y-95527904D01*
X148114476Y-95575523D01*
X148304952Y-95623142D01*
X148447809Y-95623142D01*
X148638285Y-95575523D01*
X148733523Y-95527904D01*
X148828761Y-95432666D01*
X148876380Y-95289809D01*
X148876380Y-95051714D01*
X148876380Y-96575523D02*
X148876380Y-96004095D01*
X148876380Y-96289809D02*
X147876380Y-96289809D01*
X148019238Y-96194571D01*
X148114476Y-96099333D01*
X148162095Y-96004095D01*
X148304952Y-97146952D02*
X148257333Y-97051714D01*
X148209714Y-97004095D01*
X148114476Y-96956476D01*
X148066857Y-96956476D01*
X147971619Y-97004095D01*
X147924000Y-97051714D01*
X147876380Y-97146952D01*
X147876380Y-97337428D01*
X147924000Y-97432666D01*
X147971619Y-97480285D01*
X148066857Y-97527904D01*
X148114476Y-97527904D01*
X148209714Y-97480285D01*
X148257333Y-97432666D01*
X148304952Y-97337428D01*
X148304952Y-97146952D01*
X148352571Y-97051714D01*
X148400190Y-97004095D01*
X148495428Y-96956476D01*
X148685904Y-96956476D01*
X148781142Y-97004095D01*
X148828761Y-97051714D01*
X148876380Y-97146952D01*
X148876380Y-97337428D01*
X148828761Y-97432666D01*
X148781142Y-97480285D01*
X148685904Y-97527904D01*
X148495428Y-97527904D01*
X148400190Y-97480285D01*
X148352571Y-97432666D01*
X148304952Y-97337428D01*
X148556380Y-99814095D02*
X147556380Y-99814095D01*
X148556380Y-100385523D02*
X147984952Y-99956952D01*
X147556380Y-100385523D02*
X148127809Y-99814095D01*
X144177380Y-76001714D02*
X143177380Y-76001714D01*
X143177380Y-76239809D01*
X143225000Y-76382666D01*
X143320238Y-76477904D01*
X143415476Y-76525523D01*
X143605952Y-76573142D01*
X143748809Y-76573142D01*
X143939285Y-76525523D01*
X144034523Y-76477904D01*
X144129761Y-76382666D01*
X144177380Y-76239809D01*
X144177380Y-76001714D01*
X144177380Y-77525523D02*
X144177380Y-76954095D01*
X144177380Y-77239809D02*
X143177380Y-77239809D01*
X143320238Y-77144571D01*
X143415476Y-77049333D01*
X143463095Y-76954095D01*
X143177380Y-77858857D02*
X143177380Y-78525523D01*
X144177380Y-78096952D01*
X143857380Y-80764095D02*
X142857380Y-80764095D01*
X143857380Y-81335523D02*
X143285952Y-80906952D01*
X142857380Y-81335523D02*
X143428809Y-80764095D01*
X134398380Y-56951714D02*
X133398380Y-56951714D01*
X133398380Y-57189809D01*
X133446000Y-57332666D01*
X133541238Y-57427904D01*
X133636476Y-57475523D01*
X133826952Y-57523142D01*
X133969809Y-57523142D01*
X134160285Y-57475523D01*
X134255523Y-57427904D01*
X134350761Y-57332666D01*
X134398380Y-57189809D01*
X134398380Y-56951714D01*
X134398380Y-58475523D02*
X134398380Y-57904095D01*
X134398380Y-58189809D02*
X133398380Y-58189809D01*
X133541238Y-58094571D01*
X133636476Y-57999333D01*
X133684095Y-57904095D01*
X133398380Y-59332666D02*
X133398380Y-59142190D01*
X133446000Y-59046952D01*
X133493619Y-58999333D01*
X133636476Y-58904095D01*
X133826952Y-58856476D01*
X134207904Y-58856476D01*
X134303142Y-58904095D01*
X134350761Y-58951714D01*
X134398380Y-59046952D01*
X134398380Y-59237428D01*
X134350761Y-59332666D01*
X134303142Y-59380285D01*
X134207904Y-59427904D01*
X133969809Y-59427904D01*
X133874571Y-59380285D01*
X133826952Y-59332666D01*
X133779333Y-59237428D01*
X133779333Y-59046952D01*
X133826952Y-58951714D01*
X133874571Y-58904095D01*
X133969809Y-58856476D01*
X134078380Y-61714095D02*
X133078380Y-61714095D01*
X134078380Y-62285523D02*
X133506952Y-61856952D01*
X133078380Y-62285523D02*
X133649809Y-61714095D01*
X120428380Y-114101714D02*
X119428380Y-114101714D01*
X119428380Y-114339809D01*
X119476000Y-114482666D01*
X119571238Y-114577904D01*
X119666476Y-114625523D01*
X119856952Y-114673142D01*
X119999809Y-114673142D01*
X120190285Y-114625523D01*
X120285523Y-114577904D01*
X120380761Y-114482666D01*
X120428380Y-114339809D01*
X120428380Y-114101714D01*
X120428380Y-115625523D02*
X120428380Y-115054095D01*
X120428380Y-115339809D02*
X119428380Y-115339809D01*
X119571238Y-115244571D01*
X119666476Y-115149333D01*
X119714095Y-115054095D01*
X119428380Y-116530285D02*
X119428380Y-116054095D01*
X119904571Y-116006476D01*
X119856952Y-116054095D01*
X119809333Y-116149333D01*
X119809333Y-116387428D01*
X119856952Y-116482666D01*
X119904571Y-116530285D01*
X119999809Y-116577904D01*
X120237904Y-116577904D01*
X120333142Y-116530285D01*
X120380761Y-116482666D01*
X120428380Y-116387428D01*
X120428380Y-116149333D01*
X120380761Y-116054095D01*
X120333142Y-116006476D01*
X120108380Y-118864095D02*
X119108380Y-118864095D01*
X120108380Y-119435523D02*
X119536952Y-119006952D01*
X119108380Y-119435523D02*
X119679809Y-118864095D01*
X130080380Y-95051714D02*
X129080380Y-95051714D01*
X129080380Y-95289809D01*
X129128000Y-95432666D01*
X129223238Y-95527904D01*
X129318476Y-95575523D01*
X129508952Y-95623142D01*
X129651809Y-95623142D01*
X129842285Y-95575523D01*
X129937523Y-95527904D01*
X130032761Y-95432666D01*
X130080380Y-95289809D01*
X130080380Y-95051714D01*
X130080380Y-96575523D02*
X130080380Y-96004095D01*
X130080380Y-96289809D02*
X129080380Y-96289809D01*
X129223238Y-96194571D01*
X129318476Y-96099333D01*
X129366095Y-96004095D01*
X129413714Y-97432666D02*
X130080380Y-97432666D01*
X129032761Y-97194571D02*
X129747047Y-96956476D01*
X129747047Y-97575523D01*
X129760380Y-99814095D02*
X128760380Y-99814095D01*
X129760380Y-100385523D02*
X129188952Y-99956952D01*
X128760380Y-100385523D02*
X129331809Y-99814095D01*
X125254380Y-76001714D02*
X124254380Y-76001714D01*
X124254380Y-76239809D01*
X124302000Y-76382666D01*
X124397238Y-76477904D01*
X124492476Y-76525523D01*
X124682952Y-76573142D01*
X124825809Y-76573142D01*
X125016285Y-76525523D01*
X125111523Y-76477904D01*
X125206761Y-76382666D01*
X125254380Y-76239809D01*
X125254380Y-76001714D01*
X125254380Y-77525523D02*
X125254380Y-76954095D01*
X125254380Y-77239809D02*
X124254380Y-77239809D01*
X124397238Y-77144571D01*
X124492476Y-77049333D01*
X124540095Y-76954095D01*
X124254380Y-77858857D02*
X124254380Y-78477904D01*
X124635333Y-78144571D01*
X124635333Y-78287428D01*
X124682952Y-78382666D01*
X124730571Y-78430285D01*
X124825809Y-78477904D01*
X125063904Y-78477904D01*
X125159142Y-78430285D01*
X125206761Y-78382666D01*
X125254380Y-78287428D01*
X125254380Y-78001714D01*
X125206761Y-77906476D01*
X125159142Y-77858857D01*
X124934380Y-80764095D02*
X123934380Y-80764095D01*
X124934380Y-81335523D02*
X124362952Y-80906952D01*
X123934380Y-81335523D02*
X124505809Y-80764095D01*
X115602380Y-56951714D02*
X114602380Y-56951714D01*
X114602380Y-57189809D01*
X114650000Y-57332666D01*
X114745238Y-57427904D01*
X114840476Y-57475523D01*
X115030952Y-57523142D01*
X115173809Y-57523142D01*
X115364285Y-57475523D01*
X115459523Y-57427904D01*
X115554761Y-57332666D01*
X115602380Y-57189809D01*
X115602380Y-56951714D01*
X115602380Y-58475523D02*
X115602380Y-57904095D01*
X115602380Y-58189809D02*
X114602380Y-58189809D01*
X114745238Y-58094571D01*
X114840476Y-57999333D01*
X114888095Y-57904095D01*
X114697619Y-58856476D02*
X114650000Y-58904095D01*
X114602380Y-58999333D01*
X114602380Y-59237428D01*
X114650000Y-59332666D01*
X114697619Y-59380285D01*
X114792857Y-59427904D01*
X114888095Y-59427904D01*
X115030952Y-59380285D01*
X115602380Y-58808857D01*
X115602380Y-59427904D01*
X115282380Y-61714095D02*
X114282380Y-61714095D01*
X115282380Y-62285523D02*
X114710952Y-61856952D01*
X114282380Y-62285523D02*
X114853809Y-61714095D01*
X101378380Y-114101714D02*
X100378380Y-114101714D01*
X100378380Y-114339809D01*
X100426000Y-114482666D01*
X100521238Y-114577904D01*
X100616476Y-114625523D01*
X100806952Y-114673142D01*
X100949809Y-114673142D01*
X101140285Y-114625523D01*
X101235523Y-114577904D01*
X101330761Y-114482666D01*
X101378380Y-114339809D01*
X101378380Y-114101714D01*
X101378380Y-115625523D02*
X101378380Y-115054095D01*
X101378380Y-115339809D02*
X100378380Y-115339809D01*
X100521238Y-115244571D01*
X100616476Y-115149333D01*
X100664095Y-115054095D01*
X100378380Y-116244571D02*
X100378380Y-116339809D01*
X100426000Y-116435047D01*
X100473619Y-116482666D01*
X100568857Y-116530285D01*
X100759333Y-116577904D01*
X100997428Y-116577904D01*
X101187904Y-116530285D01*
X101283142Y-116482666D01*
X101330761Y-116435047D01*
X101378380Y-116339809D01*
X101378380Y-116244571D01*
X101330761Y-116149333D01*
X101283142Y-116101714D01*
X101187904Y-116054095D01*
X100997428Y-116006476D01*
X100759333Y-116006476D01*
X100568857Y-116054095D01*
X100473619Y-116101714D01*
X100426000Y-116149333D01*
X100378380Y-116244571D01*
X101058380Y-118864095D02*
X100058380Y-118864095D01*
X101058380Y-119435523D02*
X100486952Y-119006952D01*
X100058380Y-119435523D02*
X100629809Y-118864095D01*
X110776380Y-95527904D02*
X109776380Y-95527904D01*
X109776380Y-95766000D01*
X109824000Y-95908857D01*
X109919238Y-96004095D01*
X110014476Y-96051714D01*
X110204952Y-96099333D01*
X110347809Y-96099333D01*
X110538285Y-96051714D01*
X110633523Y-96004095D01*
X110728761Y-95908857D01*
X110776380Y-95766000D01*
X110776380Y-95527904D01*
X110776380Y-96575523D02*
X110776380Y-96766000D01*
X110728761Y-96861238D01*
X110681142Y-96908857D01*
X110538285Y-97004095D01*
X110347809Y-97051714D01*
X109966857Y-97051714D01*
X109871619Y-97004095D01*
X109824000Y-96956476D01*
X109776380Y-96861238D01*
X109776380Y-96670761D01*
X109824000Y-96575523D01*
X109871619Y-96527904D01*
X109966857Y-96480285D01*
X110204952Y-96480285D01*
X110300190Y-96527904D01*
X110347809Y-96575523D01*
X110395428Y-96670761D01*
X110395428Y-96861238D01*
X110347809Y-96956476D01*
X110300190Y-97004095D01*
X110204952Y-97051714D01*
X110456380Y-99814095D02*
X109456380Y-99814095D01*
X110456380Y-100385523D02*
X109884952Y-99956952D01*
X109456380Y-100385523D02*
X110027809Y-99814095D01*
X105950380Y-76477904D02*
X104950380Y-76477904D01*
X104950380Y-76716000D01*
X104998000Y-76858857D01*
X105093238Y-76954095D01*
X105188476Y-77001714D01*
X105378952Y-77049333D01*
X105521809Y-77049333D01*
X105712285Y-77001714D01*
X105807523Y-76954095D01*
X105902761Y-76858857D01*
X105950380Y-76716000D01*
X105950380Y-76477904D01*
X105378952Y-77620761D02*
X105331333Y-77525523D01*
X105283714Y-77477904D01*
X105188476Y-77430285D01*
X105140857Y-77430285D01*
X105045619Y-77477904D01*
X104998000Y-77525523D01*
X104950380Y-77620761D01*
X104950380Y-77811238D01*
X104998000Y-77906476D01*
X105045619Y-77954095D01*
X105140857Y-78001714D01*
X105188476Y-78001714D01*
X105283714Y-77954095D01*
X105331333Y-77906476D01*
X105378952Y-77811238D01*
X105378952Y-77620761D01*
X105426571Y-77525523D01*
X105474190Y-77477904D01*
X105569428Y-77430285D01*
X105759904Y-77430285D01*
X105855142Y-77477904D01*
X105902761Y-77525523D01*
X105950380Y-77620761D01*
X105950380Y-77811238D01*
X105902761Y-77906476D01*
X105855142Y-77954095D01*
X105759904Y-78001714D01*
X105569428Y-78001714D01*
X105474190Y-77954095D01*
X105426571Y-77906476D01*
X105378952Y-77811238D01*
X105630380Y-80764095D02*
X104630380Y-80764095D01*
X105630380Y-81335523D02*
X105058952Y-80906952D01*
X104630380Y-81335523D02*
X105201809Y-80764095D01*
X96552380Y-57427904D02*
X95552380Y-57427904D01*
X95552380Y-57666000D01*
X95600000Y-57808857D01*
X95695238Y-57904095D01*
X95790476Y-57951714D01*
X95980952Y-57999333D01*
X96123809Y-57999333D01*
X96314285Y-57951714D01*
X96409523Y-57904095D01*
X96504761Y-57808857D01*
X96552380Y-57666000D01*
X96552380Y-57427904D01*
X95552380Y-58332666D02*
X95552380Y-58999333D01*
X96552380Y-58570761D01*
X96232380Y-61714095D02*
X95232380Y-61714095D01*
X96232380Y-62285523D02*
X95660952Y-61856952D01*
X95232380Y-62285523D02*
X95803809Y-61714095D01*
X96806380Y-132135714D02*
X95806380Y-132135714D01*
X95806380Y-132373809D01*
X95854000Y-132516666D01*
X95949238Y-132611904D01*
X96044476Y-132659523D01*
X96234952Y-132707142D01*
X96377809Y-132707142D01*
X96568285Y-132659523D01*
X96663523Y-132611904D01*
X96758761Y-132516666D01*
X96806380Y-132373809D01*
X96806380Y-132135714D01*
X96806380Y-133659523D02*
X96806380Y-133088095D01*
X96806380Y-133373809D02*
X95806380Y-133373809D01*
X95949238Y-133278571D01*
X96044476Y-133183333D01*
X96092095Y-133088095D01*
X96806380Y-134611904D02*
X96806380Y-134040476D01*
X96806380Y-134326190D02*
X95806380Y-134326190D01*
X95949238Y-134230952D01*
X96044476Y-134135714D01*
X96092095Y-134040476D01*
X96486380Y-136898095D02*
X95486380Y-136898095D01*
X96486380Y-137469523D02*
X95914952Y-137040952D01*
X95486380Y-137469523D02*
X96057809Y-136898095D01*
X82328380Y-114577904D02*
X81328380Y-114577904D01*
X81328380Y-114816000D01*
X81376000Y-114958857D01*
X81471238Y-115054095D01*
X81566476Y-115101714D01*
X81756952Y-115149333D01*
X81899809Y-115149333D01*
X82090285Y-115101714D01*
X82185523Y-115054095D01*
X82280761Y-114958857D01*
X82328380Y-114816000D01*
X82328380Y-114577904D01*
X81328380Y-116006476D02*
X81328380Y-115816000D01*
X81376000Y-115720761D01*
X81423619Y-115673142D01*
X81566476Y-115577904D01*
X81756952Y-115530285D01*
X82137904Y-115530285D01*
X82233142Y-115577904D01*
X82280761Y-115625523D01*
X82328380Y-115720761D01*
X82328380Y-115911238D01*
X82280761Y-116006476D01*
X82233142Y-116054095D01*
X82137904Y-116101714D01*
X81899809Y-116101714D01*
X81804571Y-116054095D01*
X81756952Y-116006476D01*
X81709333Y-115911238D01*
X81709333Y-115720761D01*
X81756952Y-115625523D01*
X81804571Y-115577904D01*
X81899809Y-115530285D01*
X82008380Y-118864095D02*
X81008380Y-118864095D01*
X82008380Y-119435523D02*
X81436952Y-119006952D01*
X81008380Y-119435523D02*
X81579809Y-118864095D01*
X91980380Y-95527904D02*
X90980380Y-95527904D01*
X90980380Y-95766000D01*
X91028000Y-95908857D01*
X91123238Y-96004095D01*
X91218476Y-96051714D01*
X91408952Y-96099333D01*
X91551809Y-96099333D01*
X91742285Y-96051714D01*
X91837523Y-96004095D01*
X91932761Y-95908857D01*
X91980380Y-95766000D01*
X91980380Y-95527904D01*
X90980380Y-97004095D02*
X90980380Y-96527904D01*
X91456571Y-96480285D01*
X91408952Y-96527904D01*
X91361333Y-96623142D01*
X91361333Y-96861238D01*
X91408952Y-96956476D01*
X91456571Y-97004095D01*
X91551809Y-97051714D01*
X91789904Y-97051714D01*
X91885142Y-97004095D01*
X91932761Y-96956476D01*
X91980380Y-96861238D01*
X91980380Y-96623142D01*
X91932761Y-96527904D01*
X91885142Y-96480285D01*
X91660380Y-99814095D02*
X90660380Y-99814095D01*
X91660380Y-100385523D02*
X91088952Y-99956952D01*
X90660380Y-100385523D02*
X91231809Y-99814095D01*
X87154380Y-76477904D02*
X86154380Y-76477904D01*
X86154380Y-76716000D01*
X86202000Y-76858857D01*
X86297238Y-76954095D01*
X86392476Y-77001714D01*
X86582952Y-77049333D01*
X86725809Y-77049333D01*
X86916285Y-77001714D01*
X87011523Y-76954095D01*
X87106761Y-76858857D01*
X87154380Y-76716000D01*
X87154380Y-76477904D01*
X86487714Y-77906476D02*
X87154380Y-77906476D01*
X86106761Y-77668380D02*
X86821047Y-77430285D01*
X86821047Y-78049333D01*
X86834380Y-80764095D02*
X85834380Y-80764095D01*
X86834380Y-81335523D02*
X86262952Y-80906952D01*
X85834380Y-81335523D02*
X86405809Y-80764095D01*
X77502380Y-57427904D02*
X76502380Y-57427904D01*
X76502380Y-57666000D01*
X76550000Y-57808857D01*
X76645238Y-57904095D01*
X76740476Y-57951714D01*
X76930952Y-57999333D01*
X77073809Y-57999333D01*
X77264285Y-57951714D01*
X77359523Y-57904095D01*
X77454761Y-57808857D01*
X77502380Y-57666000D01*
X77502380Y-57427904D01*
X76502380Y-58332666D02*
X76502380Y-58951714D01*
X76883333Y-58618380D01*
X76883333Y-58761238D01*
X76930952Y-58856476D01*
X76978571Y-58904095D01*
X77073809Y-58951714D01*
X77311904Y-58951714D01*
X77407142Y-58904095D01*
X77454761Y-58856476D01*
X77502380Y-58761238D01*
X77502380Y-58475523D01*
X77454761Y-58380285D01*
X77407142Y-58332666D01*
X77182380Y-61714095D02*
X76182380Y-61714095D01*
X77182380Y-62285523D02*
X76610952Y-61856952D01*
X76182380Y-62285523D02*
X76753809Y-61714095D01*
X72803380Y-95527904D02*
X71803380Y-95527904D01*
X71803380Y-95766000D01*
X71851000Y-95908857D01*
X71946238Y-96004095D01*
X72041476Y-96051714D01*
X72231952Y-96099333D01*
X72374809Y-96099333D01*
X72565285Y-96051714D01*
X72660523Y-96004095D01*
X72755761Y-95908857D01*
X72803380Y-95766000D01*
X72803380Y-95527904D01*
X71898619Y-96480285D02*
X71851000Y-96527904D01*
X71803380Y-96623142D01*
X71803380Y-96861238D01*
X71851000Y-96956476D01*
X71898619Y-97004095D01*
X71993857Y-97051714D01*
X72089095Y-97051714D01*
X72231952Y-97004095D01*
X72803380Y-96432666D01*
X72803380Y-97051714D01*
X72483380Y-99814095D02*
X71483380Y-99814095D01*
X72483380Y-100385523D02*
X71911952Y-99956952D01*
X71483380Y-100385523D02*
X72054809Y-99814095D01*
X67850380Y-76477904D02*
X66850380Y-76477904D01*
X66850380Y-76716000D01*
X66898000Y-76858857D01*
X66993238Y-76954095D01*
X67088476Y-77001714D01*
X67278952Y-77049333D01*
X67421809Y-77049333D01*
X67612285Y-77001714D01*
X67707523Y-76954095D01*
X67802761Y-76858857D01*
X67850380Y-76716000D01*
X67850380Y-76477904D01*
X67850380Y-78001714D02*
X67850380Y-77430285D01*
X67850380Y-77716000D02*
X66850380Y-77716000D01*
X66993238Y-77620761D01*
X67088476Y-77525523D01*
X67136095Y-77430285D01*
X67530380Y-80764095D02*
X66530380Y-80764095D01*
X67530380Y-81335523D02*
X66958952Y-80906952D01*
X66530380Y-81335523D02*
X67101809Y-80764095D01*
%LPC*%
D13*
X104775000Y-141605000D03*
X66675000Y-141605000D03*
D14*
X104775000Y-126365000D03*
X66675000Y-126365000D03*
D15*
X90805000Y-133350000D03*
X80645000Y-133350000D03*
D16*
X83225000Y-129350000D03*
D13*
X85725000Y-133350000D03*
D16*
X82570001Y-130080000D03*
D17*
X81915000Y-130810000D02*
X83225002Y-129350000D01*
D16*
X88265000Y-128270000D03*
X88245000Y-128560000D03*
D17*
X88225000Y-128850000D02*
X88265000Y-128270000D01*
D18*
X170434000Y-86614000D03*
D19*
X170434000Y-91694000D03*
D18*
X115062000Y-131064000D03*
D19*
X115062000Y-125984000D03*
D20*
X158242000Y-105664000D03*
X158242000Y-108204000D03*
X158242000Y-110744000D03*
X158242000Y-113284000D03*
X158242000Y-115824000D03*
X158242000Y-118364000D03*
X158242000Y-120904000D03*
X158242000Y-123444000D03*
X158242000Y-125984000D03*
X158242000Y-128524000D03*
X158242000Y-131064000D03*
X158242000Y-133604000D03*
X158242000Y-136144000D03*
X158242000Y-138684000D03*
X165862000Y-138684000D03*
X165862000Y-136144000D03*
X165862000Y-133604000D03*
X165862000Y-131064000D03*
X165862000Y-128524000D03*
X165862000Y-125984000D03*
X165862000Y-123444000D03*
X165862000Y-120904000D03*
X165862000Y-118364000D03*
X165862000Y-115824000D03*
X165862000Y-113284000D03*
X165862000Y-110744000D03*
X165862000Y-108204000D03*
D21*
X165862000Y-105664000D03*
D22*
X179757000Y-97354000D03*
X173557000Y-93654000D03*
X179757000Y-93654000D03*
X173557000Y-97354000D03*
D23*
X84328000Y-138176000D03*
D24*
X86868000Y-138176000D03*
D25*
X73100000Y-136930000D03*
X73100000Y-134390000D03*
X73100000Y-131850000D03*
D26*
X73100000Y-129310000D03*
D27*
X206248000Y-129540000D03*
D21*
X206248000Y-137160000D03*
D27*
X191516000Y-112014000D03*
D21*
X191516000Y-119634000D03*
D27*
X196215000Y-92456000D03*
D21*
X196215000Y-100076000D03*
D27*
X203708000Y-73406000D03*
D21*
X203708000Y-81026000D03*
D27*
X198501000Y-54356000D03*
D21*
X198501000Y-61976000D03*
D27*
X182372000Y-129540000D03*
D21*
X182372000Y-137160000D03*
D27*
X179832000Y-73406000D03*
D21*
X179832000Y-81026000D03*
D27*
X170180000Y-54356000D03*
D21*
X170180000Y-61976000D03*
D27*
X141478000Y-129540000D03*
D21*
X141478000Y-137160000D03*
D27*
X139446000Y-108712000D03*
D21*
X139446000Y-116332000D03*
D27*
X165354000Y-92456000D03*
D21*
X165354000Y-100076000D03*
D27*
X160782000Y-73406000D03*
D21*
X160782000Y-81026000D03*
D27*
X151130000Y-54356000D03*
D21*
X151130000Y-61976000D03*
D27*
X134874000Y-129540000D03*
D21*
X134874000Y-137160000D03*
D27*
X136906000Y-111506000D03*
D21*
X136906000Y-119126000D03*
D27*
X146304000Y-92456000D03*
D21*
X146304000Y-100076000D03*
D27*
X141605000Y-73406000D03*
D21*
X141605000Y-81026000D03*
D27*
X131826000Y-54356000D03*
D21*
X131826000Y-61976000D03*
D27*
X117856000Y-111506000D03*
D21*
X117856000Y-119126000D03*
D27*
X127508000Y-92456000D03*
D21*
X127508000Y-100076000D03*
D27*
X122682000Y-73406000D03*
D21*
X122682000Y-81026000D03*
D27*
X113030000Y-54356000D03*
D21*
X113030000Y-61976000D03*
D27*
X98806000Y-111506000D03*
D21*
X98806000Y-119126000D03*
D27*
X108204000Y-92456000D03*
D21*
X108204000Y-100076000D03*
D27*
X103378000Y-73406000D03*
D21*
X103378000Y-81026000D03*
D27*
X93980000Y-54356000D03*
D21*
X93980000Y-61976000D03*
D27*
X94234000Y-129540000D03*
D21*
X94234000Y-137160000D03*
D27*
X79756000Y-111506000D03*
D21*
X79756000Y-119126000D03*
D27*
X89408000Y-92456000D03*
D21*
X89408000Y-100076000D03*
D27*
X84582000Y-73406000D03*
D21*
X84582000Y-81026000D03*
D27*
X74930000Y-54356000D03*
D21*
X74930000Y-61976000D03*
D27*
X70231000Y-92456000D03*
D21*
X70231000Y-100076000D03*
D27*
X65278000Y-73406000D03*
D21*
X65278000Y-81026000D03*
D15*
X76517500Y-114300000D03*
X66357500Y-114300000D03*
D16*
X68937500Y-110300000D03*
D13*
X71437500Y-114300000D03*
D16*
X68282501Y-111030000D03*
D17*
X67627500Y-111760000D02*
X68937502Y-110300000D01*
D16*
X73977500Y-109220000D03*
X73957500Y-109510000D03*
D17*
X73937500Y-109800000D02*
X73977500Y-109220000D01*
D13*
X195294250Y-122555000D03*
X171418250Y-122555000D03*
D14*
X195294250Y-107315000D03*
X171418250Y-107315000D03*
D15*
X188436250Y-114300000D03*
X178276250Y-114300000D03*
D16*
X180856250Y-110300000D03*
D13*
X183356250Y-114300000D03*
D16*
X180201251Y-111030000D03*
D17*
X179546250Y-111760000D02*
X180856252Y-110300000D01*
D16*
X185896250Y-109220000D03*
X185876250Y-109510000D03*
D17*
X185856250Y-109800000D02*
X185896250Y-109220000D01*
D15*
X202723750Y-133350000D03*
X192563750Y-133350000D03*
D16*
X195143750Y-129350000D03*
D13*
X197643750Y-133350000D03*
D16*
X194488751Y-130080000D03*
D17*
X193833750Y-130810000D02*
X195143752Y-129350000D01*
D16*
X200183750Y-128270000D03*
X200163750Y-128560000D03*
D17*
X200143750Y-128850000D02*
X200183750Y-128270000D01*
D13*
X200056750Y-103505000D03*
X176180750Y-103505000D03*
D14*
X200056750Y-88265000D03*
X176180750Y-88265000D03*
D15*
X193198750Y-95250000D03*
X183038750Y-95250000D03*
D16*
X185618750Y-91250000D03*
D13*
X188118750Y-95250000D03*
D16*
X184963751Y-91980000D03*
D17*
X184308750Y-92710000D02*
X185618752Y-91250000D01*
D16*
X190658750Y-90170000D03*
X190638750Y-90460000D03*
D17*
X190618750Y-90750000D02*
X190658750Y-90170000D01*
D15*
X200342500Y-76200000D03*
X190182500Y-76200000D03*
D16*
X192762500Y-72200000D03*
D13*
X195262500Y-76200000D03*
D16*
X192107501Y-72930000D03*
D17*
X191452500Y-73660000D02*
X192762502Y-72200000D01*
D16*
X197802500Y-71120000D03*
X197782500Y-71410000D03*
D17*
X197762500Y-71700000D02*
X197802500Y-71120000D01*
D13*
X202438000Y-65405000D03*
X178562000Y-65405000D03*
D14*
X202438000Y-50165000D03*
X178562000Y-50165000D03*
D15*
X195580000Y-57150000D03*
X185420000Y-57150000D03*
D16*
X188000000Y-53150000D03*
D13*
X190500000Y-57150000D03*
D16*
X187345001Y-53880000D03*
D17*
X186690000Y-54610000D02*
X188000002Y-53150000D01*
D16*
X193040000Y-52070000D03*
X193020000Y-52360000D03*
D17*
X193000000Y-52650000D02*
X193040000Y-52070000D01*
D15*
X178911250Y-133350000D03*
X168751250Y-133350000D03*
D16*
X171331250Y-129350000D03*
D13*
X173831250Y-133350000D03*
D16*
X170676251Y-130080000D03*
D17*
X170021250Y-130810000D02*
X171331252Y-129350000D01*
D16*
X176371250Y-128270000D03*
X176351250Y-128560000D03*
D17*
X176331250Y-128850000D02*
X176371250Y-128270000D01*
D15*
X176530000Y-76200000D03*
X166370000Y-76200000D03*
D16*
X168950000Y-72200000D03*
D13*
X171450000Y-76200000D03*
D16*
X168295001Y-72930000D03*
D17*
X167640000Y-73660000D02*
X168950002Y-72200000D01*
D16*
X173990000Y-71120000D03*
X173970000Y-71410000D03*
D17*
X173950000Y-71700000D02*
X173990000Y-71120000D01*
D15*
X167005000Y-57150000D03*
X156845000Y-57150000D03*
D16*
X159425000Y-53150000D03*
D13*
X161925000Y-57150000D03*
D16*
X158770001Y-53880000D03*
D17*
X158115000Y-54610000D02*
X159425002Y-53150000D01*
D16*
X164465000Y-52070000D03*
X164445000Y-52360000D03*
D17*
X164425000Y-52650000D02*
X164465000Y-52070000D01*
D15*
X155098750Y-133350000D03*
X144938750Y-133350000D03*
D16*
X147518750Y-129350000D03*
D13*
X150018750Y-133350000D03*
D16*
X146863751Y-130080000D03*
D17*
X146208750Y-130810000D02*
X147518752Y-129350000D01*
D16*
X152558750Y-128270000D03*
X152538750Y-128560000D03*
D17*
X152518750Y-128850000D02*
X152558750Y-128270000D01*
D15*
X152717500Y-114300000D03*
X142557500Y-114300000D03*
D16*
X145137500Y-110300000D03*
D13*
X147637500Y-114300000D03*
D16*
X144482501Y-111030000D03*
D17*
X143827500Y-111760000D02*
X145137502Y-110300000D01*
D16*
X150177500Y-109220000D03*
X150157500Y-109510000D03*
D17*
X150137500Y-109800000D02*
X150177500Y-109220000D01*
D15*
X162242500Y-95250000D03*
X152082500Y-95250000D03*
D16*
X154662500Y-91250000D03*
D13*
X157162500Y-95250000D03*
D16*
X154007501Y-91980000D03*
D17*
X153352500Y-92710000D02*
X154662502Y-91250000D01*
D16*
X159702500Y-90170000D03*
X159682500Y-90460000D03*
D17*
X159662500Y-90750000D02*
X159702500Y-90170000D01*
D15*
X157480000Y-76200000D03*
X147320000Y-76200000D03*
D16*
X149900000Y-72200000D03*
D13*
X152400000Y-76200000D03*
D16*
X149245001Y-72930000D03*
D17*
X148590000Y-73660000D02*
X149900002Y-72200000D01*
D16*
X154940000Y-71120000D03*
X154920000Y-71410000D03*
D17*
X154900000Y-71700000D02*
X154940000Y-71120000D01*
D15*
X147955000Y-57150000D03*
X137795000Y-57150000D03*
D16*
X140375000Y-53150000D03*
D13*
X142875000Y-57150000D03*
D16*
X139720001Y-53880000D03*
D17*
X139065000Y-54610000D02*
X140375002Y-53150000D01*
D16*
X145415000Y-52070000D03*
X145395000Y-52360000D03*
D17*
X145375000Y-52650000D02*
X145415000Y-52070000D01*
D15*
X131286250Y-133350000D03*
X121126250Y-133350000D03*
D16*
X123706250Y-129350000D03*
D13*
X126206250Y-133350000D03*
D16*
X123051251Y-130080000D03*
D17*
X122396250Y-130810000D02*
X123706252Y-129350000D01*
D16*
X128746250Y-128270000D03*
X128726250Y-128560000D03*
D17*
X128706250Y-128850000D02*
X128746250Y-128270000D01*
D15*
X133667500Y-114300000D03*
X123507500Y-114300000D03*
D16*
X126087500Y-110300000D03*
D13*
X128587500Y-114300000D03*
D16*
X125432501Y-111030000D03*
D17*
X124777500Y-111760000D02*
X126087502Y-110300000D01*
D16*
X131127500Y-109220000D03*
X131107500Y-109510000D03*
D17*
X131087500Y-109800000D02*
X131127500Y-109220000D01*
D15*
X143192500Y-95250000D03*
X133032500Y-95250000D03*
D16*
X135612500Y-91250000D03*
D13*
X138112500Y-95250000D03*
D16*
X134957501Y-91980000D03*
D17*
X134302500Y-92710000D02*
X135612502Y-91250000D01*
D16*
X140652500Y-90170000D03*
X140632500Y-90460000D03*
D17*
X140612500Y-90750000D02*
X140652500Y-90170000D01*
D15*
X138430000Y-76200000D03*
X128270000Y-76200000D03*
D16*
X130850000Y-72200000D03*
D13*
X133350000Y-76200000D03*
D16*
X130195001Y-72930000D03*
D17*
X129540000Y-73660000D02*
X130850002Y-72200000D01*
D16*
X135890000Y-71120000D03*
X135870000Y-71410000D03*
D17*
X135850000Y-71700000D02*
X135890000Y-71120000D01*
D15*
X128905000Y-57150000D03*
X118745000Y-57150000D03*
D16*
X121325000Y-53150000D03*
D13*
X123825000Y-57150000D03*
D16*
X120670001Y-53880000D03*
D17*
X120015000Y-54610000D02*
X121325002Y-53150000D01*
D16*
X126365000Y-52070000D03*
X126345000Y-52360000D03*
D17*
X126325000Y-52650000D02*
X126365000Y-52070000D01*
D15*
X114617500Y-114300000D03*
X104457500Y-114300000D03*
D16*
X107037500Y-110300000D03*
D13*
X109537500Y-114300000D03*
D16*
X106382501Y-111030000D03*
D17*
X105727500Y-111760000D02*
X107037502Y-110300000D01*
D16*
X112077500Y-109220000D03*
X112057500Y-109510000D03*
D17*
X112037500Y-109800000D02*
X112077500Y-109220000D01*
D15*
X124142500Y-95250000D03*
X113982500Y-95250000D03*
D16*
X116562500Y-91250000D03*
D13*
X119062500Y-95250000D03*
D16*
X115907501Y-91980000D03*
D17*
X115252500Y-92710000D02*
X116562502Y-91250000D01*
D16*
X121602500Y-90170000D03*
X121582500Y-90460000D03*
D17*
X121562500Y-90750000D02*
X121602500Y-90170000D01*
D15*
X119380000Y-76200000D03*
X109220000Y-76200000D03*
D16*
X111800000Y-72200000D03*
D13*
X114300000Y-76200000D03*
D16*
X111145001Y-72930000D03*
D17*
X110490000Y-73660000D02*
X111800002Y-72200000D01*
D16*
X116840000Y-71120000D03*
X116820000Y-71410000D03*
D17*
X116800000Y-71700000D02*
X116840000Y-71120000D01*
D15*
X109855000Y-57150000D03*
X99695000Y-57150000D03*
D16*
X102275000Y-53150000D03*
D13*
X104775000Y-57150000D03*
D16*
X101620001Y-53880000D03*
D17*
X100965000Y-54610000D02*
X102275002Y-53150000D01*
D16*
X107315000Y-52070000D03*
X107295000Y-52360000D03*
D17*
X107275000Y-52650000D02*
X107315000Y-52070000D01*
D15*
X95567500Y-114300000D03*
X85407500Y-114300000D03*
D16*
X87987500Y-110300000D03*
D13*
X90487500Y-114300000D03*
D16*
X87332501Y-111030000D03*
D17*
X86677500Y-111760000D02*
X87987502Y-110300000D01*
D16*
X93027500Y-109220000D03*
X93007500Y-109510000D03*
D17*
X92987500Y-109800000D02*
X93027500Y-109220000D01*
D15*
X105092500Y-95250000D03*
X94932500Y-95250000D03*
D16*
X97512500Y-91250000D03*
D13*
X100012500Y-95250000D03*
D16*
X96857501Y-91980000D03*
D17*
X96202500Y-92710000D02*
X97512502Y-91250000D01*
D16*
X102552500Y-90170000D03*
X102532500Y-90460000D03*
D17*
X102512500Y-90750000D02*
X102552500Y-90170000D01*
D15*
X100330000Y-76200000D03*
X90170000Y-76200000D03*
D16*
X92750000Y-72200000D03*
D13*
X95250000Y-76200000D03*
D16*
X92095001Y-72930000D03*
D17*
X91440000Y-73660000D02*
X92750002Y-72200000D01*
D16*
X97790000Y-71120000D03*
X97770000Y-71410000D03*
D17*
X97750000Y-71700000D02*
X97790000Y-71120000D01*
D15*
X90805000Y-57150000D03*
X80645000Y-57150000D03*
D16*
X83225000Y-53150000D03*
D13*
X85725000Y-57150000D03*
D16*
X82570001Y-53880000D03*
D17*
X81915000Y-54610000D02*
X83225002Y-53150000D01*
D16*
X88265000Y-52070000D03*
X88245000Y-52360000D03*
D17*
X88225000Y-52650000D02*
X88265000Y-52070000D01*
D15*
X86042500Y-95250000D03*
X75882500Y-95250000D03*
D16*
X78462500Y-91250000D03*
D13*
X80962500Y-95250000D03*
D16*
X77807501Y-91980000D03*
D17*
X77152500Y-92710000D02*
X78462502Y-91250000D01*
D16*
X83502500Y-90170000D03*
X83482500Y-90460000D03*
D17*
X83462500Y-90750000D02*
X83502500Y-90170000D01*
D15*
X81280000Y-76200000D03*
X71120000Y-76200000D03*
D16*
X73700000Y-72200000D03*
D13*
X76200000Y-76200000D03*
D16*
X73045001Y-72930000D03*
D17*
X72390000Y-73660000D02*
X73700002Y-72200000D01*
D16*
X78740000Y-71120000D03*
X78720000Y-71410000D03*
D17*
X78700000Y-71700000D02*
X78740000Y-71120000D01*
D15*
X71755000Y-57150000D03*
X61595000Y-57150000D03*
D16*
X64175000Y-53150000D03*
D13*
X66675000Y-57150000D03*
D16*
X63520001Y-53880000D03*
D17*
X62865000Y-54610000D02*
X64175002Y-53150000D01*
D16*
X69215000Y-52070000D03*
X69195000Y-52360000D03*
D17*
X69175000Y-52650000D02*
X69215000Y-52070000D01*
D15*
X66992500Y-95250000D03*
X56832500Y-95250000D03*
D16*
X59412500Y-91250000D03*
D13*
X61912500Y-95250000D03*
D16*
X58757501Y-91980000D03*
D17*
X58102500Y-92710000D02*
X59412502Y-91250000D01*
D16*
X64452500Y-90170000D03*
X64432500Y-90460000D03*
D17*
X64412500Y-90750000D02*
X64452500Y-90170000D01*
D15*
X62230000Y-76200000D03*
X52070000Y-76200000D03*
D16*
X54650000Y-72200000D03*
D13*
X57150000Y-76200000D03*
D16*
X53995001Y-72930000D03*
D17*
X53340000Y-73660000D02*
X54650002Y-72200000D01*
D16*
X59690000Y-71120000D03*
X59670000Y-71410000D03*
D17*
X59650000Y-71700000D02*
X59690000Y-71120000D01*
M02*
