M48
; DRILL file {KiCad (5.1.4-0-10_14)} date Thursday, October 01, 2020 at 03:16:46 AM
; FORMAT={-:-/ absolute / inch / decimal}
; #@! TF.CreationDate,2020-10-01T03:16:46-07:00
; #@! TF.GenerationSoftware,Kicad,Pcbnew,(5.1.4-0-10_14)
; #@! TF.FileFunction,NonPlated,1,2,NPTH
FMAT,2
INCH
T1C0.0689
T2C0.1200
T3C0.1570
%
G90
G05
T1
X3.5812Y-3.125
X3.9812Y-3.125
X3.3937Y-4.625
X3.7937Y-4.625
X5.175Y-2.375
X5.575Y-2.375
X5.925Y-2.375
X6.325Y-2.375
X7.6125Y-3.125
X8.0125Y-3.125
X4.8Y-1.625
X5.2Y-1.625
X3.3Y-1.625
X3.7Y-1.625
X5.2687Y-4.625
X5.6688Y-4.625
X7.05Y-1.625
X7.45Y-1.625
X6.3Y-1.625
X6.7Y-1.625
X6.8625Y-4.625
X7.2625Y-4.625
X4.6125Y-3.125
X5.0125Y-3.125
X5.3625Y-3.125
X5.7625Y-3.125
X6.1125Y-3.125
X6.5125Y-3.125
X6.8625Y-3.125
X7.2625Y-3.125
X5.55Y-1.625
X4.05Y-1.625
X4.45Y-1.625
X7.9875Y-3.875
X8.3875Y-3.875
X3.7687Y-3.875
X4.1688Y-3.875
X7.8Y-1.625
X3.4875Y-2.375
X5.95Y-1.625
X7.425Y-2.375
X3.8875Y-2.375
X5.7375Y-3.875
X6.1375Y-3.875
X6.4875Y-3.875
X6.8875Y-3.875
X6.675Y-2.375
X4.425Y-2.375
X4.9875Y-3.875
X5.3875Y-3.875
X8.2Y-1.625
X7.825Y-2.375
X4.825Y-2.375
X7.2375Y-3.875
X7.6375Y-3.875
X4.3312Y-4.625
X4.7313Y-4.625
X7.075Y-2.375
T2
X6.3125Y-4.35
X7.8125Y-4.35
X3.4987Y-3.6
X4.4387Y-3.6
T3
X6.125Y-2.375
X3.7812Y-3.125
X7.8125Y-3.125
X3.4987Y-4.2
X3.9688Y-3.875
X4.5312Y-4.625
X4.4387Y-4.2
X5.75Y-1.625
X7.625Y-2.375
X5.1875Y-3.875
X8.0Y-1.625
X3.6875Y-2.375
X4.625Y-2.375
X5.9375Y-3.875
X6.6875Y-3.875
X5.375Y-2.375
X7.4375Y-3.875
X3.5938Y-4.625
X5.0Y-1.625
X6.875Y-2.375
X5.4688Y-4.625
X3.5Y-1.625
X7.25Y-1.625
X6.3125Y-4.95
X7.0625Y-4.625
X7.8125Y-4.95
X4.8125Y-3.125
X5.5625Y-3.125
X7.0625Y-3.125
X6.5Y-1.625
X4.25Y-1.625
X6.3125Y-3.125
X8.1875Y-3.875
T0
M30
