G04 #@! TF.GenerationSoftware,KiCad,Pcbnew,(5.1.4-0-10_14)*
G04 #@! TF.CreationDate,2020-10-01T03:15:46-07:00*
G04 #@! TF.ProjectId,mpm62-kb-left,6d706d36-322d-46b6-922d-6c6566742e6b,rev?*
G04 #@! TF.SameCoordinates,Original*
G04 #@! TF.FileFunction,Legend,Bot*
G04 #@! TF.FilePolarity,Positive*
%FSLAX46Y46*%
G04 Gerber Fmt 4.6, Leading zero omitted, Abs format (unit mm)*
G04 Created by KiCad (PCBNEW (5.1.4-0-10_14)) date 2020-10-01 03:15:46*
%MOMM*%
%LPD*%
G04 APERTURE LIST*
%ADD10C,0.150000*%
%ADD11C,0.120000*%
%ADD12C,1.702000*%
%ADD13R,1.702000X1.702000*%
%ADD14R,1.902000X1.202000*%
%ADD15O,1.502000X1.502000*%
%ADD16C,1.502000*%
%ADD17C,1.852000*%
%ADD18C,2.352000*%
%ADD19C,4.089800*%
%ADD20C,2.352000*%
%ADD21C,3.150000*%
%ADD22O,1.802000X1.802000*%
%ADD23R,1.802000X1.802000*%
%ADD24O,1.702000X1.702000*%
%ADD25C,1.902000*%
%ADD26R,1.902000X1.902000*%
G04 APERTURE END LIST*
D10*
X111840000Y-69215000D02*
X111840000Y-51435000D01*
X81360000Y-69215000D02*
X111840000Y-69215000D01*
X81360000Y-64135000D02*
X81360000Y-69215000D01*
X78820000Y-64135000D02*
X81360000Y-64135000D01*
X78820000Y-56515000D02*
X78820000Y-64135000D01*
X81360000Y-56515000D02*
X78820000Y-56515000D01*
X81360000Y-51435000D02*
X81360000Y-56515000D01*
X81360000Y-51435000D02*
X111840000Y-51435000D01*
X108271000Y-82102000D02*
X113471000Y-82102000D01*
X113471000Y-82102000D02*
X113471000Y-76902000D01*
X113471000Y-76902000D02*
X108271000Y-76902000D01*
X108271000Y-76902000D02*
X108271000Y-82102000D01*
X111871000Y-79502000D02*
G75*
G03X111871000Y-79502000I-1000000J0D01*
G01*
D11*
X84805000Y-83581000D02*
X84805000Y-79741000D01*
X86645000Y-83581000D02*
X86645000Y-79741000D01*
X87091000Y-81168000D02*
X87091000Y-77328000D01*
X88931000Y-81168000D02*
X88931000Y-77328000D01*
X194211250Y-112176250D02*
X192881250Y-112176250D01*
X194211250Y-113506250D02*
X194211250Y-112176250D01*
X194211250Y-114776250D02*
X191551250Y-114776250D01*
X191551250Y-114776250D02*
X191551250Y-122456250D01*
X194211250Y-114776250D02*
X194211250Y-122456250D01*
X194211250Y-122456250D02*
X191551250Y-122456250D01*
X200891000Y-98294000D02*
X198651000Y-98294000D01*
X200891000Y-98054000D02*
X198651000Y-98054000D01*
X200891000Y-98174000D02*
X198651000Y-98174000D01*
X199771000Y-94004000D02*
X199771000Y-94654000D01*
X199771000Y-99544000D02*
X199771000Y-98894000D01*
X200891000Y-94654000D02*
X200891000Y-98894000D01*
X198651000Y-94654000D02*
X200891000Y-94654000D01*
X198651000Y-98894000D02*
X198651000Y-94654000D01*
X200891000Y-98894000D02*
X198651000Y-98894000D01*
X196065000Y-41271000D02*
X193825000Y-41271000D01*
X196065000Y-41031000D02*
X193825000Y-41031000D01*
X196065000Y-41151000D02*
X193825000Y-41151000D01*
X194945000Y-36981000D02*
X194945000Y-37631000D01*
X194945000Y-42521000D02*
X194945000Y-41871000D01*
X196065000Y-37631000D02*
X196065000Y-41871000D01*
X193825000Y-37631000D02*
X196065000Y-37631000D01*
X193825000Y-41871000D02*
X193825000Y-37631000D01*
X196065000Y-41871000D02*
X193825000Y-41871000D01*
X171427000Y-120138000D02*
X169187000Y-120138000D01*
X171427000Y-119898000D02*
X169187000Y-119898000D01*
X171427000Y-120018000D02*
X169187000Y-120018000D01*
X170307000Y-115848000D02*
X170307000Y-116498000D01*
X170307000Y-121388000D02*
X170307000Y-120738000D01*
X171427000Y-116498000D02*
X171427000Y-120738000D01*
X169187000Y-116498000D02*
X171427000Y-116498000D01*
X169187000Y-120738000D02*
X169187000Y-116498000D01*
X171427000Y-120738000D02*
X169187000Y-120738000D01*
X198224000Y-100834000D02*
X195984000Y-100834000D01*
X198224000Y-100594000D02*
X195984000Y-100594000D01*
X198224000Y-100714000D02*
X195984000Y-100714000D01*
X197104000Y-96544000D02*
X197104000Y-97194000D01*
X197104000Y-102084000D02*
X197104000Y-101434000D01*
X198224000Y-97194000D02*
X198224000Y-101434000D01*
X195984000Y-97194000D02*
X198224000Y-97194000D01*
X195984000Y-101434000D02*
X195984000Y-97194000D01*
X198224000Y-101434000D02*
X195984000Y-101434000D01*
X191493000Y-79117000D02*
X189253000Y-79117000D01*
X191493000Y-78877000D02*
X189253000Y-78877000D01*
X191493000Y-78997000D02*
X189253000Y-78997000D01*
X190373000Y-74827000D02*
X190373000Y-75477000D01*
X190373000Y-80367000D02*
X190373000Y-79717000D01*
X191493000Y-75477000D02*
X191493000Y-79717000D01*
X189253000Y-75477000D02*
X191493000Y-75477000D01*
X189253000Y-79717000D02*
X189253000Y-75477000D01*
X191493000Y-79717000D02*
X189253000Y-79717000D01*
X194822000Y-70081000D02*
X194822000Y-67841000D01*
X195062000Y-70081000D02*
X195062000Y-67841000D01*
X194942000Y-70081000D02*
X194942000Y-67841000D01*
X199112000Y-68961000D02*
X198462000Y-68961000D01*
X193572000Y-68961000D02*
X194222000Y-68961000D01*
X198462000Y-70081000D02*
X194222000Y-70081000D01*
X198462000Y-67841000D02*
X198462000Y-70081000D01*
X194222000Y-67841000D02*
X198462000Y-67841000D01*
X194222000Y-70081000D02*
X194222000Y-67841000D01*
X193398000Y-44573000D02*
X191158000Y-44573000D01*
X193398000Y-44333000D02*
X191158000Y-44333000D01*
X193398000Y-44453000D02*
X191158000Y-44453000D01*
X192278000Y-40283000D02*
X192278000Y-40933000D01*
X192278000Y-45823000D02*
X192278000Y-45173000D01*
X193398000Y-40933000D02*
X193398000Y-45173000D01*
X191158000Y-40933000D02*
X193398000Y-40933000D01*
X191158000Y-45173000D02*
X191158000Y-40933000D01*
X193398000Y-45173000D02*
X191158000Y-45173000D01*
X179301000Y-100707000D02*
X177061000Y-100707000D01*
X179301000Y-100467000D02*
X177061000Y-100467000D01*
X179301000Y-100587000D02*
X177061000Y-100587000D01*
X178181000Y-96417000D02*
X178181000Y-97067000D01*
X178181000Y-101957000D02*
X178181000Y-101307000D01*
X179301000Y-97067000D02*
X179301000Y-101307000D01*
X177061000Y-97067000D02*
X179301000Y-97067000D01*
X177061000Y-101307000D02*
X177061000Y-97067000D01*
X179301000Y-101307000D02*
X177061000Y-101307000D01*
X188699000Y-81403000D02*
X186459000Y-81403000D01*
X188699000Y-81163000D02*
X186459000Y-81163000D01*
X188699000Y-81283000D02*
X186459000Y-81283000D01*
X187579000Y-77113000D02*
X187579000Y-77763000D01*
X187579000Y-82653000D02*
X187579000Y-82003000D01*
X188699000Y-77763000D02*
X188699000Y-82003000D01*
X186459000Y-77763000D02*
X188699000Y-77763000D01*
X186459000Y-82003000D02*
X186459000Y-77763000D01*
X188699000Y-82003000D02*
X186459000Y-82003000D01*
X184000000Y-62734000D02*
X181760000Y-62734000D01*
X184000000Y-62494000D02*
X181760000Y-62494000D01*
X184000000Y-62614000D02*
X181760000Y-62614000D01*
X182880000Y-58444000D02*
X182880000Y-59094000D01*
X182880000Y-63984000D02*
X182880000Y-63334000D01*
X184000000Y-59094000D02*
X184000000Y-63334000D01*
X181760000Y-59094000D02*
X184000000Y-59094000D01*
X181760000Y-63334000D02*
X181760000Y-59094000D01*
X184000000Y-63334000D02*
X181760000Y-63334000D01*
X174729000Y-44573000D02*
X172489000Y-44573000D01*
X174729000Y-44333000D02*
X172489000Y-44333000D01*
X174729000Y-44453000D02*
X172489000Y-44453000D01*
X173609000Y-40283000D02*
X173609000Y-40933000D01*
X173609000Y-45823000D02*
X173609000Y-45173000D01*
X174729000Y-40933000D02*
X174729000Y-45173000D01*
X172489000Y-40933000D02*
X174729000Y-40933000D01*
X172489000Y-45173000D02*
X172489000Y-40933000D01*
X174729000Y-45173000D02*
X172489000Y-45173000D01*
X160251000Y-100707000D02*
X158011000Y-100707000D01*
X160251000Y-100467000D02*
X158011000Y-100467000D01*
X160251000Y-100587000D02*
X158011000Y-100587000D01*
X159131000Y-96417000D02*
X159131000Y-97067000D01*
X159131000Y-101957000D02*
X159131000Y-101307000D01*
X160251000Y-97067000D02*
X160251000Y-101307000D01*
X158011000Y-97067000D02*
X160251000Y-97067000D01*
X158011000Y-101307000D02*
X158011000Y-97067000D01*
X160251000Y-101307000D02*
X158011000Y-101307000D01*
X170030000Y-81403000D02*
X167790000Y-81403000D01*
X170030000Y-81163000D02*
X167790000Y-81163000D01*
X170030000Y-81283000D02*
X167790000Y-81283000D01*
X168910000Y-77113000D02*
X168910000Y-77763000D01*
X168910000Y-82653000D02*
X168910000Y-82003000D01*
X170030000Y-77763000D02*
X170030000Y-82003000D01*
X167790000Y-77763000D02*
X170030000Y-77763000D01*
X167790000Y-82003000D02*
X167790000Y-77763000D01*
X170030000Y-82003000D02*
X167790000Y-82003000D01*
X165077000Y-62734000D02*
X162837000Y-62734000D01*
X165077000Y-62494000D02*
X162837000Y-62494000D01*
X165077000Y-62614000D02*
X162837000Y-62614000D01*
X163957000Y-58444000D02*
X163957000Y-59094000D01*
X163957000Y-63984000D02*
X163957000Y-63334000D01*
X165077000Y-59094000D02*
X165077000Y-63334000D01*
X162837000Y-59094000D02*
X165077000Y-59094000D01*
X162837000Y-63334000D02*
X162837000Y-59094000D01*
X165077000Y-63334000D02*
X162837000Y-63334000D01*
X155298000Y-44573000D02*
X153058000Y-44573000D01*
X155298000Y-44333000D02*
X153058000Y-44333000D01*
X155298000Y-44453000D02*
X153058000Y-44453000D01*
X154178000Y-40283000D02*
X154178000Y-40933000D01*
X154178000Y-45823000D02*
X154178000Y-45173000D01*
X155298000Y-40933000D02*
X155298000Y-45173000D01*
X153058000Y-40933000D02*
X155298000Y-40933000D01*
X153058000Y-45173000D02*
X153058000Y-40933000D01*
X155298000Y-45173000D02*
X153058000Y-45173000D01*
X148821000Y-120265000D02*
X146581000Y-120265000D01*
X148821000Y-120025000D02*
X146581000Y-120025000D01*
X148821000Y-120145000D02*
X146581000Y-120145000D01*
X147701000Y-115975000D02*
X147701000Y-116625000D01*
X147701000Y-121515000D02*
X147701000Y-120865000D01*
X148821000Y-116625000D02*
X148821000Y-120865000D01*
X146581000Y-116625000D02*
X148821000Y-116625000D01*
X146581000Y-120865000D02*
X146581000Y-116625000D01*
X148821000Y-120865000D02*
X146581000Y-120865000D01*
X141201000Y-100707000D02*
X138961000Y-100707000D01*
X141201000Y-100467000D02*
X138961000Y-100467000D01*
X141201000Y-100587000D02*
X138961000Y-100587000D01*
X140081000Y-96417000D02*
X140081000Y-97067000D01*
X140081000Y-101957000D02*
X140081000Y-101307000D01*
X141201000Y-97067000D02*
X141201000Y-101307000D01*
X138961000Y-97067000D02*
X141201000Y-97067000D01*
X138961000Y-101307000D02*
X138961000Y-97067000D01*
X141201000Y-101307000D02*
X138961000Y-101307000D01*
X150726000Y-81403000D02*
X148486000Y-81403000D01*
X150726000Y-81163000D02*
X148486000Y-81163000D01*
X150726000Y-81283000D02*
X148486000Y-81283000D01*
X149606000Y-77113000D02*
X149606000Y-77763000D01*
X149606000Y-82653000D02*
X149606000Y-82003000D01*
X150726000Y-77763000D02*
X150726000Y-82003000D01*
X148486000Y-77763000D02*
X150726000Y-77763000D01*
X148486000Y-82003000D02*
X148486000Y-77763000D01*
X150726000Y-82003000D02*
X148486000Y-82003000D01*
X145900000Y-62734000D02*
X143660000Y-62734000D01*
X145900000Y-62494000D02*
X143660000Y-62494000D01*
X145900000Y-62614000D02*
X143660000Y-62614000D01*
X144780000Y-58444000D02*
X144780000Y-59094000D01*
X144780000Y-63984000D02*
X144780000Y-63334000D01*
X145900000Y-59094000D02*
X145900000Y-63334000D01*
X143660000Y-59094000D02*
X145900000Y-59094000D01*
X143660000Y-63334000D02*
X143660000Y-59094000D01*
X145900000Y-63334000D02*
X143660000Y-63334000D01*
X136629000Y-44573000D02*
X134389000Y-44573000D01*
X136629000Y-44333000D02*
X134389000Y-44333000D01*
X136629000Y-44453000D02*
X134389000Y-44453000D01*
X135509000Y-40283000D02*
X135509000Y-40933000D01*
X135509000Y-45823000D02*
X135509000Y-45173000D01*
X136629000Y-40933000D02*
X136629000Y-45173000D01*
X134389000Y-40933000D02*
X136629000Y-40933000D01*
X134389000Y-45173000D02*
X134389000Y-40933000D01*
X136629000Y-45173000D02*
X134389000Y-45173000D01*
X124945000Y-120265000D02*
X122705000Y-120265000D01*
X124945000Y-120025000D02*
X122705000Y-120025000D01*
X124945000Y-120145000D02*
X122705000Y-120145000D01*
X123825000Y-115975000D02*
X123825000Y-116625000D01*
X123825000Y-121515000D02*
X123825000Y-120865000D01*
X124945000Y-116625000D02*
X124945000Y-120865000D01*
X122705000Y-116625000D02*
X124945000Y-116625000D01*
X122705000Y-120865000D02*
X122705000Y-116625000D01*
X124945000Y-120865000D02*
X122705000Y-120865000D01*
X131676000Y-81403000D02*
X129436000Y-81403000D01*
X131676000Y-81163000D02*
X129436000Y-81163000D01*
X131676000Y-81283000D02*
X129436000Y-81283000D01*
X130556000Y-77113000D02*
X130556000Y-77763000D01*
X130556000Y-82653000D02*
X130556000Y-82003000D01*
X131676000Y-77763000D02*
X131676000Y-82003000D01*
X129436000Y-77763000D02*
X131676000Y-77763000D01*
X129436000Y-82003000D02*
X129436000Y-77763000D01*
X131676000Y-82003000D02*
X129436000Y-82003000D01*
X126977000Y-62734000D02*
X124737000Y-62734000D01*
X126977000Y-62494000D02*
X124737000Y-62494000D01*
X126977000Y-62614000D02*
X124737000Y-62614000D01*
X125857000Y-58444000D02*
X125857000Y-59094000D01*
X125857000Y-63984000D02*
X125857000Y-63334000D01*
X126977000Y-59094000D02*
X126977000Y-63334000D01*
X124737000Y-59094000D02*
X126977000Y-59094000D01*
X124737000Y-63334000D02*
X124737000Y-59094000D01*
X126977000Y-63334000D02*
X124737000Y-63334000D01*
X117452000Y-44573000D02*
X115212000Y-44573000D01*
X117452000Y-44333000D02*
X115212000Y-44333000D01*
X117452000Y-44453000D02*
X115212000Y-44453000D01*
X116332000Y-40283000D02*
X116332000Y-40933000D01*
X116332000Y-45823000D02*
X116332000Y-45173000D01*
X117452000Y-40933000D02*
X117452000Y-45173000D01*
X115212000Y-40933000D02*
X117452000Y-40933000D01*
X115212000Y-45173000D02*
X115212000Y-40933000D01*
X117452000Y-45173000D02*
X115212000Y-45173000D01*
X101069000Y-120265000D02*
X98829000Y-120265000D01*
X101069000Y-120025000D02*
X98829000Y-120025000D01*
X101069000Y-120145000D02*
X98829000Y-120145000D01*
X99949000Y-115975000D02*
X99949000Y-116625000D01*
X99949000Y-121515000D02*
X99949000Y-120865000D01*
X101069000Y-116625000D02*
X101069000Y-120865000D01*
X98829000Y-116625000D02*
X101069000Y-116625000D01*
X98829000Y-120865000D02*
X98829000Y-116625000D01*
X101069000Y-120865000D02*
X98829000Y-120865000D01*
X110721000Y-100707000D02*
X108481000Y-100707000D01*
X110721000Y-100467000D02*
X108481000Y-100467000D01*
X110721000Y-100587000D02*
X108481000Y-100587000D01*
X109601000Y-96417000D02*
X109601000Y-97067000D01*
X109601000Y-101957000D02*
X109601000Y-101307000D01*
X110721000Y-97067000D02*
X110721000Y-101307000D01*
X108481000Y-97067000D02*
X110721000Y-97067000D01*
X108481000Y-101307000D02*
X108481000Y-97067000D01*
X110721000Y-101307000D02*
X108481000Y-101307000D01*
X105387000Y-81403000D02*
X103147000Y-81403000D01*
X105387000Y-81163000D02*
X103147000Y-81163000D01*
X105387000Y-81283000D02*
X103147000Y-81283000D01*
X104267000Y-77113000D02*
X104267000Y-77763000D01*
X104267000Y-82653000D02*
X104267000Y-82003000D01*
X105387000Y-77763000D02*
X105387000Y-82003000D01*
X103147000Y-77763000D02*
X105387000Y-77763000D01*
X103147000Y-82003000D02*
X103147000Y-77763000D01*
X105387000Y-82003000D02*
X103147000Y-82003000D01*
X129517000Y-59813000D02*
X127277000Y-59813000D01*
X129517000Y-59573000D02*
X127277000Y-59573000D01*
X129517000Y-59693000D02*
X127277000Y-59693000D01*
X128397000Y-55523000D02*
X128397000Y-56173000D01*
X128397000Y-61063000D02*
X128397000Y-60413000D01*
X129517000Y-56173000D02*
X129517000Y-60413000D01*
X127277000Y-56173000D02*
X129517000Y-56173000D01*
X127277000Y-60413000D02*
X127277000Y-56173000D01*
X129517000Y-60413000D02*
X127277000Y-60413000D01*
X98402000Y-44573000D02*
X96162000Y-44573000D01*
X98402000Y-44333000D02*
X96162000Y-44333000D01*
X98402000Y-44453000D02*
X96162000Y-44453000D01*
X97282000Y-40283000D02*
X97282000Y-40933000D01*
X97282000Y-45823000D02*
X97282000Y-45173000D01*
X98402000Y-40933000D02*
X98402000Y-45173000D01*
X96162000Y-40933000D02*
X98402000Y-40933000D01*
X96162000Y-45173000D02*
X96162000Y-40933000D01*
X98402000Y-45173000D02*
X96162000Y-45173000D01*
D10*
X112204333Y-75842761D02*
X112061476Y-75890380D01*
X111823380Y-75890380D01*
X111728142Y-75842761D01*
X111680523Y-75795142D01*
X111632904Y-75699904D01*
X111632904Y-75604666D01*
X111680523Y-75509428D01*
X111728142Y-75461809D01*
X111823380Y-75414190D01*
X112013857Y-75366571D01*
X112109095Y-75318952D01*
X112156714Y-75271333D01*
X112204333Y-75176095D01*
X112204333Y-75080857D01*
X112156714Y-74985619D01*
X112109095Y-74938000D01*
X112013857Y-74890380D01*
X111775761Y-74890380D01*
X111632904Y-74938000D01*
X111299571Y-74890380D02*
X111061476Y-75890380D01*
X110871000Y-75176095D01*
X110680523Y-75890380D01*
X110442428Y-74890380D01*
X109537666Y-75890380D02*
X110109095Y-75890380D01*
X109823380Y-75890380D02*
X109823380Y-74890380D01*
X109918619Y-75033238D01*
X110013857Y-75128476D01*
X110109095Y-75176095D01*
X88097380Y-81494333D02*
X87621190Y-81161000D01*
X88097380Y-80922904D02*
X87097380Y-80922904D01*
X87097380Y-81303857D01*
X87145000Y-81399095D01*
X87192619Y-81446714D01*
X87287857Y-81494333D01*
X87430714Y-81494333D01*
X87525952Y-81446714D01*
X87573571Y-81399095D01*
X87621190Y-81303857D01*
X87621190Y-80922904D01*
X87192619Y-81875285D02*
X87145000Y-81922904D01*
X87097380Y-82018142D01*
X87097380Y-82256238D01*
X87145000Y-82351476D01*
X87192619Y-82399095D01*
X87287857Y-82446714D01*
X87383095Y-82446714D01*
X87525952Y-82399095D01*
X88097380Y-81827666D01*
X88097380Y-82446714D01*
X90383380Y-79081333D02*
X89907190Y-78748000D01*
X90383380Y-78509904D02*
X89383380Y-78509904D01*
X89383380Y-78890857D01*
X89431000Y-78986095D01*
X89478619Y-79033714D01*
X89573857Y-79081333D01*
X89716714Y-79081333D01*
X89811952Y-79033714D01*
X89859571Y-78986095D01*
X89907190Y-78890857D01*
X89907190Y-78509904D01*
X90383380Y-80033714D02*
X90383380Y-79462285D01*
X90383380Y-79748000D02*
X89383380Y-79748000D01*
X89526238Y-79652761D01*
X89621476Y-79557523D01*
X89669095Y-79462285D01*
X193214583Y-110628630D02*
X193214583Y-111342916D01*
X193262202Y-111485773D01*
X193357440Y-111581011D01*
X193500297Y-111628630D01*
X193595535Y-111628630D01*
X192214583Y-111628630D02*
X192786011Y-111628630D01*
X192500297Y-111628630D02*
X192500297Y-110628630D01*
X192595535Y-110771488D01*
X192690773Y-110866726D01*
X192786011Y-110914345D01*
X202343380Y-95559714D02*
X201343380Y-95559714D01*
X201343380Y-95797809D01*
X201391000Y-95940666D01*
X201486238Y-96035904D01*
X201581476Y-96083523D01*
X201771952Y-96131142D01*
X201914809Y-96131142D01*
X202105285Y-96083523D01*
X202200523Y-96035904D01*
X202295761Y-95940666D01*
X202343380Y-95797809D01*
X202343380Y-95559714D01*
X201438619Y-96512095D02*
X201391000Y-96559714D01*
X201343380Y-96654952D01*
X201343380Y-96893047D01*
X201391000Y-96988285D01*
X201438619Y-97035904D01*
X201533857Y-97083523D01*
X201629095Y-97083523D01*
X201771952Y-97035904D01*
X202343380Y-96464476D01*
X202343380Y-97083523D01*
X202343380Y-97559714D02*
X202343380Y-97750190D01*
X202295761Y-97845428D01*
X202248142Y-97893047D01*
X202105285Y-97988285D01*
X201914809Y-98035904D01*
X201533857Y-98035904D01*
X201438619Y-97988285D01*
X201391000Y-97940666D01*
X201343380Y-97845428D01*
X201343380Y-97654952D01*
X201391000Y-97559714D01*
X201438619Y-97512095D01*
X201533857Y-97464476D01*
X201771952Y-97464476D01*
X201867190Y-97512095D01*
X201914809Y-97559714D01*
X201962428Y-97654952D01*
X201962428Y-97845428D01*
X201914809Y-97940666D01*
X201867190Y-97988285D01*
X201771952Y-98035904D01*
X202023380Y-100322095D02*
X201023380Y-100322095D01*
X202023380Y-100893523D02*
X201451952Y-100464952D01*
X201023380Y-100893523D02*
X201594809Y-100322095D01*
X197517380Y-38536714D02*
X196517380Y-38536714D01*
X196517380Y-38774809D01*
X196565000Y-38917666D01*
X196660238Y-39012904D01*
X196755476Y-39060523D01*
X196945952Y-39108142D01*
X197088809Y-39108142D01*
X197279285Y-39060523D01*
X197374523Y-39012904D01*
X197469761Y-38917666D01*
X197517380Y-38774809D01*
X197517380Y-38536714D01*
X196612619Y-39489095D02*
X196565000Y-39536714D01*
X196517380Y-39631952D01*
X196517380Y-39870047D01*
X196565000Y-39965285D01*
X196612619Y-40012904D01*
X196707857Y-40060523D01*
X196803095Y-40060523D01*
X196945952Y-40012904D01*
X197517380Y-39441476D01*
X197517380Y-40060523D01*
X196945952Y-40631952D02*
X196898333Y-40536714D01*
X196850714Y-40489095D01*
X196755476Y-40441476D01*
X196707857Y-40441476D01*
X196612619Y-40489095D01*
X196565000Y-40536714D01*
X196517380Y-40631952D01*
X196517380Y-40822428D01*
X196565000Y-40917666D01*
X196612619Y-40965285D01*
X196707857Y-41012904D01*
X196755476Y-41012904D01*
X196850714Y-40965285D01*
X196898333Y-40917666D01*
X196945952Y-40822428D01*
X196945952Y-40631952D01*
X196993571Y-40536714D01*
X197041190Y-40489095D01*
X197136428Y-40441476D01*
X197326904Y-40441476D01*
X197422142Y-40489095D01*
X197469761Y-40536714D01*
X197517380Y-40631952D01*
X197517380Y-40822428D01*
X197469761Y-40917666D01*
X197422142Y-40965285D01*
X197326904Y-41012904D01*
X197136428Y-41012904D01*
X197041190Y-40965285D01*
X196993571Y-40917666D01*
X196945952Y-40822428D01*
X197197380Y-43299095D02*
X196197380Y-43299095D01*
X197197380Y-43870523D02*
X196625952Y-43441952D01*
X196197380Y-43870523D02*
X196768809Y-43299095D01*
X172879380Y-117403714D02*
X171879380Y-117403714D01*
X171879380Y-117641809D01*
X171927000Y-117784666D01*
X172022238Y-117879904D01*
X172117476Y-117927523D01*
X172307952Y-117975142D01*
X172450809Y-117975142D01*
X172641285Y-117927523D01*
X172736523Y-117879904D01*
X172831761Y-117784666D01*
X172879380Y-117641809D01*
X172879380Y-117403714D01*
X171974619Y-118356095D02*
X171927000Y-118403714D01*
X171879380Y-118498952D01*
X171879380Y-118737047D01*
X171927000Y-118832285D01*
X171974619Y-118879904D01*
X172069857Y-118927523D01*
X172165095Y-118927523D01*
X172307952Y-118879904D01*
X172879380Y-118308476D01*
X172879380Y-118927523D01*
X171879380Y-119260857D02*
X171879380Y-119879904D01*
X172260333Y-119546571D01*
X172260333Y-119689428D01*
X172307952Y-119784666D01*
X172355571Y-119832285D01*
X172450809Y-119879904D01*
X172688904Y-119879904D01*
X172784142Y-119832285D01*
X172831761Y-119784666D01*
X172879380Y-119689428D01*
X172879380Y-119403714D01*
X172831761Y-119308476D01*
X172784142Y-119260857D01*
X172559380Y-122166095D02*
X171559380Y-122166095D01*
X172559380Y-122737523D02*
X171987952Y-122308952D01*
X171559380Y-122737523D02*
X172130809Y-122166095D01*
X199676380Y-98099714D02*
X198676380Y-98099714D01*
X198676380Y-98337809D01*
X198724000Y-98480666D01*
X198819238Y-98575904D01*
X198914476Y-98623523D01*
X199104952Y-98671142D01*
X199247809Y-98671142D01*
X199438285Y-98623523D01*
X199533523Y-98575904D01*
X199628761Y-98480666D01*
X199676380Y-98337809D01*
X199676380Y-98099714D01*
X198771619Y-99052095D02*
X198724000Y-99099714D01*
X198676380Y-99194952D01*
X198676380Y-99433047D01*
X198724000Y-99528285D01*
X198771619Y-99575904D01*
X198866857Y-99623523D01*
X198962095Y-99623523D01*
X199104952Y-99575904D01*
X199676380Y-99004476D01*
X199676380Y-99623523D01*
X198676380Y-99956857D02*
X198676380Y-100623523D01*
X199676380Y-100194952D01*
X199356380Y-102862095D02*
X198356380Y-102862095D01*
X199356380Y-103433523D02*
X198784952Y-103004952D01*
X198356380Y-103433523D02*
X198927809Y-102862095D01*
X192945380Y-76382714D02*
X191945380Y-76382714D01*
X191945380Y-76620809D01*
X191993000Y-76763666D01*
X192088238Y-76858904D01*
X192183476Y-76906523D01*
X192373952Y-76954142D01*
X192516809Y-76954142D01*
X192707285Y-76906523D01*
X192802523Y-76858904D01*
X192897761Y-76763666D01*
X192945380Y-76620809D01*
X192945380Y-76382714D01*
X192040619Y-77335095D02*
X191993000Y-77382714D01*
X191945380Y-77477952D01*
X191945380Y-77716047D01*
X191993000Y-77811285D01*
X192040619Y-77858904D01*
X192135857Y-77906523D01*
X192231095Y-77906523D01*
X192373952Y-77858904D01*
X192945380Y-77287476D01*
X192945380Y-77906523D01*
X191945380Y-78763666D02*
X191945380Y-78573190D01*
X191993000Y-78477952D01*
X192040619Y-78430333D01*
X192183476Y-78335095D01*
X192373952Y-78287476D01*
X192754904Y-78287476D01*
X192850142Y-78335095D01*
X192897761Y-78382714D01*
X192945380Y-78477952D01*
X192945380Y-78668428D01*
X192897761Y-78763666D01*
X192850142Y-78811285D01*
X192754904Y-78858904D01*
X192516809Y-78858904D01*
X192421571Y-78811285D01*
X192373952Y-78763666D01*
X192326333Y-78668428D01*
X192326333Y-78477952D01*
X192373952Y-78382714D01*
X192421571Y-78335095D01*
X192516809Y-78287476D01*
X192625380Y-81145095D02*
X191625380Y-81145095D01*
X192625380Y-81716523D02*
X192053952Y-81287952D01*
X191625380Y-81716523D02*
X192196809Y-81145095D01*
X197556285Y-71533380D02*
X197556285Y-70533380D01*
X197318190Y-70533380D01*
X197175333Y-70581000D01*
X197080095Y-70676238D01*
X197032476Y-70771476D01*
X196984857Y-70961952D01*
X196984857Y-71104809D01*
X197032476Y-71295285D01*
X197080095Y-71390523D01*
X197175333Y-71485761D01*
X197318190Y-71533380D01*
X197556285Y-71533380D01*
X196603904Y-70628619D02*
X196556285Y-70581000D01*
X196461047Y-70533380D01*
X196222952Y-70533380D01*
X196127714Y-70581000D01*
X196080095Y-70628619D01*
X196032476Y-70723857D01*
X196032476Y-70819095D01*
X196080095Y-70961952D01*
X196651523Y-71533380D01*
X196032476Y-71533380D01*
X195127714Y-70533380D02*
X195603904Y-70533380D01*
X195651523Y-71009571D01*
X195603904Y-70961952D01*
X195508666Y-70914333D01*
X195270571Y-70914333D01*
X195175333Y-70961952D01*
X195127714Y-71009571D01*
X195080095Y-71104809D01*
X195080095Y-71342904D01*
X195127714Y-71438142D01*
X195175333Y-71485761D01*
X195270571Y-71533380D01*
X195508666Y-71533380D01*
X195603904Y-71485761D01*
X195651523Y-71438142D01*
X192793904Y-71213380D02*
X192793904Y-70213380D01*
X192222476Y-71213380D02*
X192651047Y-70641952D01*
X192222476Y-70213380D02*
X192793904Y-70784809D01*
X194850380Y-41838714D02*
X193850380Y-41838714D01*
X193850380Y-42076809D01*
X193898000Y-42219666D01*
X193993238Y-42314904D01*
X194088476Y-42362523D01*
X194278952Y-42410142D01*
X194421809Y-42410142D01*
X194612285Y-42362523D01*
X194707523Y-42314904D01*
X194802761Y-42219666D01*
X194850380Y-42076809D01*
X194850380Y-41838714D01*
X193945619Y-42791095D02*
X193898000Y-42838714D01*
X193850380Y-42933952D01*
X193850380Y-43172047D01*
X193898000Y-43267285D01*
X193945619Y-43314904D01*
X194040857Y-43362523D01*
X194136095Y-43362523D01*
X194278952Y-43314904D01*
X194850380Y-42743476D01*
X194850380Y-43362523D01*
X194183714Y-44219666D02*
X194850380Y-44219666D01*
X193802761Y-43981571D02*
X194517047Y-43743476D01*
X194517047Y-44362523D01*
X194530380Y-46601095D02*
X193530380Y-46601095D01*
X194530380Y-47172523D02*
X193958952Y-46743952D01*
X193530380Y-47172523D02*
X194101809Y-46601095D01*
X180753380Y-97972714D02*
X179753380Y-97972714D01*
X179753380Y-98210809D01*
X179801000Y-98353666D01*
X179896238Y-98448904D01*
X179991476Y-98496523D01*
X180181952Y-98544142D01*
X180324809Y-98544142D01*
X180515285Y-98496523D01*
X180610523Y-98448904D01*
X180705761Y-98353666D01*
X180753380Y-98210809D01*
X180753380Y-97972714D01*
X179848619Y-98925095D02*
X179801000Y-98972714D01*
X179753380Y-99067952D01*
X179753380Y-99306047D01*
X179801000Y-99401285D01*
X179848619Y-99448904D01*
X179943857Y-99496523D01*
X180039095Y-99496523D01*
X180181952Y-99448904D01*
X180753380Y-98877476D01*
X180753380Y-99496523D01*
X179848619Y-99877476D02*
X179801000Y-99925095D01*
X179753380Y-100020333D01*
X179753380Y-100258428D01*
X179801000Y-100353666D01*
X179848619Y-100401285D01*
X179943857Y-100448904D01*
X180039095Y-100448904D01*
X180181952Y-100401285D01*
X180753380Y-99829857D01*
X180753380Y-100448904D01*
X180433380Y-102735095D02*
X179433380Y-102735095D01*
X180433380Y-103306523D02*
X179861952Y-102877952D01*
X179433380Y-103306523D02*
X180004809Y-102735095D01*
X190151380Y-78668714D02*
X189151380Y-78668714D01*
X189151380Y-78906809D01*
X189199000Y-79049666D01*
X189294238Y-79144904D01*
X189389476Y-79192523D01*
X189579952Y-79240142D01*
X189722809Y-79240142D01*
X189913285Y-79192523D01*
X190008523Y-79144904D01*
X190103761Y-79049666D01*
X190151380Y-78906809D01*
X190151380Y-78668714D01*
X189246619Y-79621095D02*
X189199000Y-79668714D01*
X189151380Y-79763952D01*
X189151380Y-80002047D01*
X189199000Y-80097285D01*
X189246619Y-80144904D01*
X189341857Y-80192523D01*
X189437095Y-80192523D01*
X189579952Y-80144904D01*
X190151380Y-79573476D01*
X190151380Y-80192523D01*
X190151380Y-81144904D02*
X190151380Y-80573476D01*
X190151380Y-80859190D02*
X189151380Y-80859190D01*
X189294238Y-80763952D01*
X189389476Y-80668714D01*
X189437095Y-80573476D01*
X189831380Y-83431095D02*
X188831380Y-83431095D01*
X189831380Y-84002523D02*
X189259952Y-83573952D01*
X188831380Y-84002523D02*
X189402809Y-83431095D01*
X185452380Y-59999714D02*
X184452380Y-59999714D01*
X184452380Y-60237809D01*
X184500000Y-60380666D01*
X184595238Y-60475904D01*
X184690476Y-60523523D01*
X184880952Y-60571142D01*
X185023809Y-60571142D01*
X185214285Y-60523523D01*
X185309523Y-60475904D01*
X185404761Y-60380666D01*
X185452380Y-60237809D01*
X185452380Y-59999714D01*
X184547619Y-60952095D02*
X184500000Y-60999714D01*
X184452380Y-61094952D01*
X184452380Y-61333047D01*
X184500000Y-61428285D01*
X184547619Y-61475904D01*
X184642857Y-61523523D01*
X184738095Y-61523523D01*
X184880952Y-61475904D01*
X185452380Y-60904476D01*
X185452380Y-61523523D01*
X184452380Y-62142571D02*
X184452380Y-62237809D01*
X184500000Y-62333047D01*
X184547619Y-62380666D01*
X184642857Y-62428285D01*
X184833333Y-62475904D01*
X185071428Y-62475904D01*
X185261904Y-62428285D01*
X185357142Y-62380666D01*
X185404761Y-62333047D01*
X185452380Y-62237809D01*
X185452380Y-62142571D01*
X185404761Y-62047333D01*
X185357142Y-61999714D01*
X185261904Y-61952095D01*
X185071428Y-61904476D01*
X184833333Y-61904476D01*
X184642857Y-61952095D01*
X184547619Y-61999714D01*
X184500000Y-62047333D01*
X184452380Y-62142571D01*
X185132380Y-64762095D02*
X184132380Y-64762095D01*
X185132380Y-65333523D02*
X184560952Y-64904952D01*
X184132380Y-65333523D02*
X184703809Y-64762095D01*
X176181380Y-41838714D02*
X175181380Y-41838714D01*
X175181380Y-42076809D01*
X175229000Y-42219666D01*
X175324238Y-42314904D01*
X175419476Y-42362523D01*
X175609952Y-42410142D01*
X175752809Y-42410142D01*
X175943285Y-42362523D01*
X176038523Y-42314904D01*
X176133761Y-42219666D01*
X176181380Y-42076809D01*
X176181380Y-41838714D01*
X176181380Y-43362523D02*
X176181380Y-42791095D01*
X176181380Y-43076809D02*
X175181380Y-43076809D01*
X175324238Y-42981571D01*
X175419476Y-42886333D01*
X175467095Y-42791095D01*
X176181380Y-43838714D02*
X176181380Y-44029190D01*
X176133761Y-44124428D01*
X176086142Y-44172047D01*
X175943285Y-44267285D01*
X175752809Y-44314904D01*
X175371857Y-44314904D01*
X175276619Y-44267285D01*
X175229000Y-44219666D01*
X175181380Y-44124428D01*
X175181380Y-43933952D01*
X175229000Y-43838714D01*
X175276619Y-43791095D01*
X175371857Y-43743476D01*
X175609952Y-43743476D01*
X175705190Y-43791095D01*
X175752809Y-43838714D01*
X175800428Y-43933952D01*
X175800428Y-44124428D01*
X175752809Y-44219666D01*
X175705190Y-44267285D01*
X175609952Y-44314904D01*
X175861380Y-46601095D02*
X174861380Y-46601095D01*
X175861380Y-47172523D02*
X175289952Y-46743952D01*
X174861380Y-47172523D02*
X175432809Y-46601095D01*
X161703380Y-97972714D02*
X160703380Y-97972714D01*
X160703380Y-98210809D01*
X160751000Y-98353666D01*
X160846238Y-98448904D01*
X160941476Y-98496523D01*
X161131952Y-98544142D01*
X161274809Y-98544142D01*
X161465285Y-98496523D01*
X161560523Y-98448904D01*
X161655761Y-98353666D01*
X161703380Y-98210809D01*
X161703380Y-97972714D01*
X161703380Y-99496523D02*
X161703380Y-98925095D01*
X161703380Y-99210809D02*
X160703380Y-99210809D01*
X160846238Y-99115571D01*
X160941476Y-99020333D01*
X160989095Y-98925095D01*
X161131952Y-100067952D02*
X161084333Y-99972714D01*
X161036714Y-99925095D01*
X160941476Y-99877476D01*
X160893857Y-99877476D01*
X160798619Y-99925095D01*
X160751000Y-99972714D01*
X160703380Y-100067952D01*
X160703380Y-100258428D01*
X160751000Y-100353666D01*
X160798619Y-100401285D01*
X160893857Y-100448904D01*
X160941476Y-100448904D01*
X161036714Y-100401285D01*
X161084333Y-100353666D01*
X161131952Y-100258428D01*
X161131952Y-100067952D01*
X161179571Y-99972714D01*
X161227190Y-99925095D01*
X161322428Y-99877476D01*
X161512904Y-99877476D01*
X161608142Y-99925095D01*
X161655761Y-99972714D01*
X161703380Y-100067952D01*
X161703380Y-100258428D01*
X161655761Y-100353666D01*
X161608142Y-100401285D01*
X161512904Y-100448904D01*
X161322428Y-100448904D01*
X161227190Y-100401285D01*
X161179571Y-100353666D01*
X161131952Y-100258428D01*
X161383380Y-102735095D02*
X160383380Y-102735095D01*
X161383380Y-103306523D02*
X160811952Y-102877952D01*
X160383380Y-103306523D02*
X160954809Y-102735095D01*
X171482380Y-78668714D02*
X170482380Y-78668714D01*
X170482380Y-78906809D01*
X170530000Y-79049666D01*
X170625238Y-79144904D01*
X170720476Y-79192523D01*
X170910952Y-79240142D01*
X171053809Y-79240142D01*
X171244285Y-79192523D01*
X171339523Y-79144904D01*
X171434761Y-79049666D01*
X171482380Y-78906809D01*
X171482380Y-78668714D01*
X171482380Y-80192523D02*
X171482380Y-79621095D01*
X171482380Y-79906809D02*
X170482380Y-79906809D01*
X170625238Y-79811571D01*
X170720476Y-79716333D01*
X170768095Y-79621095D01*
X170482380Y-80525857D02*
X170482380Y-81192523D01*
X171482380Y-80763952D01*
X171162380Y-83431095D02*
X170162380Y-83431095D01*
X171162380Y-84002523D02*
X170590952Y-83573952D01*
X170162380Y-84002523D02*
X170733809Y-83431095D01*
X166529380Y-59999714D02*
X165529380Y-59999714D01*
X165529380Y-60237809D01*
X165577000Y-60380666D01*
X165672238Y-60475904D01*
X165767476Y-60523523D01*
X165957952Y-60571142D01*
X166100809Y-60571142D01*
X166291285Y-60523523D01*
X166386523Y-60475904D01*
X166481761Y-60380666D01*
X166529380Y-60237809D01*
X166529380Y-59999714D01*
X166529380Y-61523523D02*
X166529380Y-60952095D01*
X166529380Y-61237809D02*
X165529380Y-61237809D01*
X165672238Y-61142571D01*
X165767476Y-61047333D01*
X165815095Y-60952095D01*
X165529380Y-62380666D02*
X165529380Y-62190190D01*
X165577000Y-62094952D01*
X165624619Y-62047333D01*
X165767476Y-61952095D01*
X165957952Y-61904476D01*
X166338904Y-61904476D01*
X166434142Y-61952095D01*
X166481761Y-61999714D01*
X166529380Y-62094952D01*
X166529380Y-62285428D01*
X166481761Y-62380666D01*
X166434142Y-62428285D01*
X166338904Y-62475904D01*
X166100809Y-62475904D01*
X166005571Y-62428285D01*
X165957952Y-62380666D01*
X165910333Y-62285428D01*
X165910333Y-62094952D01*
X165957952Y-61999714D01*
X166005571Y-61952095D01*
X166100809Y-61904476D01*
X166209380Y-64762095D02*
X165209380Y-64762095D01*
X166209380Y-65333523D02*
X165637952Y-64904952D01*
X165209380Y-65333523D02*
X165780809Y-64762095D01*
X156750380Y-41838714D02*
X155750380Y-41838714D01*
X155750380Y-42076809D01*
X155798000Y-42219666D01*
X155893238Y-42314904D01*
X155988476Y-42362523D01*
X156178952Y-42410142D01*
X156321809Y-42410142D01*
X156512285Y-42362523D01*
X156607523Y-42314904D01*
X156702761Y-42219666D01*
X156750380Y-42076809D01*
X156750380Y-41838714D01*
X156750380Y-43362523D02*
X156750380Y-42791095D01*
X156750380Y-43076809D02*
X155750380Y-43076809D01*
X155893238Y-42981571D01*
X155988476Y-42886333D01*
X156036095Y-42791095D01*
X155750380Y-44267285D02*
X155750380Y-43791095D01*
X156226571Y-43743476D01*
X156178952Y-43791095D01*
X156131333Y-43886333D01*
X156131333Y-44124428D01*
X156178952Y-44219666D01*
X156226571Y-44267285D01*
X156321809Y-44314904D01*
X156559904Y-44314904D01*
X156655142Y-44267285D01*
X156702761Y-44219666D01*
X156750380Y-44124428D01*
X156750380Y-43886333D01*
X156702761Y-43791095D01*
X156655142Y-43743476D01*
X156430380Y-46601095D02*
X155430380Y-46601095D01*
X156430380Y-47172523D02*
X155858952Y-46743952D01*
X155430380Y-47172523D02*
X156001809Y-46601095D01*
X150273380Y-117530714D02*
X149273380Y-117530714D01*
X149273380Y-117768809D01*
X149321000Y-117911666D01*
X149416238Y-118006904D01*
X149511476Y-118054523D01*
X149701952Y-118102142D01*
X149844809Y-118102142D01*
X150035285Y-118054523D01*
X150130523Y-118006904D01*
X150225761Y-117911666D01*
X150273380Y-117768809D01*
X150273380Y-117530714D01*
X150273380Y-119054523D02*
X150273380Y-118483095D01*
X150273380Y-118768809D02*
X149273380Y-118768809D01*
X149416238Y-118673571D01*
X149511476Y-118578333D01*
X149559095Y-118483095D01*
X149606714Y-119911666D02*
X150273380Y-119911666D01*
X149225761Y-119673571D02*
X149940047Y-119435476D01*
X149940047Y-120054523D01*
X149953380Y-122293095D02*
X148953380Y-122293095D01*
X149953380Y-122864523D02*
X149381952Y-122435952D01*
X148953380Y-122864523D02*
X149524809Y-122293095D01*
X142653380Y-97972714D02*
X141653380Y-97972714D01*
X141653380Y-98210809D01*
X141701000Y-98353666D01*
X141796238Y-98448904D01*
X141891476Y-98496523D01*
X142081952Y-98544142D01*
X142224809Y-98544142D01*
X142415285Y-98496523D01*
X142510523Y-98448904D01*
X142605761Y-98353666D01*
X142653380Y-98210809D01*
X142653380Y-97972714D01*
X142653380Y-99496523D02*
X142653380Y-98925095D01*
X142653380Y-99210809D02*
X141653380Y-99210809D01*
X141796238Y-99115571D01*
X141891476Y-99020333D01*
X141939095Y-98925095D01*
X141653380Y-99829857D02*
X141653380Y-100448904D01*
X142034333Y-100115571D01*
X142034333Y-100258428D01*
X142081952Y-100353666D01*
X142129571Y-100401285D01*
X142224809Y-100448904D01*
X142462904Y-100448904D01*
X142558142Y-100401285D01*
X142605761Y-100353666D01*
X142653380Y-100258428D01*
X142653380Y-99972714D01*
X142605761Y-99877476D01*
X142558142Y-99829857D01*
X142333380Y-102735095D02*
X141333380Y-102735095D01*
X142333380Y-103306523D02*
X141761952Y-102877952D01*
X141333380Y-103306523D02*
X141904809Y-102735095D01*
X152178380Y-78668714D02*
X151178380Y-78668714D01*
X151178380Y-78906809D01*
X151226000Y-79049666D01*
X151321238Y-79144904D01*
X151416476Y-79192523D01*
X151606952Y-79240142D01*
X151749809Y-79240142D01*
X151940285Y-79192523D01*
X152035523Y-79144904D01*
X152130761Y-79049666D01*
X152178380Y-78906809D01*
X152178380Y-78668714D01*
X152178380Y-80192523D02*
X152178380Y-79621095D01*
X152178380Y-79906809D02*
X151178380Y-79906809D01*
X151321238Y-79811571D01*
X151416476Y-79716333D01*
X151464095Y-79621095D01*
X151273619Y-80573476D02*
X151226000Y-80621095D01*
X151178380Y-80716333D01*
X151178380Y-80954428D01*
X151226000Y-81049666D01*
X151273619Y-81097285D01*
X151368857Y-81144904D01*
X151464095Y-81144904D01*
X151606952Y-81097285D01*
X152178380Y-80525857D01*
X152178380Y-81144904D01*
X151858380Y-83431095D02*
X150858380Y-83431095D01*
X151858380Y-84002523D02*
X151286952Y-83573952D01*
X150858380Y-84002523D02*
X151429809Y-83431095D01*
X147352380Y-59999714D02*
X146352380Y-59999714D01*
X146352380Y-60237809D01*
X146400000Y-60380666D01*
X146495238Y-60475904D01*
X146590476Y-60523523D01*
X146780952Y-60571142D01*
X146923809Y-60571142D01*
X147114285Y-60523523D01*
X147209523Y-60475904D01*
X147304761Y-60380666D01*
X147352380Y-60237809D01*
X147352380Y-59999714D01*
X147352380Y-61523523D02*
X147352380Y-60952095D01*
X147352380Y-61237809D02*
X146352380Y-61237809D01*
X146495238Y-61142571D01*
X146590476Y-61047333D01*
X146638095Y-60952095D01*
X147352380Y-62475904D02*
X147352380Y-61904476D01*
X147352380Y-62190190D02*
X146352380Y-62190190D01*
X146495238Y-62094952D01*
X146590476Y-61999714D01*
X146638095Y-61904476D01*
X147032380Y-64762095D02*
X146032380Y-64762095D01*
X147032380Y-65333523D02*
X146460952Y-64904952D01*
X146032380Y-65333523D02*
X146603809Y-64762095D01*
X138081380Y-41838714D02*
X137081380Y-41838714D01*
X137081380Y-42076809D01*
X137129000Y-42219666D01*
X137224238Y-42314904D01*
X137319476Y-42362523D01*
X137509952Y-42410142D01*
X137652809Y-42410142D01*
X137843285Y-42362523D01*
X137938523Y-42314904D01*
X138033761Y-42219666D01*
X138081380Y-42076809D01*
X138081380Y-41838714D01*
X138081380Y-43362523D02*
X138081380Y-42791095D01*
X138081380Y-43076809D02*
X137081380Y-43076809D01*
X137224238Y-42981571D01*
X137319476Y-42886333D01*
X137367095Y-42791095D01*
X137081380Y-43981571D02*
X137081380Y-44076809D01*
X137129000Y-44172047D01*
X137176619Y-44219666D01*
X137271857Y-44267285D01*
X137462333Y-44314904D01*
X137700428Y-44314904D01*
X137890904Y-44267285D01*
X137986142Y-44219666D01*
X138033761Y-44172047D01*
X138081380Y-44076809D01*
X138081380Y-43981571D01*
X138033761Y-43886333D01*
X137986142Y-43838714D01*
X137890904Y-43791095D01*
X137700428Y-43743476D01*
X137462333Y-43743476D01*
X137271857Y-43791095D01*
X137176619Y-43838714D01*
X137129000Y-43886333D01*
X137081380Y-43981571D01*
X137761380Y-46601095D02*
X136761380Y-46601095D01*
X137761380Y-47172523D02*
X137189952Y-46743952D01*
X136761380Y-47172523D02*
X137332809Y-46601095D01*
X126397380Y-118006904D02*
X125397380Y-118006904D01*
X125397380Y-118245000D01*
X125445000Y-118387857D01*
X125540238Y-118483095D01*
X125635476Y-118530714D01*
X125825952Y-118578333D01*
X125968809Y-118578333D01*
X126159285Y-118530714D01*
X126254523Y-118483095D01*
X126349761Y-118387857D01*
X126397380Y-118245000D01*
X126397380Y-118006904D01*
X126397380Y-119054523D02*
X126397380Y-119245000D01*
X126349761Y-119340238D01*
X126302142Y-119387857D01*
X126159285Y-119483095D01*
X125968809Y-119530714D01*
X125587857Y-119530714D01*
X125492619Y-119483095D01*
X125445000Y-119435476D01*
X125397380Y-119340238D01*
X125397380Y-119149761D01*
X125445000Y-119054523D01*
X125492619Y-119006904D01*
X125587857Y-118959285D01*
X125825952Y-118959285D01*
X125921190Y-119006904D01*
X125968809Y-119054523D01*
X126016428Y-119149761D01*
X126016428Y-119340238D01*
X125968809Y-119435476D01*
X125921190Y-119483095D01*
X125825952Y-119530714D01*
X126077380Y-122293095D02*
X125077380Y-122293095D01*
X126077380Y-122864523D02*
X125505952Y-122435952D01*
X125077380Y-122864523D02*
X125648809Y-122293095D01*
X133128380Y-79144904D02*
X132128380Y-79144904D01*
X132128380Y-79383000D01*
X132176000Y-79525857D01*
X132271238Y-79621095D01*
X132366476Y-79668714D01*
X132556952Y-79716333D01*
X132699809Y-79716333D01*
X132890285Y-79668714D01*
X132985523Y-79621095D01*
X133080761Y-79525857D01*
X133128380Y-79383000D01*
X133128380Y-79144904D01*
X132556952Y-80287761D02*
X132509333Y-80192523D01*
X132461714Y-80144904D01*
X132366476Y-80097285D01*
X132318857Y-80097285D01*
X132223619Y-80144904D01*
X132176000Y-80192523D01*
X132128380Y-80287761D01*
X132128380Y-80478238D01*
X132176000Y-80573476D01*
X132223619Y-80621095D01*
X132318857Y-80668714D01*
X132366476Y-80668714D01*
X132461714Y-80621095D01*
X132509333Y-80573476D01*
X132556952Y-80478238D01*
X132556952Y-80287761D01*
X132604571Y-80192523D01*
X132652190Y-80144904D01*
X132747428Y-80097285D01*
X132937904Y-80097285D01*
X133033142Y-80144904D01*
X133080761Y-80192523D01*
X133128380Y-80287761D01*
X133128380Y-80478238D01*
X133080761Y-80573476D01*
X133033142Y-80621095D01*
X132937904Y-80668714D01*
X132747428Y-80668714D01*
X132652190Y-80621095D01*
X132604571Y-80573476D01*
X132556952Y-80478238D01*
X132808380Y-83431095D02*
X131808380Y-83431095D01*
X132808380Y-84002523D02*
X132236952Y-83573952D01*
X131808380Y-84002523D02*
X132379809Y-83431095D01*
X128429380Y-60475904D02*
X127429380Y-60475904D01*
X127429380Y-60714000D01*
X127477000Y-60856857D01*
X127572238Y-60952095D01*
X127667476Y-60999714D01*
X127857952Y-61047333D01*
X128000809Y-61047333D01*
X128191285Y-60999714D01*
X128286523Y-60952095D01*
X128381761Y-60856857D01*
X128429380Y-60714000D01*
X128429380Y-60475904D01*
X127429380Y-61380666D02*
X127429380Y-62047333D01*
X128429380Y-61618761D01*
X128109380Y-64762095D02*
X127109380Y-64762095D01*
X128109380Y-65333523D02*
X127537952Y-64904952D01*
X127109380Y-65333523D02*
X127680809Y-64762095D01*
X118904380Y-42314904D02*
X117904380Y-42314904D01*
X117904380Y-42553000D01*
X117952000Y-42695857D01*
X118047238Y-42791095D01*
X118142476Y-42838714D01*
X118332952Y-42886333D01*
X118475809Y-42886333D01*
X118666285Y-42838714D01*
X118761523Y-42791095D01*
X118856761Y-42695857D01*
X118904380Y-42553000D01*
X118904380Y-42314904D01*
X117904380Y-43743476D02*
X117904380Y-43553000D01*
X117952000Y-43457761D01*
X117999619Y-43410142D01*
X118142476Y-43314904D01*
X118332952Y-43267285D01*
X118713904Y-43267285D01*
X118809142Y-43314904D01*
X118856761Y-43362523D01*
X118904380Y-43457761D01*
X118904380Y-43648238D01*
X118856761Y-43743476D01*
X118809142Y-43791095D01*
X118713904Y-43838714D01*
X118475809Y-43838714D01*
X118380571Y-43791095D01*
X118332952Y-43743476D01*
X118285333Y-43648238D01*
X118285333Y-43457761D01*
X118332952Y-43362523D01*
X118380571Y-43314904D01*
X118475809Y-43267285D01*
X118584380Y-46601095D02*
X117584380Y-46601095D01*
X118584380Y-47172523D02*
X118012952Y-46743952D01*
X117584380Y-47172523D02*
X118155809Y-46601095D01*
X102521380Y-118006904D02*
X101521380Y-118006904D01*
X101521380Y-118245000D01*
X101569000Y-118387857D01*
X101664238Y-118483095D01*
X101759476Y-118530714D01*
X101949952Y-118578333D01*
X102092809Y-118578333D01*
X102283285Y-118530714D01*
X102378523Y-118483095D01*
X102473761Y-118387857D01*
X102521380Y-118245000D01*
X102521380Y-118006904D01*
X101521380Y-119483095D02*
X101521380Y-119006904D01*
X101997571Y-118959285D01*
X101949952Y-119006904D01*
X101902333Y-119102142D01*
X101902333Y-119340238D01*
X101949952Y-119435476D01*
X101997571Y-119483095D01*
X102092809Y-119530714D01*
X102330904Y-119530714D01*
X102426142Y-119483095D01*
X102473761Y-119435476D01*
X102521380Y-119340238D01*
X102521380Y-119102142D01*
X102473761Y-119006904D01*
X102426142Y-118959285D01*
X102201380Y-122293095D02*
X101201380Y-122293095D01*
X102201380Y-122864523D02*
X101629952Y-122435952D01*
X101201380Y-122864523D02*
X101772809Y-122293095D01*
X112173380Y-98448904D02*
X111173380Y-98448904D01*
X111173380Y-98687000D01*
X111221000Y-98829857D01*
X111316238Y-98925095D01*
X111411476Y-98972714D01*
X111601952Y-99020333D01*
X111744809Y-99020333D01*
X111935285Y-98972714D01*
X112030523Y-98925095D01*
X112125761Y-98829857D01*
X112173380Y-98687000D01*
X112173380Y-98448904D01*
X111506714Y-99877476D02*
X112173380Y-99877476D01*
X111125761Y-99639380D02*
X111840047Y-99401285D01*
X111840047Y-100020333D01*
X111853380Y-102735095D02*
X110853380Y-102735095D01*
X111853380Y-103306523D02*
X111281952Y-102877952D01*
X110853380Y-103306523D02*
X111424809Y-102735095D01*
X106839380Y-79144904D02*
X105839380Y-79144904D01*
X105839380Y-79383000D01*
X105887000Y-79525857D01*
X105982238Y-79621095D01*
X106077476Y-79668714D01*
X106267952Y-79716333D01*
X106410809Y-79716333D01*
X106601285Y-79668714D01*
X106696523Y-79621095D01*
X106791761Y-79525857D01*
X106839380Y-79383000D01*
X106839380Y-79144904D01*
X105839380Y-80049666D02*
X105839380Y-80668714D01*
X106220333Y-80335380D01*
X106220333Y-80478238D01*
X106267952Y-80573476D01*
X106315571Y-80621095D01*
X106410809Y-80668714D01*
X106648904Y-80668714D01*
X106744142Y-80621095D01*
X106791761Y-80573476D01*
X106839380Y-80478238D01*
X106839380Y-80192523D01*
X106791761Y-80097285D01*
X106744142Y-80049666D01*
X106519380Y-83431095D02*
X105519380Y-83431095D01*
X106519380Y-84002523D02*
X105947952Y-83573952D01*
X105519380Y-84002523D02*
X106090809Y-83431095D01*
X130969380Y-57554904D02*
X129969380Y-57554904D01*
X129969380Y-57793000D01*
X130017000Y-57935857D01*
X130112238Y-58031095D01*
X130207476Y-58078714D01*
X130397952Y-58126333D01*
X130540809Y-58126333D01*
X130731285Y-58078714D01*
X130826523Y-58031095D01*
X130921761Y-57935857D01*
X130969380Y-57793000D01*
X130969380Y-57554904D01*
X130064619Y-58507285D02*
X130017000Y-58554904D01*
X129969380Y-58650142D01*
X129969380Y-58888238D01*
X130017000Y-58983476D01*
X130064619Y-59031095D01*
X130159857Y-59078714D01*
X130255095Y-59078714D01*
X130397952Y-59031095D01*
X130969380Y-58459666D01*
X130969380Y-59078714D01*
X130649380Y-61841095D02*
X129649380Y-61841095D01*
X130649380Y-62412523D02*
X130077952Y-61983952D01*
X129649380Y-62412523D02*
X130220809Y-61841095D01*
X99854380Y-42314904D02*
X98854380Y-42314904D01*
X98854380Y-42553000D01*
X98902000Y-42695857D01*
X98997238Y-42791095D01*
X99092476Y-42838714D01*
X99282952Y-42886333D01*
X99425809Y-42886333D01*
X99616285Y-42838714D01*
X99711523Y-42791095D01*
X99806761Y-42695857D01*
X99854380Y-42553000D01*
X99854380Y-42314904D01*
X99854380Y-43838714D02*
X99854380Y-43267285D01*
X99854380Y-43553000D02*
X98854380Y-43553000D01*
X98997238Y-43457761D01*
X99092476Y-43362523D01*
X99140095Y-43267285D01*
X99534380Y-46601095D02*
X98534380Y-46601095D01*
X99534380Y-47172523D02*
X98962952Y-46743952D01*
X98534380Y-47172523D02*
X99105809Y-46601095D01*
%LPC*%
D12*
X82630000Y-67945000D03*
X85170000Y-67945000D03*
X87710000Y-67945000D03*
X90250000Y-67945000D03*
X92790000Y-67945000D03*
X95330000Y-67945000D03*
X97870000Y-67945000D03*
X100410000Y-67945000D03*
X102950000Y-67945000D03*
X105490000Y-67945000D03*
X108030000Y-67945000D03*
X110570000Y-67945000D03*
X110570000Y-52705000D03*
X108030000Y-52705000D03*
X105490000Y-52705000D03*
X102950000Y-52705000D03*
X100410000Y-52705000D03*
X97870000Y-52705000D03*
X95330000Y-52705000D03*
X92790000Y-52705000D03*
X90250000Y-52705000D03*
X87710000Y-52705000D03*
X85170000Y-52705000D03*
D13*
X82630000Y-52705000D03*
D14*
X107771000Y-77652000D03*
X113971000Y-81352000D03*
X107771000Y-81352000D03*
X113971000Y-77652000D03*
D15*
X85725000Y-79121000D03*
D16*
X85725000Y-84201000D03*
D15*
X88011000Y-76708000D03*
D16*
X88011000Y-81788000D03*
D17*
X213042500Y-98425000D03*
X202882500Y-98425000D03*
D18*
X205462500Y-94425000D03*
D19*
X207962500Y-98425000D03*
D18*
X204807501Y-95155000D03*
D20*
X204152500Y-95885000D02*
X205462502Y-94425000D01*
D18*
X210502500Y-93345000D03*
X210482500Y-93635000D03*
D20*
X210462500Y-93925000D02*
X210502500Y-93345000D01*
D17*
X208280000Y-41275000D03*
X198120000Y-41275000D03*
D18*
X200700000Y-37275000D03*
D19*
X203200000Y-41275000D03*
D18*
X200045001Y-38005000D03*
D20*
X199390000Y-38735000D02*
X200700002Y-37275000D01*
D18*
X205740000Y-36195000D03*
X205720000Y-36485000D03*
D20*
X205700000Y-36775000D02*
X205740000Y-36195000D01*
D19*
X198437500Y-125730000D03*
X160337500Y-125730000D03*
D21*
X198437500Y-110490000D03*
X160337500Y-110490000D03*
D17*
X184467500Y-117475000D03*
X174307500Y-117475000D03*
D18*
X176887500Y-113475000D03*
D19*
X179387500Y-117475000D03*
D18*
X176232501Y-114205000D03*
D20*
X175577500Y-114935000D02*
X176887502Y-113475000D01*
D18*
X181927500Y-112395000D03*
X181907500Y-112685000D03*
D20*
X181887500Y-112975000D02*
X181927500Y-112395000D01*
D17*
X193992500Y-98425000D03*
X183832500Y-98425000D03*
D18*
X186412500Y-94425000D03*
D19*
X188912500Y-98425000D03*
D18*
X185757501Y-95155000D03*
D20*
X185102500Y-95885000D02*
X186412502Y-94425000D01*
D18*
X191452500Y-93345000D03*
X191432500Y-93635000D03*
D20*
X191412500Y-93925000D02*
X191452500Y-93345000D01*
D17*
X203517500Y-79375000D03*
X193357500Y-79375000D03*
D18*
X195937500Y-75375000D03*
D19*
X198437500Y-79375000D03*
D18*
X195282501Y-76105000D03*
D20*
X194627500Y-76835000D02*
X195937502Y-75375000D01*
D18*
X200977500Y-74295000D03*
X200957500Y-74585000D03*
D20*
X200937500Y-74875000D02*
X200977500Y-74295000D01*
D17*
X198755000Y-60325000D03*
X188595000Y-60325000D03*
D18*
X191175000Y-56325000D03*
D19*
X193675000Y-60325000D03*
D18*
X190520001Y-57055000D03*
D20*
X189865000Y-57785000D02*
X191175002Y-56325000D01*
D18*
X196215000Y-55245000D03*
X196195000Y-55535000D03*
D20*
X196175000Y-55825000D02*
X196215000Y-55245000D01*
D17*
X189230000Y-41275000D03*
X179070000Y-41275000D03*
D18*
X181650000Y-37275000D03*
D19*
X184150000Y-41275000D03*
D18*
X180995001Y-38005000D03*
D20*
X180340000Y-38735000D02*
X181650002Y-37275000D01*
D18*
X186690000Y-36195000D03*
X186670000Y-36485000D03*
D20*
X186650000Y-36775000D02*
X186690000Y-36195000D01*
D17*
X174942500Y-98425000D03*
X164782500Y-98425000D03*
D18*
X167362500Y-94425000D03*
D19*
X169862500Y-98425000D03*
D18*
X166707501Y-95155000D03*
D20*
X166052500Y-95885000D02*
X167362502Y-94425000D01*
D18*
X172402500Y-93345000D03*
X172382500Y-93635000D03*
D20*
X172362500Y-93925000D02*
X172402500Y-93345000D01*
D17*
X184467500Y-79375000D03*
X174307500Y-79375000D03*
D18*
X176887500Y-75375000D03*
D19*
X179387500Y-79375000D03*
D18*
X176232501Y-76105000D03*
D20*
X175577500Y-76835000D02*
X176887502Y-75375000D01*
D18*
X181927500Y-74295000D03*
X181907500Y-74585000D03*
D20*
X181887500Y-74875000D02*
X181927500Y-74295000D01*
D17*
X179705000Y-60325000D03*
X169545000Y-60325000D03*
D18*
X172125000Y-56325000D03*
D19*
X174625000Y-60325000D03*
D18*
X171470001Y-57055000D03*
D20*
X170815000Y-57785000D02*
X172125002Y-56325000D01*
D18*
X177165000Y-55245000D03*
X177145000Y-55535000D03*
D20*
X177125000Y-55825000D02*
X177165000Y-55245000D01*
D17*
X170180000Y-41275000D03*
X160020000Y-41275000D03*
D18*
X162600000Y-37275000D03*
D19*
X165100000Y-41275000D03*
D18*
X161945001Y-38005000D03*
D20*
X161290000Y-38735000D02*
X162600002Y-37275000D01*
D18*
X167640000Y-36195000D03*
X167620000Y-36485000D03*
D20*
X167600000Y-36775000D02*
X167640000Y-36195000D01*
D17*
X155892500Y-98425000D03*
X145732500Y-98425000D03*
D18*
X148312500Y-94425000D03*
D19*
X150812500Y-98425000D03*
D18*
X147657501Y-95155000D03*
D20*
X147002500Y-95885000D02*
X148312502Y-94425000D01*
D18*
X153352500Y-93345000D03*
X153332500Y-93635000D03*
D20*
X153312500Y-93925000D02*
X153352500Y-93345000D01*
D17*
X165417500Y-79375000D03*
X155257500Y-79375000D03*
D18*
X157837500Y-75375000D03*
D19*
X160337500Y-79375000D03*
D18*
X157182501Y-76105000D03*
D20*
X156527500Y-76835000D02*
X157837502Y-75375000D01*
D18*
X162877500Y-74295000D03*
X162857500Y-74585000D03*
D20*
X162837500Y-74875000D02*
X162877500Y-74295000D01*
D17*
X160655000Y-60325000D03*
X150495000Y-60325000D03*
D18*
X153075000Y-56325000D03*
D19*
X155575000Y-60325000D03*
D18*
X152420001Y-57055000D03*
D20*
X151765000Y-57785000D02*
X153075002Y-56325000D01*
D18*
X158115000Y-55245000D03*
X158095000Y-55535000D03*
D20*
X158075000Y-55825000D02*
X158115000Y-55245000D01*
D17*
X151130000Y-41275000D03*
X140970000Y-41275000D03*
D18*
X143550000Y-37275000D03*
D19*
X146050000Y-41275000D03*
D18*
X142895001Y-38005000D03*
D20*
X142240000Y-38735000D02*
X143550002Y-37275000D01*
D18*
X148590000Y-36195000D03*
X148570000Y-36485000D03*
D20*
X148550000Y-36775000D02*
X148590000Y-36195000D01*
D17*
X143986250Y-117475000D03*
X133826250Y-117475000D03*
D18*
X136406250Y-113475000D03*
D19*
X138906250Y-117475000D03*
D18*
X135751251Y-114205000D03*
D20*
X135096250Y-114935000D02*
X136406252Y-113475000D01*
D18*
X141446250Y-112395000D03*
X141426250Y-112685000D03*
D20*
X141406250Y-112975000D02*
X141446250Y-112395000D01*
D17*
X136842500Y-98425000D03*
X126682500Y-98425000D03*
D18*
X129262500Y-94425000D03*
D19*
X131762500Y-98425000D03*
D18*
X128607501Y-95155000D03*
D20*
X127952500Y-95885000D02*
X129262502Y-94425000D01*
D18*
X134302500Y-93345000D03*
X134282500Y-93635000D03*
D20*
X134262500Y-93925000D02*
X134302500Y-93345000D01*
D17*
X146367500Y-79375000D03*
X136207500Y-79375000D03*
D18*
X138787500Y-75375000D03*
D19*
X141287500Y-79375000D03*
D18*
X138132501Y-76105000D03*
D20*
X137477500Y-76835000D02*
X138787502Y-75375000D01*
D18*
X143827500Y-74295000D03*
X143807500Y-74585000D03*
D20*
X143787500Y-74875000D02*
X143827500Y-74295000D01*
D17*
X141605000Y-60325000D03*
X131445000Y-60325000D03*
D18*
X134025000Y-56325000D03*
D19*
X136525000Y-60325000D03*
D18*
X133370001Y-57055000D03*
D20*
X132715000Y-57785000D02*
X134025002Y-56325000D01*
D18*
X139065000Y-55245000D03*
X139045000Y-55535000D03*
D20*
X139025000Y-55825000D02*
X139065000Y-55245000D01*
D17*
X132080000Y-41275000D03*
X121920000Y-41275000D03*
D18*
X124500000Y-37275000D03*
D19*
X127000000Y-41275000D03*
D18*
X123845001Y-38005000D03*
D20*
X123190000Y-38735000D02*
X124500002Y-37275000D01*
D18*
X129540000Y-36195000D03*
X129520000Y-36485000D03*
D20*
X129500000Y-36775000D02*
X129540000Y-36195000D01*
D17*
X120173750Y-117475000D03*
X110013750Y-117475000D03*
D18*
X112593750Y-113475000D03*
D19*
X115093750Y-117475000D03*
D18*
X111938751Y-114205000D03*
D20*
X111283750Y-114935000D02*
X112593752Y-113475000D01*
D18*
X117633750Y-112395000D03*
X117613750Y-112685000D03*
D20*
X117593750Y-112975000D02*
X117633750Y-112395000D01*
D17*
X127317500Y-79375000D03*
X117157500Y-79375000D03*
D18*
X119737500Y-75375000D03*
D19*
X122237500Y-79375000D03*
D18*
X119082501Y-76105000D03*
D20*
X118427500Y-76835000D02*
X119737502Y-75375000D01*
D18*
X124777500Y-74295000D03*
X124757500Y-74585000D03*
D20*
X124737500Y-74875000D02*
X124777500Y-74295000D01*
D17*
X122555000Y-60325000D03*
X112395000Y-60325000D03*
D18*
X114975000Y-56325000D03*
D19*
X117475000Y-60325000D03*
D18*
X114320001Y-57055000D03*
D20*
X113665000Y-57785000D02*
X114975002Y-56325000D01*
D18*
X120015000Y-55245000D03*
X119995000Y-55535000D03*
D20*
X119975000Y-55825000D02*
X120015000Y-55245000D01*
D17*
X113030000Y-41275000D03*
X102870000Y-41275000D03*
D18*
X105450000Y-37275000D03*
D19*
X107950000Y-41275000D03*
D18*
X104795001Y-38005000D03*
D20*
X104140000Y-38735000D02*
X105450002Y-37275000D01*
D18*
X110490000Y-36195000D03*
X110470000Y-36485000D03*
D20*
X110450000Y-36775000D02*
X110490000Y-36195000D01*
D17*
X96361250Y-117475000D03*
X86201250Y-117475000D03*
D18*
X88781250Y-113475000D03*
D19*
X91281250Y-117475000D03*
D18*
X88126251Y-114205000D03*
D20*
X87471250Y-114935000D02*
X88781252Y-113475000D01*
D18*
X93821250Y-112395000D03*
X93801250Y-112685000D03*
D20*
X93781250Y-112975000D02*
X93821250Y-112395000D01*
D19*
X112744250Y-106680000D03*
X88868250Y-106680000D03*
D21*
X112744250Y-91440000D03*
X88868250Y-91440000D03*
D17*
X105886250Y-98425000D03*
X95726250Y-98425000D03*
D18*
X98306250Y-94425000D03*
D19*
X100806250Y-98425000D03*
D18*
X97651251Y-95155000D03*
D20*
X96996250Y-95885000D02*
X98306252Y-94425000D01*
D18*
X103346250Y-93345000D03*
X103326250Y-93635000D03*
D20*
X103306250Y-93925000D02*
X103346250Y-93345000D01*
D17*
X101123750Y-79375000D03*
X90963750Y-79375000D03*
D18*
X93543750Y-75375000D03*
D19*
X96043750Y-79375000D03*
D18*
X92888751Y-76105000D03*
D20*
X92233750Y-76835000D02*
X93543752Y-75375000D01*
D18*
X98583750Y-74295000D03*
X98563750Y-74585000D03*
D20*
X98543750Y-74875000D02*
X98583750Y-74295000D01*
D17*
X98742500Y-60325000D03*
X88582500Y-60325000D03*
D18*
X91162500Y-56325000D03*
D19*
X93662500Y-60325000D03*
D18*
X90507501Y-57055000D03*
D20*
X89852500Y-57785000D02*
X91162502Y-56325000D01*
D18*
X96202500Y-55245000D03*
X96182500Y-55535000D03*
D20*
X96162500Y-55825000D02*
X96202500Y-55245000D01*
D17*
X93980000Y-41275000D03*
X83820000Y-41275000D03*
D18*
X86400000Y-37275000D03*
D19*
X88900000Y-41275000D03*
D18*
X85745001Y-38005000D03*
D20*
X85090000Y-38735000D02*
X86400002Y-37275000D01*
D18*
X91440000Y-36195000D03*
X91420000Y-36485000D03*
D20*
X91400000Y-36775000D02*
X91440000Y-36195000D01*
D22*
X192881250Y-121126250D03*
X192881250Y-118586250D03*
X192881250Y-116046250D03*
D23*
X192881250Y-113506250D03*
D24*
X199771000Y-92964000D03*
D13*
X199771000Y-100584000D03*
D24*
X194945000Y-35941000D03*
D13*
X194945000Y-43561000D03*
D24*
X170307000Y-114808000D03*
D13*
X170307000Y-122428000D03*
D24*
X197104000Y-95504000D03*
D13*
X197104000Y-103124000D03*
D24*
X190373000Y-73787000D03*
D13*
X190373000Y-81407000D03*
D24*
X200152000Y-68961000D03*
D13*
X192532000Y-68961000D03*
D24*
X192278000Y-39243000D03*
D13*
X192278000Y-46863000D03*
D24*
X178181000Y-95377000D03*
D13*
X178181000Y-102997000D03*
D24*
X187579000Y-76073000D03*
D13*
X187579000Y-83693000D03*
D24*
X182880000Y-57404000D03*
D13*
X182880000Y-65024000D03*
D24*
X173609000Y-39243000D03*
D13*
X173609000Y-46863000D03*
D24*
X159131000Y-95377000D03*
D13*
X159131000Y-102997000D03*
D24*
X168910000Y-76073000D03*
D13*
X168910000Y-83693000D03*
D24*
X163957000Y-57404000D03*
D13*
X163957000Y-65024000D03*
D24*
X154178000Y-39243000D03*
D13*
X154178000Y-46863000D03*
D24*
X147701000Y-114935000D03*
D13*
X147701000Y-122555000D03*
D24*
X140081000Y-95377000D03*
D13*
X140081000Y-102997000D03*
D24*
X149606000Y-76073000D03*
D13*
X149606000Y-83693000D03*
D24*
X144780000Y-57404000D03*
D13*
X144780000Y-65024000D03*
D24*
X135509000Y-39243000D03*
D13*
X135509000Y-46863000D03*
D24*
X123825000Y-114935000D03*
D13*
X123825000Y-122555000D03*
D24*
X130556000Y-76073000D03*
D13*
X130556000Y-83693000D03*
D24*
X125857000Y-57404000D03*
D13*
X125857000Y-65024000D03*
D24*
X116332000Y-39243000D03*
D13*
X116332000Y-46863000D03*
D24*
X99949000Y-114935000D03*
D13*
X99949000Y-122555000D03*
D24*
X109601000Y-95377000D03*
D13*
X109601000Y-102997000D03*
D24*
X104267000Y-76073000D03*
D13*
X104267000Y-83693000D03*
D24*
X128397000Y-54483000D03*
D13*
X128397000Y-62103000D03*
D24*
X97282000Y-39243000D03*
D13*
X97282000Y-46863000D03*
D25*
X180738500Y-122908750D03*
D26*
X178198500Y-122908750D03*
D25*
X97282000Y-83947000D03*
D26*
X94742000Y-83947000D03*
M02*
