G04 #@! TF.GenerationSoftware,KiCad,Pcbnew,(5.1.4-0-10_14)*
G04 #@! TF.CreationDate,2020-10-01T03:15:46-07:00*
G04 #@! TF.ProjectId,mpm62-kb-left,6d706d36-322d-46b6-922d-6c6566742e6b,rev?*
G04 #@! TF.SameCoordinates,Original*
G04 #@! TF.FileFunction,Legend,Top*
G04 #@! TF.FilePolarity,Positive*
%FSLAX46Y46*%
G04 Gerber Fmt 4.6, Leading zero omitted, Abs format (unit mm)*
G04 Created by KiCad (PCBNEW (5.1.4-0-10_14)) date 2020-10-01 03:15:46*
%MOMM*%
%LPD*%
G04 APERTURE LIST*
%ADD10C,0.150000*%
%ADD11C,0.120000*%
%ADD12C,1.702000*%
%ADD13R,1.702000X1.702000*%
%ADD14O,1.502000X1.502000*%
%ADD15C,1.502000*%
%ADD16C,1.852000*%
%ADD17C,4.089800*%
%ADD18C,3.150000*%
%ADD19O,1.802000X1.802000*%
%ADD20R,1.802000X1.802000*%
%ADD21O,1.702000X1.702000*%
%ADD22C,1.902000*%
%ADD23R,1.902000X1.902000*%
G04 APERTURE END LIST*
D10*
X145648214Y-107719642D02*
X145648214Y-105719642D01*
X145648214Y-106005357D02*
X145791071Y-105862500D01*
X146076785Y-105719642D01*
X146505357Y-105719642D01*
X146791071Y-105862500D01*
X146933928Y-106148214D01*
X146933928Y-107719642D01*
X146933928Y-106148214D02*
X147076785Y-105862500D01*
X147362500Y-105719642D01*
X147791071Y-105719642D01*
X148076785Y-105862500D01*
X148219642Y-106148214D01*
X148219642Y-107719642D01*
X149648214Y-105719642D02*
X149648214Y-108719642D01*
X149648214Y-105862500D02*
X149933928Y-105719642D01*
X150505357Y-105719642D01*
X150791071Y-105862500D01*
X150933928Y-106005357D01*
X151076785Y-106291071D01*
X151076785Y-107148214D01*
X150933928Y-107433928D01*
X150791071Y-107576785D01*
X150505357Y-107719642D01*
X149933928Y-107719642D01*
X149648214Y-107576785D01*
X152362500Y-107719642D02*
X152362500Y-105719642D01*
X152362500Y-106005357D02*
X152505357Y-105862500D01*
X152791071Y-105719642D01*
X153219642Y-105719642D01*
X153505357Y-105862500D01*
X153648214Y-106148214D01*
X153648214Y-107719642D01*
X153648214Y-106148214D02*
X153791071Y-105862500D01*
X154076785Y-105719642D01*
X154505357Y-105719642D01*
X154791071Y-105862500D01*
X154933928Y-106148214D01*
X154933928Y-107719642D01*
X157648214Y-104719642D02*
X157076785Y-104719642D01*
X156791071Y-104862500D01*
X156648214Y-105005357D01*
X156362500Y-105433928D01*
X156219642Y-106005357D01*
X156219642Y-107148214D01*
X156362500Y-107433928D01*
X156505357Y-107576785D01*
X156791071Y-107719642D01*
X157362500Y-107719642D01*
X157648214Y-107576785D01*
X157791071Y-107433928D01*
X157933928Y-107148214D01*
X157933928Y-106433928D01*
X157791071Y-106148214D01*
X157648214Y-106005357D01*
X157362500Y-105862500D01*
X156791071Y-105862500D01*
X156505357Y-106005357D01*
X156362500Y-106148214D01*
X156219642Y-106433928D01*
X159076785Y-105005357D02*
X159219642Y-104862500D01*
X159505357Y-104719642D01*
X160219642Y-104719642D01*
X160505357Y-104862500D01*
X160648214Y-105005357D01*
X160791071Y-105291071D01*
X160791071Y-105576785D01*
X160648214Y-106005357D01*
X158933928Y-107719642D01*
X160791071Y-107719642D01*
X162076785Y-106576785D02*
X164362500Y-106576785D01*
X165362500Y-105719642D02*
X166505357Y-105719642D01*
X165791071Y-104719642D02*
X165791071Y-107291071D01*
X165933928Y-107576785D01*
X166219642Y-107719642D01*
X166505357Y-107719642D01*
X167505357Y-107719642D02*
X167505357Y-104719642D01*
X168791071Y-107719642D02*
X168791071Y-106148214D01*
X168648214Y-105862500D01*
X168362500Y-105719642D01*
X167933928Y-105719642D01*
X167648214Y-105862500D01*
X167505357Y-106005357D01*
X170219642Y-107719642D02*
X170219642Y-105719642D01*
X170219642Y-106291071D02*
X170362500Y-106005357D01*
X170505357Y-105862500D01*
X170791071Y-105719642D01*
X171076785Y-105719642D01*
X173362500Y-105719642D02*
X173362500Y-107719642D01*
X172076785Y-105719642D02*
X172076785Y-107291071D01*
X172219642Y-107576785D01*
X172505357Y-107719642D01*
X172933928Y-107719642D01*
X173219642Y-107576785D01*
X173362500Y-107433928D01*
X174791071Y-106576785D02*
X177076785Y-106576785D01*
X178933928Y-107719642D02*
X178648214Y-107576785D01*
X178505357Y-107291071D01*
X178505357Y-104719642D01*
X181219642Y-107576785D02*
X180933928Y-107719642D01*
X180362500Y-107719642D01*
X180076785Y-107576785D01*
X179933928Y-107291071D01*
X179933928Y-106148214D01*
X180076785Y-105862500D01*
X180362500Y-105719642D01*
X180933928Y-105719642D01*
X181219642Y-105862500D01*
X181362500Y-106148214D01*
X181362500Y-106433928D01*
X179933928Y-106719642D01*
X182219642Y-105719642D02*
X183362500Y-105719642D01*
X182648214Y-107719642D02*
X182648214Y-105148214D01*
X182791071Y-104862500D01*
X183076785Y-104719642D01*
X183362500Y-104719642D01*
X183933928Y-105719642D02*
X185076785Y-105719642D01*
X184362500Y-104719642D02*
X184362500Y-107291071D01*
X184505357Y-107576785D01*
X184791071Y-107719642D01*
X185076785Y-107719642D01*
X188933928Y-104719642D02*
X189219642Y-104719642D01*
X189505357Y-104862500D01*
X189648214Y-105005357D01*
X189791071Y-105291071D01*
X189933928Y-105862500D01*
X189933928Y-106576785D01*
X189791071Y-107148214D01*
X189648214Y-107433928D01*
X189505357Y-107576785D01*
X189219642Y-107719642D01*
X188933928Y-107719642D01*
X188648214Y-107576785D01*
X188505357Y-107433928D01*
X188362500Y-107148214D01*
X188219642Y-106576785D01*
X188219642Y-105862500D01*
X188362500Y-105291071D01*
X188505357Y-105005357D01*
X188648214Y-104862500D01*
X188933928Y-104719642D01*
X191219642Y-107433928D02*
X191362500Y-107576785D01*
X191219642Y-107719642D01*
X191076785Y-107576785D01*
X191219642Y-107433928D01*
X191219642Y-107719642D01*
X194219642Y-107719642D02*
X192505357Y-107719642D01*
X193362500Y-107719642D02*
X193362500Y-104719642D01*
X193076785Y-105148214D01*
X192791071Y-105433928D01*
X192505357Y-105576785D01*
X81360000Y-69215000D02*
X111840000Y-69215000D01*
X81360000Y-64135000D02*
X81360000Y-69215000D01*
X78820000Y-64135000D02*
X81360000Y-64135000D01*
X78820000Y-56515000D02*
X78820000Y-64135000D01*
X81360000Y-56515000D02*
X78820000Y-56515000D01*
X81360000Y-51435000D02*
X81360000Y-56515000D01*
X111840000Y-51435000D02*
X81360000Y-51435000D01*
X111840000Y-69215000D02*
X111840000Y-51435000D01*
D11*
X177908500Y-123988750D02*
X177908500Y-124144750D01*
X177908500Y-121672750D02*
X177908500Y-121828750D01*
X180509630Y-123988587D02*
G75*
G02X178427539Y-123988750I-1041130J1079837D01*
G01*
X180509630Y-121828913D02*
G75*
G03X178427539Y-121828750I-1041130J-1079837D01*
G01*
X181140835Y-123987358D02*
G75*
G02X177908500Y-124144266I-1672335J1078608D01*
G01*
X181140835Y-121830142D02*
G75*
G03X177908500Y-121673234I-1672335J-1078608D01*
G01*
X94452000Y-85027000D02*
X94452000Y-85183000D01*
X94452000Y-82711000D02*
X94452000Y-82867000D01*
X97053130Y-85026837D02*
G75*
G02X94971039Y-85027000I-1041130J1079837D01*
G01*
X97053130Y-82867163D02*
G75*
G03X94971039Y-82867000I-1041130J-1079837D01*
G01*
X97684335Y-85025608D02*
G75*
G02X94452000Y-85182516I-1672335J1078608D01*
G01*
X97684335Y-82868392D02*
G75*
G03X94452000Y-82711484I-1672335J-1078608D01*
G01*
D10*
X178254214Y-120401130D02*
X178254214Y-119401130D01*
X178492309Y-119401130D01*
X178635166Y-119448750D01*
X178730404Y-119543988D01*
X178778023Y-119639226D01*
X178825642Y-119829702D01*
X178825642Y-119972559D01*
X178778023Y-120163035D01*
X178730404Y-120258273D01*
X178635166Y-120353511D01*
X178492309Y-120401130D01*
X178254214Y-120401130D01*
X179158976Y-119401130D02*
X179778023Y-119401130D01*
X179444690Y-119782083D01*
X179587547Y-119782083D01*
X179682785Y-119829702D01*
X179730404Y-119877321D01*
X179778023Y-119972559D01*
X179778023Y-120210654D01*
X179730404Y-120305892D01*
X179682785Y-120353511D01*
X179587547Y-120401130D01*
X179301833Y-120401130D01*
X179206595Y-120353511D01*
X179158976Y-120305892D01*
X180730404Y-120401130D02*
X180158976Y-120401130D01*
X180444690Y-120401130D02*
X180444690Y-119401130D01*
X180349452Y-119543988D01*
X180254214Y-119639226D01*
X180158976Y-119686845D01*
X94797714Y-81439380D02*
X94797714Y-80439380D01*
X95035809Y-80439380D01*
X95178666Y-80487000D01*
X95273904Y-80582238D01*
X95321523Y-80677476D01*
X95369142Y-80867952D01*
X95369142Y-81010809D01*
X95321523Y-81201285D01*
X95273904Y-81296523D01*
X95178666Y-81391761D01*
X95035809Y-81439380D01*
X94797714Y-81439380D01*
X95702476Y-80439380D02*
X96321523Y-80439380D01*
X95988190Y-80820333D01*
X96131047Y-80820333D01*
X96226285Y-80867952D01*
X96273904Y-80915571D01*
X96321523Y-81010809D01*
X96321523Y-81248904D01*
X96273904Y-81344142D01*
X96226285Y-81391761D01*
X96131047Y-81439380D01*
X95845333Y-81439380D01*
X95750095Y-81391761D01*
X95702476Y-81344142D01*
X96940571Y-80439380D02*
X97035809Y-80439380D01*
X97131047Y-80487000D01*
X97178666Y-80534619D01*
X97226285Y-80629857D01*
X97273904Y-80820333D01*
X97273904Y-81058428D01*
X97226285Y-81248904D01*
X97178666Y-81344142D01*
X97131047Y-81391761D01*
X97035809Y-81439380D01*
X96940571Y-81439380D01*
X96845333Y-81391761D01*
X96797714Y-81344142D01*
X96750095Y-81248904D01*
X96702476Y-81058428D01*
X96702476Y-80820333D01*
X96750095Y-80629857D01*
X96797714Y-80534619D01*
X96845333Y-80487000D01*
X96940571Y-80439380D01*
%LPC*%
D12*
X82630000Y-67945000D03*
X85170000Y-67945000D03*
X87710000Y-67945000D03*
X90250000Y-67945000D03*
X92790000Y-67945000D03*
X95330000Y-67945000D03*
X97870000Y-67945000D03*
X100410000Y-67945000D03*
X102950000Y-67945000D03*
X105490000Y-67945000D03*
X108030000Y-67945000D03*
X110570000Y-67945000D03*
X110570000Y-52705000D03*
X108030000Y-52705000D03*
X105490000Y-52705000D03*
X102950000Y-52705000D03*
X100410000Y-52705000D03*
X97870000Y-52705000D03*
X95330000Y-52705000D03*
X92790000Y-52705000D03*
X90250000Y-52705000D03*
X87710000Y-52705000D03*
X85170000Y-52705000D03*
D13*
X82630000Y-52705000D03*
D14*
X85725000Y-79121000D03*
D15*
X85725000Y-84201000D03*
D14*
X88011000Y-76708000D03*
D15*
X88011000Y-81788000D03*
D16*
X213042500Y-98425000D03*
X202882500Y-98425000D03*
D17*
X207962500Y-98425000D03*
D16*
X208280000Y-41275000D03*
X198120000Y-41275000D03*
D17*
X203200000Y-41275000D03*
X198437500Y-125730000D03*
X160337500Y-125730000D03*
D18*
X198437500Y-110490000D03*
X160337500Y-110490000D03*
D16*
X184467500Y-117475000D03*
X174307500Y-117475000D03*
D17*
X179387500Y-117475000D03*
D16*
X193992500Y-98425000D03*
X183832500Y-98425000D03*
D17*
X188912500Y-98425000D03*
D16*
X203517500Y-79375000D03*
X193357500Y-79375000D03*
D17*
X198437500Y-79375000D03*
D16*
X198755000Y-60325000D03*
X188595000Y-60325000D03*
D17*
X193675000Y-60325000D03*
D16*
X189230000Y-41275000D03*
X179070000Y-41275000D03*
D17*
X184150000Y-41275000D03*
D16*
X174942500Y-98425000D03*
X164782500Y-98425000D03*
D17*
X169862500Y-98425000D03*
D16*
X184467500Y-79375000D03*
X174307500Y-79375000D03*
D17*
X179387500Y-79375000D03*
D16*
X179705000Y-60325000D03*
X169545000Y-60325000D03*
D17*
X174625000Y-60325000D03*
D16*
X170180000Y-41275000D03*
X160020000Y-41275000D03*
D17*
X165100000Y-41275000D03*
D16*
X155892500Y-98425000D03*
X145732500Y-98425000D03*
D17*
X150812500Y-98425000D03*
D16*
X165417500Y-79375000D03*
X155257500Y-79375000D03*
D17*
X160337500Y-79375000D03*
D16*
X160655000Y-60325000D03*
X150495000Y-60325000D03*
D17*
X155575000Y-60325000D03*
D16*
X151130000Y-41275000D03*
X140970000Y-41275000D03*
D17*
X146050000Y-41275000D03*
D16*
X143986250Y-117475000D03*
X133826250Y-117475000D03*
D17*
X138906250Y-117475000D03*
D16*
X136842500Y-98425000D03*
X126682500Y-98425000D03*
D17*
X131762500Y-98425000D03*
D16*
X146367500Y-79375000D03*
X136207500Y-79375000D03*
D17*
X141287500Y-79375000D03*
D16*
X141605000Y-60325000D03*
X131445000Y-60325000D03*
D17*
X136525000Y-60325000D03*
D16*
X132080000Y-41275000D03*
X121920000Y-41275000D03*
D17*
X127000000Y-41275000D03*
D16*
X120173750Y-117475000D03*
X110013750Y-117475000D03*
D17*
X115093750Y-117475000D03*
D16*
X127317500Y-79375000D03*
X117157500Y-79375000D03*
D17*
X122237500Y-79375000D03*
D16*
X122555000Y-60325000D03*
X112395000Y-60325000D03*
D17*
X117475000Y-60325000D03*
D16*
X113030000Y-41275000D03*
X102870000Y-41275000D03*
D17*
X107950000Y-41275000D03*
D16*
X96361250Y-117475000D03*
X86201250Y-117475000D03*
D17*
X91281250Y-117475000D03*
X112744250Y-106680000D03*
X88868250Y-106680000D03*
D18*
X112744250Y-91440000D03*
X88868250Y-91440000D03*
D16*
X105886250Y-98425000D03*
X95726250Y-98425000D03*
D17*
X100806250Y-98425000D03*
D16*
X101123750Y-79375000D03*
X90963750Y-79375000D03*
D17*
X96043750Y-79375000D03*
D16*
X98742500Y-60325000D03*
X88582500Y-60325000D03*
D17*
X93662500Y-60325000D03*
D16*
X93980000Y-41275000D03*
X83820000Y-41275000D03*
D17*
X88900000Y-41275000D03*
D19*
X192881250Y-121126250D03*
X192881250Y-118586250D03*
X192881250Y-116046250D03*
D20*
X192881250Y-113506250D03*
D21*
X199771000Y-92964000D03*
D13*
X199771000Y-100584000D03*
D21*
X194945000Y-35941000D03*
D13*
X194945000Y-43561000D03*
D21*
X170307000Y-114808000D03*
D13*
X170307000Y-122428000D03*
D21*
X197104000Y-95504000D03*
D13*
X197104000Y-103124000D03*
D21*
X190373000Y-73787000D03*
D13*
X190373000Y-81407000D03*
D21*
X200152000Y-68961000D03*
D13*
X192532000Y-68961000D03*
D21*
X192278000Y-39243000D03*
D13*
X192278000Y-46863000D03*
D21*
X178181000Y-95377000D03*
D13*
X178181000Y-102997000D03*
D21*
X187579000Y-76073000D03*
D13*
X187579000Y-83693000D03*
D21*
X182880000Y-57404000D03*
D13*
X182880000Y-65024000D03*
D21*
X173609000Y-39243000D03*
D13*
X173609000Y-46863000D03*
D21*
X159131000Y-95377000D03*
D13*
X159131000Y-102997000D03*
D21*
X168910000Y-76073000D03*
D13*
X168910000Y-83693000D03*
D21*
X163957000Y-57404000D03*
D13*
X163957000Y-65024000D03*
D21*
X154178000Y-39243000D03*
D13*
X154178000Y-46863000D03*
D21*
X147701000Y-114935000D03*
D13*
X147701000Y-122555000D03*
D21*
X140081000Y-95377000D03*
D13*
X140081000Y-102997000D03*
D21*
X149606000Y-76073000D03*
D13*
X149606000Y-83693000D03*
D21*
X144780000Y-57404000D03*
D13*
X144780000Y-65024000D03*
D21*
X135509000Y-39243000D03*
D13*
X135509000Y-46863000D03*
D21*
X123825000Y-114935000D03*
D13*
X123825000Y-122555000D03*
D21*
X130556000Y-76073000D03*
D13*
X130556000Y-83693000D03*
D21*
X125857000Y-57404000D03*
D13*
X125857000Y-65024000D03*
D21*
X116332000Y-39243000D03*
D13*
X116332000Y-46863000D03*
D21*
X99949000Y-114935000D03*
D13*
X99949000Y-122555000D03*
D21*
X109601000Y-95377000D03*
D13*
X109601000Y-102997000D03*
D21*
X104267000Y-76073000D03*
D13*
X104267000Y-83693000D03*
D21*
X128397000Y-54483000D03*
D13*
X128397000Y-62103000D03*
D21*
X97282000Y-39243000D03*
D13*
X97282000Y-46863000D03*
D22*
X180738500Y-122908750D03*
D23*
X178198500Y-122908750D03*
D22*
X97282000Y-83947000D03*
D23*
X94742000Y-83947000D03*
M02*
