M48
; DRILL file {KiCad (5.1.4-0-10_14)} date Thursday, October 01, 2020 at 03:16:46 AM
; FORMAT={-:-/ absolute / inch / decimal}
; #@! TF.CreationDate,2020-10-01T03:16:46-07:00
; #@! TF.GenerationSoftware,Kicad,Pcbnew,(5.1.4-0-10_14)
; #@! TF.FileFunction,Plated,1,2,PTH
FMAT,2
INCH
T1C0.0157
T2C0.0276
T3C0.0315
T4C0.0354
T5C0.0394
T6C0.0433
T7C0.0579
%
G90
G05
T1
X3.315Y-3.4
X4.345Y-2.92
X4.485Y-2.925
T2
X3.465Y-3.02
X3.465Y-3.22
X3.375Y-3.115
X3.375Y-3.315
T3
X5.815Y-4.525
X5.055Y-2.145
X7.76Y-3.76
X7.76Y-4.06
X7.495Y-2.905
X7.495Y-3.205
X6.265Y-3.755
X7.58Y-2.715
X7.88Y-2.715
X5.815Y-4.825
X5.14Y-2.995
X5.14Y-3.295
X4.955Y-2.26
X4.955Y-2.56
X5.055Y-2.445
X6.65Y-2.995
X6.65Y-3.295
X6.455Y-2.26
X6.455Y-2.56
X6.07Y-1.545
X6.07Y-1.845
X6.705Y-4.52
X6.705Y-4.82
X7.675Y-1.415
X7.675Y-1.715
X6.265Y-4.055
X7.865Y-3.66
X7.865Y-3.96
X3.83Y-1.845
X7.385Y-2.995
X5.7Y-2.26
X5.7Y-2.56
X5.335Y-1.545
X5.335Y-1.845
X4.875Y-4.525
X4.875Y-4.825
X6.835Y-1.545
X6.835Y-1.845
X7.2Y-2.26
X7.2Y-2.56
X4.105Y-2.995
X4.105Y-3.295
X3.83Y-1.545
X7.385Y-3.295
X4.58Y-1.545
X4.58Y-1.845
X7.015Y-3.755
X7.015Y-4.055
X3.935Y-4.525
X3.935Y-4.825
X4.315Y-3.755
X4.315Y-4.055
X7.57Y-1.545
X7.57Y-1.845
X5.515Y-3.755
X5.89Y-2.995
X5.89Y-3.295
X5.515Y-4.055
T4
X7.0157Y-4.8389
X7.1157Y-4.8389
X3.73Y-3.305
X3.83Y-3.305
T5
X7.5938Y-4.4688
X7.5938Y-4.5687
X7.5938Y-4.6688
X7.5938Y-4.7687
T6
X3.2531Y-2.075
X3.2531Y-2.675
X3.3531Y-2.075
X3.3531Y-2.675
X3.4531Y-2.075
X3.4531Y-2.675
X3.5531Y-2.075
X3.5531Y-2.675
X3.6531Y-2.075
X3.6531Y-2.675
X3.7531Y-2.075
X3.7531Y-2.675
X3.8531Y-2.075
X3.8531Y-2.675
X3.9531Y-2.075
X3.9531Y-2.675
X4.0531Y-2.075
X4.0531Y-2.675
X4.1531Y-2.075
X4.1531Y-2.675
X4.2531Y-2.075
X4.2531Y-2.675
X4.3531Y-2.075
X4.3531Y-2.675
T7
X6.9125Y-3.025
X6.9641Y-2.9675
X5.4125Y-3.025
X5.4641Y-2.9675
X5.6609Y-2.9478
X5.6625Y-2.925
X6.1625Y-3.025
X6.2141Y-2.9675
X6.4109Y-2.9478
X6.4125Y-2.925
X7.1609Y-2.9478
X7.1625Y-2.925
X5.6Y-1.525
X5.6516Y-1.4675
X5.8484Y-1.4478
X5.85Y-1.425
X4.1Y-1.525
X4.1516Y-1.4675
X4.3484Y-1.4478
X4.35Y-1.425
X7.475Y-2.275
X7.5266Y-2.2175
X7.7234Y-2.1978
X7.725Y-2.175
X7.85Y-1.525
X7.9016Y-1.4675
X8.0984Y-1.4478
X8.1Y-1.425
X8.2859Y-3.6978
X3.5375Y-2.275
X3.5891Y-2.2175
X3.7859Y-2.1978
X4.6297Y-4.4478
X3.8188Y-3.775
X3.8703Y-3.7175
X4.0672Y-3.6978
X4.0687Y-3.675
X7.2875Y-3.775
X7.3391Y-3.7175
X7.5359Y-3.6978
X7.5375Y-3.675
X4.6312Y-4.425
X8.0891Y-3.7175
X4.3812Y-4.525
X3.7875Y-2.175
X8.0375Y-3.775
X4.4328Y-4.4675
X8.2875Y-3.675
X5.2859Y-3.6978
X6.5375Y-3.775
X6.5891Y-3.7175
X5.0375Y-3.775
X5.0891Y-3.7175
X5.2875Y-3.675
X5.7875Y-3.775
X5.8391Y-3.7175
X6.0359Y-3.6978
X6.0375Y-3.675
X6.7859Y-3.6978
X6.7875Y-3.675
X6.725Y-2.275
X4.475Y-2.275
X4.6625Y-3.025
X4.7141Y-2.9675
X4.9109Y-2.9478
X4.9125Y-2.925
X4.5266Y-2.2175
X4.7234Y-2.1978
X4.725Y-2.175
X5.225Y-2.275
X5.2766Y-2.2175
X5.4734Y-2.1978
X5.975Y-2.275
X6.0266Y-2.2175
X6.2234Y-2.1978
X6.225Y-2.175
X5.475Y-2.175
X3.6313Y-3.025
X3.6828Y-2.9675
X3.8797Y-2.9478
X3.8813Y-2.925
X7.6625Y-3.025
X7.7141Y-2.9675
X7.9109Y-2.9478
X7.9125Y-2.925
X4.85Y-1.525
X4.9016Y-1.4675
X5.0984Y-1.4478
X5.1Y-1.425
X6.7766Y-2.2175
X6.9734Y-2.1978
X6.975Y-2.175
X3.4438Y-4.525
X3.4953Y-4.4675
X3.6922Y-4.4478
X3.6938Y-4.425
X3.35Y-1.525
X3.4016Y-1.4675
X3.5984Y-1.4478
X7.1Y-1.525
X7.1516Y-1.4675
X7.3484Y-1.4478
X7.35Y-1.425
X5.3187Y-4.525
X5.3703Y-4.4675
X5.5672Y-4.4478
X5.5687Y-4.425
X3.6Y-1.425
X6.35Y-1.525
X6.4016Y-1.4675
X6.5984Y-1.4478
X6.6Y-1.425
X6.9125Y-4.525
X6.9641Y-4.4675
X7.1609Y-4.4478
X7.1625Y-4.425
T0
M30
