G04 #@! TF.GenerationSoftware,KiCad,Pcbnew,(5.1.4-0-10_14)*
G04 #@! TF.CreationDate,2021-02-15T10:00:53-08:00*
G04 #@! TF.ProjectId,mpm62-kb-left,6d706d36-322d-46b6-922d-6c6566742e6b,rev?*
G04 #@! TF.SameCoordinates,Original*
G04 #@! TF.FileFunction,Soldermask,Top*
G04 #@! TF.FilePolarity,Negative*
%FSLAX46Y46*%
G04 Gerber Fmt 4.6, Leading zero omitted, Abs format (unit mm)*
G04 Created by KiCad (PCBNEW (5.1.4-0-10_14)) date 2021-02-15 10:00:53*
%MOMM*%
%LPD*%
G04 APERTURE LIST*
%ADD10C,0.100000*%
G04 APERTURE END LIST*
D10*
G36*
X198731832Y-122912690D02*
G01*
X198896911Y-122945526D01*
X199015637Y-122994704D01*
X199183541Y-123064252D01*
X199183542Y-123064253D01*
X199441504Y-123236617D01*
X199660883Y-123455996D01*
X199700111Y-123514705D01*
X199833248Y-123713959D01*
X199864960Y-123790519D01*
X199951974Y-124000589D01*
X199973101Y-124106803D01*
X200012500Y-124304875D01*
X200012500Y-124615125D01*
X199991003Y-124723196D01*
X199951974Y-124919411D01*
X199921072Y-124994015D01*
X199833248Y-125206041D01*
X199832741Y-125206800D01*
X199660883Y-125464004D01*
X199441504Y-125683383D01*
X199312382Y-125769659D01*
X199183541Y-125855748D01*
X199015637Y-125925296D01*
X198896911Y-125974474D01*
X198750051Y-126003686D01*
X198592625Y-126035000D01*
X198282375Y-126035000D01*
X198124949Y-126003686D01*
X197978089Y-125974474D01*
X197859363Y-125925296D01*
X197691459Y-125855748D01*
X197562618Y-125769659D01*
X197433496Y-125683383D01*
X197214117Y-125464004D01*
X197042259Y-125206800D01*
X197041752Y-125206041D01*
X196953928Y-124994015D01*
X196923026Y-124919411D01*
X196883997Y-124723196D01*
X196862500Y-124615125D01*
X196862500Y-124304875D01*
X196901899Y-124106803D01*
X196923026Y-124000589D01*
X197010040Y-123790519D01*
X197041752Y-123713959D01*
X197174889Y-123514705D01*
X197214117Y-123455996D01*
X197433496Y-123236617D01*
X197691458Y-123064253D01*
X197691459Y-123064252D01*
X197859363Y-122994704D01*
X197978089Y-122945526D01*
X198143168Y-122912690D01*
X198282375Y-122885000D01*
X198592625Y-122885000D01*
X198731832Y-122912690D01*
X198731832Y-122912690D01*
G37*
G36*
X160631832Y-122912690D02*
G01*
X160796911Y-122945526D01*
X160915637Y-122994704D01*
X161083541Y-123064252D01*
X161083542Y-123064253D01*
X161341504Y-123236617D01*
X161560883Y-123455996D01*
X161600111Y-123514705D01*
X161733248Y-123713959D01*
X161764960Y-123790519D01*
X161851974Y-124000589D01*
X161873101Y-124106803D01*
X161912500Y-124304875D01*
X161912500Y-124615125D01*
X161891003Y-124723196D01*
X161851974Y-124919411D01*
X161821072Y-124994015D01*
X161733248Y-125206041D01*
X161732741Y-125206800D01*
X161560883Y-125464004D01*
X161341504Y-125683383D01*
X161212382Y-125769659D01*
X161083541Y-125855748D01*
X160915637Y-125925296D01*
X160796911Y-125974474D01*
X160650051Y-126003686D01*
X160492625Y-126035000D01*
X160182375Y-126035000D01*
X160024949Y-126003686D01*
X159878089Y-125974474D01*
X159759363Y-125925296D01*
X159591459Y-125855748D01*
X159462618Y-125769659D01*
X159333496Y-125683383D01*
X159114117Y-125464004D01*
X158942259Y-125206800D01*
X158941752Y-125206041D01*
X158853928Y-124994015D01*
X158823026Y-124919411D01*
X158783997Y-124723196D01*
X158762500Y-124615125D01*
X158762500Y-124304875D01*
X158801899Y-124106803D01*
X158823026Y-124000589D01*
X158910040Y-123790519D01*
X158941752Y-123713959D01*
X159074889Y-123514705D01*
X159114117Y-123455996D01*
X159333496Y-123236617D01*
X159591458Y-123064253D01*
X159591459Y-123064252D01*
X159759363Y-122994704D01*
X159878089Y-122945526D01*
X160043168Y-122912690D01*
X160182375Y-122885000D01*
X160492625Y-122885000D01*
X160631832Y-122912690D01*
X160631832Y-122912690D01*
G37*
G36*
X206809823Y-123926313D02*
G01*
X206970242Y-123974976D01*
X207018162Y-124000590D01*
X207118078Y-124053996D01*
X207247659Y-124160341D01*
X207354004Y-124289922D01*
X207354005Y-124289924D01*
X207433024Y-124437758D01*
X207481687Y-124598178D01*
X207494000Y-124723197D01*
X207494000Y-125206804D01*
X207481687Y-125331823D01*
X207433024Y-125492242D01*
X207362114Y-125624906D01*
X207354004Y-125640078D01*
X207318464Y-125683383D01*
X207247659Y-125769659D01*
X207118077Y-125876005D01*
X206970241Y-125955024D01*
X206809822Y-126003687D01*
X206643000Y-126020117D01*
X206476177Y-126003687D01*
X206315758Y-125955024D01*
X206167924Y-125876005D01*
X206167922Y-125876004D01*
X206038341Y-125769659D01*
X205967536Y-125683383D01*
X205931995Y-125640077D01*
X205852976Y-125492241D01*
X205804313Y-125331822D01*
X205792000Y-125206803D01*
X205792000Y-124723196D01*
X205804313Y-124598177D01*
X205852976Y-124437758D01*
X205931995Y-124289924D01*
X205931996Y-124289922D01*
X206038342Y-124160341D01*
X206167923Y-124053996D01*
X206267839Y-124000590D01*
X206315759Y-123974976D01*
X206476178Y-123926313D01*
X206643000Y-123909883D01*
X206809823Y-123926313D01*
X206809823Y-123926313D01*
G37*
G36*
X166999228Y-123514703D02*
G01*
X167154100Y-123578853D01*
X167293481Y-123671985D01*
X167412015Y-123790519D01*
X167505147Y-123929900D01*
X167569297Y-124084772D01*
X167602000Y-124249184D01*
X167602000Y-124416816D01*
X167569297Y-124581228D01*
X167505147Y-124736100D01*
X167412015Y-124875481D01*
X167293481Y-124994015D01*
X167154100Y-125087147D01*
X166999228Y-125151297D01*
X166834816Y-125184000D01*
X166667184Y-125184000D01*
X166502772Y-125151297D01*
X166347900Y-125087147D01*
X166208519Y-124994015D01*
X166089985Y-124875481D01*
X165996853Y-124736100D01*
X165932703Y-124581228D01*
X165900000Y-124416816D01*
X165900000Y-124249184D01*
X165932703Y-124084772D01*
X165996853Y-123929900D01*
X166089985Y-123790519D01*
X166208519Y-123671985D01*
X166347900Y-123578853D01*
X166502772Y-123514703D01*
X166667184Y-123482000D01*
X166834816Y-123482000D01*
X166999228Y-123514703D01*
X166999228Y-123514703D01*
G37*
G36*
X202209823Y-122826313D02*
G01*
X202370242Y-122874976D01*
X202502232Y-122945526D01*
X202518078Y-122953996D01*
X202647659Y-123060341D01*
X202754004Y-123189922D01*
X202754005Y-123189924D01*
X202833024Y-123337758D01*
X202881687Y-123498178D01*
X202894000Y-123623197D01*
X202894000Y-124106804D01*
X202881687Y-124231823D01*
X202833024Y-124392242D01*
X202762114Y-124524906D01*
X202754004Y-124540078D01*
X202706323Y-124598177D01*
X202647659Y-124669659D01*
X202518077Y-124776005D01*
X202370241Y-124855024D01*
X202209822Y-124903687D01*
X202043000Y-124920117D01*
X201876177Y-124903687D01*
X201715758Y-124855024D01*
X201567924Y-124776005D01*
X201567922Y-124776004D01*
X201438341Y-124669659D01*
X201379677Y-124598177D01*
X201331995Y-124540077D01*
X201252976Y-124392241D01*
X201204313Y-124231822D01*
X201192000Y-124106803D01*
X201192000Y-123623196D01*
X201204313Y-123498177D01*
X201252976Y-123337758D01*
X201331995Y-123189924D01*
X201331996Y-123189922D01*
X201438342Y-123060341D01*
X201567923Y-122953996D01*
X201583769Y-122945526D01*
X201715759Y-122874976D01*
X201876178Y-122826313D01*
X202043000Y-122809883D01*
X202209823Y-122826313D01*
X202209823Y-122826313D01*
G37*
G36*
X148552000Y-123406000D02*
G01*
X146850000Y-123406000D01*
X146850000Y-121704000D01*
X148552000Y-121704000D01*
X148552000Y-123406000D01*
X148552000Y-123406000D01*
G37*
G36*
X124676000Y-123406000D02*
G01*
X122974000Y-123406000D01*
X122974000Y-121704000D01*
X124676000Y-121704000D01*
X124676000Y-123406000D01*
X124676000Y-123406000D01*
G37*
G36*
X171158000Y-123279000D02*
G01*
X169456000Y-123279000D01*
X169456000Y-121577000D01*
X171158000Y-121577000D01*
X171158000Y-123279000D01*
X171158000Y-123279000D01*
G37*
G36*
X100165000Y-123279000D02*
G01*
X98463000Y-123279000D01*
X98463000Y-121577000D01*
X100165000Y-121577000D01*
X100165000Y-123279000D01*
X100165000Y-123279000D01*
G37*
G36*
X179259000Y-123125000D02*
G01*
X177357000Y-123125000D01*
X177357000Y-121223000D01*
X179259000Y-121223000D01*
X179259000Y-123125000D01*
X179259000Y-123125000D01*
G37*
G36*
X181125395Y-121259546D02*
G01*
X181298466Y-121331234D01*
X181298467Y-121331235D01*
X181454227Y-121435310D01*
X181586690Y-121567773D01*
X181586691Y-121567775D01*
X181690766Y-121723534D01*
X181762454Y-121896605D01*
X181799000Y-122080333D01*
X181799000Y-122267667D01*
X181762454Y-122451395D01*
X181690766Y-122624466D01*
X181690765Y-122624467D01*
X181586690Y-122780227D01*
X181454227Y-122912690D01*
X181405084Y-122945526D01*
X181298466Y-123016766D01*
X181125395Y-123088454D01*
X180941667Y-123125000D01*
X180754333Y-123125000D01*
X180570605Y-123088454D01*
X180397534Y-123016766D01*
X180290916Y-122945526D01*
X180241773Y-122912690D01*
X180109310Y-122780227D01*
X180005235Y-122624467D01*
X180005234Y-122624466D01*
X179933546Y-122451395D01*
X179897000Y-122267667D01*
X179897000Y-122080333D01*
X179933546Y-121896605D01*
X180005234Y-121723534D01*
X180109309Y-121567775D01*
X180109310Y-121567773D01*
X180241773Y-121435310D01*
X180397533Y-121331235D01*
X180397534Y-121331234D01*
X180570605Y-121259546D01*
X180754333Y-121223000D01*
X180941667Y-121223000D01*
X181125395Y-121259546D01*
X181125395Y-121259546D01*
G37*
G36*
X204474552Y-121831331D02*
G01*
X204556627Y-121865328D01*
X204556629Y-121865329D01*
X204586766Y-121885466D01*
X204630495Y-121914685D01*
X204693315Y-121977505D01*
X204742672Y-122051373D01*
X204776669Y-122133448D01*
X204794000Y-122220579D01*
X204794000Y-122309421D01*
X204776669Y-122396552D01*
X204742672Y-122478627D01*
X204693315Y-122552495D01*
X204630495Y-122615315D01*
X204616798Y-122624467D01*
X204556629Y-122664671D01*
X204556628Y-122664672D01*
X204556627Y-122664672D01*
X204474552Y-122698669D01*
X204387421Y-122716000D01*
X204298579Y-122716000D01*
X204211448Y-122698669D01*
X204129373Y-122664672D01*
X204129372Y-122664672D01*
X204129371Y-122664671D01*
X204069202Y-122624467D01*
X204055505Y-122615315D01*
X203992685Y-122552495D01*
X203943328Y-122478627D01*
X203909331Y-122396552D01*
X203892000Y-122309421D01*
X203892000Y-122220579D01*
X203909331Y-122133448D01*
X203943328Y-122051373D01*
X203992685Y-121977505D01*
X204055505Y-121914685D01*
X204099234Y-121885466D01*
X204129371Y-121865329D01*
X204129373Y-121865328D01*
X204211448Y-121831331D01*
X204298579Y-121814000D01*
X204387421Y-121814000D01*
X204474552Y-121831331D01*
X204474552Y-121831331D01*
G37*
G36*
X188705443Y-120644519D02*
G01*
X188771627Y-120651037D01*
X188941466Y-120702557D01*
X189097991Y-120786222D01*
X189133729Y-120815552D01*
X189235186Y-120898814D01*
X189318448Y-121000271D01*
X189347778Y-121036009D01*
X189431443Y-121192534D01*
X189482963Y-121362373D01*
X189500359Y-121539000D01*
X189482963Y-121715627D01*
X189437551Y-121865329D01*
X189431442Y-121885468D01*
X189389611Y-121963728D01*
X189347778Y-122041991D01*
X189340080Y-122051371D01*
X189235186Y-122179186D01*
X189133729Y-122262448D01*
X189097991Y-122291778D01*
X188941466Y-122375443D01*
X188771627Y-122426963D01*
X188705443Y-122433481D01*
X188639260Y-122440000D01*
X188550740Y-122440000D01*
X188484557Y-122433481D01*
X188418373Y-122426963D01*
X188248534Y-122375443D01*
X188092009Y-122291778D01*
X188056271Y-122262448D01*
X187954814Y-122179186D01*
X187849920Y-122051371D01*
X187842222Y-122041991D01*
X187800389Y-121963728D01*
X187758558Y-121885468D01*
X187752449Y-121865329D01*
X187707037Y-121715627D01*
X187689641Y-121539000D01*
X187707037Y-121362373D01*
X187758557Y-121192534D01*
X187842222Y-121036009D01*
X187871552Y-121000271D01*
X187954814Y-120898814D01*
X188056271Y-120815552D01*
X188092009Y-120786222D01*
X188248534Y-120702557D01*
X188418373Y-120651037D01*
X188484557Y-120644519D01*
X188550740Y-120638000D01*
X188639260Y-120638000D01*
X188705443Y-120644519D01*
X188705443Y-120644519D01*
G37*
G36*
X202209823Y-118826313D02*
G01*
X202370242Y-118874976D01*
X202502906Y-118945886D01*
X202518078Y-118953996D01*
X202647659Y-119060341D01*
X202754004Y-119189922D01*
X202754005Y-119189924D01*
X202833024Y-119337758D01*
X202881687Y-119498178D01*
X202894000Y-119623197D01*
X202894000Y-120106804D01*
X202881687Y-120231823D01*
X202833024Y-120392242D01*
X202774993Y-120500810D01*
X202754004Y-120540078D01*
X202673641Y-120638000D01*
X202647659Y-120669659D01*
X202518077Y-120776005D01*
X202370241Y-120855024D01*
X202209822Y-120903687D01*
X202043000Y-120920117D01*
X201876177Y-120903687D01*
X201715758Y-120855024D01*
X201567924Y-120776005D01*
X201567922Y-120776004D01*
X201438341Y-120669659D01*
X201412359Y-120638000D01*
X201331995Y-120540077D01*
X201252976Y-120392241D01*
X201204313Y-120231822D01*
X201192000Y-120106803D01*
X201192000Y-119623196D01*
X201204313Y-119498177D01*
X201252976Y-119337758D01*
X201331995Y-119189924D01*
X201331996Y-119189922D01*
X201438342Y-119060341D01*
X201567923Y-118953996D01*
X201583095Y-118945886D01*
X201715759Y-118874976D01*
X201876178Y-118826313D01*
X202043000Y-118809883D01*
X202209823Y-118826313D01*
X202209823Y-118826313D01*
G37*
G36*
X192810518Y-119379730D02*
G01*
X192865955Y-119385190D01*
X192972647Y-119417555D01*
X192972650Y-119417556D01*
X193070973Y-119470111D01*
X193157159Y-119540841D01*
X193227889Y-119627027D01*
X193280444Y-119725350D01*
X193280445Y-119725353D01*
X193312810Y-119832045D01*
X193323738Y-119943000D01*
X193312810Y-120053955D01*
X193296778Y-120106804D01*
X193280444Y-120160650D01*
X193227889Y-120258973D01*
X193157159Y-120345159D01*
X193070973Y-120415889D01*
X192972650Y-120468444D01*
X192972647Y-120468445D01*
X192865955Y-120500810D01*
X192810518Y-120506270D01*
X192782801Y-120509000D01*
X192027199Y-120509000D01*
X191999482Y-120506270D01*
X191944045Y-120500810D01*
X191837353Y-120468445D01*
X191837350Y-120468444D01*
X191739027Y-120415889D01*
X191652841Y-120345159D01*
X191582111Y-120258973D01*
X191529556Y-120160650D01*
X191513222Y-120106804D01*
X191497190Y-120053955D01*
X191486262Y-119943000D01*
X191497190Y-119832045D01*
X191529555Y-119725353D01*
X191529556Y-119725350D01*
X191582111Y-119627027D01*
X191652841Y-119540841D01*
X191739027Y-119470111D01*
X191837350Y-119417556D01*
X191837353Y-119417555D01*
X191944045Y-119385190D01*
X191999482Y-119379730D01*
X192027199Y-119377000D01*
X192782801Y-119377000D01*
X192810518Y-119379730D01*
X192810518Y-119379730D01*
G37*
G36*
X188705443Y-118104519D02*
G01*
X188771627Y-118111037D01*
X188941466Y-118162557D01*
X189097991Y-118246222D01*
X189133729Y-118275552D01*
X189235186Y-118358814D01*
X189304785Y-118443622D01*
X189347778Y-118496009D01*
X189431443Y-118652534D01*
X189482963Y-118822373D01*
X189500359Y-118999000D01*
X189482963Y-119175627D01*
X189431443Y-119345466D01*
X189347778Y-119501991D01*
X189333080Y-119519900D01*
X189235186Y-119639186D01*
X189133729Y-119722448D01*
X189097991Y-119751778D01*
X189097989Y-119751779D01*
X188947820Y-119832047D01*
X188941466Y-119835443D01*
X188771627Y-119886963D01*
X188705442Y-119893482D01*
X188639260Y-119900000D01*
X188550740Y-119900000D01*
X188484558Y-119893482D01*
X188418373Y-119886963D01*
X188248534Y-119835443D01*
X188242181Y-119832047D01*
X188092011Y-119751779D01*
X188092009Y-119751778D01*
X188056271Y-119722448D01*
X187954814Y-119639186D01*
X187856920Y-119519900D01*
X187842222Y-119501991D01*
X187758557Y-119345466D01*
X187707037Y-119175627D01*
X187689641Y-118999000D01*
X187707037Y-118822373D01*
X187758557Y-118652534D01*
X187842222Y-118496009D01*
X187885215Y-118443622D01*
X187954814Y-118358814D01*
X188056271Y-118275552D01*
X188092009Y-118246222D01*
X188248534Y-118162557D01*
X188418373Y-118111037D01*
X188484557Y-118104519D01*
X188550740Y-118098000D01*
X188639260Y-118098000D01*
X188705443Y-118104519D01*
X188705443Y-118104519D01*
G37*
G36*
X103463380Y-115234776D02*
G01*
X103844093Y-115310504D01*
X104253749Y-115480189D01*
X104622429Y-115726534D01*
X104935966Y-116040071D01*
X105182311Y-116408751D01*
X105351996Y-116818407D01*
X105438500Y-117253296D01*
X105438500Y-117696704D01*
X105351996Y-118131593D01*
X105182311Y-118541249D01*
X104935966Y-118909929D01*
X104622429Y-119223466D01*
X104253749Y-119469811D01*
X103844093Y-119639496D01*
X103463380Y-119715224D01*
X103409205Y-119726000D01*
X102965795Y-119726000D01*
X102911620Y-119715224D01*
X102530907Y-119639496D01*
X102121251Y-119469811D01*
X101752571Y-119223466D01*
X101439034Y-118909929D01*
X101192689Y-118541249D01*
X101023004Y-118131593D01*
X100936500Y-117696704D01*
X100936500Y-117253296D01*
X101023004Y-116818407D01*
X101192689Y-116408751D01*
X101439034Y-116040071D01*
X101752571Y-115726534D01*
X102121251Y-115480189D01*
X102530907Y-115310504D01*
X102911620Y-115234776D01*
X102965795Y-115224000D01*
X103409205Y-115224000D01*
X103463380Y-115234776D01*
X103463380Y-115234776D01*
G37*
G36*
X115690224Y-115508684D02*
G01*
X115795995Y-115552496D01*
X116062373Y-115662833D01*
X116397298Y-115886623D01*
X116682127Y-116171452D01*
X116905917Y-116506377D01*
X116938312Y-116584586D01*
X117060066Y-116878526D01*
X117138650Y-117273594D01*
X117138650Y-117676406D01*
X117060066Y-118071474D01*
X117009201Y-118194272D01*
X116905917Y-118443623D01*
X116682127Y-118778548D01*
X116397298Y-119063377D01*
X116062373Y-119287167D01*
X115921626Y-119345466D01*
X115690224Y-119441316D01*
X115295156Y-119519900D01*
X114892344Y-119519900D01*
X114497276Y-119441316D01*
X114265874Y-119345466D01*
X114125127Y-119287167D01*
X113790202Y-119063377D01*
X113505373Y-118778548D01*
X113281583Y-118443623D01*
X113178299Y-118194272D01*
X113127434Y-118071474D01*
X113048850Y-117676406D01*
X113048850Y-117273594D01*
X113127434Y-116878526D01*
X113249188Y-116584586D01*
X113281583Y-116506377D01*
X113505373Y-116171452D01*
X113790202Y-115886623D01*
X114125127Y-115662833D01*
X114391505Y-115552496D01*
X114497276Y-115508684D01*
X114892344Y-115430100D01*
X115295156Y-115430100D01*
X115690224Y-115508684D01*
X115690224Y-115508684D01*
G37*
G36*
X139502724Y-115508684D02*
G01*
X139608495Y-115552496D01*
X139874873Y-115662833D01*
X140209798Y-115886623D01*
X140494627Y-116171452D01*
X140718417Y-116506377D01*
X140750812Y-116584586D01*
X140872566Y-116878526D01*
X140951150Y-117273594D01*
X140951150Y-117676406D01*
X140872566Y-118071474D01*
X140821701Y-118194272D01*
X140718417Y-118443623D01*
X140494627Y-118778548D01*
X140209798Y-119063377D01*
X139874873Y-119287167D01*
X139734126Y-119345466D01*
X139502724Y-119441316D01*
X139107656Y-119519900D01*
X138704844Y-119519900D01*
X138309776Y-119441316D01*
X138078374Y-119345466D01*
X137937627Y-119287167D01*
X137602702Y-119063377D01*
X137317873Y-118778548D01*
X137094083Y-118443623D01*
X136990799Y-118194272D01*
X136939934Y-118071474D01*
X136861350Y-117676406D01*
X136861350Y-117273594D01*
X136939934Y-116878526D01*
X137061688Y-116584586D01*
X137094083Y-116506377D01*
X137317873Y-116171452D01*
X137602702Y-115886623D01*
X137937627Y-115662833D01*
X138204005Y-115552496D01*
X138309776Y-115508684D01*
X138704844Y-115430100D01*
X139107656Y-115430100D01*
X139502724Y-115508684D01*
X139502724Y-115508684D01*
G37*
G36*
X91877724Y-115508684D02*
G01*
X91983495Y-115552496D01*
X92249873Y-115662833D01*
X92584798Y-115886623D01*
X92869627Y-116171452D01*
X93093417Y-116506377D01*
X93125812Y-116584586D01*
X93247566Y-116878526D01*
X93326150Y-117273594D01*
X93326150Y-117676406D01*
X93247566Y-118071474D01*
X93196701Y-118194272D01*
X93093417Y-118443623D01*
X92869627Y-118778548D01*
X92584798Y-119063377D01*
X92249873Y-119287167D01*
X92109126Y-119345466D01*
X91877724Y-119441316D01*
X91482656Y-119519900D01*
X91079844Y-119519900D01*
X90684776Y-119441316D01*
X90453374Y-119345466D01*
X90312627Y-119287167D01*
X89977702Y-119063377D01*
X89692873Y-118778548D01*
X89469083Y-118443623D01*
X89365799Y-118194272D01*
X89314934Y-118071474D01*
X89236350Y-117676406D01*
X89236350Y-117273594D01*
X89314934Y-116878526D01*
X89436688Y-116584586D01*
X89469083Y-116506377D01*
X89692873Y-116171452D01*
X89977702Y-115886623D01*
X90312627Y-115662833D01*
X90579005Y-115552496D01*
X90684776Y-115508684D01*
X91079844Y-115430100D01*
X91482656Y-115430100D01*
X91877724Y-115508684D01*
X91877724Y-115508684D01*
G37*
G36*
X179983974Y-115508684D02*
G01*
X180089745Y-115552496D01*
X180356123Y-115662833D01*
X180691048Y-115886623D01*
X180975877Y-116171452D01*
X181199667Y-116506377D01*
X181232062Y-116584586D01*
X181353816Y-116878526D01*
X181432400Y-117273594D01*
X181432400Y-117676406D01*
X181353816Y-118071474D01*
X181302951Y-118194272D01*
X181199667Y-118443623D01*
X180975877Y-118778548D01*
X180691048Y-119063377D01*
X180356123Y-119287167D01*
X180215376Y-119345466D01*
X179983974Y-119441316D01*
X179588906Y-119519900D01*
X179186094Y-119519900D01*
X178791026Y-119441316D01*
X178559624Y-119345466D01*
X178418877Y-119287167D01*
X178083952Y-119063377D01*
X177799123Y-118778548D01*
X177575333Y-118443623D01*
X177472049Y-118194272D01*
X177421184Y-118071474D01*
X177342600Y-117676406D01*
X177342600Y-117273594D01*
X177421184Y-116878526D01*
X177542938Y-116584586D01*
X177575333Y-116506377D01*
X177799123Y-116171452D01*
X178083952Y-115886623D01*
X178418877Y-115662833D01*
X178685255Y-115552496D01*
X178791026Y-115508684D01*
X179186094Y-115430100D01*
X179588906Y-115430100D01*
X179983974Y-115508684D01*
X179983974Y-115508684D01*
G37*
G36*
X192810518Y-117879730D02*
G01*
X192865955Y-117885190D01*
X192972647Y-117917555D01*
X192972650Y-117917556D01*
X193070973Y-117970111D01*
X193157159Y-118040841D01*
X193227889Y-118127027D01*
X193280444Y-118225350D01*
X193280445Y-118225353D01*
X193312810Y-118332045D01*
X193323738Y-118443000D01*
X193312810Y-118553955D01*
X193282907Y-118652532D01*
X193280444Y-118660650D01*
X193227889Y-118758973D01*
X193157159Y-118845159D01*
X193070973Y-118915889D01*
X192972650Y-118968444D01*
X192972647Y-118968445D01*
X192865955Y-119000810D01*
X192810518Y-119006270D01*
X192782801Y-119009000D01*
X192027199Y-119009000D01*
X191999482Y-119006270D01*
X191944045Y-119000810D01*
X191837353Y-118968445D01*
X191837350Y-118968444D01*
X191739027Y-118915889D01*
X191652841Y-118845159D01*
X191582111Y-118758973D01*
X191529556Y-118660650D01*
X191527093Y-118652532D01*
X191497190Y-118553955D01*
X191486262Y-118443000D01*
X191497190Y-118332045D01*
X191529555Y-118225353D01*
X191529556Y-118225350D01*
X191582111Y-118127027D01*
X191652841Y-118040841D01*
X191739027Y-117970111D01*
X191837350Y-117917556D01*
X191837353Y-117917555D01*
X191944045Y-117885190D01*
X191999482Y-117879730D01*
X192027199Y-117877000D01*
X192782801Y-117877000D01*
X192810518Y-117879730D01*
X192810518Y-117879730D01*
G37*
G36*
X184737604Y-116584585D02*
G01*
X184906126Y-116654389D01*
X185057791Y-116755728D01*
X185186772Y-116884709D01*
X185288111Y-117036374D01*
X185357915Y-117204896D01*
X185393500Y-117383797D01*
X185393500Y-117566203D01*
X185357915Y-117745104D01*
X185288111Y-117913626D01*
X185186772Y-118065291D01*
X185057791Y-118194272D01*
X184906126Y-118295611D01*
X184737604Y-118365415D01*
X184558703Y-118401000D01*
X184376297Y-118401000D01*
X184197396Y-118365415D01*
X184028874Y-118295611D01*
X183877209Y-118194272D01*
X183748228Y-118065291D01*
X183646889Y-117913626D01*
X183577085Y-117745104D01*
X183541500Y-117566203D01*
X183541500Y-117383797D01*
X183577085Y-117204896D01*
X183646889Y-117036374D01*
X183748228Y-116884709D01*
X183877209Y-116755728D01*
X184028874Y-116654389D01*
X184197396Y-116584585D01*
X184376297Y-116549000D01*
X184558703Y-116549000D01*
X184737604Y-116584585D01*
X184737604Y-116584585D01*
G37*
G36*
X174577604Y-116584585D02*
G01*
X174746126Y-116654389D01*
X174897791Y-116755728D01*
X175026772Y-116884709D01*
X175128111Y-117036374D01*
X175197915Y-117204896D01*
X175233500Y-117383797D01*
X175233500Y-117566203D01*
X175197915Y-117745104D01*
X175128111Y-117913626D01*
X175026772Y-118065291D01*
X174897791Y-118194272D01*
X174746126Y-118295611D01*
X174577604Y-118365415D01*
X174398703Y-118401000D01*
X174216297Y-118401000D01*
X174037396Y-118365415D01*
X173868874Y-118295611D01*
X173717209Y-118194272D01*
X173588228Y-118065291D01*
X173486889Y-117913626D01*
X173417085Y-117745104D01*
X173381500Y-117566203D01*
X173381500Y-117383797D01*
X173417085Y-117204896D01*
X173486889Y-117036374D01*
X173588228Y-116884709D01*
X173717209Y-116755728D01*
X173868874Y-116654389D01*
X174037396Y-116584585D01*
X174216297Y-116549000D01*
X174398703Y-116549000D01*
X174577604Y-116584585D01*
X174577604Y-116584585D01*
G37*
G36*
X144256354Y-116584585D02*
G01*
X144424876Y-116654389D01*
X144576541Y-116755728D01*
X144705522Y-116884709D01*
X144806861Y-117036374D01*
X144876665Y-117204896D01*
X144912250Y-117383797D01*
X144912250Y-117566203D01*
X144876665Y-117745104D01*
X144806861Y-117913626D01*
X144705522Y-118065291D01*
X144576541Y-118194272D01*
X144424876Y-118295611D01*
X144256354Y-118365415D01*
X144077453Y-118401000D01*
X143895047Y-118401000D01*
X143716146Y-118365415D01*
X143547624Y-118295611D01*
X143395959Y-118194272D01*
X143266978Y-118065291D01*
X143165639Y-117913626D01*
X143095835Y-117745104D01*
X143060250Y-117566203D01*
X143060250Y-117383797D01*
X143095835Y-117204896D01*
X143165639Y-117036374D01*
X143266978Y-116884709D01*
X143395959Y-116755728D01*
X143547624Y-116654389D01*
X143716146Y-116584585D01*
X143895047Y-116549000D01*
X144077453Y-116549000D01*
X144256354Y-116584585D01*
X144256354Y-116584585D01*
G37*
G36*
X86471354Y-116584585D02*
G01*
X86639876Y-116654389D01*
X86791541Y-116755728D01*
X86920522Y-116884709D01*
X87021861Y-117036374D01*
X87091665Y-117204896D01*
X87127250Y-117383797D01*
X87127250Y-117566203D01*
X87091665Y-117745104D01*
X87021861Y-117913626D01*
X86920522Y-118065291D01*
X86791541Y-118194272D01*
X86639876Y-118295611D01*
X86471354Y-118365415D01*
X86292453Y-118401000D01*
X86110047Y-118401000D01*
X85931146Y-118365415D01*
X85762624Y-118295611D01*
X85610959Y-118194272D01*
X85481978Y-118065291D01*
X85380639Y-117913626D01*
X85310835Y-117745104D01*
X85275250Y-117566203D01*
X85275250Y-117383797D01*
X85310835Y-117204896D01*
X85380639Y-117036374D01*
X85481978Y-116884709D01*
X85610959Y-116755728D01*
X85762624Y-116654389D01*
X85931146Y-116584585D01*
X86110047Y-116549000D01*
X86292453Y-116549000D01*
X86471354Y-116584585D01*
X86471354Y-116584585D01*
G37*
G36*
X96631354Y-116584585D02*
G01*
X96799876Y-116654389D01*
X96951541Y-116755728D01*
X97080522Y-116884709D01*
X97181861Y-117036374D01*
X97251665Y-117204896D01*
X97287250Y-117383797D01*
X97287250Y-117566203D01*
X97251665Y-117745104D01*
X97181861Y-117913626D01*
X97080522Y-118065291D01*
X96951541Y-118194272D01*
X96799876Y-118295611D01*
X96631354Y-118365415D01*
X96452453Y-118401000D01*
X96270047Y-118401000D01*
X96091146Y-118365415D01*
X95922624Y-118295611D01*
X95770959Y-118194272D01*
X95641978Y-118065291D01*
X95540639Y-117913626D01*
X95470835Y-117745104D01*
X95435250Y-117566203D01*
X95435250Y-117383797D01*
X95470835Y-117204896D01*
X95540639Y-117036374D01*
X95641978Y-116884709D01*
X95770959Y-116755728D01*
X95922624Y-116654389D01*
X96091146Y-116584585D01*
X96270047Y-116549000D01*
X96452453Y-116549000D01*
X96631354Y-116584585D01*
X96631354Y-116584585D01*
G37*
G36*
X110283854Y-116584585D02*
G01*
X110452376Y-116654389D01*
X110604041Y-116755728D01*
X110733022Y-116884709D01*
X110834361Y-117036374D01*
X110904165Y-117204896D01*
X110939750Y-117383797D01*
X110939750Y-117566203D01*
X110904165Y-117745104D01*
X110834361Y-117913626D01*
X110733022Y-118065291D01*
X110604041Y-118194272D01*
X110452376Y-118295611D01*
X110283854Y-118365415D01*
X110104953Y-118401000D01*
X109922547Y-118401000D01*
X109743646Y-118365415D01*
X109575124Y-118295611D01*
X109423459Y-118194272D01*
X109294478Y-118065291D01*
X109193139Y-117913626D01*
X109123335Y-117745104D01*
X109087750Y-117566203D01*
X109087750Y-117383797D01*
X109123335Y-117204896D01*
X109193139Y-117036374D01*
X109294478Y-116884709D01*
X109423459Y-116755728D01*
X109575124Y-116654389D01*
X109743646Y-116584585D01*
X109922547Y-116549000D01*
X110104953Y-116549000D01*
X110283854Y-116584585D01*
X110283854Y-116584585D01*
G37*
G36*
X120443854Y-116584585D02*
G01*
X120612376Y-116654389D01*
X120764041Y-116755728D01*
X120893022Y-116884709D01*
X120994361Y-117036374D01*
X121064165Y-117204896D01*
X121099750Y-117383797D01*
X121099750Y-117566203D01*
X121064165Y-117745104D01*
X120994361Y-117913626D01*
X120893022Y-118065291D01*
X120764041Y-118194272D01*
X120612376Y-118295611D01*
X120443854Y-118365415D01*
X120264953Y-118401000D01*
X120082547Y-118401000D01*
X119903646Y-118365415D01*
X119735124Y-118295611D01*
X119583459Y-118194272D01*
X119454478Y-118065291D01*
X119353139Y-117913626D01*
X119283335Y-117745104D01*
X119247750Y-117566203D01*
X119247750Y-117383797D01*
X119283335Y-117204896D01*
X119353139Y-117036374D01*
X119454478Y-116884709D01*
X119583459Y-116755728D01*
X119735124Y-116654389D01*
X119903646Y-116584585D01*
X120082547Y-116549000D01*
X120264953Y-116549000D01*
X120443854Y-116584585D01*
X120443854Y-116584585D01*
G37*
G36*
X134096354Y-116584585D02*
G01*
X134264876Y-116654389D01*
X134416541Y-116755728D01*
X134545522Y-116884709D01*
X134646861Y-117036374D01*
X134716665Y-117204896D01*
X134752250Y-117383797D01*
X134752250Y-117566203D01*
X134716665Y-117745104D01*
X134646861Y-117913626D01*
X134545522Y-118065291D01*
X134416541Y-118194272D01*
X134264876Y-118295611D01*
X134096354Y-118365415D01*
X133917453Y-118401000D01*
X133735047Y-118401000D01*
X133556146Y-118365415D01*
X133387624Y-118295611D01*
X133235959Y-118194272D01*
X133106978Y-118065291D01*
X133005639Y-117913626D01*
X132935835Y-117745104D01*
X132900250Y-117566203D01*
X132900250Y-117383797D01*
X132935835Y-117204896D01*
X133005639Y-117036374D01*
X133106978Y-116884709D01*
X133235959Y-116755728D01*
X133387624Y-116654389D01*
X133556146Y-116584585D01*
X133735047Y-116549000D01*
X133917453Y-116549000D01*
X134096354Y-116584585D01*
X134096354Y-116584585D01*
G37*
G36*
X202209823Y-115826313D02*
G01*
X202327466Y-115862000D01*
X202368057Y-115874313D01*
X202370242Y-115874976D01*
X202470427Y-115928526D01*
X202518078Y-115953996D01*
X202647659Y-116060341D01*
X202754004Y-116189922D01*
X202754005Y-116189924D01*
X202833024Y-116337758D01*
X202881687Y-116498178D01*
X202894000Y-116623197D01*
X202894000Y-117106804D01*
X202881687Y-117231823D01*
X202833024Y-117392242D01*
X202774993Y-117500810D01*
X202754004Y-117540078D01*
X202647659Y-117669659D01*
X202518077Y-117776005D01*
X202370241Y-117855024D01*
X202209822Y-117903687D01*
X202043000Y-117920117D01*
X201876177Y-117903687D01*
X201715758Y-117855024D01*
X201567924Y-117776005D01*
X201567922Y-117776004D01*
X201438341Y-117669659D01*
X201331995Y-117540077D01*
X201252976Y-117392241D01*
X201250415Y-117383797D01*
X201230352Y-117317659D01*
X201204313Y-117231822D01*
X201192000Y-117106803D01*
X201192000Y-116623196D01*
X201204313Y-116498177D01*
X201252976Y-116337758D01*
X201331995Y-116189924D01*
X201331996Y-116189922D01*
X201438342Y-116060341D01*
X201567923Y-115953996D01*
X201615574Y-115928526D01*
X201715759Y-115874976D01*
X201717945Y-115874313D01*
X201758535Y-115862000D01*
X201876178Y-115826313D01*
X202043000Y-115809883D01*
X202209823Y-115826313D01*
X202209823Y-115826313D01*
G37*
G36*
X166917823Y-115874313D02*
G01*
X167078242Y-115922976D01*
X167200052Y-115988085D01*
X167226078Y-116001996D01*
X167355659Y-116108341D01*
X167462004Y-116237922D01*
X167462005Y-116237924D01*
X167541024Y-116385758D01*
X167589687Y-116546177D01*
X167606117Y-116713000D01*
X167589687Y-116879823D01*
X167541024Y-117040242D01*
X167470114Y-117172906D01*
X167462004Y-117188078D01*
X167355659Y-117317659D01*
X167226078Y-117424004D01*
X167226076Y-117424005D01*
X167078242Y-117503024D01*
X166917823Y-117551687D01*
X166792804Y-117564000D01*
X166709196Y-117564000D01*
X166584177Y-117551687D01*
X166423758Y-117503024D01*
X166275924Y-117424005D01*
X166275922Y-117424004D01*
X166146341Y-117317659D01*
X166039996Y-117188078D01*
X166031886Y-117172906D01*
X165960976Y-117040242D01*
X165912313Y-116879823D01*
X165895883Y-116713000D01*
X165912313Y-116546177D01*
X165960976Y-116385758D01*
X166039995Y-116237924D01*
X166039996Y-116237922D01*
X166146341Y-116108341D01*
X166275922Y-116001996D01*
X166301948Y-115988085D01*
X166423758Y-115922976D01*
X166584177Y-115874313D01*
X166709196Y-115862000D01*
X166792804Y-115862000D01*
X166917823Y-115874313D01*
X166917823Y-115874313D01*
G37*
G36*
X192810518Y-116379730D02*
G01*
X192865955Y-116385190D01*
X192943624Y-116408751D01*
X192972650Y-116417556D01*
X193070973Y-116470111D01*
X193157159Y-116540841D01*
X193227889Y-116627027D01*
X193280444Y-116725350D01*
X193280445Y-116725353D01*
X193312810Y-116832045D01*
X193323738Y-116943000D01*
X193312810Y-117053955D01*
X193296778Y-117106804D01*
X193280444Y-117160650D01*
X193227889Y-117258973D01*
X193157159Y-117345159D01*
X193070973Y-117415889D01*
X192972650Y-117468444D01*
X192972647Y-117468445D01*
X192865955Y-117500810D01*
X192810518Y-117506270D01*
X192782801Y-117509000D01*
X192027199Y-117509000D01*
X191999482Y-117506270D01*
X191944045Y-117500810D01*
X191837353Y-117468445D01*
X191837350Y-117468444D01*
X191739027Y-117415889D01*
X191652841Y-117345159D01*
X191582111Y-117258973D01*
X191529556Y-117160650D01*
X191513222Y-117106804D01*
X191497190Y-117053955D01*
X191486262Y-116943000D01*
X191497190Y-116832045D01*
X191529555Y-116725353D01*
X191529556Y-116725350D01*
X191582111Y-116627027D01*
X191652841Y-116540841D01*
X191739027Y-116470111D01*
X191837350Y-116417556D01*
X191866376Y-116408751D01*
X191944045Y-116385190D01*
X191999482Y-116379730D01*
X192027199Y-116377000D01*
X192782801Y-116377000D01*
X192810518Y-116379730D01*
X192810518Y-116379730D01*
G37*
G36*
X188705442Y-115564518D02*
G01*
X188771627Y-115571037D01*
X188941466Y-115622557D01*
X189097991Y-115706222D01*
X189109905Y-115716000D01*
X189235186Y-115818814D01*
X189314234Y-115915136D01*
X189347778Y-115956009D01*
X189431443Y-116112534D01*
X189482963Y-116282373D01*
X189500359Y-116459000D01*
X189482963Y-116635627D01*
X189431443Y-116805466D01*
X189347778Y-116961991D01*
X189318448Y-116997729D01*
X189235186Y-117099186D01*
X189133729Y-117182448D01*
X189097991Y-117211778D01*
X188941466Y-117295443D01*
X188771627Y-117346963D01*
X188705443Y-117353481D01*
X188639260Y-117360000D01*
X188550740Y-117360000D01*
X188484557Y-117353481D01*
X188418373Y-117346963D01*
X188248534Y-117295443D01*
X188092009Y-117211778D01*
X188056271Y-117182448D01*
X187954814Y-117099186D01*
X187871552Y-116997729D01*
X187842222Y-116961991D01*
X187758557Y-116805466D01*
X187707037Y-116635627D01*
X187689641Y-116459000D01*
X187707037Y-116282373D01*
X187758557Y-116112534D01*
X187842222Y-115956009D01*
X187875766Y-115915136D01*
X187954814Y-115818814D01*
X188080095Y-115716000D01*
X188092009Y-115706222D01*
X188248534Y-115622557D01*
X188418373Y-115571037D01*
X188484558Y-115564518D01*
X188550740Y-115558000D01*
X188639260Y-115558000D01*
X188705442Y-115564518D01*
X188705442Y-115564518D01*
G37*
G36*
X193151498Y-114881636D02*
G01*
X193190865Y-114893578D01*
X193227136Y-114912965D01*
X193258936Y-114939064D01*
X193285035Y-114970864D01*
X193304422Y-115007135D01*
X193316364Y-115046502D01*
X193321000Y-115093576D01*
X193321000Y-115792424D01*
X193316364Y-115839498D01*
X193304422Y-115878865D01*
X193285035Y-115915136D01*
X193258936Y-115946936D01*
X193227136Y-115973035D01*
X193190865Y-115992422D01*
X193151498Y-116004364D01*
X193104424Y-116009000D01*
X191705576Y-116009000D01*
X191658502Y-116004364D01*
X191619135Y-115992422D01*
X191582864Y-115973035D01*
X191551064Y-115946936D01*
X191524965Y-115915136D01*
X191505578Y-115878865D01*
X191493636Y-115839498D01*
X191489000Y-115792424D01*
X191489000Y-115093576D01*
X191493636Y-115046502D01*
X191505578Y-115007135D01*
X191524965Y-114970864D01*
X191551064Y-114939064D01*
X191582864Y-114912965D01*
X191619135Y-114893578D01*
X191658502Y-114881636D01*
X191705576Y-114877000D01*
X193104424Y-114877000D01*
X193151498Y-114881636D01*
X193151498Y-114881636D01*
G37*
G36*
X147867823Y-114096313D02*
G01*
X148028242Y-114144976D01*
X148137435Y-114203341D01*
X148176078Y-114223996D01*
X148305659Y-114330341D01*
X148412004Y-114459922D01*
X148412005Y-114459924D01*
X148491024Y-114607758D01*
X148539687Y-114768177D01*
X148556117Y-114935000D01*
X148539687Y-115101823D01*
X148491024Y-115262242D01*
X148420114Y-115394906D01*
X148412004Y-115410078D01*
X148305659Y-115539659D01*
X148176078Y-115646004D01*
X148176076Y-115646005D01*
X148028242Y-115725024D01*
X147867823Y-115773687D01*
X147742804Y-115786000D01*
X147659196Y-115786000D01*
X147534177Y-115773687D01*
X147373758Y-115725024D01*
X147225924Y-115646005D01*
X147225922Y-115646004D01*
X147096341Y-115539659D01*
X146989996Y-115410078D01*
X146981886Y-115394906D01*
X146910976Y-115262242D01*
X146862313Y-115101823D01*
X146845883Y-114935000D01*
X146862313Y-114768177D01*
X146910976Y-114607758D01*
X146989995Y-114459924D01*
X146989996Y-114459922D01*
X147096341Y-114330341D01*
X147225922Y-114223996D01*
X147264565Y-114203341D01*
X147373758Y-114144976D01*
X147534177Y-114096313D01*
X147659196Y-114084000D01*
X147742804Y-114084000D01*
X147867823Y-114096313D01*
X147867823Y-114096313D01*
G37*
G36*
X123991823Y-114096313D02*
G01*
X124152242Y-114144976D01*
X124261435Y-114203341D01*
X124300078Y-114223996D01*
X124429659Y-114330341D01*
X124536004Y-114459922D01*
X124536005Y-114459924D01*
X124615024Y-114607758D01*
X124663687Y-114768177D01*
X124680117Y-114935000D01*
X124663687Y-115101823D01*
X124615024Y-115262242D01*
X124544114Y-115394906D01*
X124536004Y-115410078D01*
X124429659Y-115539659D01*
X124300078Y-115646004D01*
X124300076Y-115646005D01*
X124152242Y-115725024D01*
X123991823Y-115773687D01*
X123866804Y-115786000D01*
X123783196Y-115786000D01*
X123658177Y-115773687D01*
X123497758Y-115725024D01*
X123349924Y-115646005D01*
X123349922Y-115646004D01*
X123220341Y-115539659D01*
X123113996Y-115410078D01*
X123105886Y-115394906D01*
X123034976Y-115262242D01*
X122986313Y-115101823D01*
X122969883Y-114935000D01*
X122986313Y-114768177D01*
X123034976Y-114607758D01*
X123113995Y-114459924D01*
X123113996Y-114459922D01*
X123220341Y-114330341D01*
X123349922Y-114223996D01*
X123388565Y-114203341D01*
X123497758Y-114144976D01*
X123658177Y-114096313D01*
X123783196Y-114084000D01*
X123866804Y-114084000D01*
X123991823Y-114096313D01*
X123991823Y-114096313D01*
G37*
G36*
X204474552Y-114831331D02*
G01*
X204556627Y-114865328D01*
X204556629Y-114865329D01*
X204581034Y-114881636D01*
X204627921Y-114912965D01*
X204630496Y-114914686D01*
X204693314Y-114977504D01*
X204739418Y-115046502D01*
X204742672Y-115051373D01*
X204776669Y-115133448D01*
X204794000Y-115220579D01*
X204794000Y-115309421D01*
X204776669Y-115396552D01*
X204742672Y-115478627D01*
X204742671Y-115478629D01*
X204722589Y-115508684D01*
X204693315Y-115552495D01*
X204630495Y-115615315D01*
X204619655Y-115622558D01*
X204556629Y-115664671D01*
X204556628Y-115664672D01*
X204556627Y-115664672D01*
X204474552Y-115698669D01*
X204387421Y-115716000D01*
X204298579Y-115716000D01*
X204211448Y-115698669D01*
X204129373Y-115664672D01*
X204129372Y-115664672D01*
X204129371Y-115664671D01*
X204066345Y-115622558D01*
X204055505Y-115615315D01*
X203992685Y-115552495D01*
X203963411Y-115508684D01*
X203943329Y-115478629D01*
X203943328Y-115478627D01*
X203909331Y-115396552D01*
X203892000Y-115309421D01*
X203892000Y-115220579D01*
X203909331Y-115133448D01*
X203943328Y-115051373D01*
X203946583Y-115046502D01*
X203992686Y-114977504D01*
X204055504Y-114914686D01*
X204058080Y-114912965D01*
X204104966Y-114881636D01*
X204129371Y-114865329D01*
X204129373Y-114865328D01*
X204211448Y-114831331D01*
X204298579Y-114814000D01*
X204387421Y-114814000D01*
X204474552Y-114831331D01*
X204474552Y-114831331D01*
G37*
G36*
X99480823Y-113969313D02*
G01*
X99641242Y-114017976D01*
X99764764Y-114084000D01*
X99789078Y-114096996D01*
X99918659Y-114203341D01*
X100025004Y-114332922D01*
X100025005Y-114332924D01*
X100104024Y-114480758D01*
X100152687Y-114641177D01*
X100169117Y-114808000D01*
X100152687Y-114974823D01*
X100104024Y-115135242D01*
X100095197Y-115151756D01*
X100025004Y-115283078D01*
X99918659Y-115412659D01*
X99789078Y-115519004D01*
X99789076Y-115519005D01*
X99641242Y-115598024D01*
X99480823Y-115646687D01*
X99355804Y-115659000D01*
X99272196Y-115659000D01*
X99147177Y-115646687D01*
X98986758Y-115598024D01*
X98838924Y-115519005D01*
X98838922Y-115519004D01*
X98709341Y-115412659D01*
X98602996Y-115283078D01*
X98532803Y-115151756D01*
X98523976Y-115135242D01*
X98475313Y-114974823D01*
X98458883Y-114808000D01*
X98475313Y-114641177D01*
X98523976Y-114480758D01*
X98602995Y-114332924D01*
X98602996Y-114332922D01*
X98709341Y-114203341D01*
X98838922Y-114096996D01*
X98863236Y-114084000D01*
X98986758Y-114017976D01*
X99147177Y-113969313D01*
X99272196Y-113957000D01*
X99355804Y-113957000D01*
X99480823Y-113969313D01*
X99480823Y-113969313D01*
G37*
G36*
X170473823Y-113969313D02*
G01*
X170634242Y-114017976D01*
X170757764Y-114084000D01*
X170782078Y-114096996D01*
X170911659Y-114203341D01*
X171018004Y-114332922D01*
X171018005Y-114332924D01*
X171097024Y-114480758D01*
X171145687Y-114641177D01*
X171162117Y-114808000D01*
X171145687Y-114974823D01*
X171097024Y-115135242D01*
X171088197Y-115151756D01*
X171018004Y-115283078D01*
X170911659Y-115412659D01*
X170782078Y-115519004D01*
X170782076Y-115519005D01*
X170634242Y-115598024D01*
X170473823Y-115646687D01*
X170348804Y-115659000D01*
X170265196Y-115659000D01*
X170140177Y-115646687D01*
X169979758Y-115598024D01*
X169831924Y-115519005D01*
X169831922Y-115519004D01*
X169702341Y-115412659D01*
X169595996Y-115283078D01*
X169525803Y-115151756D01*
X169516976Y-115135242D01*
X169468313Y-114974823D01*
X169451883Y-114808000D01*
X169468313Y-114641177D01*
X169516976Y-114480758D01*
X169595995Y-114332924D01*
X169595996Y-114332922D01*
X169702341Y-114203341D01*
X169831922Y-114096996D01*
X169856236Y-114084000D01*
X169979758Y-114017976D01*
X170140177Y-113969313D01*
X170265196Y-113957000D01*
X170348804Y-113957000D01*
X170473823Y-113969313D01*
X170473823Y-113969313D01*
G37*
G36*
X189496000Y-114820000D02*
G01*
X187694000Y-114820000D01*
X187694000Y-113018000D01*
X189496000Y-113018000D01*
X189496000Y-114820000D01*
X189496000Y-114820000D01*
G37*
G36*
X193157130Y-108091026D02*
G01*
X193537843Y-108166754D01*
X193947499Y-108336439D01*
X194316179Y-108582784D01*
X194629716Y-108896321D01*
X194876061Y-109265001D01*
X195045746Y-109674657D01*
X195132250Y-110109546D01*
X195132250Y-110552954D01*
X195045746Y-110987843D01*
X194876061Y-111397499D01*
X194629716Y-111766179D01*
X194316179Y-112079716D01*
X193947499Y-112326061D01*
X193537843Y-112495746D01*
X193157130Y-112571474D01*
X193102955Y-112582250D01*
X192659545Y-112582250D01*
X192605370Y-112571474D01*
X192224657Y-112495746D01*
X191815001Y-112326061D01*
X191446321Y-112079716D01*
X191132784Y-111766179D01*
X190886439Y-111397499D01*
X190716754Y-110987843D01*
X190630250Y-110552954D01*
X190630250Y-110109546D01*
X190716754Y-109674657D01*
X190886439Y-109265001D01*
X191132784Y-108896321D01*
X191446321Y-108582784D01*
X191815001Y-108336439D01*
X192224657Y-108166754D01*
X192605370Y-108091026D01*
X192659545Y-108080250D01*
X193102955Y-108080250D01*
X193157130Y-108091026D01*
X193157130Y-108091026D01*
G37*
G36*
X199033974Y-107253684D02*
G01*
X199251974Y-107343983D01*
X199406123Y-107407833D01*
X199741048Y-107631623D01*
X200025877Y-107916452D01*
X200249667Y-108251377D01*
X200313517Y-108405526D01*
X200403816Y-108623526D01*
X200482400Y-109018594D01*
X200482400Y-109421406D01*
X200403816Y-109816474D01*
X200313517Y-110034474D01*
X200249667Y-110188623D01*
X200025877Y-110523548D01*
X199741048Y-110808377D01*
X199406123Y-111032167D01*
X199251974Y-111096017D01*
X199033974Y-111186316D01*
X198638906Y-111264900D01*
X198236094Y-111264900D01*
X197841026Y-111186316D01*
X197623026Y-111096017D01*
X197468877Y-111032167D01*
X197133952Y-110808377D01*
X196849123Y-110523548D01*
X196625333Y-110188623D01*
X196561483Y-110034474D01*
X196471184Y-109816474D01*
X196392600Y-109421406D01*
X196392600Y-109018594D01*
X196471184Y-108623526D01*
X196561483Y-108405526D01*
X196625333Y-108251377D01*
X196849123Y-107916452D01*
X197133952Y-107631623D01*
X197468877Y-107407833D01*
X197623026Y-107343983D01*
X197841026Y-107253684D01*
X198236094Y-107175100D01*
X198638906Y-107175100D01*
X199033974Y-107253684D01*
X199033974Y-107253684D01*
G37*
G36*
X160933974Y-107253684D02*
G01*
X161151974Y-107343983D01*
X161306123Y-107407833D01*
X161641048Y-107631623D01*
X161925877Y-107916452D01*
X162149667Y-108251377D01*
X162213517Y-108405526D01*
X162303816Y-108623526D01*
X162382400Y-109018594D01*
X162382400Y-109421406D01*
X162303816Y-109816474D01*
X162213517Y-110034474D01*
X162149667Y-110188623D01*
X161925877Y-110523548D01*
X161641048Y-110808377D01*
X161306123Y-111032167D01*
X161151974Y-111096017D01*
X160933974Y-111186316D01*
X160538906Y-111264900D01*
X160136094Y-111264900D01*
X159741026Y-111186316D01*
X159523026Y-111096017D01*
X159368877Y-111032167D01*
X159033952Y-110808377D01*
X158749123Y-110523548D01*
X158525333Y-110188623D01*
X158461483Y-110034474D01*
X158371184Y-109816474D01*
X158292600Y-109421406D01*
X158292600Y-109018594D01*
X158371184Y-108623526D01*
X158461483Y-108405526D01*
X158525333Y-108251377D01*
X158749123Y-107916452D01*
X159033952Y-107631623D01*
X159368877Y-107407833D01*
X159523026Y-107343983D01*
X159741026Y-107253684D01*
X160136094Y-107175100D01*
X160538906Y-107175100D01*
X160933974Y-107253684D01*
X160933974Y-107253684D01*
G37*
G36*
X89496474Y-104713684D02*
G01*
X89658436Y-104780771D01*
X89868623Y-104867833D01*
X90203548Y-105091623D01*
X90488377Y-105376452D01*
X90712167Y-105711377D01*
X90712167Y-105711378D01*
X90866316Y-106083526D01*
X90944900Y-106478594D01*
X90944900Y-106881406D01*
X90866316Y-107276474D01*
X90811905Y-107407833D01*
X90712167Y-107648623D01*
X90488377Y-107983548D01*
X90203548Y-108268377D01*
X89868623Y-108492167D01*
X89714474Y-108556017D01*
X89496474Y-108646316D01*
X89101406Y-108724900D01*
X88698594Y-108724900D01*
X88303526Y-108646316D01*
X88085526Y-108556017D01*
X87931377Y-108492167D01*
X87596452Y-108268377D01*
X87311623Y-107983548D01*
X87087833Y-107648623D01*
X86988095Y-107407833D01*
X86933684Y-107276474D01*
X86855100Y-106881406D01*
X86855100Y-106478594D01*
X86933684Y-106083526D01*
X87087833Y-105711378D01*
X87087833Y-105711377D01*
X87311623Y-105376452D01*
X87596452Y-105091623D01*
X87931377Y-104867833D01*
X88141564Y-104780771D01*
X88303526Y-104713684D01*
X88698594Y-104635100D01*
X89101406Y-104635100D01*
X89496474Y-104713684D01*
X89496474Y-104713684D01*
G37*
G36*
X113308974Y-104713684D02*
G01*
X113470936Y-104780771D01*
X113681123Y-104867833D01*
X114016048Y-105091623D01*
X114300877Y-105376452D01*
X114524667Y-105711377D01*
X114524667Y-105711378D01*
X114678816Y-106083526D01*
X114757400Y-106478594D01*
X114757400Y-106881406D01*
X114678816Y-107276474D01*
X114624405Y-107407833D01*
X114524667Y-107648623D01*
X114300877Y-107983548D01*
X114016048Y-108268377D01*
X113681123Y-108492167D01*
X113526974Y-108556017D01*
X113308974Y-108646316D01*
X112913906Y-108724900D01*
X112511094Y-108724900D01*
X112116026Y-108646316D01*
X111898026Y-108556017D01*
X111743877Y-108492167D01*
X111408952Y-108268377D01*
X111124123Y-107983548D01*
X110900333Y-107648623D01*
X110800595Y-107407833D01*
X110746184Y-107276474D01*
X110667600Y-106881406D01*
X110667600Y-106478594D01*
X110746184Y-106083526D01*
X110900333Y-105711378D01*
X110900333Y-105711377D01*
X111124123Y-105376452D01*
X111408952Y-105091623D01*
X111743877Y-104867833D01*
X111954064Y-104780771D01*
X112116026Y-104713684D01*
X112511094Y-104635100D01*
X112913906Y-104635100D01*
X113308974Y-104713684D01*
X113308974Y-104713684D01*
G37*
G36*
X162173228Y-104210703D02*
G01*
X162328100Y-104274853D01*
X162467481Y-104367985D01*
X162586015Y-104486519D01*
X162679147Y-104625900D01*
X162743297Y-104780772D01*
X162776000Y-104945184D01*
X162776000Y-105112816D01*
X162743297Y-105277228D01*
X162679147Y-105432100D01*
X162586015Y-105571481D01*
X162467481Y-105690015D01*
X162328100Y-105783147D01*
X162173228Y-105847297D01*
X162008816Y-105880000D01*
X161841184Y-105880000D01*
X161676772Y-105847297D01*
X161521900Y-105783147D01*
X161382519Y-105690015D01*
X161263985Y-105571481D01*
X161170853Y-105432100D01*
X161106703Y-105277228D01*
X161074000Y-105112816D01*
X161074000Y-104945184D01*
X161106703Y-104780772D01*
X161170853Y-104625900D01*
X161263985Y-104486519D01*
X161382519Y-104367985D01*
X161521900Y-104274853D01*
X161676772Y-104210703D01*
X161841184Y-104178000D01*
X162008816Y-104178000D01*
X162173228Y-104210703D01*
X162173228Y-104210703D01*
G37*
G36*
X159125228Y-104210703D02*
G01*
X159280100Y-104274853D01*
X159419481Y-104367985D01*
X159538015Y-104486519D01*
X159631147Y-104625900D01*
X159695297Y-104780772D01*
X159728000Y-104945184D01*
X159728000Y-105112816D01*
X159695297Y-105277228D01*
X159631147Y-105432100D01*
X159538015Y-105571481D01*
X159419481Y-105690015D01*
X159280100Y-105783147D01*
X159125228Y-105847297D01*
X158960816Y-105880000D01*
X158793184Y-105880000D01*
X158628772Y-105847297D01*
X158473900Y-105783147D01*
X158334519Y-105690015D01*
X158215985Y-105571481D01*
X158122853Y-105432100D01*
X158058703Y-105277228D01*
X158026000Y-105112816D01*
X158026000Y-104945184D01*
X158058703Y-104780772D01*
X158122853Y-104625900D01*
X158215985Y-104486519D01*
X158334519Y-104367985D01*
X158473900Y-104274853D01*
X158628772Y-104210703D01*
X158793184Y-104178000D01*
X158960816Y-104178000D01*
X159125228Y-104210703D01*
X159125228Y-104210703D01*
G37*
G36*
X197955000Y-103975000D02*
G01*
X196253000Y-103975000D01*
X196253000Y-102273000D01*
X197955000Y-102273000D01*
X197955000Y-103975000D01*
X197955000Y-103975000D01*
G37*
G36*
X110452000Y-103848000D02*
G01*
X108750000Y-103848000D01*
X108750000Y-102146000D01*
X110452000Y-102146000D01*
X110452000Y-103848000D01*
X110452000Y-103848000D01*
G37*
G36*
X140932000Y-103848000D02*
G01*
X139230000Y-103848000D01*
X139230000Y-102146000D01*
X140932000Y-102146000D01*
X140932000Y-103848000D01*
X140932000Y-103848000D01*
G37*
G36*
X179032000Y-103848000D02*
G01*
X177330000Y-103848000D01*
X177330000Y-102146000D01*
X179032000Y-102146000D01*
X179032000Y-103848000D01*
X179032000Y-103848000D01*
G37*
G36*
X143472000Y-101435000D02*
G01*
X141770000Y-101435000D01*
X141770000Y-99733000D01*
X143472000Y-99733000D01*
X143472000Y-101435000D01*
X143472000Y-101435000D01*
G37*
G36*
X200622000Y-101435000D02*
G01*
X198920000Y-101435000D01*
X198920000Y-99733000D01*
X200622000Y-99733000D01*
X200622000Y-101435000D01*
X200622000Y-101435000D01*
G37*
G36*
X151408974Y-96458684D02*
G01*
X151626974Y-96548983D01*
X151781123Y-96612833D01*
X152116048Y-96836623D01*
X152400877Y-97121452D01*
X152624667Y-97456377D01*
X152657062Y-97534586D01*
X152778816Y-97828526D01*
X152857400Y-98223594D01*
X152857400Y-98626406D01*
X152778816Y-99021474D01*
X152727951Y-99144272D01*
X152624667Y-99393623D01*
X152400877Y-99728548D01*
X152116048Y-100013377D01*
X151781123Y-100237167D01*
X151626974Y-100301017D01*
X151408974Y-100391316D01*
X151013906Y-100469900D01*
X150611094Y-100469900D01*
X150216026Y-100391316D01*
X149998026Y-100301017D01*
X149843877Y-100237167D01*
X149508952Y-100013377D01*
X149224123Y-99728548D01*
X149000333Y-99393623D01*
X148897049Y-99144272D01*
X148846184Y-99021474D01*
X148767600Y-98626406D01*
X148767600Y-98223594D01*
X148846184Y-97828526D01*
X148967938Y-97534586D01*
X149000333Y-97456377D01*
X149224123Y-97121452D01*
X149508952Y-96836623D01*
X149843877Y-96612833D01*
X149998026Y-96548983D01*
X150216026Y-96458684D01*
X150611094Y-96380100D01*
X151013906Y-96380100D01*
X151408974Y-96458684D01*
X151408974Y-96458684D01*
G37*
G36*
X208558974Y-96458684D02*
G01*
X208776974Y-96548983D01*
X208931123Y-96612833D01*
X209266048Y-96836623D01*
X209550877Y-97121452D01*
X209774667Y-97456377D01*
X209807062Y-97534586D01*
X209928816Y-97828526D01*
X210007400Y-98223594D01*
X210007400Y-98626406D01*
X209928816Y-99021474D01*
X209877951Y-99144272D01*
X209774667Y-99393623D01*
X209550877Y-99728548D01*
X209266048Y-100013377D01*
X208931123Y-100237167D01*
X208776974Y-100301017D01*
X208558974Y-100391316D01*
X208163906Y-100469900D01*
X207761094Y-100469900D01*
X207366026Y-100391316D01*
X207148026Y-100301017D01*
X206993877Y-100237167D01*
X206658952Y-100013377D01*
X206374123Y-99728548D01*
X206150333Y-99393623D01*
X206047049Y-99144272D01*
X205996184Y-99021474D01*
X205917600Y-98626406D01*
X205917600Y-98223594D01*
X205996184Y-97828526D01*
X206117938Y-97534586D01*
X206150333Y-97456377D01*
X206374123Y-97121452D01*
X206658952Y-96836623D01*
X206993877Y-96612833D01*
X207148026Y-96548983D01*
X207366026Y-96458684D01*
X207761094Y-96380100D01*
X208163906Y-96380100D01*
X208558974Y-96458684D01*
X208558974Y-96458684D01*
G37*
G36*
X189508974Y-96458684D02*
G01*
X189726974Y-96548983D01*
X189881123Y-96612833D01*
X190216048Y-96836623D01*
X190500877Y-97121452D01*
X190724667Y-97456377D01*
X190757062Y-97534586D01*
X190878816Y-97828526D01*
X190957400Y-98223594D01*
X190957400Y-98626406D01*
X190878816Y-99021474D01*
X190827951Y-99144272D01*
X190724667Y-99393623D01*
X190500877Y-99728548D01*
X190216048Y-100013377D01*
X189881123Y-100237167D01*
X189726974Y-100301017D01*
X189508974Y-100391316D01*
X189113906Y-100469900D01*
X188711094Y-100469900D01*
X188316026Y-100391316D01*
X188098026Y-100301017D01*
X187943877Y-100237167D01*
X187608952Y-100013377D01*
X187324123Y-99728548D01*
X187100333Y-99393623D01*
X186997049Y-99144272D01*
X186946184Y-99021474D01*
X186867600Y-98626406D01*
X186867600Y-98223594D01*
X186946184Y-97828526D01*
X187067938Y-97534586D01*
X187100333Y-97456377D01*
X187324123Y-97121452D01*
X187608952Y-96836623D01*
X187943877Y-96612833D01*
X188098026Y-96548983D01*
X188316026Y-96458684D01*
X188711094Y-96380100D01*
X189113906Y-96380100D01*
X189508974Y-96458684D01*
X189508974Y-96458684D01*
G37*
G36*
X170458974Y-96458684D02*
G01*
X170676974Y-96548983D01*
X170831123Y-96612833D01*
X171166048Y-96836623D01*
X171450877Y-97121452D01*
X171674667Y-97456377D01*
X171707062Y-97534586D01*
X171828816Y-97828526D01*
X171907400Y-98223594D01*
X171907400Y-98626406D01*
X171828816Y-99021474D01*
X171777951Y-99144272D01*
X171674667Y-99393623D01*
X171450877Y-99728548D01*
X171166048Y-100013377D01*
X170831123Y-100237167D01*
X170676974Y-100301017D01*
X170458974Y-100391316D01*
X170063906Y-100469900D01*
X169661094Y-100469900D01*
X169266026Y-100391316D01*
X169048026Y-100301017D01*
X168893877Y-100237167D01*
X168558952Y-100013377D01*
X168274123Y-99728548D01*
X168050333Y-99393623D01*
X167947049Y-99144272D01*
X167896184Y-99021474D01*
X167817600Y-98626406D01*
X167817600Y-98223594D01*
X167896184Y-97828526D01*
X168017938Y-97534586D01*
X168050333Y-97456377D01*
X168274123Y-97121452D01*
X168558952Y-96836623D01*
X168893877Y-96612833D01*
X169048026Y-96548983D01*
X169266026Y-96458684D01*
X169661094Y-96380100D01*
X170063906Y-96380100D01*
X170458974Y-96458684D01*
X170458974Y-96458684D01*
G37*
G36*
X132358974Y-96458684D02*
G01*
X132576974Y-96548983D01*
X132731123Y-96612833D01*
X133066048Y-96836623D01*
X133350877Y-97121452D01*
X133574667Y-97456377D01*
X133607062Y-97534586D01*
X133728816Y-97828526D01*
X133807400Y-98223594D01*
X133807400Y-98626406D01*
X133728816Y-99021474D01*
X133677951Y-99144272D01*
X133574667Y-99393623D01*
X133350877Y-99728548D01*
X133066048Y-100013377D01*
X132731123Y-100237167D01*
X132576974Y-100301017D01*
X132358974Y-100391316D01*
X131963906Y-100469900D01*
X131561094Y-100469900D01*
X131166026Y-100391316D01*
X130948026Y-100301017D01*
X130793877Y-100237167D01*
X130458952Y-100013377D01*
X130174123Y-99728548D01*
X129950333Y-99393623D01*
X129847049Y-99144272D01*
X129796184Y-99021474D01*
X129717600Y-98626406D01*
X129717600Y-98223594D01*
X129796184Y-97828526D01*
X129917938Y-97534586D01*
X129950333Y-97456377D01*
X130174123Y-97121452D01*
X130458952Y-96836623D01*
X130793877Y-96612833D01*
X130948026Y-96548983D01*
X131166026Y-96458684D01*
X131561094Y-96380100D01*
X131963906Y-96380100D01*
X132358974Y-96458684D01*
X132358974Y-96458684D01*
G37*
G36*
X101402724Y-96458684D02*
G01*
X101620724Y-96548983D01*
X101774873Y-96612833D01*
X102109798Y-96836623D01*
X102394627Y-97121452D01*
X102618417Y-97456377D01*
X102650812Y-97534586D01*
X102772566Y-97828526D01*
X102851150Y-98223594D01*
X102851150Y-98626406D01*
X102772566Y-99021474D01*
X102721701Y-99144272D01*
X102618417Y-99393623D01*
X102394627Y-99728548D01*
X102109798Y-100013377D01*
X101774873Y-100237167D01*
X101620724Y-100301017D01*
X101402724Y-100391316D01*
X101007656Y-100469900D01*
X100604844Y-100469900D01*
X100209776Y-100391316D01*
X99991776Y-100301017D01*
X99837627Y-100237167D01*
X99502702Y-100013377D01*
X99217873Y-99728548D01*
X98994083Y-99393623D01*
X98890799Y-99144272D01*
X98839934Y-99021474D01*
X98761350Y-98626406D01*
X98761350Y-98223594D01*
X98839934Y-97828526D01*
X98961688Y-97534586D01*
X98994083Y-97456377D01*
X99217873Y-97121452D01*
X99502702Y-96836623D01*
X99837627Y-96612833D01*
X99991776Y-96548983D01*
X100209776Y-96458684D01*
X100604844Y-96380100D01*
X101007656Y-96380100D01*
X101402724Y-96458684D01*
X101402724Y-96458684D01*
G37*
G36*
X106156354Y-97534585D02*
G01*
X106324876Y-97604389D01*
X106476541Y-97705728D01*
X106605522Y-97834709D01*
X106706861Y-97986374D01*
X106776665Y-98154896D01*
X106812250Y-98333797D01*
X106812250Y-98516203D01*
X106776665Y-98695104D01*
X106706861Y-98863626D01*
X106605522Y-99015291D01*
X106476541Y-99144272D01*
X106324876Y-99245611D01*
X106156354Y-99315415D01*
X105977453Y-99351000D01*
X105795047Y-99351000D01*
X105616146Y-99315415D01*
X105447624Y-99245611D01*
X105295959Y-99144272D01*
X105166978Y-99015291D01*
X105065639Y-98863626D01*
X104995835Y-98695104D01*
X104960250Y-98516203D01*
X104960250Y-98333797D01*
X104995835Y-98154896D01*
X105065639Y-97986374D01*
X105166978Y-97834709D01*
X105295959Y-97705728D01*
X105447624Y-97604389D01*
X105616146Y-97534585D01*
X105795047Y-97499000D01*
X105977453Y-97499000D01*
X106156354Y-97534585D01*
X106156354Y-97534585D01*
G37*
G36*
X95996354Y-97534585D02*
G01*
X96164876Y-97604389D01*
X96316541Y-97705728D01*
X96445522Y-97834709D01*
X96546861Y-97986374D01*
X96616665Y-98154896D01*
X96652250Y-98333797D01*
X96652250Y-98516203D01*
X96616665Y-98695104D01*
X96546861Y-98863626D01*
X96445522Y-99015291D01*
X96316541Y-99144272D01*
X96164876Y-99245611D01*
X95996354Y-99315415D01*
X95817453Y-99351000D01*
X95635047Y-99351000D01*
X95456146Y-99315415D01*
X95287624Y-99245611D01*
X95135959Y-99144272D01*
X95006978Y-99015291D01*
X94905639Y-98863626D01*
X94835835Y-98695104D01*
X94800250Y-98516203D01*
X94800250Y-98333797D01*
X94835835Y-98154896D01*
X94905639Y-97986374D01*
X95006978Y-97834709D01*
X95135959Y-97705728D01*
X95287624Y-97604389D01*
X95456146Y-97534585D01*
X95635047Y-97499000D01*
X95817453Y-97499000D01*
X95996354Y-97534585D01*
X95996354Y-97534585D01*
G37*
G36*
X175212604Y-97534585D02*
G01*
X175381126Y-97604389D01*
X175532791Y-97705728D01*
X175661772Y-97834709D01*
X175763111Y-97986374D01*
X175832915Y-98154896D01*
X175868500Y-98333797D01*
X175868500Y-98516203D01*
X175832915Y-98695104D01*
X175763111Y-98863626D01*
X175661772Y-99015291D01*
X175532791Y-99144272D01*
X175381126Y-99245611D01*
X175212604Y-99315415D01*
X175033703Y-99351000D01*
X174851297Y-99351000D01*
X174672396Y-99315415D01*
X174503874Y-99245611D01*
X174352209Y-99144272D01*
X174223228Y-99015291D01*
X174121889Y-98863626D01*
X174052085Y-98695104D01*
X174016500Y-98516203D01*
X174016500Y-98333797D01*
X174052085Y-98154896D01*
X174121889Y-97986374D01*
X174223228Y-97834709D01*
X174352209Y-97705728D01*
X174503874Y-97604389D01*
X174672396Y-97534585D01*
X174851297Y-97499000D01*
X175033703Y-97499000D01*
X175212604Y-97534585D01*
X175212604Y-97534585D01*
G37*
G36*
X203152604Y-97534585D02*
G01*
X203321126Y-97604389D01*
X203472791Y-97705728D01*
X203601772Y-97834709D01*
X203703111Y-97986374D01*
X203772915Y-98154896D01*
X203808500Y-98333797D01*
X203808500Y-98516203D01*
X203772915Y-98695104D01*
X203703111Y-98863626D01*
X203601772Y-99015291D01*
X203472791Y-99144272D01*
X203321126Y-99245611D01*
X203152604Y-99315415D01*
X202973703Y-99351000D01*
X202791297Y-99351000D01*
X202612396Y-99315415D01*
X202443874Y-99245611D01*
X202292209Y-99144272D01*
X202163228Y-99015291D01*
X202061889Y-98863626D01*
X201992085Y-98695104D01*
X201956500Y-98516203D01*
X201956500Y-98333797D01*
X201992085Y-98154896D01*
X202061889Y-97986374D01*
X202163228Y-97834709D01*
X202292209Y-97705728D01*
X202443874Y-97604389D01*
X202612396Y-97534585D01*
X202791297Y-97499000D01*
X202973703Y-97499000D01*
X203152604Y-97534585D01*
X203152604Y-97534585D01*
G37*
G36*
X213312604Y-97534585D02*
G01*
X213481126Y-97604389D01*
X213632791Y-97705728D01*
X213761772Y-97834709D01*
X213863111Y-97986374D01*
X213932915Y-98154896D01*
X213968500Y-98333797D01*
X213968500Y-98516203D01*
X213932915Y-98695104D01*
X213863111Y-98863626D01*
X213761772Y-99015291D01*
X213632791Y-99144272D01*
X213481126Y-99245611D01*
X213312604Y-99315415D01*
X213133703Y-99351000D01*
X212951297Y-99351000D01*
X212772396Y-99315415D01*
X212603874Y-99245611D01*
X212452209Y-99144272D01*
X212323228Y-99015291D01*
X212221889Y-98863626D01*
X212152085Y-98695104D01*
X212116500Y-98516203D01*
X212116500Y-98333797D01*
X212152085Y-98154896D01*
X212221889Y-97986374D01*
X212323228Y-97834709D01*
X212452209Y-97705728D01*
X212603874Y-97604389D01*
X212772396Y-97534585D01*
X212951297Y-97499000D01*
X213133703Y-97499000D01*
X213312604Y-97534585D01*
X213312604Y-97534585D01*
G37*
G36*
X194262604Y-97534585D02*
G01*
X194431126Y-97604389D01*
X194582791Y-97705728D01*
X194711772Y-97834709D01*
X194813111Y-97986374D01*
X194882915Y-98154896D01*
X194918500Y-98333797D01*
X194918500Y-98516203D01*
X194882915Y-98695104D01*
X194813111Y-98863626D01*
X194711772Y-99015291D01*
X194582791Y-99144272D01*
X194431126Y-99245611D01*
X194262604Y-99315415D01*
X194083703Y-99351000D01*
X193901297Y-99351000D01*
X193722396Y-99315415D01*
X193553874Y-99245611D01*
X193402209Y-99144272D01*
X193273228Y-99015291D01*
X193171889Y-98863626D01*
X193102085Y-98695104D01*
X193066500Y-98516203D01*
X193066500Y-98333797D01*
X193102085Y-98154896D01*
X193171889Y-97986374D01*
X193273228Y-97834709D01*
X193402209Y-97705728D01*
X193553874Y-97604389D01*
X193722396Y-97534585D01*
X193901297Y-97499000D01*
X194083703Y-97499000D01*
X194262604Y-97534585D01*
X194262604Y-97534585D01*
G37*
G36*
X137112604Y-97534585D02*
G01*
X137281126Y-97604389D01*
X137432791Y-97705728D01*
X137561772Y-97834709D01*
X137663111Y-97986374D01*
X137732915Y-98154896D01*
X137768500Y-98333797D01*
X137768500Y-98516203D01*
X137732915Y-98695104D01*
X137663111Y-98863626D01*
X137561772Y-99015291D01*
X137432791Y-99144272D01*
X137281126Y-99245611D01*
X137112604Y-99315415D01*
X136933703Y-99351000D01*
X136751297Y-99351000D01*
X136572396Y-99315415D01*
X136403874Y-99245611D01*
X136252209Y-99144272D01*
X136123228Y-99015291D01*
X136021889Y-98863626D01*
X135952085Y-98695104D01*
X135916500Y-98516203D01*
X135916500Y-98333797D01*
X135952085Y-98154896D01*
X136021889Y-97986374D01*
X136123228Y-97834709D01*
X136252209Y-97705728D01*
X136403874Y-97604389D01*
X136572396Y-97534585D01*
X136751297Y-97499000D01*
X136933703Y-97499000D01*
X137112604Y-97534585D01*
X137112604Y-97534585D01*
G37*
G36*
X126952604Y-97534585D02*
G01*
X127121126Y-97604389D01*
X127272791Y-97705728D01*
X127401772Y-97834709D01*
X127503111Y-97986374D01*
X127572915Y-98154896D01*
X127608500Y-98333797D01*
X127608500Y-98516203D01*
X127572915Y-98695104D01*
X127503111Y-98863626D01*
X127401772Y-99015291D01*
X127272791Y-99144272D01*
X127121126Y-99245611D01*
X126952604Y-99315415D01*
X126773703Y-99351000D01*
X126591297Y-99351000D01*
X126412396Y-99315415D01*
X126243874Y-99245611D01*
X126092209Y-99144272D01*
X125963228Y-99015291D01*
X125861889Y-98863626D01*
X125792085Y-98695104D01*
X125756500Y-98516203D01*
X125756500Y-98333797D01*
X125792085Y-98154896D01*
X125861889Y-97986374D01*
X125963228Y-97834709D01*
X126092209Y-97705728D01*
X126243874Y-97604389D01*
X126412396Y-97534585D01*
X126591297Y-97499000D01*
X126773703Y-97499000D01*
X126952604Y-97534585D01*
X126952604Y-97534585D01*
G37*
G36*
X184102604Y-97534585D02*
G01*
X184271126Y-97604389D01*
X184422791Y-97705728D01*
X184551772Y-97834709D01*
X184653111Y-97986374D01*
X184722915Y-98154896D01*
X184758500Y-98333797D01*
X184758500Y-98516203D01*
X184722915Y-98695104D01*
X184653111Y-98863626D01*
X184551772Y-99015291D01*
X184422791Y-99144272D01*
X184271126Y-99245611D01*
X184102604Y-99315415D01*
X183923703Y-99351000D01*
X183741297Y-99351000D01*
X183562396Y-99315415D01*
X183393874Y-99245611D01*
X183242209Y-99144272D01*
X183113228Y-99015291D01*
X183011889Y-98863626D01*
X182942085Y-98695104D01*
X182906500Y-98516203D01*
X182906500Y-98333797D01*
X182942085Y-98154896D01*
X183011889Y-97986374D01*
X183113228Y-97834709D01*
X183242209Y-97705728D01*
X183393874Y-97604389D01*
X183562396Y-97534585D01*
X183741297Y-97499000D01*
X183923703Y-97499000D01*
X184102604Y-97534585D01*
X184102604Y-97534585D01*
G37*
G36*
X165052604Y-97534585D02*
G01*
X165221126Y-97604389D01*
X165372791Y-97705728D01*
X165501772Y-97834709D01*
X165603111Y-97986374D01*
X165672915Y-98154896D01*
X165708500Y-98333797D01*
X165708500Y-98516203D01*
X165672915Y-98695104D01*
X165603111Y-98863626D01*
X165501772Y-99015291D01*
X165372791Y-99144272D01*
X165221126Y-99245611D01*
X165052604Y-99315415D01*
X164873703Y-99351000D01*
X164691297Y-99351000D01*
X164512396Y-99315415D01*
X164343874Y-99245611D01*
X164192209Y-99144272D01*
X164063228Y-99015291D01*
X163961889Y-98863626D01*
X163892085Y-98695104D01*
X163856500Y-98516203D01*
X163856500Y-98333797D01*
X163892085Y-98154896D01*
X163961889Y-97986374D01*
X164063228Y-97834709D01*
X164192209Y-97705728D01*
X164343874Y-97604389D01*
X164512396Y-97534585D01*
X164691297Y-97499000D01*
X164873703Y-97499000D01*
X165052604Y-97534585D01*
X165052604Y-97534585D01*
G37*
G36*
X156162604Y-97534585D02*
G01*
X156331126Y-97604389D01*
X156482791Y-97705728D01*
X156611772Y-97834709D01*
X156713111Y-97986374D01*
X156782915Y-98154896D01*
X156818500Y-98333797D01*
X156818500Y-98516203D01*
X156782915Y-98695104D01*
X156713111Y-98863626D01*
X156611772Y-99015291D01*
X156482791Y-99144272D01*
X156331126Y-99245611D01*
X156162604Y-99315415D01*
X155983703Y-99351000D01*
X155801297Y-99351000D01*
X155622396Y-99315415D01*
X155453874Y-99245611D01*
X155302209Y-99144272D01*
X155173228Y-99015291D01*
X155071889Y-98863626D01*
X155002085Y-98695104D01*
X154966500Y-98516203D01*
X154966500Y-98333797D01*
X155002085Y-98154896D01*
X155071889Y-97986374D01*
X155173228Y-97834709D01*
X155302209Y-97705728D01*
X155453874Y-97604389D01*
X155622396Y-97534585D01*
X155801297Y-97499000D01*
X155983703Y-97499000D01*
X156162604Y-97534585D01*
X156162604Y-97534585D01*
G37*
G36*
X146002604Y-97534585D02*
G01*
X146171126Y-97604389D01*
X146322791Y-97705728D01*
X146451772Y-97834709D01*
X146553111Y-97986374D01*
X146622915Y-98154896D01*
X146658500Y-98333797D01*
X146658500Y-98516203D01*
X146622915Y-98695104D01*
X146553111Y-98863626D01*
X146451772Y-99015291D01*
X146322791Y-99144272D01*
X146171126Y-99245611D01*
X146002604Y-99315415D01*
X145823703Y-99351000D01*
X145641297Y-99351000D01*
X145462396Y-99315415D01*
X145293874Y-99245611D01*
X145142209Y-99144272D01*
X145013228Y-99015291D01*
X144911889Y-98863626D01*
X144842085Y-98695104D01*
X144806500Y-98516203D01*
X144806500Y-98333797D01*
X144842085Y-98154896D01*
X144911889Y-97986374D01*
X145013228Y-97834709D01*
X145142209Y-97705728D01*
X145293874Y-97604389D01*
X145462396Y-97534585D01*
X145641297Y-97499000D01*
X145823703Y-97499000D01*
X146002604Y-97534585D01*
X146002604Y-97534585D01*
G37*
G36*
X162091823Y-96570313D02*
G01*
X162222380Y-96609917D01*
X162231992Y-96612833D01*
X162252242Y-96618976D01*
X162384906Y-96689886D01*
X162400078Y-96697996D01*
X162529659Y-96804341D01*
X162636004Y-96933922D01*
X162636005Y-96933924D01*
X162715024Y-97081758D01*
X162763687Y-97242177D01*
X162780117Y-97409000D01*
X162763687Y-97575823D01*
X162715024Y-97736242D01*
X162665697Y-97828526D01*
X162636004Y-97884078D01*
X162529659Y-98013659D01*
X162400078Y-98120004D01*
X162400076Y-98120005D01*
X162252242Y-98199024D01*
X162091823Y-98247687D01*
X161966804Y-98260000D01*
X161883196Y-98260000D01*
X161758177Y-98247687D01*
X161597758Y-98199024D01*
X161449924Y-98120005D01*
X161449922Y-98120004D01*
X161320341Y-98013659D01*
X161213996Y-97884078D01*
X161184303Y-97828526D01*
X161134976Y-97736242D01*
X161086313Y-97575823D01*
X161069883Y-97409000D01*
X161086313Y-97242177D01*
X161134976Y-97081758D01*
X161213995Y-96933924D01*
X161213996Y-96933922D01*
X161320341Y-96804341D01*
X161449922Y-96697996D01*
X161465094Y-96689886D01*
X161597758Y-96618976D01*
X161618009Y-96612833D01*
X161627620Y-96609917D01*
X161758177Y-96570313D01*
X161883196Y-96558000D01*
X161966804Y-96558000D01*
X162091823Y-96570313D01*
X162091823Y-96570313D01*
G37*
G36*
X159043823Y-96570313D02*
G01*
X159174380Y-96609917D01*
X159183992Y-96612833D01*
X159204242Y-96618976D01*
X159336906Y-96689886D01*
X159352078Y-96697996D01*
X159481659Y-96804341D01*
X159588004Y-96933922D01*
X159588005Y-96933924D01*
X159667024Y-97081758D01*
X159715687Y-97242177D01*
X159732117Y-97409000D01*
X159715687Y-97575823D01*
X159667024Y-97736242D01*
X159617697Y-97828526D01*
X159588004Y-97884078D01*
X159481659Y-98013659D01*
X159352078Y-98120004D01*
X159352076Y-98120005D01*
X159204242Y-98199024D01*
X159043823Y-98247687D01*
X158918804Y-98260000D01*
X158835196Y-98260000D01*
X158710177Y-98247687D01*
X158549758Y-98199024D01*
X158401924Y-98120005D01*
X158401922Y-98120004D01*
X158272341Y-98013659D01*
X158165996Y-97884078D01*
X158136303Y-97828526D01*
X158086976Y-97736242D01*
X158038313Y-97575823D01*
X158021883Y-97409000D01*
X158038313Y-97242177D01*
X158086976Y-97081758D01*
X158165995Y-96933924D01*
X158165996Y-96933922D01*
X158272341Y-96804341D01*
X158401922Y-96697996D01*
X158417094Y-96689886D01*
X158549758Y-96618976D01*
X158570009Y-96612833D01*
X158579620Y-96609917D01*
X158710177Y-96570313D01*
X158835196Y-96558000D01*
X158918804Y-96558000D01*
X159043823Y-96570313D01*
X159043823Y-96570313D01*
G37*
G36*
X197270823Y-94665313D02*
G01*
X197431242Y-94713976D01*
X197540435Y-94772341D01*
X197579078Y-94792996D01*
X197708659Y-94899341D01*
X197815004Y-95028922D01*
X197815005Y-95028924D01*
X197894024Y-95176758D01*
X197942687Y-95337177D01*
X197959117Y-95504000D01*
X197942687Y-95670823D01*
X197894024Y-95831242D01*
X197823114Y-95963906D01*
X197815004Y-95979078D01*
X197708659Y-96108659D01*
X197579078Y-96215004D01*
X197579076Y-96215005D01*
X197431242Y-96294024D01*
X197270823Y-96342687D01*
X197145804Y-96355000D01*
X197062196Y-96355000D01*
X196937177Y-96342687D01*
X196776758Y-96294024D01*
X196628924Y-96215005D01*
X196628922Y-96215004D01*
X196499341Y-96108659D01*
X196392996Y-95979078D01*
X196384886Y-95963906D01*
X196313976Y-95831242D01*
X196265313Y-95670823D01*
X196248883Y-95504000D01*
X196265313Y-95337177D01*
X196313976Y-95176758D01*
X196392995Y-95028924D01*
X196392996Y-95028922D01*
X196499341Y-94899341D01*
X196628922Y-94792996D01*
X196667565Y-94772341D01*
X196776758Y-94713976D01*
X196937177Y-94665313D01*
X197062196Y-94653000D01*
X197145804Y-94653000D01*
X197270823Y-94665313D01*
X197270823Y-94665313D01*
G37*
G36*
X178347823Y-94538313D02*
G01*
X178508242Y-94586976D01*
X178631764Y-94653000D01*
X178656078Y-94665996D01*
X178785659Y-94772341D01*
X178892004Y-94901922D01*
X178892005Y-94901924D01*
X178971024Y-95049758D01*
X179019687Y-95210177D01*
X179036117Y-95377000D01*
X179019687Y-95543823D01*
X178971024Y-95704242D01*
X178903143Y-95831239D01*
X178892004Y-95852078D01*
X178785659Y-95981659D01*
X178656078Y-96088004D01*
X178656076Y-96088005D01*
X178508242Y-96167024D01*
X178347823Y-96215687D01*
X178222804Y-96228000D01*
X178139196Y-96228000D01*
X178014177Y-96215687D01*
X177853758Y-96167024D01*
X177705924Y-96088005D01*
X177705922Y-96088004D01*
X177576341Y-95981659D01*
X177469996Y-95852078D01*
X177458857Y-95831239D01*
X177390976Y-95704242D01*
X177342313Y-95543823D01*
X177325883Y-95377000D01*
X177342313Y-95210177D01*
X177390976Y-95049758D01*
X177469995Y-94901924D01*
X177469996Y-94901922D01*
X177576341Y-94772341D01*
X177705922Y-94665996D01*
X177730236Y-94653000D01*
X177853758Y-94586976D01*
X178014177Y-94538313D01*
X178139196Y-94526000D01*
X178222804Y-94526000D01*
X178347823Y-94538313D01*
X178347823Y-94538313D01*
G37*
G36*
X140247823Y-94538313D02*
G01*
X140408242Y-94586976D01*
X140531764Y-94653000D01*
X140556078Y-94665996D01*
X140685659Y-94772341D01*
X140792004Y-94901922D01*
X140792005Y-94901924D01*
X140871024Y-95049758D01*
X140919687Y-95210177D01*
X140936117Y-95377000D01*
X140919687Y-95543823D01*
X140871024Y-95704242D01*
X140803143Y-95831239D01*
X140792004Y-95852078D01*
X140685659Y-95981659D01*
X140556078Y-96088004D01*
X140556076Y-96088005D01*
X140408242Y-96167024D01*
X140247823Y-96215687D01*
X140122804Y-96228000D01*
X140039196Y-96228000D01*
X139914177Y-96215687D01*
X139753758Y-96167024D01*
X139605924Y-96088005D01*
X139605922Y-96088004D01*
X139476341Y-95981659D01*
X139369996Y-95852078D01*
X139358857Y-95831239D01*
X139290976Y-95704242D01*
X139242313Y-95543823D01*
X139225883Y-95377000D01*
X139242313Y-95210177D01*
X139290976Y-95049758D01*
X139369995Y-94901924D01*
X139369996Y-94901922D01*
X139476341Y-94772341D01*
X139605922Y-94665996D01*
X139630236Y-94653000D01*
X139753758Y-94586976D01*
X139914177Y-94538313D01*
X140039196Y-94526000D01*
X140122804Y-94526000D01*
X140247823Y-94538313D01*
X140247823Y-94538313D01*
G37*
G36*
X109767823Y-94538313D02*
G01*
X109928242Y-94586976D01*
X110051764Y-94653000D01*
X110076078Y-94665996D01*
X110205659Y-94772341D01*
X110312004Y-94901922D01*
X110312005Y-94901924D01*
X110391024Y-95049758D01*
X110439687Y-95210177D01*
X110456117Y-95377000D01*
X110439687Y-95543823D01*
X110391024Y-95704242D01*
X110323143Y-95831239D01*
X110312004Y-95852078D01*
X110205659Y-95981659D01*
X110076078Y-96088004D01*
X110076076Y-96088005D01*
X109928242Y-96167024D01*
X109767823Y-96215687D01*
X109642804Y-96228000D01*
X109559196Y-96228000D01*
X109434177Y-96215687D01*
X109273758Y-96167024D01*
X109125924Y-96088005D01*
X109125922Y-96088004D01*
X108996341Y-95981659D01*
X108889996Y-95852078D01*
X108878857Y-95831239D01*
X108810976Y-95704242D01*
X108762313Y-95543823D01*
X108745883Y-95377000D01*
X108762313Y-95210177D01*
X108810976Y-95049758D01*
X108889995Y-94901924D01*
X108889996Y-94901922D01*
X108996341Y-94772341D01*
X109125922Y-94665996D01*
X109150236Y-94653000D01*
X109273758Y-94586976D01*
X109434177Y-94538313D01*
X109559196Y-94526000D01*
X109642804Y-94526000D01*
X109767823Y-94538313D01*
X109767823Y-94538313D01*
G37*
G36*
X142787823Y-92125313D02*
G01*
X142948242Y-92173976D01*
X143080906Y-92244886D01*
X143096078Y-92252996D01*
X143225659Y-92359341D01*
X143332004Y-92488922D01*
X143332005Y-92488924D01*
X143411024Y-92636758D01*
X143459687Y-92797177D01*
X143476117Y-92964000D01*
X143459687Y-93130823D01*
X143411024Y-93291242D01*
X143340114Y-93423906D01*
X143332004Y-93439078D01*
X143225659Y-93568659D01*
X143096078Y-93675004D01*
X143096076Y-93675005D01*
X142948242Y-93754024D01*
X142787823Y-93802687D01*
X142662804Y-93815000D01*
X142579196Y-93815000D01*
X142454177Y-93802687D01*
X142293758Y-93754024D01*
X142145924Y-93675005D01*
X142145922Y-93675004D01*
X142016341Y-93568659D01*
X141909996Y-93439078D01*
X141901886Y-93423906D01*
X141830976Y-93291242D01*
X141782313Y-93130823D01*
X141765883Y-92964000D01*
X141782313Y-92797177D01*
X141830976Y-92636758D01*
X141909995Y-92488924D01*
X141909996Y-92488922D01*
X142016341Y-92359341D01*
X142145922Y-92252996D01*
X142161094Y-92244886D01*
X142293758Y-92173976D01*
X142454177Y-92125313D01*
X142579196Y-92113000D01*
X142662804Y-92113000D01*
X142787823Y-92125313D01*
X142787823Y-92125313D01*
G37*
G36*
X199937823Y-92125313D02*
G01*
X200098242Y-92173976D01*
X200230906Y-92244886D01*
X200246078Y-92252996D01*
X200375659Y-92359341D01*
X200482004Y-92488922D01*
X200482005Y-92488924D01*
X200561024Y-92636758D01*
X200609687Y-92797177D01*
X200626117Y-92964000D01*
X200609687Y-93130823D01*
X200561024Y-93291242D01*
X200490114Y-93423906D01*
X200482004Y-93439078D01*
X200375659Y-93568659D01*
X200246078Y-93675004D01*
X200246076Y-93675005D01*
X200098242Y-93754024D01*
X199937823Y-93802687D01*
X199812804Y-93815000D01*
X199729196Y-93815000D01*
X199604177Y-93802687D01*
X199443758Y-93754024D01*
X199295924Y-93675005D01*
X199295922Y-93675004D01*
X199166341Y-93568659D01*
X199059996Y-93439078D01*
X199051886Y-93423906D01*
X198980976Y-93291242D01*
X198932313Y-93130823D01*
X198915883Y-92964000D01*
X198932313Y-92797177D01*
X198980976Y-92636758D01*
X199059995Y-92488924D01*
X199059996Y-92488922D01*
X199166341Y-92359341D01*
X199295922Y-92252996D01*
X199311094Y-92244886D01*
X199443758Y-92173976D01*
X199604177Y-92125313D01*
X199729196Y-92113000D01*
X199812804Y-92113000D01*
X199937823Y-92125313D01*
X199937823Y-92125313D01*
G37*
G36*
X112932980Y-89878000D02*
G01*
X113171911Y-89925526D01*
X113290637Y-89974704D01*
X113458541Y-90044252D01*
X113458542Y-90044253D01*
X113716504Y-90216617D01*
X113935883Y-90435996D01*
X114051053Y-90608361D01*
X114108248Y-90693959D01*
X114226974Y-90980590D01*
X114287500Y-91284875D01*
X114287500Y-91595125D01*
X114226974Y-91899410D01*
X114108248Y-92186041D01*
X114108247Y-92186042D01*
X113935883Y-92444004D01*
X113716504Y-92663383D01*
X113544139Y-92778553D01*
X113458541Y-92835748D01*
X113290637Y-92905296D01*
X113171911Y-92954474D01*
X113124020Y-92964000D01*
X112867625Y-93015000D01*
X112557375Y-93015000D01*
X112300980Y-92964000D01*
X112253089Y-92954474D01*
X112134363Y-92905296D01*
X111966459Y-92835748D01*
X111880861Y-92778553D01*
X111708496Y-92663383D01*
X111489117Y-92444004D01*
X111316753Y-92186042D01*
X111316752Y-92186041D01*
X111198026Y-91899410D01*
X111137500Y-91595125D01*
X111137500Y-91284875D01*
X111198026Y-90980590D01*
X111316752Y-90693959D01*
X111373947Y-90608361D01*
X111489117Y-90435996D01*
X111708496Y-90216617D01*
X111966458Y-90044253D01*
X111966459Y-90044252D01*
X112134363Y-89974704D01*
X112253089Y-89925526D01*
X112492020Y-89878000D01*
X112557375Y-89865000D01*
X112867625Y-89865000D01*
X112932980Y-89878000D01*
X112932980Y-89878000D01*
G37*
G36*
X89120480Y-89878000D02*
G01*
X89359411Y-89925526D01*
X89478137Y-89974704D01*
X89646041Y-90044252D01*
X89646042Y-90044253D01*
X89904004Y-90216617D01*
X90123383Y-90435996D01*
X90238553Y-90608361D01*
X90295748Y-90693959D01*
X90414474Y-90980590D01*
X90475000Y-91284875D01*
X90475000Y-91595125D01*
X90414474Y-91899410D01*
X90295748Y-92186041D01*
X90295747Y-92186042D01*
X90123383Y-92444004D01*
X89904004Y-92663383D01*
X89731639Y-92778553D01*
X89646041Y-92835748D01*
X89478137Y-92905296D01*
X89359411Y-92954474D01*
X89311520Y-92964000D01*
X89055125Y-93015000D01*
X88744875Y-93015000D01*
X88488480Y-92964000D01*
X88440589Y-92954474D01*
X88321863Y-92905296D01*
X88153959Y-92835748D01*
X88068361Y-92778553D01*
X87895996Y-92663383D01*
X87676617Y-92444004D01*
X87504253Y-92186042D01*
X87504252Y-92186041D01*
X87385526Y-91899410D01*
X87325000Y-91595125D01*
X87325000Y-91284875D01*
X87385526Y-90980590D01*
X87504252Y-90693959D01*
X87561447Y-90608361D01*
X87676617Y-90435996D01*
X87895996Y-90216617D01*
X88153958Y-90044253D01*
X88153959Y-90044252D01*
X88321863Y-89974704D01*
X88440589Y-89925526D01*
X88679520Y-89878000D01*
X88744875Y-89865000D01*
X89055125Y-89865000D01*
X89120480Y-89878000D01*
X89120480Y-89878000D01*
G37*
G36*
X95244228Y-88208703D02*
G01*
X95399100Y-88272853D01*
X95538481Y-88365985D01*
X95657015Y-88484519D01*
X95750147Y-88623900D01*
X95814297Y-88778772D01*
X95847000Y-88943184D01*
X95847000Y-89110816D01*
X95814297Y-89275228D01*
X95750147Y-89430100D01*
X95657015Y-89569481D01*
X95538481Y-89688015D01*
X95399100Y-89781147D01*
X95244228Y-89845297D01*
X95079816Y-89878000D01*
X94912184Y-89878000D01*
X94747772Y-89845297D01*
X94592900Y-89781147D01*
X94453519Y-89688015D01*
X94334985Y-89569481D01*
X94241853Y-89430100D01*
X94177703Y-89275228D01*
X94145000Y-89110816D01*
X94145000Y-88943184D01*
X94177703Y-88778772D01*
X94241853Y-88623900D01*
X94334985Y-88484519D01*
X94453519Y-88365985D01*
X94592900Y-88272853D01*
X94747772Y-88208703D01*
X94912184Y-88176000D01*
X95079816Y-88176000D01*
X95244228Y-88208703D01*
X95244228Y-88208703D01*
G37*
G36*
X102782823Y-88188313D02*
G01*
X102943242Y-88236976D01*
X103010361Y-88272852D01*
X103091078Y-88315996D01*
X103220659Y-88422341D01*
X103327004Y-88551922D01*
X103327005Y-88551924D01*
X103406024Y-88699758D01*
X103454687Y-88860177D01*
X103471117Y-89027000D01*
X103454687Y-89193823D01*
X103406024Y-89354242D01*
X103365477Y-89430100D01*
X103327004Y-89502078D01*
X103220659Y-89631659D01*
X103091078Y-89738004D01*
X103091076Y-89738005D01*
X102943242Y-89817024D01*
X102782823Y-89865687D01*
X102657804Y-89878000D01*
X102574196Y-89878000D01*
X102449177Y-89865687D01*
X102288758Y-89817024D01*
X102140924Y-89738005D01*
X102140922Y-89738004D01*
X102011341Y-89631659D01*
X101904996Y-89502078D01*
X101866523Y-89430100D01*
X101825976Y-89354242D01*
X101777313Y-89193823D01*
X101760883Y-89027000D01*
X101777313Y-88860177D01*
X101825976Y-88699758D01*
X101904995Y-88551924D01*
X101904996Y-88551922D01*
X102011341Y-88422341D01*
X102140922Y-88315996D01*
X102221639Y-88272852D01*
X102288758Y-88236976D01*
X102449177Y-88188313D01*
X102574196Y-88176000D01*
X102657804Y-88176000D01*
X102782823Y-88188313D01*
X102782823Y-88188313D01*
G37*
G36*
X148330228Y-86049703D02*
G01*
X148485100Y-86113853D01*
X148624481Y-86206985D01*
X148743015Y-86325519D01*
X148836147Y-86464900D01*
X148900297Y-86619772D01*
X148933000Y-86784184D01*
X148933000Y-86951816D01*
X148900297Y-87116228D01*
X148836147Y-87271100D01*
X148743015Y-87410481D01*
X148624481Y-87529015D01*
X148485100Y-87622147D01*
X148330228Y-87686297D01*
X148165816Y-87719000D01*
X147998184Y-87719000D01*
X147833772Y-87686297D01*
X147678900Y-87622147D01*
X147539519Y-87529015D01*
X147420985Y-87410481D01*
X147327853Y-87271100D01*
X147263703Y-87116228D01*
X147231000Y-86951816D01*
X147231000Y-86784184D01*
X147263703Y-86619772D01*
X147327853Y-86464900D01*
X147420985Y-86325519D01*
X147539519Y-86206985D01*
X147678900Y-86113853D01*
X147833772Y-86049703D01*
X147998184Y-86017000D01*
X148165816Y-86017000D01*
X148330228Y-86049703D01*
X148330228Y-86049703D01*
G37*
G36*
X150870228Y-86049703D02*
G01*
X151025100Y-86113853D01*
X151164481Y-86206985D01*
X151283015Y-86325519D01*
X151376147Y-86464900D01*
X151440297Y-86619772D01*
X151473000Y-86784184D01*
X151473000Y-86951816D01*
X151440297Y-87116228D01*
X151376147Y-87271100D01*
X151283015Y-87410481D01*
X151164481Y-87529015D01*
X151025100Y-87622147D01*
X150870228Y-87686297D01*
X150705816Y-87719000D01*
X150538184Y-87719000D01*
X150373772Y-87686297D01*
X150218900Y-87622147D01*
X150079519Y-87529015D01*
X149960985Y-87410481D01*
X149867853Y-87271100D01*
X149803703Y-87116228D01*
X149771000Y-86951816D01*
X149771000Y-86784184D01*
X149803703Y-86619772D01*
X149867853Y-86464900D01*
X149960985Y-86325519D01*
X150079519Y-86206985D01*
X150218900Y-86113853D01*
X150373772Y-86049703D01*
X150538184Y-86017000D01*
X150705816Y-86017000D01*
X150870228Y-86049703D01*
X150870228Y-86049703D01*
G37*
G36*
X169253000Y-87719000D02*
G01*
X167551000Y-87719000D01*
X167551000Y-86017000D01*
X169253000Y-86017000D01*
X169253000Y-87719000D01*
X169253000Y-87719000D01*
G37*
G36*
X166110228Y-86049703D02*
G01*
X166265100Y-86113853D01*
X166404481Y-86206985D01*
X166523015Y-86325519D01*
X166616147Y-86464900D01*
X166680297Y-86619772D01*
X166713000Y-86784184D01*
X166713000Y-86951816D01*
X166680297Y-87116228D01*
X166616147Y-87271100D01*
X166523015Y-87410481D01*
X166404481Y-87529015D01*
X166265100Y-87622147D01*
X166110228Y-87686297D01*
X165945816Y-87719000D01*
X165778184Y-87719000D01*
X165613772Y-87686297D01*
X165458900Y-87622147D01*
X165319519Y-87529015D01*
X165200985Y-87410481D01*
X165107853Y-87271100D01*
X165043703Y-87116228D01*
X165011000Y-86951816D01*
X165011000Y-86784184D01*
X165043703Y-86619772D01*
X165107853Y-86464900D01*
X165200985Y-86325519D01*
X165319519Y-86206985D01*
X165458900Y-86113853D01*
X165613772Y-86049703D01*
X165778184Y-86017000D01*
X165945816Y-86017000D01*
X166110228Y-86049703D01*
X166110228Y-86049703D01*
G37*
G36*
X153410228Y-86049703D02*
G01*
X153565100Y-86113853D01*
X153704481Y-86206985D01*
X153823015Y-86325519D01*
X153916147Y-86464900D01*
X153980297Y-86619772D01*
X154013000Y-86784184D01*
X154013000Y-86951816D01*
X153980297Y-87116228D01*
X153916147Y-87271100D01*
X153823015Y-87410481D01*
X153704481Y-87529015D01*
X153565100Y-87622147D01*
X153410228Y-87686297D01*
X153245816Y-87719000D01*
X153078184Y-87719000D01*
X152913772Y-87686297D01*
X152758900Y-87622147D01*
X152619519Y-87529015D01*
X152500985Y-87410481D01*
X152407853Y-87271100D01*
X152343703Y-87116228D01*
X152311000Y-86951816D01*
X152311000Y-86784184D01*
X152343703Y-86619772D01*
X152407853Y-86464900D01*
X152500985Y-86325519D01*
X152619519Y-86206985D01*
X152758900Y-86113853D01*
X152913772Y-86049703D01*
X153078184Y-86017000D01*
X153245816Y-86017000D01*
X153410228Y-86049703D01*
X153410228Y-86049703D01*
G37*
G36*
X163570228Y-86049703D02*
G01*
X163725100Y-86113853D01*
X163864481Y-86206985D01*
X163983015Y-86325519D01*
X164076147Y-86464900D01*
X164140297Y-86619772D01*
X164173000Y-86784184D01*
X164173000Y-86951816D01*
X164140297Y-87116228D01*
X164076147Y-87271100D01*
X163983015Y-87410481D01*
X163864481Y-87529015D01*
X163725100Y-87622147D01*
X163570228Y-87686297D01*
X163405816Y-87719000D01*
X163238184Y-87719000D01*
X163073772Y-87686297D01*
X162918900Y-87622147D01*
X162779519Y-87529015D01*
X162660985Y-87410481D01*
X162567853Y-87271100D01*
X162503703Y-87116228D01*
X162471000Y-86951816D01*
X162471000Y-86784184D01*
X162503703Y-86619772D01*
X162567853Y-86464900D01*
X162660985Y-86325519D01*
X162779519Y-86206985D01*
X162918900Y-86113853D01*
X163073772Y-86049703D01*
X163238184Y-86017000D01*
X163405816Y-86017000D01*
X163570228Y-86049703D01*
X163570228Y-86049703D01*
G37*
G36*
X161030228Y-86049703D02*
G01*
X161185100Y-86113853D01*
X161324481Y-86206985D01*
X161443015Y-86325519D01*
X161536147Y-86464900D01*
X161600297Y-86619772D01*
X161633000Y-86784184D01*
X161633000Y-86951816D01*
X161600297Y-87116228D01*
X161536147Y-87271100D01*
X161443015Y-87410481D01*
X161324481Y-87529015D01*
X161185100Y-87622147D01*
X161030228Y-87686297D01*
X160865816Y-87719000D01*
X160698184Y-87719000D01*
X160533772Y-87686297D01*
X160378900Y-87622147D01*
X160239519Y-87529015D01*
X160120985Y-87410481D01*
X160027853Y-87271100D01*
X159963703Y-87116228D01*
X159931000Y-86951816D01*
X159931000Y-86784184D01*
X159963703Y-86619772D01*
X160027853Y-86464900D01*
X160120985Y-86325519D01*
X160239519Y-86206985D01*
X160378900Y-86113853D01*
X160533772Y-86049703D01*
X160698184Y-86017000D01*
X160865816Y-86017000D01*
X161030228Y-86049703D01*
X161030228Y-86049703D01*
G37*
G36*
X158490228Y-86049703D02*
G01*
X158645100Y-86113853D01*
X158784481Y-86206985D01*
X158903015Y-86325519D01*
X158996147Y-86464900D01*
X159060297Y-86619772D01*
X159093000Y-86784184D01*
X159093000Y-86951816D01*
X159060297Y-87116228D01*
X158996147Y-87271100D01*
X158903015Y-87410481D01*
X158784481Y-87529015D01*
X158645100Y-87622147D01*
X158490228Y-87686297D01*
X158325816Y-87719000D01*
X158158184Y-87719000D01*
X157993772Y-87686297D01*
X157838900Y-87622147D01*
X157699519Y-87529015D01*
X157580985Y-87410481D01*
X157487853Y-87271100D01*
X157423703Y-87116228D01*
X157391000Y-86951816D01*
X157391000Y-86784184D01*
X157423703Y-86619772D01*
X157487853Y-86464900D01*
X157580985Y-86325519D01*
X157699519Y-86206985D01*
X157838900Y-86113853D01*
X157993772Y-86049703D01*
X158158184Y-86017000D01*
X158325816Y-86017000D01*
X158490228Y-86049703D01*
X158490228Y-86049703D01*
G37*
G36*
X155950228Y-86049703D02*
G01*
X156105100Y-86113853D01*
X156244481Y-86206985D01*
X156363015Y-86325519D01*
X156456147Y-86464900D01*
X156520297Y-86619772D01*
X156553000Y-86784184D01*
X156553000Y-86951816D01*
X156520297Y-87116228D01*
X156456147Y-87271100D01*
X156363015Y-87410481D01*
X156244481Y-87529015D01*
X156105100Y-87622147D01*
X155950228Y-87686297D01*
X155785816Y-87719000D01*
X155618184Y-87719000D01*
X155453772Y-87686297D01*
X155298900Y-87622147D01*
X155159519Y-87529015D01*
X155040985Y-87410481D01*
X154947853Y-87271100D01*
X154883703Y-87116228D01*
X154851000Y-86951816D01*
X154851000Y-86784184D01*
X154883703Y-86619772D01*
X154947853Y-86464900D01*
X155040985Y-86325519D01*
X155159519Y-86206985D01*
X155298900Y-86113853D01*
X155453772Y-86049703D01*
X155618184Y-86017000D01*
X155785816Y-86017000D01*
X155950228Y-86049703D01*
X155950228Y-86049703D01*
G37*
G36*
X145790228Y-86049703D02*
G01*
X145945100Y-86113853D01*
X146084481Y-86206985D01*
X146203015Y-86325519D01*
X146296147Y-86464900D01*
X146360297Y-86619772D01*
X146393000Y-86784184D01*
X146393000Y-86951816D01*
X146360297Y-87116228D01*
X146296147Y-87271100D01*
X146203015Y-87410481D01*
X146084481Y-87529015D01*
X145945100Y-87622147D01*
X145790228Y-87686297D01*
X145625816Y-87719000D01*
X145458184Y-87719000D01*
X145293772Y-87686297D01*
X145138900Y-87622147D01*
X144999519Y-87529015D01*
X144880985Y-87410481D01*
X144787853Y-87271100D01*
X144723703Y-87116228D01*
X144691000Y-86951816D01*
X144691000Y-86784184D01*
X144723703Y-86619772D01*
X144787853Y-86464900D01*
X144880985Y-86325519D01*
X144999519Y-86206985D01*
X145138900Y-86113853D01*
X145293772Y-86049703D01*
X145458184Y-86017000D01*
X145625816Y-86017000D01*
X145790228Y-86049703D01*
X145790228Y-86049703D01*
G37*
G36*
X143250228Y-86049703D02*
G01*
X143405100Y-86113853D01*
X143544481Y-86206985D01*
X143663015Y-86325519D01*
X143756147Y-86464900D01*
X143820297Y-86619772D01*
X143853000Y-86784184D01*
X143853000Y-86951816D01*
X143820297Y-87116228D01*
X143756147Y-87271100D01*
X143663015Y-87410481D01*
X143544481Y-87529015D01*
X143405100Y-87622147D01*
X143250228Y-87686297D01*
X143085816Y-87719000D01*
X142918184Y-87719000D01*
X142753772Y-87686297D01*
X142598900Y-87622147D01*
X142459519Y-87529015D01*
X142340985Y-87410481D01*
X142247853Y-87271100D01*
X142183703Y-87116228D01*
X142151000Y-86951816D01*
X142151000Y-86784184D01*
X142183703Y-86619772D01*
X142247853Y-86464900D01*
X142340985Y-86325519D01*
X142459519Y-86206985D01*
X142598900Y-86113853D01*
X142753772Y-86049703D01*
X142918184Y-86017000D01*
X143085816Y-86017000D01*
X143250228Y-86049703D01*
X143250228Y-86049703D01*
G37*
G36*
X140710228Y-86049703D02*
G01*
X140865100Y-86113853D01*
X141004481Y-86206985D01*
X141123015Y-86325519D01*
X141216147Y-86464900D01*
X141280297Y-86619772D01*
X141313000Y-86784184D01*
X141313000Y-86951816D01*
X141280297Y-87116228D01*
X141216147Y-87271100D01*
X141123015Y-87410481D01*
X141004481Y-87529015D01*
X140865100Y-87622147D01*
X140710228Y-87686297D01*
X140545816Y-87719000D01*
X140378184Y-87719000D01*
X140213772Y-87686297D01*
X140058900Y-87622147D01*
X139919519Y-87529015D01*
X139800985Y-87410481D01*
X139707853Y-87271100D01*
X139643703Y-87116228D01*
X139611000Y-86951816D01*
X139611000Y-86784184D01*
X139643703Y-86619772D01*
X139707853Y-86464900D01*
X139800985Y-86325519D01*
X139919519Y-86206985D01*
X140058900Y-86113853D01*
X140213772Y-86049703D01*
X140378184Y-86017000D01*
X140545816Y-86017000D01*
X140710228Y-86049703D01*
X140710228Y-86049703D01*
G37*
G36*
X95693000Y-84898000D02*
G01*
X93791000Y-84898000D01*
X93791000Y-82996000D01*
X95693000Y-82996000D01*
X95693000Y-84898000D01*
X95693000Y-84898000D01*
G37*
G36*
X97559395Y-83032546D02*
G01*
X97732466Y-83104234D01*
X97732467Y-83104235D01*
X97888227Y-83208310D01*
X98020690Y-83340773D01*
X98020691Y-83340775D01*
X98124766Y-83496534D01*
X98196454Y-83669605D01*
X98233000Y-83853333D01*
X98233000Y-84040667D01*
X98196454Y-84224395D01*
X98124766Y-84397466D01*
X98124765Y-84397467D01*
X98020690Y-84553227D01*
X97888227Y-84685690D01*
X97809818Y-84738081D01*
X97732466Y-84789766D01*
X97559395Y-84861454D01*
X97375667Y-84898000D01*
X97188333Y-84898000D01*
X97004605Y-84861454D01*
X96831534Y-84789766D01*
X96754182Y-84738081D01*
X96675773Y-84685690D01*
X96543310Y-84553227D01*
X96439235Y-84397467D01*
X96439234Y-84397466D01*
X96367546Y-84224395D01*
X96331000Y-84040667D01*
X96331000Y-83853333D01*
X96367546Y-83669605D01*
X96439234Y-83496534D01*
X96543309Y-83340775D01*
X96543310Y-83340773D01*
X96675773Y-83208310D01*
X96831533Y-83104235D01*
X96831534Y-83104234D01*
X97004605Y-83032546D01*
X97188333Y-82996000D01*
X97375667Y-82996000D01*
X97559395Y-83032546D01*
X97559395Y-83032546D01*
G37*
G36*
X105118000Y-84544000D02*
G01*
X103416000Y-84544000D01*
X103416000Y-82842000D01*
X105118000Y-82842000D01*
X105118000Y-84544000D01*
X105118000Y-84544000D01*
G37*
G36*
X131407000Y-84544000D02*
G01*
X129705000Y-84544000D01*
X129705000Y-82842000D01*
X131407000Y-82842000D01*
X131407000Y-84544000D01*
X131407000Y-84544000D01*
G37*
G36*
X188430000Y-84544000D02*
G01*
X186728000Y-84544000D01*
X186728000Y-82842000D01*
X188430000Y-82842000D01*
X188430000Y-84544000D01*
X188430000Y-84544000D01*
G37*
G36*
X134074000Y-82385000D02*
G01*
X132372000Y-82385000D01*
X132372000Y-80683000D01*
X134074000Y-80683000D01*
X134074000Y-82385000D01*
X134074000Y-82385000D01*
G37*
G36*
X191224000Y-82258000D02*
G01*
X189522000Y-82258000D01*
X189522000Y-80556000D01*
X191224000Y-80556000D01*
X191224000Y-82258000D01*
X191224000Y-82258000D01*
G37*
G36*
X96640224Y-77408684D02*
G01*
X96858224Y-77498983D01*
X97012373Y-77562833D01*
X97347298Y-77786623D01*
X97632127Y-78071452D01*
X97855917Y-78406377D01*
X97888312Y-78484586D01*
X98010066Y-78778526D01*
X98088650Y-79173594D01*
X98088650Y-79576406D01*
X98010066Y-79971474D01*
X97959201Y-80094272D01*
X97855917Y-80343623D01*
X97632127Y-80678548D01*
X97347298Y-80963377D01*
X97012373Y-81187167D01*
X96858224Y-81251017D01*
X96640224Y-81341316D01*
X96245156Y-81419900D01*
X95842344Y-81419900D01*
X95447276Y-81341316D01*
X95229276Y-81251017D01*
X95075127Y-81187167D01*
X94740202Y-80963377D01*
X94455373Y-80678548D01*
X94231583Y-80343623D01*
X94128299Y-80094272D01*
X94077434Y-79971474D01*
X93998850Y-79576406D01*
X93998850Y-79173594D01*
X94077434Y-78778526D01*
X94199188Y-78484586D01*
X94231583Y-78406377D01*
X94455373Y-78071452D01*
X94740202Y-77786623D01*
X95075127Y-77562833D01*
X95229276Y-77498983D01*
X95447276Y-77408684D01*
X95842344Y-77330100D01*
X96245156Y-77330100D01*
X96640224Y-77408684D01*
X96640224Y-77408684D01*
G37*
G36*
X122833974Y-77408684D02*
G01*
X123051974Y-77498983D01*
X123206123Y-77562833D01*
X123541048Y-77786623D01*
X123825877Y-78071452D01*
X124049667Y-78406377D01*
X124082062Y-78484586D01*
X124203816Y-78778526D01*
X124282400Y-79173594D01*
X124282400Y-79576406D01*
X124203816Y-79971474D01*
X124152951Y-80094272D01*
X124049667Y-80343623D01*
X123825877Y-80678548D01*
X123541048Y-80963377D01*
X123206123Y-81187167D01*
X123051974Y-81251017D01*
X122833974Y-81341316D01*
X122438906Y-81419900D01*
X122036094Y-81419900D01*
X121641026Y-81341316D01*
X121423026Y-81251017D01*
X121268877Y-81187167D01*
X120933952Y-80963377D01*
X120649123Y-80678548D01*
X120425333Y-80343623D01*
X120322049Y-80094272D01*
X120271184Y-79971474D01*
X120192600Y-79576406D01*
X120192600Y-79173594D01*
X120271184Y-78778526D01*
X120392938Y-78484586D01*
X120425333Y-78406377D01*
X120649123Y-78071452D01*
X120933952Y-77786623D01*
X121268877Y-77562833D01*
X121423026Y-77498983D01*
X121641026Y-77408684D01*
X122036094Y-77330100D01*
X122438906Y-77330100D01*
X122833974Y-77408684D01*
X122833974Y-77408684D01*
G37*
G36*
X141883974Y-77408684D02*
G01*
X142101974Y-77498983D01*
X142256123Y-77562833D01*
X142591048Y-77786623D01*
X142875877Y-78071452D01*
X143099667Y-78406377D01*
X143132062Y-78484586D01*
X143253816Y-78778526D01*
X143332400Y-79173594D01*
X143332400Y-79576406D01*
X143253816Y-79971474D01*
X143202951Y-80094272D01*
X143099667Y-80343623D01*
X142875877Y-80678548D01*
X142591048Y-80963377D01*
X142256123Y-81187167D01*
X142101974Y-81251017D01*
X141883974Y-81341316D01*
X141488906Y-81419900D01*
X141086094Y-81419900D01*
X140691026Y-81341316D01*
X140473026Y-81251017D01*
X140318877Y-81187167D01*
X139983952Y-80963377D01*
X139699123Y-80678548D01*
X139475333Y-80343623D01*
X139372049Y-80094272D01*
X139321184Y-79971474D01*
X139242600Y-79576406D01*
X139242600Y-79173594D01*
X139321184Y-78778526D01*
X139442938Y-78484586D01*
X139475333Y-78406377D01*
X139699123Y-78071452D01*
X139983952Y-77786623D01*
X140318877Y-77562833D01*
X140473026Y-77498983D01*
X140691026Y-77408684D01*
X141086094Y-77330100D01*
X141488906Y-77330100D01*
X141883974Y-77408684D01*
X141883974Y-77408684D01*
G37*
G36*
X160933974Y-77408684D02*
G01*
X161151974Y-77498983D01*
X161306123Y-77562833D01*
X161641048Y-77786623D01*
X161925877Y-78071452D01*
X162149667Y-78406377D01*
X162182062Y-78484586D01*
X162303816Y-78778526D01*
X162382400Y-79173594D01*
X162382400Y-79576406D01*
X162303816Y-79971474D01*
X162252951Y-80094272D01*
X162149667Y-80343623D01*
X161925877Y-80678548D01*
X161641048Y-80963377D01*
X161306123Y-81187167D01*
X161151974Y-81251017D01*
X160933974Y-81341316D01*
X160538906Y-81419900D01*
X160136094Y-81419900D01*
X159741026Y-81341316D01*
X159523026Y-81251017D01*
X159368877Y-81187167D01*
X159033952Y-80963377D01*
X158749123Y-80678548D01*
X158525333Y-80343623D01*
X158422049Y-80094272D01*
X158371184Y-79971474D01*
X158292600Y-79576406D01*
X158292600Y-79173594D01*
X158371184Y-78778526D01*
X158492938Y-78484586D01*
X158525333Y-78406377D01*
X158749123Y-78071452D01*
X159033952Y-77786623D01*
X159368877Y-77562833D01*
X159523026Y-77498983D01*
X159741026Y-77408684D01*
X160136094Y-77330100D01*
X160538906Y-77330100D01*
X160933974Y-77408684D01*
X160933974Y-77408684D01*
G37*
G36*
X179983974Y-77408684D02*
G01*
X180201974Y-77498983D01*
X180356123Y-77562833D01*
X180691048Y-77786623D01*
X180975877Y-78071452D01*
X181199667Y-78406377D01*
X181232062Y-78484586D01*
X181353816Y-78778526D01*
X181432400Y-79173594D01*
X181432400Y-79576406D01*
X181353816Y-79971474D01*
X181302951Y-80094272D01*
X181199667Y-80343623D01*
X180975877Y-80678548D01*
X180691048Y-80963377D01*
X180356123Y-81187167D01*
X180201974Y-81251017D01*
X179983974Y-81341316D01*
X179588906Y-81419900D01*
X179186094Y-81419900D01*
X178791026Y-81341316D01*
X178573026Y-81251017D01*
X178418877Y-81187167D01*
X178083952Y-80963377D01*
X177799123Y-80678548D01*
X177575333Y-80343623D01*
X177472049Y-80094272D01*
X177421184Y-79971474D01*
X177342600Y-79576406D01*
X177342600Y-79173594D01*
X177421184Y-78778526D01*
X177542938Y-78484586D01*
X177575333Y-78406377D01*
X177799123Y-78071452D01*
X178083952Y-77786623D01*
X178418877Y-77562833D01*
X178573026Y-77498983D01*
X178791026Y-77408684D01*
X179186094Y-77330100D01*
X179588906Y-77330100D01*
X179983974Y-77408684D01*
X179983974Y-77408684D01*
G37*
G36*
X199033974Y-77408684D02*
G01*
X199251974Y-77498983D01*
X199406123Y-77562833D01*
X199741048Y-77786623D01*
X200025877Y-78071452D01*
X200249667Y-78406377D01*
X200282062Y-78484586D01*
X200403816Y-78778526D01*
X200482400Y-79173594D01*
X200482400Y-79576406D01*
X200403816Y-79971474D01*
X200352951Y-80094272D01*
X200249667Y-80343623D01*
X200025877Y-80678548D01*
X199741048Y-80963377D01*
X199406123Y-81187167D01*
X199251974Y-81251017D01*
X199033974Y-81341316D01*
X198638906Y-81419900D01*
X198236094Y-81419900D01*
X197841026Y-81341316D01*
X197623026Y-81251017D01*
X197468877Y-81187167D01*
X197133952Y-80963377D01*
X196849123Y-80678548D01*
X196625333Y-80343623D01*
X196522049Y-80094272D01*
X196471184Y-79971474D01*
X196392600Y-79576406D01*
X196392600Y-79173594D01*
X196471184Y-78778526D01*
X196592938Y-78484586D01*
X196625333Y-78406377D01*
X196849123Y-78071452D01*
X197133952Y-77786623D01*
X197468877Y-77562833D01*
X197623026Y-77498983D01*
X197841026Y-77408684D01*
X198236094Y-77330100D01*
X198638906Y-77330100D01*
X199033974Y-77408684D01*
X199033974Y-77408684D01*
G37*
G36*
X117427604Y-78484585D02*
G01*
X117596126Y-78554389D01*
X117747791Y-78655728D01*
X117876772Y-78784709D01*
X117978111Y-78936374D01*
X118047915Y-79104896D01*
X118083500Y-79283797D01*
X118083500Y-79466203D01*
X118047915Y-79645104D01*
X117978111Y-79813626D01*
X117876772Y-79965291D01*
X117747791Y-80094272D01*
X117596126Y-80195611D01*
X117427604Y-80265415D01*
X117248703Y-80301000D01*
X117066297Y-80301000D01*
X116887396Y-80265415D01*
X116718874Y-80195611D01*
X116567209Y-80094272D01*
X116438228Y-79965291D01*
X116336889Y-79813626D01*
X116267085Y-79645104D01*
X116231500Y-79466203D01*
X116231500Y-79283797D01*
X116267085Y-79104896D01*
X116336889Y-78936374D01*
X116438228Y-78784709D01*
X116567209Y-78655728D01*
X116718874Y-78554389D01*
X116887396Y-78484585D01*
X117066297Y-78449000D01*
X117248703Y-78449000D01*
X117427604Y-78484585D01*
X117427604Y-78484585D01*
G37*
G36*
X146637604Y-78484585D02*
G01*
X146806126Y-78554389D01*
X146957791Y-78655728D01*
X147086772Y-78784709D01*
X147188111Y-78936374D01*
X147257915Y-79104896D01*
X147293500Y-79283797D01*
X147293500Y-79466203D01*
X147257915Y-79645104D01*
X147188111Y-79813626D01*
X147086772Y-79965291D01*
X146957791Y-80094272D01*
X146806126Y-80195611D01*
X146637604Y-80265415D01*
X146458703Y-80301000D01*
X146276297Y-80301000D01*
X146097396Y-80265415D01*
X145928874Y-80195611D01*
X145777209Y-80094272D01*
X145648228Y-79965291D01*
X145546889Y-79813626D01*
X145477085Y-79645104D01*
X145441500Y-79466203D01*
X145441500Y-79283797D01*
X145477085Y-79104896D01*
X145546889Y-78936374D01*
X145648228Y-78784709D01*
X145777209Y-78655728D01*
X145928874Y-78554389D01*
X146097396Y-78484585D01*
X146276297Y-78449000D01*
X146458703Y-78449000D01*
X146637604Y-78484585D01*
X146637604Y-78484585D01*
G37*
G36*
X127587604Y-78484585D02*
G01*
X127756126Y-78554389D01*
X127907791Y-78655728D01*
X128036772Y-78784709D01*
X128138111Y-78936374D01*
X128207915Y-79104896D01*
X128243500Y-79283797D01*
X128243500Y-79466203D01*
X128207915Y-79645104D01*
X128138111Y-79813626D01*
X128036772Y-79965291D01*
X127907791Y-80094272D01*
X127756126Y-80195611D01*
X127587604Y-80265415D01*
X127408703Y-80301000D01*
X127226297Y-80301000D01*
X127047396Y-80265415D01*
X126878874Y-80195611D01*
X126727209Y-80094272D01*
X126598228Y-79965291D01*
X126496889Y-79813626D01*
X126427085Y-79645104D01*
X126391500Y-79466203D01*
X126391500Y-79283797D01*
X126427085Y-79104896D01*
X126496889Y-78936374D01*
X126598228Y-78784709D01*
X126727209Y-78655728D01*
X126878874Y-78554389D01*
X127047396Y-78484585D01*
X127226297Y-78449000D01*
X127408703Y-78449000D01*
X127587604Y-78484585D01*
X127587604Y-78484585D01*
G37*
G36*
X101393854Y-78484585D02*
G01*
X101562376Y-78554389D01*
X101714041Y-78655728D01*
X101843022Y-78784709D01*
X101944361Y-78936374D01*
X102014165Y-79104896D01*
X102049750Y-79283797D01*
X102049750Y-79466203D01*
X102014165Y-79645104D01*
X101944361Y-79813626D01*
X101843022Y-79965291D01*
X101714041Y-80094272D01*
X101562376Y-80195611D01*
X101393854Y-80265415D01*
X101214953Y-80301000D01*
X101032547Y-80301000D01*
X100853646Y-80265415D01*
X100685124Y-80195611D01*
X100533459Y-80094272D01*
X100404478Y-79965291D01*
X100303139Y-79813626D01*
X100233335Y-79645104D01*
X100197750Y-79466203D01*
X100197750Y-79283797D01*
X100233335Y-79104896D01*
X100303139Y-78936374D01*
X100404478Y-78784709D01*
X100533459Y-78655728D01*
X100685124Y-78554389D01*
X100853646Y-78484585D01*
X101032547Y-78449000D01*
X101214953Y-78449000D01*
X101393854Y-78484585D01*
X101393854Y-78484585D01*
G37*
G36*
X91233854Y-78484585D02*
G01*
X91402376Y-78554389D01*
X91554041Y-78655728D01*
X91683022Y-78784709D01*
X91784361Y-78936374D01*
X91854165Y-79104896D01*
X91889750Y-79283797D01*
X91889750Y-79466203D01*
X91854165Y-79645104D01*
X91784361Y-79813626D01*
X91683022Y-79965291D01*
X91554041Y-80094272D01*
X91402376Y-80195611D01*
X91233854Y-80265415D01*
X91054953Y-80301000D01*
X90872547Y-80301000D01*
X90693646Y-80265415D01*
X90525124Y-80195611D01*
X90373459Y-80094272D01*
X90244478Y-79965291D01*
X90143139Y-79813626D01*
X90073335Y-79645104D01*
X90037750Y-79466203D01*
X90037750Y-79283797D01*
X90073335Y-79104896D01*
X90143139Y-78936374D01*
X90244478Y-78784709D01*
X90373459Y-78655728D01*
X90525124Y-78554389D01*
X90693646Y-78484585D01*
X90872547Y-78449000D01*
X91054953Y-78449000D01*
X91233854Y-78484585D01*
X91233854Y-78484585D01*
G37*
G36*
X136477604Y-78484585D02*
G01*
X136646126Y-78554389D01*
X136797791Y-78655728D01*
X136926772Y-78784709D01*
X137028111Y-78936374D01*
X137097915Y-79104896D01*
X137133500Y-79283797D01*
X137133500Y-79466203D01*
X137097915Y-79645104D01*
X137028111Y-79813626D01*
X136926772Y-79965291D01*
X136797791Y-80094272D01*
X136646126Y-80195611D01*
X136477604Y-80265415D01*
X136298703Y-80301000D01*
X136116297Y-80301000D01*
X135937396Y-80265415D01*
X135768874Y-80195611D01*
X135617209Y-80094272D01*
X135488228Y-79965291D01*
X135386889Y-79813626D01*
X135317085Y-79645104D01*
X135281500Y-79466203D01*
X135281500Y-79283797D01*
X135317085Y-79104896D01*
X135386889Y-78936374D01*
X135488228Y-78784709D01*
X135617209Y-78655728D01*
X135768874Y-78554389D01*
X135937396Y-78484585D01*
X136116297Y-78449000D01*
X136298703Y-78449000D01*
X136477604Y-78484585D01*
X136477604Y-78484585D01*
G37*
G36*
X155527604Y-78484585D02*
G01*
X155696126Y-78554389D01*
X155847791Y-78655728D01*
X155976772Y-78784709D01*
X156078111Y-78936374D01*
X156147915Y-79104896D01*
X156183500Y-79283797D01*
X156183500Y-79466203D01*
X156147915Y-79645104D01*
X156078111Y-79813626D01*
X155976772Y-79965291D01*
X155847791Y-80094272D01*
X155696126Y-80195611D01*
X155527604Y-80265415D01*
X155348703Y-80301000D01*
X155166297Y-80301000D01*
X154987396Y-80265415D01*
X154818874Y-80195611D01*
X154667209Y-80094272D01*
X154538228Y-79965291D01*
X154436889Y-79813626D01*
X154367085Y-79645104D01*
X154331500Y-79466203D01*
X154331500Y-79283797D01*
X154367085Y-79104896D01*
X154436889Y-78936374D01*
X154538228Y-78784709D01*
X154667209Y-78655728D01*
X154818874Y-78554389D01*
X154987396Y-78484585D01*
X155166297Y-78449000D01*
X155348703Y-78449000D01*
X155527604Y-78484585D01*
X155527604Y-78484585D01*
G37*
G36*
X165687604Y-78484585D02*
G01*
X165856126Y-78554389D01*
X166007791Y-78655728D01*
X166136772Y-78784709D01*
X166238111Y-78936374D01*
X166307915Y-79104896D01*
X166343500Y-79283797D01*
X166343500Y-79466203D01*
X166307915Y-79645104D01*
X166238111Y-79813626D01*
X166136772Y-79965291D01*
X166007791Y-80094272D01*
X165856126Y-80195611D01*
X165687604Y-80265415D01*
X165508703Y-80301000D01*
X165326297Y-80301000D01*
X165147396Y-80265415D01*
X164978874Y-80195611D01*
X164827209Y-80094272D01*
X164698228Y-79965291D01*
X164596889Y-79813626D01*
X164527085Y-79645104D01*
X164491500Y-79466203D01*
X164491500Y-79283797D01*
X164527085Y-79104896D01*
X164596889Y-78936374D01*
X164698228Y-78784709D01*
X164827209Y-78655728D01*
X164978874Y-78554389D01*
X165147396Y-78484585D01*
X165326297Y-78449000D01*
X165508703Y-78449000D01*
X165687604Y-78484585D01*
X165687604Y-78484585D01*
G37*
G36*
X174577604Y-78484585D02*
G01*
X174746126Y-78554389D01*
X174897791Y-78655728D01*
X175026772Y-78784709D01*
X175128111Y-78936374D01*
X175197915Y-79104896D01*
X175233500Y-79283797D01*
X175233500Y-79466203D01*
X175197915Y-79645104D01*
X175128111Y-79813626D01*
X175026772Y-79965291D01*
X174897791Y-80094272D01*
X174746126Y-80195611D01*
X174577604Y-80265415D01*
X174398703Y-80301000D01*
X174216297Y-80301000D01*
X174037396Y-80265415D01*
X173868874Y-80195611D01*
X173717209Y-80094272D01*
X173588228Y-79965291D01*
X173486889Y-79813626D01*
X173417085Y-79645104D01*
X173381500Y-79466203D01*
X173381500Y-79283797D01*
X173417085Y-79104896D01*
X173486889Y-78936374D01*
X173588228Y-78784709D01*
X173717209Y-78655728D01*
X173868874Y-78554389D01*
X174037396Y-78484585D01*
X174216297Y-78449000D01*
X174398703Y-78449000D01*
X174577604Y-78484585D01*
X174577604Y-78484585D01*
G37*
G36*
X193627604Y-78484585D02*
G01*
X193796126Y-78554389D01*
X193947791Y-78655728D01*
X194076772Y-78784709D01*
X194178111Y-78936374D01*
X194247915Y-79104896D01*
X194283500Y-79283797D01*
X194283500Y-79466203D01*
X194247915Y-79645104D01*
X194178111Y-79813626D01*
X194076772Y-79965291D01*
X193947791Y-80094272D01*
X193796126Y-80195611D01*
X193627604Y-80265415D01*
X193448703Y-80301000D01*
X193266297Y-80301000D01*
X193087396Y-80265415D01*
X192918874Y-80195611D01*
X192767209Y-80094272D01*
X192638228Y-79965291D01*
X192536889Y-79813626D01*
X192467085Y-79645104D01*
X192431500Y-79466203D01*
X192431500Y-79283797D01*
X192467085Y-79104896D01*
X192536889Y-78936374D01*
X192638228Y-78784709D01*
X192767209Y-78655728D01*
X192918874Y-78554389D01*
X193087396Y-78484585D01*
X193266297Y-78449000D01*
X193448703Y-78449000D01*
X193627604Y-78484585D01*
X193627604Y-78484585D01*
G37*
G36*
X203787604Y-78484585D02*
G01*
X203956126Y-78554389D01*
X204107791Y-78655728D01*
X204236772Y-78784709D01*
X204338111Y-78936374D01*
X204407915Y-79104896D01*
X204443500Y-79283797D01*
X204443500Y-79466203D01*
X204407915Y-79645104D01*
X204338111Y-79813626D01*
X204236772Y-79965291D01*
X204107791Y-80094272D01*
X203956126Y-80195611D01*
X203787604Y-80265415D01*
X203608703Y-80301000D01*
X203426297Y-80301000D01*
X203247396Y-80265415D01*
X203078874Y-80195611D01*
X202927209Y-80094272D01*
X202798228Y-79965291D01*
X202696889Y-79813626D01*
X202627085Y-79645104D01*
X202591500Y-79466203D01*
X202591500Y-79283797D01*
X202627085Y-79104896D01*
X202696889Y-78936374D01*
X202798228Y-78784709D01*
X202927209Y-78655728D01*
X203078874Y-78554389D01*
X203247396Y-78484585D01*
X203426297Y-78449000D01*
X203608703Y-78449000D01*
X203787604Y-78484585D01*
X203787604Y-78484585D01*
G37*
G36*
X184737604Y-78484585D02*
G01*
X184906126Y-78554389D01*
X185057791Y-78655728D01*
X185186772Y-78784709D01*
X185288111Y-78936374D01*
X185357915Y-79104896D01*
X185393500Y-79283797D01*
X185393500Y-79466203D01*
X185357915Y-79645104D01*
X185288111Y-79813626D01*
X185186772Y-79965291D01*
X185057791Y-80094272D01*
X184906126Y-80195611D01*
X184737604Y-80265415D01*
X184558703Y-80301000D01*
X184376297Y-80301000D01*
X184197396Y-80265415D01*
X184028874Y-80195611D01*
X183877209Y-80094272D01*
X183748228Y-79965291D01*
X183646889Y-79813626D01*
X183577085Y-79645104D01*
X183541500Y-79466203D01*
X183541500Y-79283797D01*
X183577085Y-79104896D01*
X183646889Y-78936374D01*
X183748228Y-78784709D01*
X183877209Y-78655728D01*
X184028874Y-78554389D01*
X184197396Y-78484585D01*
X184376297Y-78449000D01*
X184558703Y-78449000D01*
X184737604Y-78484585D01*
X184737604Y-78484585D01*
G37*
G36*
X187745823Y-75234313D02*
G01*
X187906242Y-75282976D01*
X188038906Y-75353886D01*
X188054078Y-75361996D01*
X188183659Y-75468341D01*
X188290004Y-75597922D01*
X188290005Y-75597924D01*
X188369024Y-75745758D01*
X188417687Y-75906177D01*
X188434117Y-76073000D01*
X188417687Y-76239823D01*
X188369024Y-76400242D01*
X188298114Y-76532906D01*
X188290004Y-76548078D01*
X188183659Y-76677659D01*
X188054078Y-76784004D01*
X188054076Y-76784005D01*
X187906242Y-76863024D01*
X187745823Y-76911687D01*
X187620804Y-76924000D01*
X187537196Y-76924000D01*
X187412177Y-76911687D01*
X187251758Y-76863024D01*
X187103924Y-76784005D01*
X187103922Y-76784004D01*
X186974341Y-76677659D01*
X186867996Y-76548078D01*
X186859886Y-76532906D01*
X186788976Y-76400242D01*
X186740313Y-76239823D01*
X186723883Y-76073000D01*
X186740313Y-75906177D01*
X186788976Y-75745758D01*
X186867995Y-75597924D01*
X186867996Y-75597922D01*
X186974341Y-75468341D01*
X187103922Y-75361996D01*
X187119094Y-75353886D01*
X187251758Y-75282976D01*
X187412177Y-75234313D01*
X187537196Y-75222000D01*
X187620804Y-75222000D01*
X187745823Y-75234313D01*
X187745823Y-75234313D01*
G37*
G36*
X130722823Y-75234313D02*
G01*
X130883242Y-75282976D01*
X131015906Y-75353886D01*
X131031078Y-75361996D01*
X131160659Y-75468341D01*
X131267004Y-75597922D01*
X131267005Y-75597924D01*
X131346024Y-75745758D01*
X131394687Y-75906177D01*
X131411117Y-76073000D01*
X131394687Y-76239823D01*
X131346024Y-76400242D01*
X131275114Y-76532906D01*
X131267004Y-76548078D01*
X131160659Y-76677659D01*
X131031078Y-76784004D01*
X131031076Y-76784005D01*
X130883242Y-76863024D01*
X130722823Y-76911687D01*
X130597804Y-76924000D01*
X130514196Y-76924000D01*
X130389177Y-76911687D01*
X130228758Y-76863024D01*
X130080924Y-76784005D01*
X130080922Y-76784004D01*
X129951341Y-76677659D01*
X129844996Y-76548078D01*
X129836886Y-76532906D01*
X129765976Y-76400242D01*
X129717313Y-76239823D01*
X129700883Y-76073000D01*
X129717313Y-75906177D01*
X129765976Y-75745758D01*
X129844995Y-75597924D01*
X129844996Y-75597922D01*
X129951341Y-75468341D01*
X130080922Y-75361996D01*
X130096094Y-75353886D01*
X130228758Y-75282976D01*
X130389177Y-75234313D01*
X130514196Y-75222000D01*
X130597804Y-75222000D01*
X130722823Y-75234313D01*
X130722823Y-75234313D01*
G37*
G36*
X104433823Y-75234313D02*
G01*
X104594242Y-75282976D01*
X104726906Y-75353886D01*
X104742078Y-75361996D01*
X104871659Y-75468341D01*
X104978004Y-75597922D01*
X104978005Y-75597924D01*
X105057024Y-75745758D01*
X105105687Y-75906177D01*
X105122117Y-76073000D01*
X105105687Y-76239823D01*
X105057024Y-76400242D01*
X104986114Y-76532906D01*
X104978004Y-76548078D01*
X104871659Y-76677659D01*
X104742078Y-76784004D01*
X104742076Y-76784005D01*
X104594242Y-76863024D01*
X104433823Y-76911687D01*
X104308804Y-76924000D01*
X104225196Y-76924000D01*
X104100177Y-76911687D01*
X103939758Y-76863024D01*
X103791924Y-76784005D01*
X103791922Y-76784004D01*
X103662341Y-76677659D01*
X103555996Y-76548078D01*
X103547886Y-76532906D01*
X103476976Y-76400242D01*
X103428313Y-76239823D01*
X103411883Y-76073000D01*
X103428313Y-75906177D01*
X103476976Y-75745758D01*
X103555995Y-75597924D01*
X103555996Y-75597922D01*
X103662341Y-75468341D01*
X103791922Y-75361996D01*
X103807094Y-75353886D01*
X103939758Y-75282976D01*
X104100177Y-75234313D01*
X104225196Y-75222000D01*
X104308804Y-75222000D01*
X104433823Y-75234313D01*
X104433823Y-75234313D01*
G37*
G36*
X133389823Y-73075313D02*
G01*
X133550242Y-73123976D01*
X133659435Y-73182341D01*
X133698078Y-73202996D01*
X133827659Y-73309341D01*
X133934004Y-73438922D01*
X133934005Y-73438924D01*
X134013024Y-73586758D01*
X134061687Y-73747177D01*
X134078117Y-73914000D01*
X134061687Y-74080823D01*
X134013024Y-74241242D01*
X133942114Y-74373906D01*
X133934004Y-74389078D01*
X133827659Y-74518659D01*
X133698078Y-74625004D01*
X133698076Y-74625005D01*
X133550242Y-74704024D01*
X133389823Y-74752687D01*
X133264804Y-74765000D01*
X133181196Y-74765000D01*
X133056177Y-74752687D01*
X132895758Y-74704024D01*
X132747924Y-74625005D01*
X132747922Y-74625004D01*
X132618341Y-74518659D01*
X132511996Y-74389078D01*
X132503886Y-74373906D01*
X132432976Y-74241242D01*
X132384313Y-74080823D01*
X132367883Y-73914000D01*
X132384313Y-73747177D01*
X132432976Y-73586758D01*
X132511995Y-73438924D01*
X132511996Y-73438922D01*
X132618341Y-73309341D01*
X132747922Y-73202996D01*
X132786565Y-73182341D01*
X132895758Y-73123976D01*
X133056177Y-73075313D01*
X133181196Y-73063000D01*
X133264804Y-73063000D01*
X133389823Y-73075313D01*
X133389823Y-73075313D01*
G37*
G36*
X190539823Y-72948313D02*
G01*
X190700242Y-72996976D01*
X190823764Y-73063000D01*
X190848078Y-73075996D01*
X190977659Y-73182341D01*
X191084004Y-73311922D01*
X191084005Y-73311924D01*
X191163024Y-73459758D01*
X191211687Y-73620177D01*
X191228117Y-73787000D01*
X191211687Y-73953823D01*
X191163024Y-74114242D01*
X191095143Y-74241239D01*
X191084004Y-74262078D01*
X190977659Y-74391659D01*
X190848078Y-74498004D01*
X190848076Y-74498005D01*
X190700242Y-74577024D01*
X190539823Y-74625687D01*
X190414804Y-74638000D01*
X190331196Y-74638000D01*
X190206177Y-74625687D01*
X190045758Y-74577024D01*
X189897924Y-74498005D01*
X189897922Y-74498004D01*
X189768341Y-74391659D01*
X189661996Y-74262078D01*
X189650857Y-74241239D01*
X189582976Y-74114242D01*
X189534313Y-73953823D01*
X189517883Y-73787000D01*
X189534313Y-73620177D01*
X189582976Y-73459758D01*
X189661995Y-73311924D01*
X189661996Y-73311922D01*
X189768341Y-73182341D01*
X189897922Y-73075996D01*
X189922236Y-73063000D01*
X190045758Y-72996976D01*
X190206177Y-72948313D01*
X190331196Y-72936000D01*
X190414804Y-72936000D01*
X190539823Y-72948313D01*
X190539823Y-72948313D01*
G37*
G36*
X148330228Y-70809703D02*
G01*
X148485100Y-70873853D01*
X148624481Y-70966985D01*
X148743015Y-71085519D01*
X148836147Y-71224900D01*
X148900297Y-71379772D01*
X148933000Y-71544184D01*
X148933000Y-71711816D01*
X148900297Y-71876228D01*
X148836147Y-72031100D01*
X148743015Y-72170481D01*
X148624481Y-72289015D01*
X148485100Y-72382147D01*
X148330228Y-72446297D01*
X148165816Y-72479000D01*
X147998184Y-72479000D01*
X147833772Y-72446297D01*
X147678900Y-72382147D01*
X147539519Y-72289015D01*
X147420985Y-72170481D01*
X147327853Y-72031100D01*
X147263703Y-71876228D01*
X147231000Y-71711816D01*
X147231000Y-71544184D01*
X147263703Y-71379772D01*
X147327853Y-71224900D01*
X147420985Y-71085519D01*
X147539519Y-70966985D01*
X147678900Y-70873853D01*
X147833772Y-70809703D01*
X147998184Y-70777000D01*
X148165816Y-70777000D01*
X148330228Y-70809703D01*
X148330228Y-70809703D01*
G37*
G36*
X168650228Y-70809703D02*
G01*
X168805100Y-70873853D01*
X168944481Y-70966985D01*
X169063015Y-71085519D01*
X169156147Y-71224900D01*
X169220297Y-71379772D01*
X169253000Y-71544184D01*
X169253000Y-71711816D01*
X169220297Y-71876228D01*
X169156147Y-72031100D01*
X169063015Y-72170481D01*
X168944481Y-72289015D01*
X168805100Y-72382147D01*
X168650228Y-72446297D01*
X168485816Y-72479000D01*
X168318184Y-72479000D01*
X168153772Y-72446297D01*
X167998900Y-72382147D01*
X167859519Y-72289015D01*
X167740985Y-72170481D01*
X167647853Y-72031100D01*
X167583703Y-71876228D01*
X167551000Y-71711816D01*
X167551000Y-71544184D01*
X167583703Y-71379772D01*
X167647853Y-71224900D01*
X167740985Y-71085519D01*
X167859519Y-70966985D01*
X167998900Y-70873853D01*
X168153772Y-70809703D01*
X168318184Y-70777000D01*
X168485816Y-70777000D01*
X168650228Y-70809703D01*
X168650228Y-70809703D01*
G37*
G36*
X140710228Y-70809703D02*
G01*
X140865100Y-70873853D01*
X141004481Y-70966985D01*
X141123015Y-71085519D01*
X141216147Y-71224900D01*
X141280297Y-71379772D01*
X141313000Y-71544184D01*
X141313000Y-71711816D01*
X141280297Y-71876228D01*
X141216147Y-72031100D01*
X141123015Y-72170481D01*
X141004481Y-72289015D01*
X140865100Y-72382147D01*
X140710228Y-72446297D01*
X140545816Y-72479000D01*
X140378184Y-72479000D01*
X140213772Y-72446297D01*
X140058900Y-72382147D01*
X139919519Y-72289015D01*
X139800985Y-72170481D01*
X139707853Y-72031100D01*
X139643703Y-71876228D01*
X139611000Y-71711816D01*
X139611000Y-71544184D01*
X139643703Y-71379772D01*
X139707853Y-71224900D01*
X139800985Y-71085519D01*
X139919519Y-70966985D01*
X140058900Y-70873853D01*
X140213772Y-70809703D01*
X140378184Y-70777000D01*
X140545816Y-70777000D01*
X140710228Y-70809703D01*
X140710228Y-70809703D01*
G37*
G36*
X143250228Y-70809703D02*
G01*
X143405100Y-70873853D01*
X143544481Y-70966985D01*
X143663015Y-71085519D01*
X143756147Y-71224900D01*
X143820297Y-71379772D01*
X143853000Y-71544184D01*
X143853000Y-71711816D01*
X143820297Y-71876228D01*
X143756147Y-72031100D01*
X143663015Y-72170481D01*
X143544481Y-72289015D01*
X143405100Y-72382147D01*
X143250228Y-72446297D01*
X143085816Y-72479000D01*
X142918184Y-72479000D01*
X142753772Y-72446297D01*
X142598900Y-72382147D01*
X142459519Y-72289015D01*
X142340985Y-72170481D01*
X142247853Y-72031100D01*
X142183703Y-71876228D01*
X142151000Y-71711816D01*
X142151000Y-71544184D01*
X142183703Y-71379772D01*
X142247853Y-71224900D01*
X142340985Y-71085519D01*
X142459519Y-70966985D01*
X142598900Y-70873853D01*
X142753772Y-70809703D01*
X142918184Y-70777000D01*
X143085816Y-70777000D01*
X143250228Y-70809703D01*
X143250228Y-70809703D01*
G37*
G36*
X145790228Y-70809703D02*
G01*
X145945100Y-70873853D01*
X146084481Y-70966985D01*
X146203015Y-71085519D01*
X146296147Y-71224900D01*
X146360297Y-71379772D01*
X146393000Y-71544184D01*
X146393000Y-71711816D01*
X146360297Y-71876228D01*
X146296147Y-72031100D01*
X146203015Y-72170481D01*
X146084481Y-72289015D01*
X145945100Y-72382147D01*
X145790228Y-72446297D01*
X145625816Y-72479000D01*
X145458184Y-72479000D01*
X145293772Y-72446297D01*
X145138900Y-72382147D01*
X144999519Y-72289015D01*
X144880985Y-72170481D01*
X144787853Y-72031100D01*
X144723703Y-71876228D01*
X144691000Y-71711816D01*
X144691000Y-71544184D01*
X144723703Y-71379772D01*
X144787853Y-71224900D01*
X144880985Y-71085519D01*
X144999519Y-70966985D01*
X145138900Y-70873853D01*
X145293772Y-70809703D01*
X145458184Y-70777000D01*
X145625816Y-70777000D01*
X145790228Y-70809703D01*
X145790228Y-70809703D01*
G37*
G36*
X166110228Y-70809703D02*
G01*
X166265100Y-70873853D01*
X166404481Y-70966985D01*
X166523015Y-71085519D01*
X166616147Y-71224900D01*
X166680297Y-71379772D01*
X166713000Y-71544184D01*
X166713000Y-71711816D01*
X166680297Y-71876228D01*
X166616147Y-72031100D01*
X166523015Y-72170481D01*
X166404481Y-72289015D01*
X166265100Y-72382147D01*
X166110228Y-72446297D01*
X165945816Y-72479000D01*
X165778184Y-72479000D01*
X165613772Y-72446297D01*
X165458900Y-72382147D01*
X165319519Y-72289015D01*
X165200985Y-72170481D01*
X165107853Y-72031100D01*
X165043703Y-71876228D01*
X165011000Y-71711816D01*
X165011000Y-71544184D01*
X165043703Y-71379772D01*
X165107853Y-71224900D01*
X165200985Y-71085519D01*
X165319519Y-70966985D01*
X165458900Y-70873853D01*
X165613772Y-70809703D01*
X165778184Y-70777000D01*
X165945816Y-70777000D01*
X166110228Y-70809703D01*
X166110228Y-70809703D01*
G37*
G36*
X163570228Y-70809703D02*
G01*
X163725100Y-70873853D01*
X163864481Y-70966985D01*
X163983015Y-71085519D01*
X164076147Y-71224900D01*
X164140297Y-71379772D01*
X164173000Y-71544184D01*
X164173000Y-71711816D01*
X164140297Y-71876228D01*
X164076147Y-72031100D01*
X163983015Y-72170481D01*
X163864481Y-72289015D01*
X163725100Y-72382147D01*
X163570228Y-72446297D01*
X163405816Y-72479000D01*
X163238184Y-72479000D01*
X163073772Y-72446297D01*
X162918900Y-72382147D01*
X162779519Y-72289015D01*
X162660985Y-72170481D01*
X162567853Y-72031100D01*
X162503703Y-71876228D01*
X162471000Y-71711816D01*
X162471000Y-71544184D01*
X162503703Y-71379772D01*
X162567853Y-71224900D01*
X162660985Y-71085519D01*
X162779519Y-70966985D01*
X162918900Y-70873853D01*
X163073772Y-70809703D01*
X163238184Y-70777000D01*
X163405816Y-70777000D01*
X163570228Y-70809703D01*
X163570228Y-70809703D01*
G37*
G36*
X150870228Y-70809703D02*
G01*
X151025100Y-70873853D01*
X151164481Y-70966985D01*
X151283015Y-71085519D01*
X151376147Y-71224900D01*
X151440297Y-71379772D01*
X151473000Y-71544184D01*
X151473000Y-71711816D01*
X151440297Y-71876228D01*
X151376147Y-72031100D01*
X151283015Y-72170481D01*
X151164481Y-72289015D01*
X151025100Y-72382147D01*
X150870228Y-72446297D01*
X150705816Y-72479000D01*
X150538184Y-72479000D01*
X150373772Y-72446297D01*
X150218900Y-72382147D01*
X150079519Y-72289015D01*
X149960985Y-72170481D01*
X149867853Y-72031100D01*
X149803703Y-71876228D01*
X149771000Y-71711816D01*
X149771000Y-71544184D01*
X149803703Y-71379772D01*
X149867853Y-71224900D01*
X149960985Y-71085519D01*
X150079519Y-70966985D01*
X150218900Y-70873853D01*
X150373772Y-70809703D01*
X150538184Y-70777000D01*
X150705816Y-70777000D01*
X150870228Y-70809703D01*
X150870228Y-70809703D01*
G37*
G36*
X153410228Y-70809703D02*
G01*
X153565100Y-70873853D01*
X153704481Y-70966985D01*
X153823015Y-71085519D01*
X153916147Y-71224900D01*
X153980297Y-71379772D01*
X154013000Y-71544184D01*
X154013000Y-71711816D01*
X153980297Y-71876228D01*
X153916147Y-72031100D01*
X153823015Y-72170481D01*
X153704481Y-72289015D01*
X153565100Y-72382147D01*
X153410228Y-72446297D01*
X153245816Y-72479000D01*
X153078184Y-72479000D01*
X152913772Y-72446297D01*
X152758900Y-72382147D01*
X152619519Y-72289015D01*
X152500985Y-72170481D01*
X152407853Y-72031100D01*
X152343703Y-71876228D01*
X152311000Y-71711816D01*
X152311000Y-71544184D01*
X152343703Y-71379772D01*
X152407853Y-71224900D01*
X152500985Y-71085519D01*
X152619519Y-70966985D01*
X152758900Y-70873853D01*
X152913772Y-70809703D01*
X153078184Y-70777000D01*
X153245816Y-70777000D01*
X153410228Y-70809703D01*
X153410228Y-70809703D01*
G37*
G36*
X155950228Y-70809703D02*
G01*
X156105100Y-70873853D01*
X156244481Y-70966985D01*
X156363015Y-71085519D01*
X156456147Y-71224900D01*
X156520297Y-71379772D01*
X156553000Y-71544184D01*
X156553000Y-71711816D01*
X156520297Y-71876228D01*
X156456147Y-72031100D01*
X156363015Y-72170481D01*
X156244481Y-72289015D01*
X156105100Y-72382147D01*
X155950228Y-72446297D01*
X155785816Y-72479000D01*
X155618184Y-72479000D01*
X155453772Y-72446297D01*
X155298900Y-72382147D01*
X155159519Y-72289015D01*
X155040985Y-72170481D01*
X154947853Y-72031100D01*
X154883703Y-71876228D01*
X154851000Y-71711816D01*
X154851000Y-71544184D01*
X154883703Y-71379772D01*
X154947853Y-71224900D01*
X155040985Y-71085519D01*
X155159519Y-70966985D01*
X155298900Y-70873853D01*
X155453772Y-70809703D01*
X155618184Y-70777000D01*
X155785816Y-70777000D01*
X155950228Y-70809703D01*
X155950228Y-70809703D01*
G37*
G36*
X158490228Y-70809703D02*
G01*
X158645100Y-70873853D01*
X158784481Y-70966985D01*
X158903015Y-71085519D01*
X158996147Y-71224900D01*
X159060297Y-71379772D01*
X159093000Y-71544184D01*
X159093000Y-71711816D01*
X159060297Y-71876228D01*
X158996147Y-72031100D01*
X158903015Y-72170481D01*
X158784481Y-72289015D01*
X158645100Y-72382147D01*
X158490228Y-72446297D01*
X158325816Y-72479000D01*
X158158184Y-72479000D01*
X157993772Y-72446297D01*
X157838900Y-72382147D01*
X157699519Y-72289015D01*
X157580985Y-72170481D01*
X157487853Y-72031100D01*
X157423703Y-71876228D01*
X157391000Y-71711816D01*
X157391000Y-71544184D01*
X157423703Y-71379772D01*
X157487853Y-71224900D01*
X157580985Y-71085519D01*
X157699519Y-70966985D01*
X157838900Y-70873853D01*
X157993772Y-70809703D01*
X158158184Y-70777000D01*
X158325816Y-70777000D01*
X158490228Y-70809703D01*
X158490228Y-70809703D01*
G37*
G36*
X161030228Y-70809703D02*
G01*
X161185100Y-70873853D01*
X161324481Y-70966985D01*
X161443015Y-71085519D01*
X161536147Y-71224900D01*
X161600297Y-71379772D01*
X161633000Y-71544184D01*
X161633000Y-71711816D01*
X161600297Y-71876228D01*
X161536147Y-72031100D01*
X161443015Y-72170481D01*
X161324481Y-72289015D01*
X161185100Y-72382147D01*
X161030228Y-72446297D01*
X160865816Y-72479000D01*
X160698184Y-72479000D01*
X160533772Y-72446297D01*
X160378900Y-72382147D01*
X160239519Y-72289015D01*
X160120985Y-72170481D01*
X160027853Y-72031100D01*
X159963703Y-71876228D01*
X159931000Y-71711816D01*
X159931000Y-71544184D01*
X159963703Y-71379772D01*
X160027853Y-71224900D01*
X160120985Y-71085519D01*
X160239519Y-70966985D01*
X160378900Y-70873853D01*
X160533772Y-70809703D01*
X160698184Y-70777000D01*
X160865816Y-70777000D01*
X161030228Y-70809703D01*
X161030228Y-70809703D01*
G37*
G36*
X172759823Y-69265313D02*
G01*
X172920242Y-69313976D01*
X173052906Y-69384886D01*
X173068078Y-69392996D01*
X173197659Y-69499341D01*
X173304004Y-69628922D01*
X173304005Y-69628924D01*
X173383024Y-69776758D01*
X173431687Y-69937177D01*
X173448117Y-70104000D01*
X173431687Y-70270823D01*
X173383024Y-70431242D01*
X173312114Y-70563906D01*
X173304004Y-70579078D01*
X173197659Y-70708659D01*
X173068078Y-70815004D01*
X173068076Y-70815005D01*
X172920242Y-70894024D01*
X172759823Y-70942687D01*
X172634804Y-70955000D01*
X172551196Y-70955000D01*
X172426177Y-70942687D01*
X172265758Y-70894024D01*
X172117924Y-70815005D01*
X172117922Y-70815004D01*
X171988341Y-70708659D01*
X171881996Y-70579078D01*
X171873886Y-70563906D01*
X171802976Y-70431242D01*
X171754313Y-70270823D01*
X171737883Y-70104000D01*
X171754313Y-69937177D01*
X171802976Y-69776758D01*
X171881995Y-69628924D01*
X171881996Y-69628922D01*
X171988341Y-69499341D01*
X172117922Y-69392996D01*
X172133094Y-69384886D01*
X172265758Y-69313976D01*
X172426177Y-69265313D01*
X172551196Y-69253000D01*
X172634804Y-69253000D01*
X172759823Y-69265313D01*
X172759823Y-69265313D01*
G37*
G36*
X181064000Y-70955000D02*
G01*
X179362000Y-70955000D01*
X179362000Y-69253000D01*
X181064000Y-69253000D01*
X181064000Y-70955000D01*
X181064000Y-70955000D01*
G37*
G36*
X126708000Y-65875000D02*
G01*
X125006000Y-65875000D01*
X125006000Y-64173000D01*
X126708000Y-64173000D01*
X126708000Y-65875000D01*
X126708000Y-65875000D01*
G37*
G36*
X164808000Y-65875000D02*
G01*
X163106000Y-65875000D01*
X163106000Y-64173000D01*
X164808000Y-64173000D01*
X164808000Y-65875000D01*
X164808000Y-65875000D01*
G37*
G36*
X183731000Y-65875000D02*
G01*
X182029000Y-65875000D01*
X182029000Y-64173000D01*
X183731000Y-64173000D01*
X183731000Y-65875000D01*
X183731000Y-65875000D01*
G37*
G36*
X145631000Y-65875000D02*
G01*
X143929000Y-65875000D01*
X143929000Y-64173000D01*
X145631000Y-64173000D01*
X145631000Y-65875000D01*
X145631000Y-65875000D01*
G37*
G36*
X102578000Y-65875000D02*
G01*
X100876000Y-65875000D01*
X100876000Y-64173000D01*
X102578000Y-64173000D01*
X102578000Y-65875000D01*
X102578000Y-65875000D01*
G37*
G36*
X186398000Y-63335000D02*
G01*
X184696000Y-63335000D01*
X184696000Y-61633000D01*
X186398000Y-61633000D01*
X186398000Y-63335000D01*
X186398000Y-63335000D01*
G37*
G36*
X105844630Y-58084776D02*
G01*
X106225343Y-58160504D01*
X106634999Y-58330189D01*
X107003679Y-58576534D01*
X107317216Y-58890071D01*
X107563561Y-59258751D01*
X107733246Y-59668407D01*
X107819750Y-60103296D01*
X107819750Y-60546704D01*
X107733246Y-60981593D01*
X107563561Y-61391249D01*
X107317216Y-61759929D01*
X107003679Y-62073466D01*
X106634999Y-62319811D01*
X106225343Y-62489496D01*
X105844630Y-62565224D01*
X105790455Y-62576000D01*
X105347045Y-62576000D01*
X105292870Y-62565224D01*
X104912157Y-62489496D01*
X104502501Y-62319811D01*
X104133821Y-62073466D01*
X103820284Y-61759929D01*
X103573939Y-61391249D01*
X103404254Y-60981593D01*
X103317750Y-60546704D01*
X103317750Y-60103296D01*
X103404254Y-59668407D01*
X103573939Y-59258751D01*
X103820284Y-58890071D01*
X104133821Y-58576534D01*
X104502501Y-58330189D01*
X104912157Y-58160504D01*
X105292870Y-58084776D01*
X105347045Y-58074000D01*
X105790455Y-58074000D01*
X105844630Y-58084776D01*
X105844630Y-58084776D01*
G37*
G36*
X137121474Y-58358684D02*
G01*
X137339474Y-58448983D01*
X137493623Y-58512833D01*
X137828548Y-58736623D01*
X138113377Y-59021452D01*
X138337167Y-59356377D01*
X138369562Y-59434586D01*
X138491316Y-59728526D01*
X138569900Y-60123594D01*
X138569900Y-60526406D01*
X138491316Y-60921474D01*
X138440451Y-61044272D01*
X138337167Y-61293623D01*
X138113377Y-61628548D01*
X137828548Y-61913377D01*
X137493623Y-62137167D01*
X137339474Y-62201017D01*
X137121474Y-62291316D01*
X136726406Y-62369900D01*
X136323594Y-62369900D01*
X135928526Y-62291316D01*
X135710526Y-62201017D01*
X135556377Y-62137167D01*
X135221452Y-61913377D01*
X134936623Y-61628548D01*
X134712833Y-61293623D01*
X134609549Y-61044272D01*
X134558684Y-60921474D01*
X134480100Y-60526406D01*
X134480100Y-60123594D01*
X134558684Y-59728526D01*
X134680438Y-59434586D01*
X134712833Y-59356377D01*
X134936623Y-59021452D01*
X135221452Y-58736623D01*
X135556377Y-58512833D01*
X135710526Y-58448983D01*
X135928526Y-58358684D01*
X136323594Y-58280100D01*
X136726406Y-58280100D01*
X137121474Y-58358684D01*
X137121474Y-58358684D01*
G37*
G36*
X194271474Y-58358684D02*
G01*
X194489474Y-58448983D01*
X194643623Y-58512833D01*
X194978548Y-58736623D01*
X195263377Y-59021452D01*
X195487167Y-59356377D01*
X195519562Y-59434586D01*
X195641316Y-59728526D01*
X195719900Y-60123594D01*
X195719900Y-60526406D01*
X195641316Y-60921474D01*
X195590451Y-61044272D01*
X195487167Y-61293623D01*
X195263377Y-61628548D01*
X194978548Y-61913377D01*
X194643623Y-62137167D01*
X194489474Y-62201017D01*
X194271474Y-62291316D01*
X193876406Y-62369900D01*
X193473594Y-62369900D01*
X193078526Y-62291316D01*
X192860526Y-62201017D01*
X192706377Y-62137167D01*
X192371452Y-61913377D01*
X192086623Y-61628548D01*
X191862833Y-61293623D01*
X191759549Y-61044272D01*
X191708684Y-60921474D01*
X191630100Y-60526406D01*
X191630100Y-60123594D01*
X191708684Y-59728526D01*
X191830438Y-59434586D01*
X191862833Y-59356377D01*
X192086623Y-59021452D01*
X192371452Y-58736623D01*
X192706377Y-58512833D01*
X192860526Y-58448983D01*
X193078526Y-58358684D01*
X193473594Y-58280100D01*
X193876406Y-58280100D01*
X194271474Y-58358684D01*
X194271474Y-58358684D01*
G37*
G36*
X156171474Y-58358684D02*
G01*
X156389474Y-58448983D01*
X156543623Y-58512833D01*
X156878548Y-58736623D01*
X157163377Y-59021452D01*
X157387167Y-59356377D01*
X157419562Y-59434586D01*
X157541316Y-59728526D01*
X157619900Y-60123594D01*
X157619900Y-60526406D01*
X157541316Y-60921474D01*
X157490451Y-61044272D01*
X157387167Y-61293623D01*
X157163377Y-61628548D01*
X156878548Y-61913377D01*
X156543623Y-62137167D01*
X156389474Y-62201017D01*
X156171474Y-62291316D01*
X155776406Y-62369900D01*
X155373594Y-62369900D01*
X154978526Y-62291316D01*
X154760526Y-62201017D01*
X154606377Y-62137167D01*
X154271452Y-61913377D01*
X153986623Y-61628548D01*
X153762833Y-61293623D01*
X153659549Y-61044272D01*
X153608684Y-60921474D01*
X153530100Y-60526406D01*
X153530100Y-60123594D01*
X153608684Y-59728526D01*
X153730438Y-59434586D01*
X153762833Y-59356377D01*
X153986623Y-59021452D01*
X154271452Y-58736623D01*
X154606377Y-58512833D01*
X154760526Y-58448983D01*
X154978526Y-58358684D01*
X155373594Y-58280100D01*
X155776406Y-58280100D01*
X156171474Y-58358684D01*
X156171474Y-58358684D01*
G37*
G36*
X175221474Y-58358684D02*
G01*
X175439474Y-58448983D01*
X175593623Y-58512833D01*
X175928548Y-58736623D01*
X176213377Y-59021452D01*
X176437167Y-59356377D01*
X176469562Y-59434586D01*
X176591316Y-59728526D01*
X176669900Y-60123594D01*
X176669900Y-60526406D01*
X176591316Y-60921474D01*
X176540451Y-61044272D01*
X176437167Y-61293623D01*
X176213377Y-61628548D01*
X175928548Y-61913377D01*
X175593623Y-62137167D01*
X175439474Y-62201017D01*
X175221474Y-62291316D01*
X174826406Y-62369900D01*
X174423594Y-62369900D01*
X174028526Y-62291316D01*
X173810526Y-62201017D01*
X173656377Y-62137167D01*
X173321452Y-61913377D01*
X173036623Y-61628548D01*
X172812833Y-61293623D01*
X172709549Y-61044272D01*
X172658684Y-60921474D01*
X172580100Y-60526406D01*
X172580100Y-60123594D01*
X172658684Y-59728526D01*
X172780438Y-59434586D01*
X172812833Y-59356377D01*
X173036623Y-59021452D01*
X173321452Y-58736623D01*
X173656377Y-58512833D01*
X173810526Y-58448983D01*
X174028526Y-58358684D01*
X174423594Y-58280100D01*
X174826406Y-58280100D01*
X175221474Y-58358684D01*
X175221474Y-58358684D01*
G37*
G36*
X118071474Y-58358684D02*
G01*
X118289474Y-58448983D01*
X118443623Y-58512833D01*
X118778548Y-58736623D01*
X119063377Y-59021452D01*
X119287167Y-59356377D01*
X119319562Y-59434586D01*
X119441316Y-59728526D01*
X119519900Y-60123594D01*
X119519900Y-60526406D01*
X119441316Y-60921474D01*
X119390451Y-61044272D01*
X119287167Y-61293623D01*
X119063377Y-61628548D01*
X118778548Y-61913377D01*
X118443623Y-62137167D01*
X118289474Y-62201017D01*
X118071474Y-62291316D01*
X117676406Y-62369900D01*
X117273594Y-62369900D01*
X116878526Y-62291316D01*
X116660526Y-62201017D01*
X116506377Y-62137167D01*
X116171452Y-61913377D01*
X115886623Y-61628548D01*
X115662833Y-61293623D01*
X115559549Y-61044272D01*
X115508684Y-60921474D01*
X115430100Y-60526406D01*
X115430100Y-60123594D01*
X115508684Y-59728526D01*
X115630438Y-59434586D01*
X115662833Y-59356377D01*
X115886623Y-59021452D01*
X116171452Y-58736623D01*
X116506377Y-58512833D01*
X116660526Y-58448983D01*
X116878526Y-58358684D01*
X117273594Y-58280100D01*
X117676406Y-58280100D01*
X118071474Y-58358684D01*
X118071474Y-58358684D01*
G37*
G36*
X94258974Y-58358684D02*
G01*
X94476974Y-58448983D01*
X94631123Y-58512833D01*
X94966048Y-58736623D01*
X95250877Y-59021452D01*
X95474667Y-59356377D01*
X95507062Y-59434586D01*
X95628816Y-59728526D01*
X95707400Y-60123594D01*
X95707400Y-60526406D01*
X95628816Y-60921474D01*
X95577951Y-61044272D01*
X95474667Y-61293623D01*
X95250877Y-61628548D01*
X94966048Y-61913377D01*
X94631123Y-62137167D01*
X94476974Y-62201017D01*
X94258974Y-62291316D01*
X93863906Y-62369900D01*
X93461094Y-62369900D01*
X93066026Y-62291316D01*
X92848026Y-62201017D01*
X92693877Y-62137167D01*
X92358952Y-61913377D01*
X92074123Y-61628548D01*
X91850333Y-61293623D01*
X91747049Y-61044272D01*
X91696184Y-60921474D01*
X91617600Y-60526406D01*
X91617600Y-60123594D01*
X91696184Y-59728526D01*
X91817938Y-59434586D01*
X91850333Y-59356377D01*
X92074123Y-59021452D01*
X92358952Y-58736623D01*
X92693877Y-58512833D01*
X92848026Y-58448983D01*
X93066026Y-58358684D01*
X93461094Y-58280100D01*
X93863906Y-58280100D01*
X94258974Y-58358684D01*
X94258974Y-58358684D01*
G37*
G36*
X188865104Y-59434585D02*
G01*
X189033626Y-59504389D01*
X189185291Y-59605728D01*
X189314272Y-59734709D01*
X189415611Y-59886374D01*
X189485415Y-60054896D01*
X189521000Y-60233797D01*
X189521000Y-60416203D01*
X189485415Y-60595104D01*
X189415611Y-60763626D01*
X189314272Y-60915291D01*
X189185291Y-61044272D01*
X189033626Y-61145611D01*
X188865104Y-61215415D01*
X188686203Y-61251000D01*
X188503797Y-61251000D01*
X188324896Y-61215415D01*
X188156374Y-61145611D01*
X188004709Y-61044272D01*
X187875728Y-60915291D01*
X187774389Y-60763626D01*
X187704585Y-60595104D01*
X187669000Y-60416203D01*
X187669000Y-60233797D01*
X187704585Y-60054896D01*
X187774389Y-59886374D01*
X187875728Y-59734709D01*
X188004709Y-59605728D01*
X188156374Y-59504389D01*
X188324896Y-59434585D01*
X188503797Y-59399000D01*
X188686203Y-59399000D01*
X188865104Y-59434585D01*
X188865104Y-59434585D01*
G37*
G36*
X122825104Y-59434585D02*
G01*
X122993626Y-59504389D01*
X123145291Y-59605728D01*
X123274272Y-59734709D01*
X123375611Y-59886374D01*
X123445415Y-60054896D01*
X123481000Y-60233797D01*
X123481000Y-60416203D01*
X123445415Y-60595104D01*
X123375611Y-60763626D01*
X123274272Y-60915291D01*
X123145291Y-61044272D01*
X122993626Y-61145611D01*
X122825104Y-61215415D01*
X122646203Y-61251000D01*
X122463797Y-61251000D01*
X122284896Y-61215415D01*
X122116374Y-61145611D01*
X121964709Y-61044272D01*
X121835728Y-60915291D01*
X121734389Y-60763626D01*
X121664585Y-60595104D01*
X121629000Y-60416203D01*
X121629000Y-60233797D01*
X121664585Y-60054896D01*
X121734389Y-59886374D01*
X121835728Y-59734709D01*
X121964709Y-59605728D01*
X122116374Y-59504389D01*
X122284896Y-59434585D01*
X122463797Y-59399000D01*
X122646203Y-59399000D01*
X122825104Y-59434585D01*
X122825104Y-59434585D01*
G37*
G36*
X199025104Y-59434585D02*
G01*
X199193626Y-59504389D01*
X199345291Y-59605728D01*
X199474272Y-59734709D01*
X199575611Y-59886374D01*
X199645415Y-60054896D01*
X199681000Y-60233797D01*
X199681000Y-60416203D01*
X199645415Y-60595104D01*
X199575611Y-60763626D01*
X199474272Y-60915291D01*
X199345291Y-61044272D01*
X199193626Y-61145611D01*
X199025104Y-61215415D01*
X198846203Y-61251000D01*
X198663797Y-61251000D01*
X198484896Y-61215415D01*
X198316374Y-61145611D01*
X198164709Y-61044272D01*
X198035728Y-60915291D01*
X197934389Y-60763626D01*
X197864585Y-60595104D01*
X197829000Y-60416203D01*
X197829000Y-60233797D01*
X197864585Y-60054896D01*
X197934389Y-59886374D01*
X198035728Y-59734709D01*
X198164709Y-59605728D01*
X198316374Y-59504389D01*
X198484896Y-59434585D01*
X198663797Y-59399000D01*
X198846203Y-59399000D01*
X199025104Y-59434585D01*
X199025104Y-59434585D01*
G37*
G36*
X169815104Y-59434585D02*
G01*
X169983626Y-59504389D01*
X170135291Y-59605728D01*
X170264272Y-59734709D01*
X170365611Y-59886374D01*
X170435415Y-60054896D01*
X170471000Y-60233797D01*
X170471000Y-60416203D01*
X170435415Y-60595104D01*
X170365611Y-60763626D01*
X170264272Y-60915291D01*
X170135291Y-61044272D01*
X169983626Y-61145611D01*
X169815104Y-61215415D01*
X169636203Y-61251000D01*
X169453797Y-61251000D01*
X169274896Y-61215415D01*
X169106374Y-61145611D01*
X168954709Y-61044272D01*
X168825728Y-60915291D01*
X168724389Y-60763626D01*
X168654585Y-60595104D01*
X168619000Y-60416203D01*
X168619000Y-60233797D01*
X168654585Y-60054896D01*
X168724389Y-59886374D01*
X168825728Y-59734709D01*
X168954709Y-59605728D01*
X169106374Y-59504389D01*
X169274896Y-59434585D01*
X169453797Y-59399000D01*
X169636203Y-59399000D01*
X169815104Y-59434585D01*
X169815104Y-59434585D01*
G37*
G36*
X88852604Y-59434585D02*
G01*
X89021126Y-59504389D01*
X89172791Y-59605728D01*
X89301772Y-59734709D01*
X89403111Y-59886374D01*
X89472915Y-60054896D01*
X89508500Y-60233797D01*
X89508500Y-60416203D01*
X89472915Y-60595104D01*
X89403111Y-60763626D01*
X89301772Y-60915291D01*
X89172791Y-61044272D01*
X89021126Y-61145611D01*
X88852604Y-61215415D01*
X88673703Y-61251000D01*
X88491297Y-61251000D01*
X88312396Y-61215415D01*
X88143874Y-61145611D01*
X87992209Y-61044272D01*
X87863228Y-60915291D01*
X87761889Y-60763626D01*
X87692085Y-60595104D01*
X87656500Y-60416203D01*
X87656500Y-60233797D01*
X87692085Y-60054896D01*
X87761889Y-59886374D01*
X87863228Y-59734709D01*
X87992209Y-59605728D01*
X88143874Y-59504389D01*
X88312396Y-59434585D01*
X88491297Y-59399000D01*
X88673703Y-59399000D01*
X88852604Y-59434585D01*
X88852604Y-59434585D01*
G37*
G36*
X99012604Y-59434585D02*
G01*
X99181126Y-59504389D01*
X99332791Y-59605728D01*
X99461772Y-59734709D01*
X99563111Y-59886374D01*
X99632915Y-60054896D01*
X99668500Y-60233797D01*
X99668500Y-60416203D01*
X99632915Y-60595104D01*
X99563111Y-60763626D01*
X99461772Y-60915291D01*
X99332791Y-61044272D01*
X99181126Y-61145611D01*
X99012604Y-61215415D01*
X98833703Y-61251000D01*
X98651297Y-61251000D01*
X98472396Y-61215415D01*
X98303874Y-61145611D01*
X98152209Y-61044272D01*
X98023228Y-60915291D01*
X97921889Y-60763626D01*
X97852085Y-60595104D01*
X97816500Y-60416203D01*
X97816500Y-60233797D01*
X97852085Y-60054896D01*
X97921889Y-59886374D01*
X98023228Y-59734709D01*
X98152209Y-59605728D01*
X98303874Y-59504389D01*
X98472396Y-59434585D01*
X98651297Y-59399000D01*
X98833703Y-59399000D01*
X99012604Y-59434585D01*
X99012604Y-59434585D01*
G37*
G36*
X160925104Y-59434585D02*
G01*
X161093626Y-59504389D01*
X161245291Y-59605728D01*
X161374272Y-59734709D01*
X161475611Y-59886374D01*
X161545415Y-60054896D01*
X161581000Y-60233797D01*
X161581000Y-60416203D01*
X161545415Y-60595104D01*
X161475611Y-60763626D01*
X161374272Y-60915291D01*
X161245291Y-61044272D01*
X161093626Y-61145611D01*
X160925104Y-61215415D01*
X160746203Y-61251000D01*
X160563797Y-61251000D01*
X160384896Y-61215415D01*
X160216374Y-61145611D01*
X160064709Y-61044272D01*
X159935728Y-60915291D01*
X159834389Y-60763626D01*
X159764585Y-60595104D01*
X159729000Y-60416203D01*
X159729000Y-60233797D01*
X159764585Y-60054896D01*
X159834389Y-59886374D01*
X159935728Y-59734709D01*
X160064709Y-59605728D01*
X160216374Y-59504389D01*
X160384896Y-59434585D01*
X160563797Y-59399000D01*
X160746203Y-59399000D01*
X160925104Y-59434585D01*
X160925104Y-59434585D01*
G37*
G36*
X112665104Y-59434585D02*
G01*
X112833626Y-59504389D01*
X112985291Y-59605728D01*
X113114272Y-59734709D01*
X113215611Y-59886374D01*
X113285415Y-60054896D01*
X113321000Y-60233797D01*
X113321000Y-60416203D01*
X113285415Y-60595104D01*
X113215611Y-60763626D01*
X113114272Y-60915291D01*
X112985291Y-61044272D01*
X112833626Y-61145611D01*
X112665104Y-61215415D01*
X112486203Y-61251000D01*
X112303797Y-61251000D01*
X112124896Y-61215415D01*
X111956374Y-61145611D01*
X111804709Y-61044272D01*
X111675728Y-60915291D01*
X111574389Y-60763626D01*
X111504585Y-60595104D01*
X111469000Y-60416203D01*
X111469000Y-60233797D01*
X111504585Y-60054896D01*
X111574389Y-59886374D01*
X111675728Y-59734709D01*
X111804709Y-59605728D01*
X111956374Y-59504389D01*
X112124896Y-59434585D01*
X112303797Y-59399000D01*
X112486203Y-59399000D01*
X112665104Y-59434585D01*
X112665104Y-59434585D01*
G37*
G36*
X179975104Y-59434585D02*
G01*
X180143626Y-59504389D01*
X180295291Y-59605728D01*
X180424272Y-59734709D01*
X180525611Y-59886374D01*
X180595415Y-60054896D01*
X180631000Y-60233797D01*
X180631000Y-60416203D01*
X180595415Y-60595104D01*
X180525611Y-60763626D01*
X180424272Y-60915291D01*
X180295291Y-61044272D01*
X180143626Y-61145611D01*
X179975104Y-61215415D01*
X179796203Y-61251000D01*
X179613797Y-61251000D01*
X179434896Y-61215415D01*
X179266374Y-61145611D01*
X179114709Y-61044272D01*
X178985728Y-60915291D01*
X178884389Y-60763626D01*
X178814585Y-60595104D01*
X178779000Y-60416203D01*
X178779000Y-60233797D01*
X178814585Y-60054896D01*
X178884389Y-59886374D01*
X178985728Y-59734709D01*
X179114709Y-59605728D01*
X179266374Y-59504389D01*
X179434896Y-59434585D01*
X179613797Y-59399000D01*
X179796203Y-59399000D01*
X179975104Y-59434585D01*
X179975104Y-59434585D01*
G37*
G36*
X131715104Y-59434585D02*
G01*
X131883626Y-59504389D01*
X132035291Y-59605728D01*
X132164272Y-59734709D01*
X132265611Y-59886374D01*
X132335415Y-60054896D01*
X132371000Y-60233797D01*
X132371000Y-60416203D01*
X132335415Y-60595104D01*
X132265611Y-60763626D01*
X132164272Y-60915291D01*
X132035291Y-61044272D01*
X131883626Y-61145611D01*
X131715104Y-61215415D01*
X131536203Y-61251000D01*
X131353797Y-61251000D01*
X131174896Y-61215415D01*
X131006374Y-61145611D01*
X130854709Y-61044272D01*
X130725728Y-60915291D01*
X130624389Y-60763626D01*
X130554585Y-60595104D01*
X130519000Y-60416203D01*
X130519000Y-60233797D01*
X130554585Y-60054896D01*
X130624389Y-59886374D01*
X130725728Y-59734709D01*
X130854709Y-59605728D01*
X131006374Y-59504389D01*
X131174896Y-59434585D01*
X131353797Y-59399000D01*
X131536203Y-59399000D01*
X131715104Y-59434585D01*
X131715104Y-59434585D01*
G37*
G36*
X141875104Y-59434585D02*
G01*
X142043626Y-59504389D01*
X142195291Y-59605728D01*
X142324272Y-59734709D01*
X142425611Y-59886374D01*
X142495415Y-60054896D01*
X142531000Y-60233797D01*
X142531000Y-60416203D01*
X142495415Y-60595104D01*
X142425611Y-60763626D01*
X142324272Y-60915291D01*
X142195291Y-61044272D01*
X142043626Y-61145611D01*
X141875104Y-61215415D01*
X141696203Y-61251000D01*
X141513797Y-61251000D01*
X141334896Y-61215415D01*
X141166374Y-61145611D01*
X141014709Y-61044272D01*
X140885728Y-60915291D01*
X140784389Y-60763626D01*
X140714585Y-60595104D01*
X140679000Y-60416203D01*
X140679000Y-60233797D01*
X140714585Y-60054896D01*
X140784389Y-59886374D01*
X140885728Y-59734709D01*
X141014709Y-59605728D01*
X141166374Y-59504389D01*
X141334896Y-59434585D01*
X141513797Y-59399000D01*
X141696203Y-59399000D01*
X141875104Y-59434585D01*
X141875104Y-59434585D01*
G37*
G36*
X150765104Y-59434585D02*
G01*
X150933626Y-59504389D01*
X151085291Y-59605728D01*
X151214272Y-59734709D01*
X151315611Y-59886374D01*
X151385415Y-60054896D01*
X151421000Y-60233797D01*
X151421000Y-60416203D01*
X151385415Y-60595104D01*
X151315611Y-60763626D01*
X151214272Y-60915291D01*
X151085291Y-61044272D01*
X150933626Y-61145611D01*
X150765104Y-61215415D01*
X150586203Y-61251000D01*
X150403797Y-61251000D01*
X150224896Y-61215415D01*
X150056374Y-61145611D01*
X149904709Y-61044272D01*
X149775728Y-60915291D01*
X149674389Y-60763626D01*
X149604585Y-60595104D01*
X149569000Y-60416203D01*
X149569000Y-60233797D01*
X149604585Y-60054896D01*
X149674389Y-59886374D01*
X149775728Y-59734709D01*
X149904709Y-59605728D01*
X150056374Y-59504389D01*
X150224896Y-59434585D01*
X150403797Y-59399000D01*
X150586203Y-59399000D01*
X150765104Y-59434585D01*
X150765104Y-59434585D01*
G37*
G36*
X183046823Y-56565313D02*
G01*
X183207242Y-56613976D01*
X183339906Y-56684886D01*
X183355078Y-56692996D01*
X183484659Y-56799341D01*
X183591004Y-56928922D01*
X183591005Y-56928924D01*
X183670024Y-57076758D01*
X183718687Y-57237177D01*
X183735117Y-57404000D01*
X183718687Y-57570823D01*
X183670024Y-57731242D01*
X183599114Y-57863906D01*
X183591004Y-57879078D01*
X183484659Y-58008659D01*
X183355078Y-58115004D01*
X183355076Y-58115005D01*
X183207242Y-58194024D01*
X183046823Y-58242687D01*
X182921804Y-58255000D01*
X182838196Y-58255000D01*
X182713177Y-58242687D01*
X182552758Y-58194024D01*
X182404924Y-58115005D01*
X182404922Y-58115004D01*
X182275341Y-58008659D01*
X182168996Y-57879078D01*
X182160886Y-57863906D01*
X182089976Y-57731242D01*
X182041313Y-57570823D01*
X182024883Y-57404000D01*
X182041313Y-57237177D01*
X182089976Y-57076758D01*
X182168995Y-56928924D01*
X182168996Y-56928922D01*
X182275341Y-56799341D01*
X182404922Y-56692996D01*
X182420094Y-56684886D01*
X182552758Y-56613976D01*
X182713177Y-56565313D01*
X182838196Y-56553000D01*
X182921804Y-56553000D01*
X183046823Y-56565313D01*
X183046823Y-56565313D01*
G37*
G36*
X164123823Y-56565313D02*
G01*
X164284242Y-56613976D01*
X164416906Y-56684886D01*
X164432078Y-56692996D01*
X164561659Y-56799341D01*
X164668004Y-56928922D01*
X164668005Y-56928924D01*
X164747024Y-57076758D01*
X164795687Y-57237177D01*
X164812117Y-57404000D01*
X164795687Y-57570823D01*
X164747024Y-57731242D01*
X164676114Y-57863906D01*
X164668004Y-57879078D01*
X164561659Y-58008659D01*
X164432078Y-58115004D01*
X164432076Y-58115005D01*
X164284242Y-58194024D01*
X164123823Y-58242687D01*
X163998804Y-58255000D01*
X163915196Y-58255000D01*
X163790177Y-58242687D01*
X163629758Y-58194024D01*
X163481924Y-58115005D01*
X163481922Y-58115004D01*
X163352341Y-58008659D01*
X163245996Y-57879078D01*
X163237886Y-57863906D01*
X163166976Y-57731242D01*
X163118313Y-57570823D01*
X163101883Y-57404000D01*
X163118313Y-57237177D01*
X163166976Y-57076758D01*
X163245995Y-56928924D01*
X163245996Y-56928922D01*
X163352341Y-56799341D01*
X163481922Y-56692996D01*
X163497094Y-56684886D01*
X163629758Y-56613976D01*
X163790177Y-56565313D01*
X163915196Y-56553000D01*
X163998804Y-56553000D01*
X164123823Y-56565313D01*
X164123823Y-56565313D01*
G37*
G36*
X144946823Y-56565313D02*
G01*
X145107242Y-56613976D01*
X145239906Y-56684886D01*
X145255078Y-56692996D01*
X145384659Y-56799341D01*
X145491004Y-56928922D01*
X145491005Y-56928924D01*
X145570024Y-57076758D01*
X145618687Y-57237177D01*
X145635117Y-57404000D01*
X145618687Y-57570823D01*
X145570024Y-57731242D01*
X145499114Y-57863906D01*
X145491004Y-57879078D01*
X145384659Y-58008659D01*
X145255078Y-58115004D01*
X145255076Y-58115005D01*
X145107242Y-58194024D01*
X144946823Y-58242687D01*
X144821804Y-58255000D01*
X144738196Y-58255000D01*
X144613177Y-58242687D01*
X144452758Y-58194024D01*
X144304924Y-58115005D01*
X144304922Y-58115004D01*
X144175341Y-58008659D01*
X144068996Y-57879078D01*
X144060886Y-57863906D01*
X143989976Y-57731242D01*
X143941313Y-57570823D01*
X143924883Y-57404000D01*
X143941313Y-57237177D01*
X143989976Y-57076758D01*
X144068995Y-56928924D01*
X144068996Y-56928922D01*
X144175341Y-56799341D01*
X144304922Y-56692996D01*
X144320094Y-56684886D01*
X144452758Y-56613976D01*
X144613177Y-56565313D01*
X144738196Y-56553000D01*
X144821804Y-56553000D01*
X144946823Y-56565313D01*
X144946823Y-56565313D01*
G37*
G36*
X126023823Y-56565313D02*
G01*
X126184242Y-56613976D01*
X126316906Y-56684886D01*
X126332078Y-56692996D01*
X126461659Y-56799341D01*
X126568004Y-56928922D01*
X126568005Y-56928924D01*
X126647024Y-57076758D01*
X126695687Y-57237177D01*
X126712117Y-57404000D01*
X126695687Y-57570823D01*
X126647024Y-57731242D01*
X126576114Y-57863906D01*
X126568004Y-57879078D01*
X126461659Y-58008659D01*
X126332078Y-58115004D01*
X126332076Y-58115005D01*
X126184242Y-58194024D01*
X126023823Y-58242687D01*
X125898804Y-58255000D01*
X125815196Y-58255000D01*
X125690177Y-58242687D01*
X125529758Y-58194024D01*
X125381924Y-58115005D01*
X125381922Y-58115004D01*
X125252341Y-58008659D01*
X125145996Y-57879078D01*
X125137886Y-57863906D01*
X125066976Y-57731242D01*
X125018313Y-57570823D01*
X125001883Y-57404000D01*
X125018313Y-57237177D01*
X125066976Y-57076758D01*
X125145995Y-56928924D01*
X125145996Y-56928922D01*
X125252341Y-56799341D01*
X125381922Y-56692996D01*
X125397094Y-56684886D01*
X125529758Y-56613976D01*
X125690177Y-56565313D01*
X125815196Y-56553000D01*
X125898804Y-56553000D01*
X126023823Y-56565313D01*
X126023823Y-56565313D01*
G37*
G36*
X101893823Y-56565313D02*
G01*
X102054242Y-56613976D01*
X102186906Y-56684886D01*
X102202078Y-56692996D01*
X102331659Y-56799341D01*
X102438004Y-56928922D01*
X102438005Y-56928924D01*
X102517024Y-57076758D01*
X102565687Y-57237177D01*
X102582117Y-57404000D01*
X102565687Y-57570823D01*
X102517024Y-57731242D01*
X102446114Y-57863906D01*
X102438004Y-57879078D01*
X102331659Y-58008659D01*
X102202078Y-58115004D01*
X102202076Y-58115005D01*
X102054242Y-58194024D01*
X101893823Y-58242687D01*
X101768804Y-58255000D01*
X101685196Y-58255000D01*
X101560177Y-58242687D01*
X101399758Y-58194024D01*
X101251924Y-58115005D01*
X101251922Y-58115004D01*
X101122341Y-58008659D01*
X101015996Y-57879078D01*
X101007886Y-57863906D01*
X100936976Y-57731242D01*
X100888313Y-57570823D01*
X100871883Y-57404000D01*
X100888313Y-57237177D01*
X100936976Y-57076758D01*
X101015995Y-56928924D01*
X101015996Y-56928922D01*
X101122341Y-56799341D01*
X101251922Y-56692996D01*
X101267094Y-56684886D01*
X101399758Y-56613976D01*
X101560177Y-56565313D01*
X101685196Y-56553000D01*
X101768804Y-56553000D01*
X101893823Y-56565313D01*
X101893823Y-56565313D01*
G37*
G36*
X185713823Y-54025313D02*
G01*
X185874242Y-54073976D01*
X186006906Y-54144886D01*
X186022078Y-54152996D01*
X186151659Y-54259341D01*
X186258004Y-54388922D01*
X186258005Y-54388924D01*
X186337024Y-54536758D01*
X186385687Y-54697177D01*
X186402117Y-54864000D01*
X186385687Y-55030823D01*
X186337024Y-55191242D01*
X186266114Y-55323906D01*
X186258004Y-55339078D01*
X186151659Y-55468659D01*
X186022078Y-55575004D01*
X186022076Y-55575005D01*
X185874242Y-55654024D01*
X185713823Y-55702687D01*
X185588804Y-55715000D01*
X185505196Y-55715000D01*
X185380177Y-55702687D01*
X185219758Y-55654024D01*
X185071924Y-55575005D01*
X185071922Y-55575004D01*
X184942341Y-55468659D01*
X184835996Y-55339078D01*
X184827886Y-55323906D01*
X184756976Y-55191242D01*
X184708313Y-55030823D01*
X184691883Y-54864000D01*
X184708313Y-54697177D01*
X184756976Y-54536758D01*
X184835995Y-54388924D01*
X184835996Y-54388922D01*
X184942341Y-54259341D01*
X185071922Y-54152996D01*
X185087094Y-54144886D01*
X185219758Y-54073976D01*
X185380177Y-54025313D01*
X185505196Y-54013000D01*
X185588804Y-54013000D01*
X185713823Y-54025313D01*
X185713823Y-54025313D01*
G37*
G36*
X193950880Y-48559776D02*
G01*
X194331593Y-48635504D01*
X194741249Y-48805189D01*
X195109929Y-49051534D01*
X195423466Y-49365071D01*
X195669811Y-49733751D01*
X195839496Y-50143407D01*
X195926000Y-50578296D01*
X195926000Y-51021704D01*
X195839496Y-51456593D01*
X195669811Y-51866249D01*
X195423466Y-52234929D01*
X195109929Y-52548466D01*
X194741249Y-52794811D01*
X194331593Y-52964496D01*
X193950880Y-53040224D01*
X193896705Y-53051000D01*
X193453295Y-53051000D01*
X193399120Y-53040224D01*
X193018407Y-52964496D01*
X192608751Y-52794811D01*
X192240071Y-52548466D01*
X191926534Y-52234929D01*
X191680189Y-51866249D01*
X191510504Y-51456593D01*
X191424000Y-51021704D01*
X191424000Y-50578296D01*
X191510504Y-50143407D01*
X191680189Y-49733751D01*
X191926534Y-49365071D01*
X192240071Y-49051534D01*
X192608751Y-48805189D01*
X193018407Y-48635504D01*
X193399120Y-48559776D01*
X193453295Y-48549000D01*
X193896705Y-48549000D01*
X193950880Y-48559776D01*
X193950880Y-48559776D01*
G37*
G36*
X98133000Y-47714000D02*
G01*
X96431000Y-47714000D01*
X96431000Y-46012000D01*
X98133000Y-46012000D01*
X98133000Y-47714000D01*
X98133000Y-47714000D01*
G37*
G36*
X193129000Y-47714000D02*
G01*
X191427000Y-47714000D01*
X191427000Y-46012000D01*
X193129000Y-46012000D01*
X193129000Y-47714000D01*
X193129000Y-47714000D01*
G37*
G36*
X174460000Y-47714000D02*
G01*
X172758000Y-47714000D01*
X172758000Y-46012000D01*
X174460000Y-46012000D01*
X174460000Y-47714000D01*
X174460000Y-47714000D01*
G37*
G36*
X117183000Y-47714000D02*
G01*
X115481000Y-47714000D01*
X115481000Y-46012000D01*
X117183000Y-46012000D01*
X117183000Y-47714000D01*
X117183000Y-47714000D01*
G37*
G36*
X155029000Y-47714000D02*
G01*
X153327000Y-47714000D01*
X153327000Y-46012000D01*
X155029000Y-46012000D01*
X155029000Y-47714000D01*
X155029000Y-47714000D01*
G37*
G36*
X136360000Y-47714000D02*
G01*
X134658000Y-47714000D01*
X134658000Y-46012000D01*
X136360000Y-46012000D01*
X136360000Y-47714000D01*
X136360000Y-47714000D01*
G37*
G36*
X195796000Y-44412000D02*
G01*
X194094000Y-44412000D01*
X194094000Y-42710000D01*
X195796000Y-42710000D01*
X195796000Y-44412000D01*
X195796000Y-44412000D01*
G37*
G36*
X146646474Y-39308684D02*
G01*
X146864474Y-39398983D01*
X147018623Y-39462833D01*
X147353548Y-39686623D01*
X147638377Y-39971452D01*
X147862167Y-40306377D01*
X147894562Y-40384586D01*
X148016316Y-40678526D01*
X148094900Y-41073594D01*
X148094900Y-41476406D01*
X148016316Y-41871474D01*
X147965451Y-41994272D01*
X147862167Y-42243623D01*
X147638377Y-42578548D01*
X147353548Y-42863377D01*
X147018623Y-43087167D01*
X146864474Y-43151017D01*
X146646474Y-43241316D01*
X146251406Y-43319900D01*
X145848594Y-43319900D01*
X145453526Y-43241316D01*
X145235526Y-43151017D01*
X145081377Y-43087167D01*
X144746452Y-42863377D01*
X144461623Y-42578548D01*
X144237833Y-42243623D01*
X144134549Y-41994272D01*
X144083684Y-41871474D01*
X144005100Y-41476406D01*
X144005100Y-41073594D01*
X144083684Y-40678526D01*
X144205438Y-40384586D01*
X144237833Y-40306377D01*
X144461623Y-39971452D01*
X144746452Y-39686623D01*
X145081377Y-39462833D01*
X145235526Y-39398983D01*
X145453526Y-39308684D01*
X145848594Y-39230100D01*
X146251406Y-39230100D01*
X146646474Y-39308684D01*
X146646474Y-39308684D01*
G37*
G36*
X89496474Y-39308684D02*
G01*
X89714474Y-39398983D01*
X89868623Y-39462833D01*
X90203548Y-39686623D01*
X90488377Y-39971452D01*
X90712167Y-40306377D01*
X90744562Y-40384586D01*
X90866316Y-40678526D01*
X90944900Y-41073594D01*
X90944900Y-41476406D01*
X90866316Y-41871474D01*
X90815451Y-41994272D01*
X90712167Y-42243623D01*
X90488377Y-42578548D01*
X90203548Y-42863377D01*
X89868623Y-43087167D01*
X89714474Y-43151017D01*
X89496474Y-43241316D01*
X89101406Y-43319900D01*
X88698594Y-43319900D01*
X88303526Y-43241316D01*
X88085526Y-43151017D01*
X87931377Y-43087167D01*
X87596452Y-42863377D01*
X87311623Y-42578548D01*
X87087833Y-42243623D01*
X86984549Y-41994272D01*
X86933684Y-41871474D01*
X86855100Y-41476406D01*
X86855100Y-41073594D01*
X86933684Y-40678526D01*
X87055438Y-40384586D01*
X87087833Y-40306377D01*
X87311623Y-39971452D01*
X87596452Y-39686623D01*
X87931377Y-39462833D01*
X88085526Y-39398983D01*
X88303526Y-39308684D01*
X88698594Y-39230100D01*
X89101406Y-39230100D01*
X89496474Y-39308684D01*
X89496474Y-39308684D01*
G37*
G36*
X165696474Y-39308684D02*
G01*
X165914474Y-39398983D01*
X166068623Y-39462833D01*
X166403548Y-39686623D01*
X166688377Y-39971452D01*
X166912167Y-40306377D01*
X166944562Y-40384586D01*
X167066316Y-40678526D01*
X167144900Y-41073594D01*
X167144900Y-41476406D01*
X167066316Y-41871474D01*
X167015451Y-41994272D01*
X166912167Y-42243623D01*
X166688377Y-42578548D01*
X166403548Y-42863377D01*
X166068623Y-43087167D01*
X165914474Y-43151017D01*
X165696474Y-43241316D01*
X165301406Y-43319900D01*
X164898594Y-43319900D01*
X164503526Y-43241316D01*
X164285526Y-43151017D01*
X164131377Y-43087167D01*
X163796452Y-42863377D01*
X163511623Y-42578548D01*
X163287833Y-42243623D01*
X163184549Y-41994272D01*
X163133684Y-41871474D01*
X163055100Y-41476406D01*
X163055100Y-41073594D01*
X163133684Y-40678526D01*
X163255438Y-40384586D01*
X163287833Y-40306377D01*
X163511623Y-39971452D01*
X163796452Y-39686623D01*
X164131377Y-39462833D01*
X164285526Y-39398983D01*
X164503526Y-39308684D01*
X164898594Y-39230100D01*
X165301406Y-39230100D01*
X165696474Y-39308684D01*
X165696474Y-39308684D01*
G37*
G36*
X127596474Y-39308684D02*
G01*
X127814474Y-39398983D01*
X127968623Y-39462833D01*
X128303548Y-39686623D01*
X128588377Y-39971452D01*
X128812167Y-40306377D01*
X128844562Y-40384586D01*
X128966316Y-40678526D01*
X129044900Y-41073594D01*
X129044900Y-41476406D01*
X128966316Y-41871474D01*
X128915451Y-41994272D01*
X128812167Y-42243623D01*
X128588377Y-42578548D01*
X128303548Y-42863377D01*
X127968623Y-43087167D01*
X127814474Y-43151017D01*
X127596474Y-43241316D01*
X127201406Y-43319900D01*
X126798594Y-43319900D01*
X126403526Y-43241316D01*
X126185526Y-43151017D01*
X126031377Y-43087167D01*
X125696452Y-42863377D01*
X125411623Y-42578548D01*
X125187833Y-42243623D01*
X125084549Y-41994272D01*
X125033684Y-41871474D01*
X124955100Y-41476406D01*
X124955100Y-41073594D01*
X125033684Y-40678526D01*
X125155438Y-40384586D01*
X125187833Y-40306377D01*
X125411623Y-39971452D01*
X125696452Y-39686623D01*
X126031377Y-39462833D01*
X126185526Y-39398983D01*
X126403526Y-39308684D01*
X126798594Y-39230100D01*
X127201406Y-39230100D01*
X127596474Y-39308684D01*
X127596474Y-39308684D01*
G37*
G36*
X203796474Y-39308684D02*
G01*
X204014474Y-39398983D01*
X204168623Y-39462833D01*
X204503548Y-39686623D01*
X204788377Y-39971452D01*
X205012167Y-40306377D01*
X205044562Y-40384586D01*
X205166316Y-40678526D01*
X205244900Y-41073594D01*
X205244900Y-41476406D01*
X205166316Y-41871474D01*
X205115451Y-41994272D01*
X205012167Y-42243623D01*
X204788377Y-42578548D01*
X204503548Y-42863377D01*
X204168623Y-43087167D01*
X204014474Y-43151017D01*
X203796474Y-43241316D01*
X203401406Y-43319900D01*
X202998594Y-43319900D01*
X202603526Y-43241316D01*
X202385526Y-43151017D01*
X202231377Y-43087167D01*
X201896452Y-42863377D01*
X201611623Y-42578548D01*
X201387833Y-42243623D01*
X201284549Y-41994272D01*
X201233684Y-41871474D01*
X201155100Y-41476406D01*
X201155100Y-41073594D01*
X201233684Y-40678526D01*
X201355438Y-40384586D01*
X201387833Y-40306377D01*
X201611623Y-39971452D01*
X201896452Y-39686623D01*
X202231377Y-39462833D01*
X202385526Y-39398983D01*
X202603526Y-39308684D01*
X202998594Y-39230100D01*
X203401406Y-39230100D01*
X203796474Y-39308684D01*
X203796474Y-39308684D01*
G37*
G36*
X108546474Y-39308684D02*
G01*
X108764474Y-39398983D01*
X108918623Y-39462833D01*
X109253548Y-39686623D01*
X109538377Y-39971452D01*
X109762167Y-40306377D01*
X109794562Y-40384586D01*
X109916316Y-40678526D01*
X109994900Y-41073594D01*
X109994900Y-41476406D01*
X109916316Y-41871474D01*
X109865451Y-41994272D01*
X109762167Y-42243623D01*
X109538377Y-42578548D01*
X109253548Y-42863377D01*
X108918623Y-43087167D01*
X108764474Y-43151017D01*
X108546474Y-43241316D01*
X108151406Y-43319900D01*
X107748594Y-43319900D01*
X107353526Y-43241316D01*
X107135526Y-43151017D01*
X106981377Y-43087167D01*
X106646452Y-42863377D01*
X106361623Y-42578548D01*
X106137833Y-42243623D01*
X106034549Y-41994272D01*
X105983684Y-41871474D01*
X105905100Y-41476406D01*
X105905100Y-41073594D01*
X105983684Y-40678526D01*
X106105438Y-40384586D01*
X106137833Y-40306377D01*
X106361623Y-39971452D01*
X106646452Y-39686623D01*
X106981377Y-39462833D01*
X107135526Y-39398983D01*
X107353526Y-39308684D01*
X107748594Y-39230100D01*
X108151406Y-39230100D01*
X108546474Y-39308684D01*
X108546474Y-39308684D01*
G37*
G36*
X184746474Y-39308684D02*
G01*
X184964474Y-39398983D01*
X185118623Y-39462833D01*
X185453548Y-39686623D01*
X185738377Y-39971452D01*
X185962167Y-40306377D01*
X185994562Y-40384586D01*
X186116316Y-40678526D01*
X186194900Y-41073594D01*
X186194900Y-41476406D01*
X186116316Y-41871474D01*
X186065451Y-41994272D01*
X185962167Y-42243623D01*
X185738377Y-42578548D01*
X185453548Y-42863377D01*
X185118623Y-43087167D01*
X184964474Y-43151017D01*
X184746474Y-43241316D01*
X184351406Y-43319900D01*
X183948594Y-43319900D01*
X183553526Y-43241316D01*
X183335526Y-43151017D01*
X183181377Y-43087167D01*
X182846452Y-42863377D01*
X182561623Y-42578548D01*
X182337833Y-42243623D01*
X182234549Y-41994272D01*
X182183684Y-41871474D01*
X182105100Y-41476406D01*
X182105100Y-41073594D01*
X182183684Y-40678526D01*
X182305438Y-40384586D01*
X182337833Y-40306377D01*
X182561623Y-39971452D01*
X182846452Y-39686623D01*
X183181377Y-39462833D01*
X183335526Y-39398983D01*
X183553526Y-39308684D01*
X183948594Y-39230100D01*
X184351406Y-39230100D01*
X184746474Y-39308684D01*
X184746474Y-39308684D01*
G37*
G36*
X179340104Y-40384585D02*
G01*
X179508626Y-40454389D01*
X179660291Y-40555728D01*
X179789272Y-40684709D01*
X179890611Y-40836374D01*
X179960415Y-41004896D01*
X179996000Y-41183797D01*
X179996000Y-41366203D01*
X179960415Y-41545104D01*
X179890611Y-41713626D01*
X179789272Y-41865291D01*
X179660291Y-41994272D01*
X179508626Y-42095611D01*
X179340104Y-42165415D01*
X179161203Y-42201000D01*
X178978797Y-42201000D01*
X178799896Y-42165415D01*
X178631374Y-42095611D01*
X178479709Y-41994272D01*
X178350728Y-41865291D01*
X178249389Y-41713626D01*
X178179585Y-41545104D01*
X178144000Y-41366203D01*
X178144000Y-41183797D01*
X178179585Y-41004896D01*
X178249389Y-40836374D01*
X178350728Y-40684709D01*
X178479709Y-40555728D01*
X178631374Y-40454389D01*
X178799896Y-40384585D01*
X178978797Y-40349000D01*
X179161203Y-40349000D01*
X179340104Y-40384585D01*
X179340104Y-40384585D01*
G37*
G36*
X151400104Y-40384585D02*
G01*
X151568626Y-40454389D01*
X151720291Y-40555728D01*
X151849272Y-40684709D01*
X151950611Y-40836374D01*
X152020415Y-41004896D01*
X152056000Y-41183797D01*
X152056000Y-41366203D01*
X152020415Y-41545104D01*
X151950611Y-41713626D01*
X151849272Y-41865291D01*
X151720291Y-41994272D01*
X151568626Y-42095611D01*
X151400104Y-42165415D01*
X151221203Y-42201000D01*
X151038797Y-42201000D01*
X150859896Y-42165415D01*
X150691374Y-42095611D01*
X150539709Y-41994272D01*
X150410728Y-41865291D01*
X150309389Y-41713626D01*
X150239585Y-41545104D01*
X150204000Y-41366203D01*
X150204000Y-41183797D01*
X150239585Y-41004896D01*
X150309389Y-40836374D01*
X150410728Y-40684709D01*
X150539709Y-40555728D01*
X150691374Y-40454389D01*
X150859896Y-40384585D01*
X151038797Y-40349000D01*
X151221203Y-40349000D01*
X151400104Y-40384585D01*
X151400104Y-40384585D01*
G37*
G36*
X189500104Y-40384585D02*
G01*
X189668626Y-40454389D01*
X189820291Y-40555728D01*
X189949272Y-40684709D01*
X190050611Y-40836374D01*
X190120415Y-41004896D01*
X190156000Y-41183797D01*
X190156000Y-41366203D01*
X190120415Y-41545104D01*
X190050611Y-41713626D01*
X189949272Y-41865291D01*
X189820291Y-41994272D01*
X189668626Y-42095611D01*
X189500104Y-42165415D01*
X189321203Y-42201000D01*
X189138797Y-42201000D01*
X188959896Y-42165415D01*
X188791374Y-42095611D01*
X188639709Y-41994272D01*
X188510728Y-41865291D01*
X188409389Y-41713626D01*
X188339585Y-41545104D01*
X188304000Y-41366203D01*
X188304000Y-41183797D01*
X188339585Y-41004896D01*
X188409389Y-40836374D01*
X188510728Y-40684709D01*
X188639709Y-40555728D01*
X188791374Y-40454389D01*
X188959896Y-40384585D01*
X189138797Y-40349000D01*
X189321203Y-40349000D01*
X189500104Y-40384585D01*
X189500104Y-40384585D01*
G37*
G36*
X141240104Y-40384585D02*
G01*
X141408626Y-40454389D01*
X141560291Y-40555728D01*
X141689272Y-40684709D01*
X141790611Y-40836374D01*
X141860415Y-41004896D01*
X141896000Y-41183797D01*
X141896000Y-41366203D01*
X141860415Y-41545104D01*
X141790611Y-41713626D01*
X141689272Y-41865291D01*
X141560291Y-41994272D01*
X141408626Y-42095611D01*
X141240104Y-42165415D01*
X141061203Y-42201000D01*
X140878797Y-42201000D01*
X140699896Y-42165415D01*
X140531374Y-42095611D01*
X140379709Y-41994272D01*
X140250728Y-41865291D01*
X140149389Y-41713626D01*
X140079585Y-41545104D01*
X140044000Y-41366203D01*
X140044000Y-41183797D01*
X140079585Y-41004896D01*
X140149389Y-40836374D01*
X140250728Y-40684709D01*
X140379709Y-40555728D01*
X140531374Y-40454389D01*
X140699896Y-40384585D01*
X140878797Y-40349000D01*
X141061203Y-40349000D01*
X141240104Y-40384585D01*
X141240104Y-40384585D01*
G37*
G36*
X94250104Y-40384585D02*
G01*
X94418626Y-40454389D01*
X94570291Y-40555728D01*
X94699272Y-40684709D01*
X94800611Y-40836374D01*
X94870415Y-41004896D01*
X94906000Y-41183797D01*
X94906000Y-41366203D01*
X94870415Y-41545104D01*
X94800611Y-41713626D01*
X94699272Y-41865291D01*
X94570291Y-41994272D01*
X94418626Y-42095611D01*
X94250104Y-42165415D01*
X94071203Y-42201000D01*
X93888797Y-42201000D01*
X93709896Y-42165415D01*
X93541374Y-42095611D01*
X93389709Y-41994272D01*
X93260728Y-41865291D01*
X93159389Y-41713626D01*
X93089585Y-41545104D01*
X93054000Y-41366203D01*
X93054000Y-41183797D01*
X93089585Y-41004896D01*
X93159389Y-40836374D01*
X93260728Y-40684709D01*
X93389709Y-40555728D01*
X93541374Y-40454389D01*
X93709896Y-40384585D01*
X93888797Y-40349000D01*
X94071203Y-40349000D01*
X94250104Y-40384585D01*
X94250104Y-40384585D01*
G37*
G36*
X84090104Y-40384585D02*
G01*
X84258626Y-40454389D01*
X84410291Y-40555728D01*
X84539272Y-40684709D01*
X84640611Y-40836374D01*
X84710415Y-41004896D01*
X84746000Y-41183797D01*
X84746000Y-41366203D01*
X84710415Y-41545104D01*
X84640611Y-41713626D01*
X84539272Y-41865291D01*
X84410291Y-41994272D01*
X84258626Y-42095611D01*
X84090104Y-42165415D01*
X83911203Y-42201000D01*
X83728797Y-42201000D01*
X83549896Y-42165415D01*
X83381374Y-42095611D01*
X83229709Y-41994272D01*
X83100728Y-41865291D01*
X82999389Y-41713626D01*
X82929585Y-41545104D01*
X82894000Y-41366203D01*
X82894000Y-41183797D01*
X82929585Y-41004896D01*
X82999389Y-40836374D01*
X83100728Y-40684709D01*
X83229709Y-40555728D01*
X83381374Y-40454389D01*
X83549896Y-40384585D01*
X83728797Y-40349000D01*
X83911203Y-40349000D01*
X84090104Y-40384585D01*
X84090104Y-40384585D01*
G37*
G36*
X132350104Y-40384585D02*
G01*
X132518626Y-40454389D01*
X132670291Y-40555728D01*
X132799272Y-40684709D01*
X132900611Y-40836374D01*
X132970415Y-41004896D01*
X133006000Y-41183797D01*
X133006000Y-41366203D01*
X132970415Y-41545104D01*
X132900611Y-41713626D01*
X132799272Y-41865291D01*
X132670291Y-41994272D01*
X132518626Y-42095611D01*
X132350104Y-42165415D01*
X132171203Y-42201000D01*
X131988797Y-42201000D01*
X131809896Y-42165415D01*
X131641374Y-42095611D01*
X131489709Y-41994272D01*
X131360728Y-41865291D01*
X131259389Y-41713626D01*
X131189585Y-41545104D01*
X131154000Y-41366203D01*
X131154000Y-41183797D01*
X131189585Y-41004896D01*
X131259389Y-40836374D01*
X131360728Y-40684709D01*
X131489709Y-40555728D01*
X131641374Y-40454389D01*
X131809896Y-40384585D01*
X131988797Y-40349000D01*
X132171203Y-40349000D01*
X132350104Y-40384585D01*
X132350104Y-40384585D01*
G37*
G36*
X208550104Y-40384585D02*
G01*
X208718626Y-40454389D01*
X208870291Y-40555728D01*
X208999272Y-40684709D01*
X209100611Y-40836374D01*
X209170415Y-41004896D01*
X209206000Y-41183797D01*
X209206000Y-41366203D01*
X209170415Y-41545104D01*
X209100611Y-41713626D01*
X208999272Y-41865291D01*
X208870291Y-41994272D01*
X208718626Y-42095611D01*
X208550104Y-42165415D01*
X208371203Y-42201000D01*
X208188797Y-42201000D01*
X208009896Y-42165415D01*
X207841374Y-42095611D01*
X207689709Y-41994272D01*
X207560728Y-41865291D01*
X207459389Y-41713626D01*
X207389585Y-41545104D01*
X207354000Y-41366203D01*
X207354000Y-41183797D01*
X207389585Y-41004896D01*
X207459389Y-40836374D01*
X207560728Y-40684709D01*
X207689709Y-40555728D01*
X207841374Y-40454389D01*
X208009896Y-40384585D01*
X208188797Y-40349000D01*
X208371203Y-40349000D01*
X208550104Y-40384585D01*
X208550104Y-40384585D01*
G37*
G36*
X160290104Y-40384585D02*
G01*
X160458626Y-40454389D01*
X160610291Y-40555728D01*
X160739272Y-40684709D01*
X160840611Y-40836374D01*
X160910415Y-41004896D01*
X160946000Y-41183797D01*
X160946000Y-41366203D01*
X160910415Y-41545104D01*
X160840611Y-41713626D01*
X160739272Y-41865291D01*
X160610291Y-41994272D01*
X160458626Y-42095611D01*
X160290104Y-42165415D01*
X160111203Y-42201000D01*
X159928797Y-42201000D01*
X159749896Y-42165415D01*
X159581374Y-42095611D01*
X159429709Y-41994272D01*
X159300728Y-41865291D01*
X159199389Y-41713626D01*
X159129585Y-41545104D01*
X159094000Y-41366203D01*
X159094000Y-41183797D01*
X159129585Y-41004896D01*
X159199389Y-40836374D01*
X159300728Y-40684709D01*
X159429709Y-40555728D01*
X159581374Y-40454389D01*
X159749896Y-40384585D01*
X159928797Y-40349000D01*
X160111203Y-40349000D01*
X160290104Y-40384585D01*
X160290104Y-40384585D01*
G37*
G36*
X170450104Y-40384585D02*
G01*
X170618626Y-40454389D01*
X170770291Y-40555728D01*
X170899272Y-40684709D01*
X171000611Y-40836374D01*
X171070415Y-41004896D01*
X171106000Y-41183797D01*
X171106000Y-41366203D01*
X171070415Y-41545104D01*
X171000611Y-41713626D01*
X170899272Y-41865291D01*
X170770291Y-41994272D01*
X170618626Y-42095611D01*
X170450104Y-42165415D01*
X170271203Y-42201000D01*
X170088797Y-42201000D01*
X169909896Y-42165415D01*
X169741374Y-42095611D01*
X169589709Y-41994272D01*
X169460728Y-41865291D01*
X169359389Y-41713626D01*
X169289585Y-41545104D01*
X169254000Y-41366203D01*
X169254000Y-41183797D01*
X169289585Y-41004896D01*
X169359389Y-40836374D01*
X169460728Y-40684709D01*
X169589709Y-40555728D01*
X169741374Y-40454389D01*
X169909896Y-40384585D01*
X170088797Y-40349000D01*
X170271203Y-40349000D01*
X170450104Y-40384585D01*
X170450104Y-40384585D01*
G37*
G36*
X122190104Y-40384585D02*
G01*
X122358626Y-40454389D01*
X122510291Y-40555728D01*
X122639272Y-40684709D01*
X122740611Y-40836374D01*
X122810415Y-41004896D01*
X122846000Y-41183797D01*
X122846000Y-41366203D01*
X122810415Y-41545104D01*
X122740611Y-41713626D01*
X122639272Y-41865291D01*
X122510291Y-41994272D01*
X122358626Y-42095611D01*
X122190104Y-42165415D01*
X122011203Y-42201000D01*
X121828797Y-42201000D01*
X121649896Y-42165415D01*
X121481374Y-42095611D01*
X121329709Y-41994272D01*
X121200728Y-41865291D01*
X121099389Y-41713626D01*
X121029585Y-41545104D01*
X120994000Y-41366203D01*
X120994000Y-41183797D01*
X121029585Y-41004896D01*
X121099389Y-40836374D01*
X121200728Y-40684709D01*
X121329709Y-40555728D01*
X121481374Y-40454389D01*
X121649896Y-40384585D01*
X121828797Y-40349000D01*
X122011203Y-40349000D01*
X122190104Y-40384585D01*
X122190104Y-40384585D01*
G37*
G36*
X113300104Y-40384585D02*
G01*
X113468626Y-40454389D01*
X113620291Y-40555728D01*
X113749272Y-40684709D01*
X113850611Y-40836374D01*
X113920415Y-41004896D01*
X113956000Y-41183797D01*
X113956000Y-41366203D01*
X113920415Y-41545104D01*
X113850611Y-41713626D01*
X113749272Y-41865291D01*
X113620291Y-41994272D01*
X113468626Y-42095611D01*
X113300104Y-42165415D01*
X113121203Y-42201000D01*
X112938797Y-42201000D01*
X112759896Y-42165415D01*
X112591374Y-42095611D01*
X112439709Y-41994272D01*
X112310728Y-41865291D01*
X112209389Y-41713626D01*
X112139585Y-41545104D01*
X112104000Y-41366203D01*
X112104000Y-41183797D01*
X112139585Y-41004896D01*
X112209389Y-40836374D01*
X112310728Y-40684709D01*
X112439709Y-40555728D01*
X112591374Y-40454389D01*
X112759896Y-40384585D01*
X112938797Y-40349000D01*
X113121203Y-40349000D01*
X113300104Y-40384585D01*
X113300104Y-40384585D01*
G37*
G36*
X103140104Y-40384585D02*
G01*
X103308626Y-40454389D01*
X103460291Y-40555728D01*
X103589272Y-40684709D01*
X103690611Y-40836374D01*
X103760415Y-41004896D01*
X103796000Y-41183797D01*
X103796000Y-41366203D01*
X103760415Y-41545104D01*
X103690611Y-41713626D01*
X103589272Y-41865291D01*
X103460291Y-41994272D01*
X103308626Y-42095611D01*
X103140104Y-42165415D01*
X102961203Y-42201000D01*
X102778797Y-42201000D01*
X102599896Y-42165415D01*
X102431374Y-42095611D01*
X102279709Y-41994272D01*
X102150728Y-41865291D01*
X102049389Y-41713626D01*
X101979585Y-41545104D01*
X101944000Y-41366203D01*
X101944000Y-41183797D01*
X101979585Y-41004896D01*
X102049389Y-40836374D01*
X102150728Y-40684709D01*
X102279709Y-40555728D01*
X102431374Y-40454389D01*
X102599896Y-40384585D01*
X102778797Y-40349000D01*
X102961203Y-40349000D01*
X103140104Y-40384585D01*
X103140104Y-40384585D01*
G37*
G36*
X198390104Y-40384585D02*
G01*
X198558626Y-40454389D01*
X198710291Y-40555728D01*
X198839272Y-40684709D01*
X198940611Y-40836374D01*
X199010415Y-41004896D01*
X199046000Y-41183797D01*
X199046000Y-41366203D01*
X199010415Y-41545104D01*
X198940611Y-41713626D01*
X198839272Y-41865291D01*
X198710291Y-41994272D01*
X198558626Y-42095611D01*
X198390104Y-42165415D01*
X198211203Y-42201000D01*
X198028797Y-42201000D01*
X197849896Y-42165415D01*
X197681374Y-42095611D01*
X197529709Y-41994272D01*
X197400728Y-41865291D01*
X197299389Y-41713626D01*
X197229585Y-41545104D01*
X197194000Y-41366203D01*
X197194000Y-41183797D01*
X197229585Y-41004896D01*
X197299389Y-40836374D01*
X197400728Y-40684709D01*
X197529709Y-40555728D01*
X197681374Y-40454389D01*
X197849896Y-40384585D01*
X198028797Y-40349000D01*
X198211203Y-40349000D01*
X198390104Y-40384585D01*
X198390104Y-40384585D01*
G37*
G36*
X135675823Y-38404313D02*
G01*
X135836242Y-38452976D01*
X135968906Y-38523886D01*
X135984078Y-38531996D01*
X136113659Y-38638341D01*
X136220004Y-38767922D01*
X136220005Y-38767924D01*
X136299024Y-38915758D01*
X136347687Y-39076177D01*
X136364117Y-39243000D01*
X136347687Y-39409823D01*
X136299024Y-39570242D01*
X136236817Y-39686623D01*
X136220004Y-39718078D01*
X136113659Y-39847659D01*
X135984078Y-39954004D01*
X135984076Y-39954005D01*
X135836242Y-40033024D01*
X135675823Y-40081687D01*
X135550804Y-40094000D01*
X135467196Y-40094000D01*
X135342177Y-40081687D01*
X135181758Y-40033024D01*
X135033924Y-39954005D01*
X135033922Y-39954004D01*
X134904341Y-39847659D01*
X134797996Y-39718078D01*
X134781183Y-39686623D01*
X134718976Y-39570242D01*
X134670313Y-39409823D01*
X134653883Y-39243000D01*
X134670313Y-39076177D01*
X134718976Y-38915758D01*
X134797995Y-38767924D01*
X134797996Y-38767922D01*
X134904341Y-38638341D01*
X135033922Y-38531996D01*
X135049094Y-38523886D01*
X135181758Y-38452976D01*
X135342177Y-38404313D01*
X135467196Y-38392000D01*
X135550804Y-38392000D01*
X135675823Y-38404313D01*
X135675823Y-38404313D01*
G37*
G36*
X116498823Y-38404313D02*
G01*
X116659242Y-38452976D01*
X116791906Y-38523886D01*
X116807078Y-38531996D01*
X116936659Y-38638341D01*
X117043004Y-38767922D01*
X117043005Y-38767924D01*
X117122024Y-38915758D01*
X117170687Y-39076177D01*
X117187117Y-39243000D01*
X117170687Y-39409823D01*
X117122024Y-39570242D01*
X117059817Y-39686623D01*
X117043004Y-39718078D01*
X116936659Y-39847659D01*
X116807078Y-39954004D01*
X116807076Y-39954005D01*
X116659242Y-40033024D01*
X116498823Y-40081687D01*
X116373804Y-40094000D01*
X116290196Y-40094000D01*
X116165177Y-40081687D01*
X116004758Y-40033024D01*
X115856924Y-39954005D01*
X115856922Y-39954004D01*
X115727341Y-39847659D01*
X115620996Y-39718078D01*
X115604183Y-39686623D01*
X115541976Y-39570242D01*
X115493313Y-39409823D01*
X115476883Y-39243000D01*
X115493313Y-39076177D01*
X115541976Y-38915758D01*
X115620995Y-38767924D01*
X115620996Y-38767922D01*
X115727341Y-38638341D01*
X115856922Y-38531996D01*
X115872094Y-38523886D01*
X116004758Y-38452976D01*
X116165177Y-38404313D01*
X116290196Y-38392000D01*
X116373804Y-38392000D01*
X116498823Y-38404313D01*
X116498823Y-38404313D01*
G37*
G36*
X97448823Y-38404313D02*
G01*
X97609242Y-38452976D01*
X97741906Y-38523886D01*
X97757078Y-38531996D01*
X97886659Y-38638341D01*
X97993004Y-38767922D01*
X97993005Y-38767924D01*
X98072024Y-38915758D01*
X98120687Y-39076177D01*
X98137117Y-39243000D01*
X98120687Y-39409823D01*
X98072024Y-39570242D01*
X98009817Y-39686623D01*
X97993004Y-39718078D01*
X97886659Y-39847659D01*
X97757078Y-39954004D01*
X97757076Y-39954005D01*
X97609242Y-40033024D01*
X97448823Y-40081687D01*
X97323804Y-40094000D01*
X97240196Y-40094000D01*
X97115177Y-40081687D01*
X96954758Y-40033024D01*
X96806924Y-39954005D01*
X96806922Y-39954004D01*
X96677341Y-39847659D01*
X96570996Y-39718078D01*
X96554183Y-39686623D01*
X96491976Y-39570242D01*
X96443313Y-39409823D01*
X96426883Y-39243000D01*
X96443313Y-39076177D01*
X96491976Y-38915758D01*
X96570995Y-38767924D01*
X96570996Y-38767922D01*
X96677341Y-38638341D01*
X96806922Y-38531996D01*
X96822094Y-38523886D01*
X96954758Y-38452976D01*
X97115177Y-38404313D01*
X97240196Y-38392000D01*
X97323804Y-38392000D01*
X97448823Y-38404313D01*
X97448823Y-38404313D01*
G37*
G36*
X154344823Y-38404313D02*
G01*
X154505242Y-38452976D01*
X154637906Y-38523886D01*
X154653078Y-38531996D01*
X154782659Y-38638341D01*
X154889004Y-38767922D01*
X154889005Y-38767924D01*
X154968024Y-38915758D01*
X155016687Y-39076177D01*
X155033117Y-39243000D01*
X155016687Y-39409823D01*
X154968024Y-39570242D01*
X154905817Y-39686623D01*
X154889004Y-39718078D01*
X154782659Y-39847659D01*
X154653078Y-39954004D01*
X154653076Y-39954005D01*
X154505242Y-40033024D01*
X154344823Y-40081687D01*
X154219804Y-40094000D01*
X154136196Y-40094000D01*
X154011177Y-40081687D01*
X153850758Y-40033024D01*
X153702924Y-39954005D01*
X153702922Y-39954004D01*
X153573341Y-39847659D01*
X153466996Y-39718078D01*
X153450183Y-39686623D01*
X153387976Y-39570242D01*
X153339313Y-39409823D01*
X153322883Y-39243000D01*
X153339313Y-39076177D01*
X153387976Y-38915758D01*
X153466995Y-38767924D01*
X153466996Y-38767922D01*
X153573341Y-38638341D01*
X153702922Y-38531996D01*
X153718094Y-38523886D01*
X153850758Y-38452976D01*
X154011177Y-38404313D01*
X154136196Y-38392000D01*
X154219804Y-38392000D01*
X154344823Y-38404313D01*
X154344823Y-38404313D01*
G37*
G36*
X173775823Y-38404313D02*
G01*
X173936242Y-38452976D01*
X174068906Y-38523886D01*
X174084078Y-38531996D01*
X174213659Y-38638341D01*
X174320004Y-38767922D01*
X174320005Y-38767924D01*
X174399024Y-38915758D01*
X174447687Y-39076177D01*
X174464117Y-39243000D01*
X174447687Y-39409823D01*
X174399024Y-39570242D01*
X174336817Y-39686623D01*
X174320004Y-39718078D01*
X174213659Y-39847659D01*
X174084078Y-39954004D01*
X174084076Y-39954005D01*
X173936242Y-40033024D01*
X173775823Y-40081687D01*
X173650804Y-40094000D01*
X173567196Y-40094000D01*
X173442177Y-40081687D01*
X173281758Y-40033024D01*
X173133924Y-39954005D01*
X173133922Y-39954004D01*
X173004341Y-39847659D01*
X172897996Y-39718078D01*
X172881183Y-39686623D01*
X172818976Y-39570242D01*
X172770313Y-39409823D01*
X172753883Y-39243000D01*
X172770313Y-39076177D01*
X172818976Y-38915758D01*
X172897995Y-38767924D01*
X172897996Y-38767922D01*
X173004341Y-38638341D01*
X173133922Y-38531996D01*
X173149094Y-38523886D01*
X173281758Y-38452976D01*
X173442177Y-38404313D01*
X173567196Y-38392000D01*
X173650804Y-38392000D01*
X173775823Y-38404313D01*
X173775823Y-38404313D01*
G37*
G36*
X192444823Y-38404313D02*
G01*
X192605242Y-38452976D01*
X192737906Y-38523886D01*
X192753078Y-38531996D01*
X192882659Y-38638341D01*
X192989004Y-38767922D01*
X192989005Y-38767924D01*
X193068024Y-38915758D01*
X193116687Y-39076177D01*
X193133117Y-39243000D01*
X193116687Y-39409823D01*
X193068024Y-39570242D01*
X193005817Y-39686623D01*
X192989004Y-39718078D01*
X192882659Y-39847659D01*
X192753078Y-39954004D01*
X192753076Y-39954005D01*
X192605242Y-40033024D01*
X192444823Y-40081687D01*
X192319804Y-40094000D01*
X192236196Y-40094000D01*
X192111177Y-40081687D01*
X191950758Y-40033024D01*
X191802924Y-39954005D01*
X191802922Y-39954004D01*
X191673341Y-39847659D01*
X191566996Y-39718078D01*
X191550183Y-39686623D01*
X191487976Y-39570242D01*
X191439313Y-39409823D01*
X191422883Y-39243000D01*
X191439313Y-39076177D01*
X191487976Y-38915758D01*
X191566995Y-38767924D01*
X191566996Y-38767922D01*
X191673341Y-38638341D01*
X191802922Y-38531996D01*
X191818094Y-38523886D01*
X191950758Y-38452976D01*
X192111177Y-38404313D01*
X192236196Y-38392000D01*
X192319804Y-38392000D01*
X192444823Y-38404313D01*
X192444823Y-38404313D01*
G37*
G36*
X195111823Y-35102313D02*
G01*
X195272242Y-35150976D01*
X195404906Y-35221886D01*
X195420078Y-35229996D01*
X195549659Y-35336341D01*
X195656004Y-35465922D01*
X195656005Y-35465924D01*
X195735024Y-35613758D01*
X195783687Y-35774177D01*
X195800117Y-35941000D01*
X195783687Y-36107823D01*
X195735024Y-36268242D01*
X195664114Y-36400906D01*
X195656004Y-36416078D01*
X195549659Y-36545659D01*
X195420078Y-36652004D01*
X195420076Y-36652005D01*
X195272242Y-36731024D01*
X195111823Y-36779687D01*
X194986804Y-36792000D01*
X194903196Y-36792000D01*
X194778177Y-36779687D01*
X194617758Y-36731024D01*
X194469924Y-36652005D01*
X194469922Y-36652004D01*
X194340341Y-36545659D01*
X194233996Y-36416078D01*
X194225886Y-36400906D01*
X194154976Y-36268242D01*
X194106313Y-36107823D01*
X194089883Y-35941000D01*
X194106313Y-35774177D01*
X194154976Y-35613758D01*
X194233995Y-35465924D01*
X194233996Y-35465922D01*
X194340341Y-35336341D01*
X194469922Y-35229996D01*
X194485094Y-35221886D01*
X194617758Y-35150976D01*
X194778177Y-35102313D01*
X194903196Y-35090000D01*
X194986804Y-35090000D01*
X195111823Y-35102313D01*
X195111823Y-35102313D01*
G37*
M02*
