G04 #@! TF.GenerationSoftware,KiCad,Pcbnew,(5.1.4-0-10_14)*
G04 #@! TF.CreationDate,2021-02-15T10:00:53-08:00*
G04 #@! TF.ProjectId,mpm62-kb-left,6d706d36-322d-46b6-922d-6c6566742e6b,rev?*
G04 #@! TF.SameCoordinates,Original*
G04 #@! TF.FileFunction,Profile,NP*
%FSLAX46Y46*%
G04 Gerber Fmt 4.6, Leading zero omitted, Abs format (unit mm)*
G04 Created by KiCad (PCBNEW (5.1.4-0-10_14)) date 2021-02-15 10:00:53*
%MOMM*%
%LPD*%
G04 APERTURE LIST*
%ADD10C,0.050000*%
G04 APERTURE END LIST*
D10*
X80962500Y-127000000D02*
X206375000Y-127000000D01*
X79375000Y-33337500D02*
X79375000Y-125412500D01*
X211137500Y-31750000D02*
X80962500Y-31750000D01*
X212725000Y-49212500D02*
X212725000Y-33337500D01*
X204787500Y-50800000D02*
X211137500Y-50800000D01*
X203200000Y-68262500D02*
X203200000Y-52387500D01*
X206375000Y-69850000D02*
X204787500Y-69850000D01*
X207962500Y-87312500D02*
X207962500Y-71437500D01*
X215900000Y-88900000D02*
X209550000Y-88900000D01*
X217487500Y-106362500D02*
X217487500Y-90487500D01*
X209550000Y-107950000D02*
X215900000Y-107950000D01*
X207962500Y-109537500D02*
X207962500Y-125412500D01*
X211137500Y-31750000D02*
G75*
G02X212725000Y-33337500I0J-1587500D01*
G01*
X212725000Y-49212500D02*
G75*
G02X211137500Y-50800000I-1587500J0D01*
G01*
X203200000Y-52387500D02*
G75*
G02X204787500Y-50800000I1587500J0D01*
G01*
X204787500Y-69850000D02*
G75*
G02X203200000Y-68262500I0J1587500D01*
G01*
X206375000Y-69850000D02*
G75*
G02X207962500Y-71437500I0J-1587500D01*
G01*
X209550000Y-88900000D02*
G75*
G02X207962500Y-87312500I0J1587500D01*
G01*
X215900000Y-88900000D02*
G75*
G02X217487500Y-90487500I0J-1587500D01*
G01*
X217487500Y-106362500D02*
G75*
G02X215900000Y-107950000I-1587500J0D01*
G01*
X207962500Y-109537500D02*
G75*
G02X209550000Y-107950000I1587500J0D01*
G01*
X207962500Y-125412500D02*
G75*
G02X206375000Y-127000000I-1587500J0D01*
G01*
X80962500Y-127000000D02*
G75*
G02X79375000Y-125412500I0J1587500D01*
G01*
X79375000Y-33337500D02*
G75*
G02X80962500Y-31750000I1587500J0D01*
G01*
M02*
